%TF.GenerationSoftware,KiCad,Pcbnew,7.0.5*%
%TF.CreationDate,2023-08-06T18:29:22-05:00*%
%TF.ProjectId,Box,426f782e-6b69-4636-9164-5f7063625858,rev?*%
%TF.SameCoordinates,Original*%
%TF.FileFunction,Legend,Bot*%
%TF.FilePolarity,Positive*%
%FSLAX46Y46*%
G04 Gerber Fmt 4.6, Leading zero omitted, Abs format (unit mm)*
G04 Created by KiCad (PCBNEW 7.0.5) date 2023-08-06 18:29:22*
%MOMM*%
%LPD*%
G01*
G04 APERTURE LIST*
%ADD10C,0.150000*%
%ADD11C,0.120000*%
G04 APERTURE END LIST*
D10*
X228440839Y-103005057D02*
X228393220Y-102957438D01*
X228393220Y-102957438D02*
X228297982Y-102909819D01*
X228297982Y-102909819D02*
X228059887Y-102909819D01*
X228059887Y-102909819D02*
X227964649Y-102957438D01*
X227964649Y-102957438D02*
X227917030Y-103005057D01*
X227917030Y-103005057D02*
X227869411Y-103100295D01*
X227869411Y-103100295D02*
X227869411Y-103195533D01*
X227869411Y-103195533D02*
X227917030Y-103338390D01*
X227917030Y-103338390D02*
X228488458Y-103909819D01*
X228488458Y-103909819D02*
X227869411Y-103909819D01*
X227488458Y-103005057D02*
X227440839Y-102957438D01*
X227440839Y-102957438D02*
X227345601Y-102909819D01*
X227345601Y-102909819D02*
X227107506Y-102909819D01*
X227107506Y-102909819D02*
X227012268Y-102957438D01*
X227012268Y-102957438D02*
X226964649Y-103005057D01*
X226964649Y-103005057D02*
X226917030Y-103100295D01*
X226917030Y-103100295D02*
X226917030Y-103195533D01*
X226917030Y-103195533D02*
X226964649Y-103338390D01*
X226964649Y-103338390D02*
X227536077Y-103909819D01*
X227536077Y-103909819D02*
X226917030Y-103909819D01*
X226297982Y-102909819D02*
X226202744Y-102909819D01*
X226202744Y-102909819D02*
X226107506Y-102957438D01*
X226107506Y-102957438D02*
X226059887Y-103005057D01*
X226059887Y-103005057D02*
X226012268Y-103100295D01*
X226012268Y-103100295D02*
X225964649Y-103290771D01*
X225964649Y-103290771D02*
X225964649Y-103528866D01*
X225964649Y-103528866D02*
X226012268Y-103719342D01*
X226012268Y-103719342D02*
X226059887Y-103814580D01*
X226059887Y-103814580D02*
X226107506Y-103862200D01*
X226107506Y-103862200D02*
X226202744Y-103909819D01*
X226202744Y-103909819D02*
X226297982Y-103909819D01*
X226297982Y-103909819D02*
X226393220Y-103862200D01*
X226393220Y-103862200D02*
X226440839Y-103814580D01*
X226440839Y-103814580D02*
X226488458Y-103719342D01*
X226488458Y-103719342D02*
X226536077Y-103528866D01*
X226536077Y-103528866D02*
X226536077Y-103290771D01*
X226536077Y-103290771D02*
X226488458Y-103100295D01*
X226488458Y-103100295D02*
X226440839Y-103005057D01*
X226440839Y-103005057D02*
X226393220Y-102957438D01*
X226393220Y-102957438D02*
X226297982Y-102909819D01*
X225774173Y-104005057D02*
X225012268Y-104005057D01*
X224583696Y-102909819D02*
X224393220Y-102909819D01*
X224393220Y-102909819D02*
X224297982Y-102957438D01*
X224297982Y-102957438D02*
X224202744Y-103052676D01*
X224202744Y-103052676D02*
X224155125Y-103243152D01*
X224155125Y-103243152D02*
X224155125Y-103576485D01*
X224155125Y-103576485D02*
X224202744Y-103766961D01*
X224202744Y-103766961D02*
X224297982Y-103862200D01*
X224297982Y-103862200D02*
X224393220Y-103909819D01*
X224393220Y-103909819D02*
X224583696Y-103909819D01*
X224583696Y-103909819D02*
X224678934Y-103862200D01*
X224678934Y-103862200D02*
X224774172Y-103766961D01*
X224774172Y-103766961D02*
X224821791Y-103576485D01*
X224821791Y-103576485D02*
X224821791Y-103243152D01*
X224821791Y-103243152D02*
X224774172Y-103052676D01*
X224774172Y-103052676D02*
X224678934Y-102957438D01*
X224678934Y-102957438D02*
X224583696Y-102909819D01*
X223726553Y-103909819D02*
X223726553Y-102909819D01*
X223297982Y-103909819D02*
X223297982Y-103386009D01*
X223297982Y-103386009D02*
X223345601Y-103290771D01*
X223345601Y-103290771D02*
X223440839Y-103243152D01*
X223440839Y-103243152D02*
X223583696Y-103243152D01*
X223583696Y-103243152D02*
X223678934Y-103290771D01*
X223678934Y-103290771D02*
X223726553Y-103338390D01*
X222821791Y-103909819D02*
X222821791Y-103243152D01*
X222821791Y-103338390D02*
X222774172Y-103290771D01*
X222774172Y-103290771D02*
X222678934Y-103243152D01*
X222678934Y-103243152D02*
X222536077Y-103243152D01*
X222536077Y-103243152D02*
X222440839Y-103290771D01*
X222440839Y-103290771D02*
X222393220Y-103386009D01*
X222393220Y-103386009D02*
X222393220Y-103909819D01*
X222393220Y-103386009D02*
X222345601Y-103290771D01*
X222345601Y-103290771D02*
X222250363Y-103243152D01*
X222250363Y-103243152D02*
X222107506Y-103243152D01*
X222107506Y-103243152D02*
X222012267Y-103290771D01*
X222012267Y-103290771D02*
X221964648Y-103386009D01*
X221964648Y-103386009D02*
X221964648Y-103909819D01*
X69890839Y-72355057D02*
X69843220Y-72307438D01*
X69843220Y-72307438D02*
X69747982Y-72259819D01*
X69747982Y-72259819D02*
X69509887Y-72259819D01*
X69509887Y-72259819D02*
X69414649Y-72307438D01*
X69414649Y-72307438D02*
X69367030Y-72355057D01*
X69367030Y-72355057D02*
X69319411Y-72450295D01*
X69319411Y-72450295D02*
X69319411Y-72545533D01*
X69319411Y-72545533D02*
X69367030Y-72688390D01*
X69367030Y-72688390D02*
X69938458Y-73259819D01*
X69938458Y-73259819D02*
X69319411Y-73259819D01*
X68938458Y-72355057D02*
X68890839Y-72307438D01*
X68890839Y-72307438D02*
X68795601Y-72259819D01*
X68795601Y-72259819D02*
X68557506Y-72259819D01*
X68557506Y-72259819D02*
X68462268Y-72307438D01*
X68462268Y-72307438D02*
X68414649Y-72355057D01*
X68414649Y-72355057D02*
X68367030Y-72450295D01*
X68367030Y-72450295D02*
X68367030Y-72545533D01*
X68367030Y-72545533D02*
X68414649Y-72688390D01*
X68414649Y-72688390D02*
X68986077Y-73259819D01*
X68986077Y-73259819D02*
X68367030Y-73259819D01*
X67747982Y-72259819D02*
X67652744Y-72259819D01*
X67652744Y-72259819D02*
X67557506Y-72307438D01*
X67557506Y-72307438D02*
X67509887Y-72355057D01*
X67509887Y-72355057D02*
X67462268Y-72450295D01*
X67462268Y-72450295D02*
X67414649Y-72640771D01*
X67414649Y-72640771D02*
X67414649Y-72878866D01*
X67414649Y-72878866D02*
X67462268Y-73069342D01*
X67462268Y-73069342D02*
X67509887Y-73164580D01*
X67509887Y-73164580D02*
X67557506Y-73212200D01*
X67557506Y-73212200D02*
X67652744Y-73259819D01*
X67652744Y-73259819D02*
X67747982Y-73259819D01*
X67747982Y-73259819D02*
X67843220Y-73212200D01*
X67843220Y-73212200D02*
X67890839Y-73164580D01*
X67890839Y-73164580D02*
X67938458Y-73069342D01*
X67938458Y-73069342D02*
X67986077Y-72878866D01*
X67986077Y-72878866D02*
X67986077Y-72640771D01*
X67986077Y-72640771D02*
X67938458Y-72450295D01*
X67938458Y-72450295D02*
X67890839Y-72355057D01*
X67890839Y-72355057D02*
X67843220Y-72307438D01*
X67843220Y-72307438D02*
X67747982Y-72259819D01*
X67224173Y-73355057D02*
X66462268Y-73355057D01*
X66033696Y-72259819D02*
X65843220Y-72259819D01*
X65843220Y-72259819D02*
X65747982Y-72307438D01*
X65747982Y-72307438D02*
X65652744Y-72402676D01*
X65652744Y-72402676D02*
X65605125Y-72593152D01*
X65605125Y-72593152D02*
X65605125Y-72926485D01*
X65605125Y-72926485D02*
X65652744Y-73116961D01*
X65652744Y-73116961D02*
X65747982Y-73212200D01*
X65747982Y-73212200D02*
X65843220Y-73259819D01*
X65843220Y-73259819D02*
X66033696Y-73259819D01*
X66033696Y-73259819D02*
X66128934Y-73212200D01*
X66128934Y-73212200D02*
X66224172Y-73116961D01*
X66224172Y-73116961D02*
X66271791Y-72926485D01*
X66271791Y-72926485D02*
X66271791Y-72593152D01*
X66271791Y-72593152D02*
X66224172Y-72402676D01*
X66224172Y-72402676D02*
X66128934Y-72307438D01*
X66128934Y-72307438D02*
X66033696Y-72259819D01*
X65176553Y-73259819D02*
X65176553Y-72259819D01*
X64747982Y-73259819D02*
X64747982Y-72736009D01*
X64747982Y-72736009D02*
X64795601Y-72640771D01*
X64795601Y-72640771D02*
X64890839Y-72593152D01*
X64890839Y-72593152D02*
X65033696Y-72593152D01*
X65033696Y-72593152D02*
X65128934Y-72640771D01*
X65128934Y-72640771D02*
X65176553Y-72688390D01*
X64271791Y-73259819D02*
X64271791Y-72593152D01*
X64271791Y-72688390D02*
X64224172Y-72640771D01*
X64224172Y-72640771D02*
X64128934Y-72593152D01*
X64128934Y-72593152D02*
X63986077Y-72593152D01*
X63986077Y-72593152D02*
X63890839Y-72640771D01*
X63890839Y-72640771D02*
X63843220Y-72736009D01*
X63843220Y-72736009D02*
X63843220Y-73259819D01*
X63843220Y-72736009D02*
X63795601Y-72640771D01*
X63795601Y-72640771D02*
X63700363Y-72593152D01*
X63700363Y-72593152D02*
X63557506Y-72593152D01*
X63557506Y-72593152D02*
X63462267Y-72640771D01*
X63462267Y-72640771D02*
X63414648Y-72736009D01*
X63414648Y-72736009D02*
X63414648Y-73259819D01*
X87770839Y-93975057D02*
X87723220Y-93927438D01*
X87723220Y-93927438D02*
X87627982Y-93879819D01*
X87627982Y-93879819D02*
X87389887Y-93879819D01*
X87389887Y-93879819D02*
X87294649Y-93927438D01*
X87294649Y-93927438D02*
X87247030Y-93975057D01*
X87247030Y-93975057D02*
X87199411Y-94070295D01*
X87199411Y-94070295D02*
X87199411Y-94165533D01*
X87199411Y-94165533D02*
X87247030Y-94308390D01*
X87247030Y-94308390D02*
X87818458Y-94879819D01*
X87818458Y-94879819D02*
X87199411Y-94879819D01*
X86770839Y-94213152D02*
X86770839Y-94879819D01*
X86770839Y-94308390D02*
X86723220Y-94260771D01*
X86723220Y-94260771D02*
X86627982Y-94213152D01*
X86627982Y-94213152D02*
X86485125Y-94213152D01*
X86485125Y-94213152D02*
X86389887Y-94260771D01*
X86389887Y-94260771D02*
X86342268Y-94356009D01*
X86342268Y-94356009D02*
X86342268Y-94879819D01*
X85913696Y-93975057D02*
X85866077Y-93927438D01*
X85866077Y-93927438D02*
X85770839Y-93879819D01*
X85770839Y-93879819D02*
X85532744Y-93879819D01*
X85532744Y-93879819D02*
X85437506Y-93927438D01*
X85437506Y-93927438D02*
X85389887Y-93975057D01*
X85389887Y-93975057D02*
X85342268Y-94070295D01*
X85342268Y-94070295D02*
X85342268Y-94165533D01*
X85342268Y-94165533D02*
X85389887Y-94308390D01*
X85389887Y-94308390D02*
X85961315Y-94879819D01*
X85961315Y-94879819D02*
X85342268Y-94879819D01*
X84961315Y-93975057D02*
X84913696Y-93927438D01*
X84913696Y-93927438D02*
X84818458Y-93879819D01*
X84818458Y-93879819D02*
X84580363Y-93879819D01*
X84580363Y-93879819D02*
X84485125Y-93927438D01*
X84485125Y-93927438D02*
X84437506Y-93975057D01*
X84437506Y-93975057D02*
X84389887Y-94070295D01*
X84389887Y-94070295D02*
X84389887Y-94165533D01*
X84389887Y-94165533D02*
X84437506Y-94308390D01*
X84437506Y-94308390D02*
X85008934Y-94879819D01*
X85008934Y-94879819D02*
X84389887Y-94879819D01*
X84008934Y-93975057D02*
X83961315Y-93927438D01*
X83961315Y-93927438D02*
X83866077Y-93879819D01*
X83866077Y-93879819D02*
X83627982Y-93879819D01*
X83627982Y-93879819D02*
X83532744Y-93927438D01*
X83532744Y-93927438D02*
X83485125Y-93975057D01*
X83485125Y-93975057D02*
X83437506Y-94070295D01*
X83437506Y-94070295D02*
X83437506Y-94165533D01*
X83437506Y-94165533D02*
X83485125Y-94308390D01*
X83485125Y-94308390D02*
X84056553Y-94879819D01*
X84056553Y-94879819D02*
X83437506Y-94879819D01*
X83056553Y-93975057D02*
X83008934Y-93927438D01*
X83008934Y-93927438D02*
X82913696Y-93879819D01*
X82913696Y-93879819D02*
X82675601Y-93879819D01*
X82675601Y-93879819D02*
X82580363Y-93927438D01*
X82580363Y-93927438D02*
X82532744Y-93975057D01*
X82532744Y-93975057D02*
X82485125Y-94070295D01*
X82485125Y-94070295D02*
X82485125Y-94165533D01*
X82485125Y-94165533D02*
X82532744Y-94308390D01*
X82532744Y-94308390D02*
X83104172Y-94879819D01*
X83104172Y-94879819D02*
X82485125Y-94879819D01*
X133580839Y-80865057D02*
X133533220Y-80817438D01*
X133533220Y-80817438D02*
X133437982Y-80769819D01*
X133437982Y-80769819D02*
X133199887Y-80769819D01*
X133199887Y-80769819D02*
X133104649Y-80817438D01*
X133104649Y-80817438D02*
X133057030Y-80865057D01*
X133057030Y-80865057D02*
X133009411Y-80960295D01*
X133009411Y-80960295D02*
X133009411Y-81055533D01*
X133009411Y-81055533D02*
X133057030Y-81198390D01*
X133057030Y-81198390D02*
X133628458Y-81769819D01*
X133628458Y-81769819D02*
X133009411Y-81769819D01*
X132628458Y-80865057D02*
X132580839Y-80817438D01*
X132580839Y-80817438D02*
X132485601Y-80769819D01*
X132485601Y-80769819D02*
X132247506Y-80769819D01*
X132247506Y-80769819D02*
X132152268Y-80817438D01*
X132152268Y-80817438D02*
X132104649Y-80865057D01*
X132104649Y-80865057D02*
X132057030Y-80960295D01*
X132057030Y-80960295D02*
X132057030Y-81055533D01*
X132057030Y-81055533D02*
X132104649Y-81198390D01*
X132104649Y-81198390D02*
X132676077Y-81769819D01*
X132676077Y-81769819D02*
X132057030Y-81769819D01*
X131437982Y-80769819D02*
X131342744Y-80769819D01*
X131342744Y-80769819D02*
X131247506Y-80817438D01*
X131247506Y-80817438D02*
X131199887Y-80865057D01*
X131199887Y-80865057D02*
X131152268Y-80960295D01*
X131152268Y-80960295D02*
X131104649Y-81150771D01*
X131104649Y-81150771D02*
X131104649Y-81388866D01*
X131104649Y-81388866D02*
X131152268Y-81579342D01*
X131152268Y-81579342D02*
X131199887Y-81674580D01*
X131199887Y-81674580D02*
X131247506Y-81722200D01*
X131247506Y-81722200D02*
X131342744Y-81769819D01*
X131342744Y-81769819D02*
X131437982Y-81769819D01*
X131437982Y-81769819D02*
X131533220Y-81722200D01*
X131533220Y-81722200D02*
X131580839Y-81674580D01*
X131580839Y-81674580D02*
X131628458Y-81579342D01*
X131628458Y-81579342D02*
X131676077Y-81388866D01*
X131676077Y-81388866D02*
X131676077Y-81150771D01*
X131676077Y-81150771D02*
X131628458Y-80960295D01*
X131628458Y-80960295D02*
X131580839Y-80865057D01*
X131580839Y-80865057D02*
X131533220Y-80817438D01*
X131533220Y-80817438D02*
X131437982Y-80769819D01*
X130914173Y-81865057D02*
X130152268Y-81865057D01*
X129723696Y-80769819D02*
X129533220Y-80769819D01*
X129533220Y-80769819D02*
X129437982Y-80817438D01*
X129437982Y-80817438D02*
X129342744Y-80912676D01*
X129342744Y-80912676D02*
X129295125Y-81103152D01*
X129295125Y-81103152D02*
X129295125Y-81436485D01*
X129295125Y-81436485D02*
X129342744Y-81626961D01*
X129342744Y-81626961D02*
X129437982Y-81722200D01*
X129437982Y-81722200D02*
X129533220Y-81769819D01*
X129533220Y-81769819D02*
X129723696Y-81769819D01*
X129723696Y-81769819D02*
X129818934Y-81722200D01*
X129818934Y-81722200D02*
X129914172Y-81626961D01*
X129914172Y-81626961D02*
X129961791Y-81436485D01*
X129961791Y-81436485D02*
X129961791Y-81103152D01*
X129961791Y-81103152D02*
X129914172Y-80912676D01*
X129914172Y-80912676D02*
X129818934Y-80817438D01*
X129818934Y-80817438D02*
X129723696Y-80769819D01*
X128866553Y-81769819D02*
X128866553Y-80769819D01*
X128437982Y-81769819D02*
X128437982Y-81246009D01*
X128437982Y-81246009D02*
X128485601Y-81150771D01*
X128485601Y-81150771D02*
X128580839Y-81103152D01*
X128580839Y-81103152D02*
X128723696Y-81103152D01*
X128723696Y-81103152D02*
X128818934Y-81150771D01*
X128818934Y-81150771D02*
X128866553Y-81198390D01*
X127961791Y-81769819D02*
X127961791Y-81103152D01*
X127961791Y-81198390D02*
X127914172Y-81150771D01*
X127914172Y-81150771D02*
X127818934Y-81103152D01*
X127818934Y-81103152D02*
X127676077Y-81103152D01*
X127676077Y-81103152D02*
X127580839Y-81150771D01*
X127580839Y-81150771D02*
X127533220Y-81246009D01*
X127533220Y-81246009D02*
X127533220Y-81769819D01*
X127533220Y-81246009D02*
X127485601Y-81150771D01*
X127485601Y-81150771D02*
X127390363Y-81103152D01*
X127390363Y-81103152D02*
X127247506Y-81103152D01*
X127247506Y-81103152D02*
X127152267Y-81150771D01*
X127152267Y-81150771D02*
X127104648Y-81246009D01*
X127104648Y-81246009D02*
X127104648Y-81769819D01*
X77149411Y-93689819D02*
X77720839Y-93689819D01*
X77435125Y-93689819D02*
X77435125Y-92689819D01*
X77435125Y-92689819D02*
X77530363Y-92832676D01*
X77530363Y-92832676D02*
X77625601Y-92927914D01*
X77625601Y-92927914D02*
X77720839Y-92975533D01*
X76720839Y-93689819D02*
X76720839Y-92689819D01*
X76625601Y-93308866D02*
X76339887Y-93689819D01*
X76339887Y-93023152D02*
X76720839Y-93404104D01*
X75720839Y-92689819D02*
X75530363Y-92689819D01*
X75530363Y-92689819D02*
X75435125Y-92737438D01*
X75435125Y-92737438D02*
X75339887Y-92832676D01*
X75339887Y-92832676D02*
X75292268Y-93023152D01*
X75292268Y-93023152D02*
X75292268Y-93356485D01*
X75292268Y-93356485D02*
X75339887Y-93546961D01*
X75339887Y-93546961D02*
X75435125Y-93642200D01*
X75435125Y-93642200D02*
X75530363Y-93689819D01*
X75530363Y-93689819D02*
X75720839Y-93689819D01*
X75720839Y-93689819D02*
X75816077Y-93642200D01*
X75816077Y-93642200D02*
X75911315Y-93546961D01*
X75911315Y-93546961D02*
X75958934Y-93356485D01*
X75958934Y-93356485D02*
X75958934Y-93023152D01*
X75958934Y-93023152D02*
X75911315Y-92832676D01*
X75911315Y-92832676D02*
X75816077Y-92737438D01*
X75816077Y-92737438D02*
X75720839Y-92689819D01*
X74863696Y-93689819D02*
X74863696Y-92689819D01*
X74435125Y-93689819D02*
X74435125Y-93166009D01*
X74435125Y-93166009D02*
X74482744Y-93070771D01*
X74482744Y-93070771D02*
X74577982Y-93023152D01*
X74577982Y-93023152D02*
X74720839Y-93023152D01*
X74720839Y-93023152D02*
X74816077Y-93070771D01*
X74816077Y-93070771D02*
X74863696Y-93118390D01*
X73958934Y-93689819D02*
X73958934Y-93023152D01*
X73958934Y-93118390D02*
X73911315Y-93070771D01*
X73911315Y-93070771D02*
X73816077Y-93023152D01*
X73816077Y-93023152D02*
X73673220Y-93023152D01*
X73673220Y-93023152D02*
X73577982Y-93070771D01*
X73577982Y-93070771D02*
X73530363Y-93166009D01*
X73530363Y-93166009D02*
X73530363Y-93689819D01*
X73530363Y-93166009D02*
X73482744Y-93070771D01*
X73482744Y-93070771D02*
X73387506Y-93023152D01*
X73387506Y-93023152D02*
X73244649Y-93023152D01*
X73244649Y-93023152D02*
X73149410Y-93070771D01*
X73149410Y-93070771D02*
X73101791Y-93166009D01*
X73101791Y-93166009D02*
X73101791Y-93689819D01*
X215330839Y-63665057D02*
X215283220Y-63617438D01*
X215283220Y-63617438D02*
X215187982Y-63569819D01*
X215187982Y-63569819D02*
X214949887Y-63569819D01*
X214949887Y-63569819D02*
X214854649Y-63617438D01*
X214854649Y-63617438D02*
X214807030Y-63665057D01*
X214807030Y-63665057D02*
X214759411Y-63760295D01*
X214759411Y-63760295D02*
X214759411Y-63855533D01*
X214759411Y-63855533D02*
X214807030Y-63998390D01*
X214807030Y-63998390D02*
X215378458Y-64569819D01*
X215378458Y-64569819D02*
X214759411Y-64569819D01*
X214378458Y-63665057D02*
X214330839Y-63617438D01*
X214330839Y-63617438D02*
X214235601Y-63569819D01*
X214235601Y-63569819D02*
X213997506Y-63569819D01*
X213997506Y-63569819D02*
X213902268Y-63617438D01*
X213902268Y-63617438D02*
X213854649Y-63665057D01*
X213854649Y-63665057D02*
X213807030Y-63760295D01*
X213807030Y-63760295D02*
X213807030Y-63855533D01*
X213807030Y-63855533D02*
X213854649Y-63998390D01*
X213854649Y-63998390D02*
X214426077Y-64569819D01*
X214426077Y-64569819D02*
X213807030Y-64569819D01*
X213187982Y-63569819D02*
X213092744Y-63569819D01*
X213092744Y-63569819D02*
X212997506Y-63617438D01*
X212997506Y-63617438D02*
X212949887Y-63665057D01*
X212949887Y-63665057D02*
X212902268Y-63760295D01*
X212902268Y-63760295D02*
X212854649Y-63950771D01*
X212854649Y-63950771D02*
X212854649Y-64188866D01*
X212854649Y-64188866D02*
X212902268Y-64379342D01*
X212902268Y-64379342D02*
X212949887Y-64474580D01*
X212949887Y-64474580D02*
X212997506Y-64522200D01*
X212997506Y-64522200D02*
X213092744Y-64569819D01*
X213092744Y-64569819D02*
X213187982Y-64569819D01*
X213187982Y-64569819D02*
X213283220Y-64522200D01*
X213283220Y-64522200D02*
X213330839Y-64474580D01*
X213330839Y-64474580D02*
X213378458Y-64379342D01*
X213378458Y-64379342D02*
X213426077Y-64188866D01*
X213426077Y-64188866D02*
X213426077Y-63950771D01*
X213426077Y-63950771D02*
X213378458Y-63760295D01*
X213378458Y-63760295D02*
X213330839Y-63665057D01*
X213330839Y-63665057D02*
X213283220Y-63617438D01*
X213283220Y-63617438D02*
X213187982Y-63569819D01*
X212664173Y-64665057D02*
X211902268Y-64665057D01*
X211473696Y-63569819D02*
X211283220Y-63569819D01*
X211283220Y-63569819D02*
X211187982Y-63617438D01*
X211187982Y-63617438D02*
X211092744Y-63712676D01*
X211092744Y-63712676D02*
X211045125Y-63903152D01*
X211045125Y-63903152D02*
X211045125Y-64236485D01*
X211045125Y-64236485D02*
X211092744Y-64426961D01*
X211092744Y-64426961D02*
X211187982Y-64522200D01*
X211187982Y-64522200D02*
X211283220Y-64569819D01*
X211283220Y-64569819D02*
X211473696Y-64569819D01*
X211473696Y-64569819D02*
X211568934Y-64522200D01*
X211568934Y-64522200D02*
X211664172Y-64426961D01*
X211664172Y-64426961D02*
X211711791Y-64236485D01*
X211711791Y-64236485D02*
X211711791Y-63903152D01*
X211711791Y-63903152D02*
X211664172Y-63712676D01*
X211664172Y-63712676D02*
X211568934Y-63617438D01*
X211568934Y-63617438D02*
X211473696Y-63569819D01*
X210616553Y-64569819D02*
X210616553Y-63569819D01*
X210187982Y-64569819D02*
X210187982Y-64046009D01*
X210187982Y-64046009D02*
X210235601Y-63950771D01*
X210235601Y-63950771D02*
X210330839Y-63903152D01*
X210330839Y-63903152D02*
X210473696Y-63903152D01*
X210473696Y-63903152D02*
X210568934Y-63950771D01*
X210568934Y-63950771D02*
X210616553Y-63998390D01*
X209711791Y-64569819D02*
X209711791Y-63903152D01*
X209711791Y-63998390D02*
X209664172Y-63950771D01*
X209664172Y-63950771D02*
X209568934Y-63903152D01*
X209568934Y-63903152D02*
X209426077Y-63903152D01*
X209426077Y-63903152D02*
X209330839Y-63950771D01*
X209330839Y-63950771D02*
X209283220Y-64046009D01*
X209283220Y-64046009D02*
X209283220Y-64569819D01*
X209283220Y-64046009D02*
X209235601Y-63950771D01*
X209235601Y-63950771D02*
X209140363Y-63903152D01*
X209140363Y-63903152D02*
X208997506Y-63903152D01*
X208997506Y-63903152D02*
X208902267Y-63950771D01*
X208902267Y-63950771D02*
X208854648Y-64046009D01*
X208854648Y-64046009D02*
X208854648Y-64569819D01*
X136820839Y-152905057D02*
X136773220Y-152857438D01*
X136773220Y-152857438D02*
X136677982Y-152809819D01*
X136677982Y-152809819D02*
X136439887Y-152809819D01*
X136439887Y-152809819D02*
X136344649Y-152857438D01*
X136344649Y-152857438D02*
X136297030Y-152905057D01*
X136297030Y-152905057D02*
X136249411Y-153000295D01*
X136249411Y-153000295D02*
X136249411Y-153095533D01*
X136249411Y-153095533D02*
X136297030Y-153238390D01*
X136297030Y-153238390D02*
X136868458Y-153809819D01*
X136868458Y-153809819D02*
X136249411Y-153809819D01*
X135868458Y-152905057D02*
X135820839Y-152857438D01*
X135820839Y-152857438D02*
X135725601Y-152809819D01*
X135725601Y-152809819D02*
X135487506Y-152809819D01*
X135487506Y-152809819D02*
X135392268Y-152857438D01*
X135392268Y-152857438D02*
X135344649Y-152905057D01*
X135344649Y-152905057D02*
X135297030Y-153000295D01*
X135297030Y-153000295D02*
X135297030Y-153095533D01*
X135297030Y-153095533D02*
X135344649Y-153238390D01*
X135344649Y-153238390D02*
X135916077Y-153809819D01*
X135916077Y-153809819D02*
X135297030Y-153809819D01*
X134677982Y-152809819D02*
X134582744Y-152809819D01*
X134582744Y-152809819D02*
X134487506Y-152857438D01*
X134487506Y-152857438D02*
X134439887Y-152905057D01*
X134439887Y-152905057D02*
X134392268Y-153000295D01*
X134392268Y-153000295D02*
X134344649Y-153190771D01*
X134344649Y-153190771D02*
X134344649Y-153428866D01*
X134344649Y-153428866D02*
X134392268Y-153619342D01*
X134392268Y-153619342D02*
X134439887Y-153714580D01*
X134439887Y-153714580D02*
X134487506Y-153762200D01*
X134487506Y-153762200D02*
X134582744Y-153809819D01*
X134582744Y-153809819D02*
X134677982Y-153809819D01*
X134677982Y-153809819D02*
X134773220Y-153762200D01*
X134773220Y-153762200D02*
X134820839Y-153714580D01*
X134820839Y-153714580D02*
X134868458Y-153619342D01*
X134868458Y-153619342D02*
X134916077Y-153428866D01*
X134916077Y-153428866D02*
X134916077Y-153190771D01*
X134916077Y-153190771D02*
X134868458Y-153000295D01*
X134868458Y-153000295D02*
X134820839Y-152905057D01*
X134820839Y-152905057D02*
X134773220Y-152857438D01*
X134773220Y-152857438D02*
X134677982Y-152809819D01*
X134154173Y-153905057D02*
X133392268Y-153905057D01*
X132963696Y-152809819D02*
X132773220Y-152809819D01*
X132773220Y-152809819D02*
X132677982Y-152857438D01*
X132677982Y-152857438D02*
X132582744Y-152952676D01*
X132582744Y-152952676D02*
X132535125Y-153143152D01*
X132535125Y-153143152D02*
X132535125Y-153476485D01*
X132535125Y-153476485D02*
X132582744Y-153666961D01*
X132582744Y-153666961D02*
X132677982Y-153762200D01*
X132677982Y-153762200D02*
X132773220Y-153809819D01*
X132773220Y-153809819D02*
X132963696Y-153809819D01*
X132963696Y-153809819D02*
X133058934Y-153762200D01*
X133058934Y-153762200D02*
X133154172Y-153666961D01*
X133154172Y-153666961D02*
X133201791Y-153476485D01*
X133201791Y-153476485D02*
X133201791Y-153143152D01*
X133201791Y-153143152D02*
X133154172Y-152952676D01*
X133154172Y-152952676D02*
X133058934Y-152857438D01*
X133058934Y-152857438D02*
X132963696Y-152809819D01*
X132106553Y-153809819D02*
X132106553Y-152809819D01*
X131677982Y-153809819D02*
X131677982Y-153286009D01*
X131677982Y-153286009D02*
X131725601Y-153190771D01*
X131725601Y-153190771D02*
X131820839Y-153143152D01*
X131820839Y-153143152D02*
X131963696Y-153143152D01*
X131963696Y-153143152D02*
X132058934Y-153190771D01*
X132058934Y-153190771D02*
X132106553Y-153238390D01*
X131201791Y-153809819D02*
X131201791Y-153143152D01*
X131201791Y-153238390D02*
X131154172Y-153190771D01*
X131154172Y-153190771D02*
X131058934Y-153143152D01*
X131058934Y-153143152D02*
X130916077Y-153143152D01*
X130916077Y-153143152D02*
X130820839Y-153190771D01*
X130820839Y-153190771D02*
X130773220Y-153286009D01*
X130773220Y-153286009D02*
X130773220Y-153809819D01*
X130773220Y-153286009D02*
X130725601Y-153190771D01*
X130725601Y-153190771D02*
X130630363Y-153143152D01*
X130630363Y-153143152D02*
X130487506Y-153143152D01*
X130487506Y-153143152D02*
X130392267Y-153190771D01*
X130392267Y-153190771D02*
X130344648Y-153286009D01*
X130344648Y-153286009D02*
X130344648Y-153809819D01*
X235600839Y-69455057D02*
X235553220Y-69407438D01*
X235553220Y-69407438D02*
X235457982Y-69359819D01*
X235457982Y-69359819D02*
X235219887Y-69359819D01*
X235219887Y-69359819D02*
X235124649Y-69407438D01*
X235124649Y-69407438D02*
X235077030Y-69455057D01*
X235077030Y-69455057D02*
X235029411Y-69550295D01*
X235029411Y-69550295D02*
X235029411Y-69645533D01*
X235029411Y-69645533D02*
X235077030Y-69788390D01*
X235077030Y-69788390D02*
X235648458Y-70359819D01*
X235648458Y-70359819D02*
X235029411Y-70359819D01*
X234648458Y-69455057D02*
X234600839Y-69407438D01*
X234600839Y-69407438D02*
X234505601Y-69359819D01*
X234505601Y-69359819D02*
X234267506Y-69359819D01*
X234267506Y-69359819D02*
X234172268Y-69407438D01*
X234172268Y-69407438D02*
X234124649Y-69455057D01*
X234124649Y-69455057D02*
X234077030Y-69550295D01*
X234077030Y-69550295D02*
X234077030Y-69645533D01*
X234077030Y-69645533D02*
X234124649Y-69788390D01*
X234124649Y-69788390D02*
X234696077Y-70359819D01*
X234696077Y-70359819D02*
X234077030Y-70359819D01*
X233457982Y-69359819D02*
X233362744Y-69359819D01*
X233362744Y-69359819D02*
X233267506Y-69407438D01*
X233267506Y-69407438D02*
X233219887Y-69455057D01*
X233219887Y-69455057D02*
X233172268Y-69550295D01*
X233172268Y-69550295D02*
X233124649Y-69740771D01*
X233124649Y-69740771D02*
X233124649Y-69978866D01*
X233124649Y-69978866D02*
X233172268Y-70169342D01*
X233172268Y-70169342D02*
X233219887Y-70264580D01*
X233219887Y-70264580D02*
X233267506Y-70312200D01*
X233267506Y-70312200D02*
X233362744Y-70359819D01*
X233362744Y-70359819D02*
X233457982Y-70359819D01*
X233457982Y-70359819D02*
X233553220Y-70312200D01*
X233553220Y-70312200D02*
X233600839Y-70264580D01*
X233600839Y-70264580D02*
X233648458Y-70169342D01*
X233648458Y-70169342D02*
X233696077Y-69978866D01*
X233696077Y-69978866D02*
X233696077Y-69740771D01*
X233696077Y-69740771D02*
X233648458Y-69550295D01*
X233648458Y-69550295D02*
X233600839Y-69455057D01*
X233600839Y-69455057D02*
X233553220Y-69407438D01*
X233553220Y-69407438D02*
X233457982Y-69359819D01*
X232934173Y-70455057D02*
X232172268Y-70455057D01*
X231743696Y-69359819D02*
X231553220Y-69359819D01*
X231553220Y-69359819D02*
X231457982Y-69407438D01*
X231457982Y-69407438D02*
X231362744Y-69502676D01*
X231362744Y-69502676D02*
X231315125Y-69693152D01*
X231315125Y-69693152D02*
X231315125Y-70026485D01*
X231315125Y-70026485D02*
X231362744Y-70216961D01*
X231362744Y-70216961D02*
X231457982Y-70312200D01*
X231457982Y-70312200D02*
X231553220Y-70359819D01*
X231553220Y-70359819D02*
X231743696Y-70359819D01*
X231743696Y-70359819D02*
X231838934Y-70312200D01*
X231838934Y-70312200D02*
X231934172Y-70216961D01*
X231934172Y-70216961D02*
X231981791Y-70026485D01*
X231981791Y-70026485D02*
X231981791Y-69693152D01*
X231981791Y-69693152D02*
X231934172Y-69502676D01*
X231934172Y-69502676D02*
X231838934Y-69407438D01*
X231838934Y-69407438D02*
X231743696Y-69359819D01*
X230886553Y-70359819D02*
X230886553Y-69359819D01*
X230457982Y-70359819D02*
X230457982Y-69836009D01*
X230457982Y-69836009D02*
X230505601Y-69740771D01*
X230505601Y-69740771D02*
X230600839Y-69693152D01*
X230600839Y-69693152D02*
X230743696Y-69693152D01*
X230743696Y-69693152D02*
X230838934Y-69740771D01*
X230838934Y-69740771D02*
X230886553Y-69788390D01*
X229981791Y-70359819D02*
X229981791Y-69693152D01*
X229981791Y-69788390D02*
X229934172Y-69740771D01*
X229934172Y-69740771D02*
X229838934Y-69693152D01*
X229838934Y-69693152D02*
X229696077Y-69693152D01*
X229696077Y-69693152D02*
X229600839Y-69740771D01*
X229600839Y-69740771D02*
X229553220Y-69836009D01*
X229553220Y-69836009D02*
X229553220Y-70359819D01*
X229553220Y-69836009D02*
X229505601Y-69740771D01*
X229505601Y-69740771D02*
X229410363Y-69693152D01*
X229410363Y-69693152D02*
X229267506Y-69693152D01*
X229267506Y-69693152D02*
X229172267Y-69740771D01*
X229172267Y-69740771D02*
X229124648Y-69836009D01*
X229124648Y-69836009D02*
X229124648Y-70359819D01*
X105800363Y-40328390D02*
X105895601Y-40280771D01*
X105895601Y-40280771D02*
X105943220Y-40233152D01*
X105943220Y-40233152D02*
X105990839Y-40137914D01*
X105990839Y-40137914D02*
X105990839Y-40090295D01*
X105990839Y-40090295D02*
X105943220Y-39995057D01*
X105943220Y-39995057D02*
X105895601Y-39947438D01*
X105895601Y-39947438D02*
X105800363Y-39899819D01*
X105800363Y-39899819D02*
X105609887Y-39899819D01*
X105609887Y-39899819D02*
X105514649Y-39947438D01*
X105514649Y-39947438D02*
X105467030Y-39995057D01*
X105467030Y-39995057D02*
X105419411Y-40090295D01*
X105419411Y-40090295D02*
X105419411Y-40137914D01*
X105419411Y-40137914D02*
X105467030Y-40233152D01*
X105467030Y-40233152D02*
X105514649Y-40280771D01*
X105514649Y-40280771D02*
X105609887Y-40328390D01*
X105609887Y-40328390D02*
X105800363Y-40328390D01*
X105800363Y-40328390D02*
X105895601Y-40376009D01*
X105895601Y-40376009D02*
X105943220Y-40423628D01*
X105943220Y-40423628D02*
X105990839Y-40518866D01*
X105990839Y-40518866D02*
X105990839Y-40709342D01*
X105990839Y-40709342D02*
X105943220Y-40804580D01*
X105943220Y-40804580D02*
X105895601Y-40852200D01*
X105895601Y-40852200D02*
X105800363Y-40899819D01*
X105800363Y-40899819D02*
X105609887Y-40899819D01*
X105609887Y-40899819D02*
X105514649Y-40852200D01*
X105514649Y-40852200D02*
X105467030Y-40804580D01*
X105467030Y-40804580D02*
X105419411Y-40709342D01*
X105419411Y-40709342D02*
X105419411Y-40518866D01*
X105419411Y-40518866D02*
X105467030Y-40423628D01*
X105467030Y-40423628D02*
X105514649Y-40376009D01*
X105514649Y-40376009D02*
X105609887Y-40328390D01*
X105086077Y-40899819D02*
X104562268Y-40233152D01*
X105086077Y-40233152D02*
X104562268Y-40899819D01*
X104038458Y-40328390D02*
X104133696Y-40280771D01*
X104133696Y-40280771D02*
X104181315Y-40233152D01*
X104181315Y-40233152D02*
X104228934Y-40137914D01*
X104228934Y-40137914D02*
X104228934Y-40090295D01*
X104228934Y-40090295D02*
X104181315Y-39995057D01*
X104181315Y-39995057D02*
X104133696Y-39947438D01*
X104133696Y-39947438D02*
X104038458Y-39899819D01*
X104038458Y-39899819D02*
X103847982Y-39899819D01*
X103847982Y-39899819D02*
X103752744Y-39947438D01*
X103752744Y-39947438D02*
X103705125Y-39995057D01*
X103705125Y-39995057D02*
X103657506Y-40090295D01*
X103657506Y-40090295D02*
X103657506Y-40137914D01*
X103657506Y-40137914D02*
X103705125Y-40233152D01*
X103705125Y-40233152D02*
X103752744Y-40280771D01*
X103752744Y-40280771D02*
X103847982Y-40328390D01*
X103847982Y-40328390D02*
X104038458Y-40328390D01*
X104038458Y-40328390D02*
X104133696Y-40376009D01*
X104133696Y-40376009D02*
X104181315Y-40423628D01*
X104181315Y-40423628D02*
X104228934Y-40518866D01*
X104228934Y-40518866D02*
X104228934Y-40709342D01*
X104228934Y-40709342D02*
X104181315Y-40804580D01*
X104181315Y-40804580D02*
X104133696Y-40852200D01*
X104133696Y-40852200D02*
X104038458Y-40899819D01*
X104038458Y-40899819D02*
X103847982Y-40899819D01*
X103847982Y-40899819D02*
X103752744Y-40852200D01*
X103752744Y-40852200D02*
X103705125Y-40804580D01*
X103705125Y-40804580D02*
X103657506Y-40709342D01*
X103657506Y-40709342D02*
X103657506Y-40518866D01*
X103657506Y-40518866D02*
X103705125Y-40423628D01*
X103705125Y-40423628D02*
X103752744Y-40376009D01*
X103752744Y-40376009D02*
X103847982Y-40328390D01*
X103324172Y-40899819D02*
X102800363Y-40233152D01*
X103324172Y-40233152D02*
X102800363Y-40899819D01*
X101943220Y-39899819D02*
X102419410Y-39899819D01*
X102419410Y-39899819D02*
X102467029Y-40376009D01*
X102467029Y-40376009D02*
X102419410Y-40328390D01*
X102419410Y-40328390D02*
X102324172Y-40280771D01*
X102324172Y-40280771D02*
X102086077Y-40280771D01*
X102086077Y-40280771D02*
X101990839Y-40328390D01*
X101990839Y-40328390D02*
X101943220Y-40376009D01*
X101943220Y-40376009D02*
X101895601Y-40471247D01*
X101895601Y-40471247D02*
X101895601Y-40709342D01*
X101895601Y-40709342D02*
X101943220Y-40804580D01*
X101943220Y-40804580D02*
X101990839Y-40852200D01*
X101990839Y-40852200D02*
X102086077Y-40899819D01*
X102086077Y-40899819D02*
X102324172Y-40899819D01*
X102324172Y-40899819D02*
X102419410Y-40852200D01*
X102419410Y-40852200D02*
X102467029Y-40804580D01*
X100752743Y-40852200D02*
X100657505Y-40899819D01*
X100657505Y-40899819D02*
X100467029Y-40899819D01*
X100467029Y-40899819D02*
X100371791Y-40852200D01*
X100371791Y-40852200D02*
X100324172Y-40756961D01*
X100324172Y-40756961D02*
X100324172Y-40709342D01*
X100324172Y-40709342D02*
X100371791Y-40614104D01*
X100371791Y-40614104D02*
X100467029Y-40566485D01*
X100467029Y-40566485D02*
X100609886Y-40566485D01*
X100609886Y-40566485D02*
X100705124Y-40518866D01*
X100705124Y-40518866D02*
X100752743Y-40423628D01*
X100752743Y-40423628D02*
X100752743Y-40376009D01*
X100752743Y-40376009D02*
X100705124Y-40280771D01*
X100705124Y-40280771D02*
X100609886Y-40233152D01*
X100609886Y-40233152D02*
X100467029Y-40233152D01*
X100467029Y-40233152D02*
X100371791Y-40280771D01*
X99895600Y-40899819D02*
X99895600Y-40233152D01*
X99895600Y-39899819D02*
X99943219Y-39947438D01*
X99943219Y-39947438D02*
X99895600Y-39995057D01*
X99895600Y-39995057D02*
X99847981Y-39947438D01*
X99847981Y-39947438D02*
X99895600Y-39899819D01*
X99895600Y-39899819D02*
X99895600Y-39995057D01*
X99276553Y-40899819D02*
X99371791Y-40852200D01*
X99371791Y-40852200D02*
X99419410Y-40756961D01*
X99419410Y-40756961D02*
X99419410Y-39899819D01*
X98895600Y-40899819D02*
X98895600Y-40233152D01*
X98895600Y-39899819D02*
X98943219Y-39947438D01*
X98943219Y-39947438D02*
X98895600Y-39995057D01*
X98895600Y-39995057D02*
X98847981Y-39947438D01*
X98847981Y-39947438D02*
X98895600Y-39899819D01*
X98895600Y-39899819D02*
X98895600Y-39995057D01*
X97990839Y-40852200D02*
X98086077Y-40899819D01*
X98086077Y-40899819D02*
X98276553Y-40899819D01*
X98276553Y-40899819D02*
X98371791Y-40852200D01*
X98371791Y-40852200D02*
X98419410Y-40804580D01*
X98419410Y-40804580D02*
X98467029Y-40709342D01*
X98467029Y-40709342D02*
X98467029Y-40423628D01*
X98467029Y-40423628D02*
X98419410Y-40328390D01*
X98419410Y-40328390D02*
X98371791Y-40280771D01*
X98371791Y-40280771D02*
X98276553Y-40233152D01*
X98276553Y-40233152D02*
X98086077Y-40233152D01*
X98086077Y-40233152D02*
X97990839Y-40280771D01*
X97419410Y-40899819D02*
X97514648Y-40852200D01*
X97514648Y-40852200D02*
X97562267Y-40804580D01*
X97562267Y-40804580D02*
X97609886Y-40709342D01*
X97609886Y-40709342D02*
X97609886Y-40423628D01*
X97609886Y-40423628D02*
X97562267Y-40328390D01*
X97562267Y-40328390D02*
X97514648Y-40280771D01*
X97514648Y-40280771D02*
X97419410Y-40233152D01*
X97419410Y-40233152D02*
X97276553Y-40233152D01*
X97276553Y-40233152D02*
X97181315Y-40280771D01*
X97181315Y-40280771D02*
X97133696Y-40328390D01*
X97133696Y-40328390D02*
X97086077Y-40423628D01*
X97086077Y-40423628D02*
X97086077Y-40709342D01*
X97086077Y-40709342D02*
X97133696Y-40804580D01*
X97133696Y-40804580D02*
X97181315Y-40852200D01*
X97181315Y-40852200D02*
X97276553Y-40899819D01*
X97276553Y-40899819D02*
X97419410Y-40899819D01*
X96657505Y-40233152D02*
X96657505Y-40899819D01*
X96657505Y-40328390D02*
X96609886Y-40280771D01*
X96609886Y-40280771D02*
X96514648Y-40233152D01*
X96514648Y-40233152D02*
X96371791Y-40233152D01*
X96371791Y-40233152D02*
X96276553Y-40280771D01*
X96276553Y-40280771D02*
X96228934Y-40376009D01*
X96228934Y-40376009D02*
X96228934Y-40899819D01*
X95371791Y-40852200D02*
X95467029Y-40899819D01*
X95467029Y-40899819D02*
X95657505Y-40899819D01*
X95657505Y-40899819D02*
X95752743Y-40852200D01*
X95752743Y-40852200D02*
X95800362Y-40756961D01*
X95800362Y-40756961D02*
X95800362Y-40376009D01*
X95800362Y-40376009D02*
X95752743Y-40280771D01*
X95752743Y-40280771D02*
X95657505Y-40233152D01*
X95657505Y-40233152D02*
X95467029Y-40233152D01*
X95467029Y-40233152D02*
X95371791Y-40280771D01*
X95371791Y-40280771D02*
X95324172Y-40376009D01*
X95324172Y-40376009D02*
X95324172Y-40471247D01*
X95324172Y-40471247D02*
X95800362Y-40566485D01*
X94133695Y-40899819D02*
X94133695Y-40233152D01*
X94133695Y-40328390D02*
X94086076Y-40280771D01*
X94086076Y-40280771D02*
X93990838Y-40233152D01*
X93990838Y-40233152D02*
X93847981Y-40233152D01*
X93847981Y-40233152D02*
X93752743Y-40280771D01*
X93752743Y-40280771D02*
X93705124Y-40376009D01*
X93705124Y-40376009D02*
X93705124Y-40899819D01*
X93705124Y-40376009D02*
X93657505Y-40280771D01*
X93657505Y-40280771D02*
X93562267Y-40233152D01*
X93562267Y-40233152D02*
X93419410Y-40233152D01*
X93419410Y-40233152D02*
X93324171Y-40280771D01*
X93324171Y-40280771D02*
X93276552Y-40376009D01*
X93276552Y-40376009D02*
X93276552Y-40899819D01*
X92419410Y-40852200D02*
X92514648Y-40899819D01*
X92514648Y-40899819D02*
X92705124Y-40899819D01*
X92705124Y-40899819D02*
X92800362Y-40852200D01*
X92800362Y-40852200D02*
X92847981Y-40756961D01*
X92847981Y-40756961D02*
X92847981Y-40376009D01*
X92847981Y-40376009D02*
X92800362Y-40280771D01*
X92800362Y-40280771D02*
X92705124Y-40233152D01*
X92705124Y-40233152D02*
X92514648Y-40233152D01*
X92514648Y-40233152D02*
X92419410Y-40280771D01*
X92419410Y-40280771D02*
X92371791Y-40376009D01*
X92371791Y-40376009D02*
X92371791Y-40471247D01*
X92371791Y-40471247D02*
X92847981Y-40566485D01*
X91943219Y-40899819D02*
X91943219Y-40233152D01*
X91943219Y-40328390D02*
X91895600Y-40280771D01*
X91895600Y-40280771D02*
X91800362Y-40233152D01*
X91800362Y-40233152D02*
X91657505Y-40233152D01*
X91657505Y-40233152D02*
X91562267Y-40280771D01*
X91562267Y-40280771D02*
X91514648Y-40376009D01*
X91514648Y-40376009D02*
X91514648Y-40899819D01*
X91514648Y-40376009D02*
X91467029Y-40280771D01*
X91467029Y-40280771D02*
X91371791Y-40233152D01*
X91371791Y-40233152D02*
X91228934Y-40233152D01*
X91228934Y-40233152D02*
X91133695Y-40280771D01*
X91133695Y-40280771D02*
X91086076Y-40376009D01*
X91086076Y-40376009D02*
X91086076Y-40899819D01*
X90609886Y-40899819D02*
X90609886Y-39899819D01*
X90609886Y-40280771D02*
X90514648Y-40233152D01*
X90514648Y-40233152D02*
X90324172Y-40233152D01*
X90324172Y-40233152D02*
X90228934Y-40280771D01*
X90228934Y-40280771D02*
X90181315Y-40328390D01*
X90181315Y-40328390D02*
X90133696Y-40423628D01*
X90133696Y-40423628D02*
X90133696Y-40709342D01*
X90133696Y-40709342D02*
X90181315Y-40804580D01*
X90181315Y-40804580D02*
X90228934Y-40852200D01*
X90228934Y-40852200D02*
X90324172Y-40899819D01*
X90324172Y-40899819D02*
X90514648Y-40899819D01*
X90514648Y-40899819D02*
X90609886Y-40852200D01*
X89705124Y-40899819D02*
X89705124Y-40233152D01*
X89705124Y-40423628D02*
X89657505Y-40328390D01*
X89657505Y-40328390D02*
X89609886Y-40280771D01*
X89609886Y-40280771D02*
X89514648Y-40233152D01*
X89514648Y-40233152D02*
X89419410Y-40233152D01*
X88657505Y-40899819D02*
X88657505Y-40376009D01*
X88657505Y-40376009D02*
X88705124Y-40280771D01*
X88705124Y-40280771D02*
X88800362Y-40233152D01*
X88800362Y-40233152D02*
X88990838Y-40233152D01*
X88990838Y-40233152D02*
X89086076Y-40280771D01*
X88657505Y-40852200D02*
X88752743Y-40899819D01*
X88752743Y-40899819D02*
X88990838Y-40899819D01*
X88990838Y-40899819D02*
X89086076Y-40852200D01*
X89086076Y-40852200D02*
X89133695Y-40756961D01*
X89133695Y-40756961D02*
X89133695Y-40661723D01*
X89133695Y-40661723D02*
X89086076Y-40566485D01*
X89086076Y-40566485D02*
X88990838Y-40518866D01*
X88990838Y-40518866D02*
X88752743Y-40518866D01*
X88752743Y-40518866D02*
X88657505Y-40471247D01*
X88181314Y-40233152D02*
X88181314Y-40899819D01*
X88181314Y-40328390D02*
X88133695Y-40280771D01*
X88133695Y-40280771D02*
X88038457Y-40233152D01*
X88038457Y-40233152D02*
X87895600Y-40233152D01*
X87895600Y-40233152D02*
X87800362Y-40280771D01*
X87800362Y-40280771D02*
X87752743Y-40376009D01*
X87752743Y-40376009D02*
X87752743Y-40899819D01*
X86895600Y-40852200D02*
X86990838Y-40899819D01*
X86990838Y-40899819D02*
X87181314Y-40899819D01*
X87181314Y-40899819D02*
X87276552Y-40852200D01*
X87276552Y-40852200D02*
X87324171Y-40756961D01*
X87324171Y-40756961D02*
X87324171Y-40376009D01*
X87324171Y-40376009D02*
X87276552Y-40280771D01*
X87276552Y-40280771D02*
X87181314Y-40233152D01*
X87181314Y-40233152D02*
X86990838Y-40233152D01*
X86990838Y-40233152D02*
X86895600Y-40280771D01*
X86895600Y-40280771D02*
X86847981Y-40376009D01*
X86847981Y-40376009D02*
X86847981Y-40471247D01*
X86847981Y-40471247D02*
X87324171Y-40566485D01*
X85800361Y-40233152D02*
X85419409Y-40233152D01*
X85657504Y-39899819D02*
X85657504Y-40756961D01*
X85657504Y-40756961D02*
X85609885Y-40852200D01*
X85609885Y-40852200D02*
X85514647Y-40899819D01*
X85514647Y-40899819D02*
X85419409Y-40899819D01*
X84657504Y-40899819D02*
X84657504Y-40376009D01*
X84657504Y-40376009D02*
X84705123Y-40280771D01*
X84705123Y-40280771D02*
X84800361Y-40233152D01*
X84800361Y-40233152D02*
X84990837Y-40233152D01*
X84990837Y-40233152D02*
X85086075Y-40280771D01*
X84657504Y-40852200D02*
X84752742Y-40899819D01*
X84752742Y-40899819D02*
X84990837Y-40899819D01*
X84990837Y-40899819D02*
X85086075Y-40852200D01*
X85086075Y-40852200D02*
X85133694Y-40756961D01*
X85133694Y-40756961D02*
X85133694Y-40661723D01*
X85133694Y-40661723D02*
X85086075Y-40566485D01*
X85086075Y-40566485D02*
X84990837Y-40518866D01*
X84990837Y-40518866D02*
X84752742Y-40518866D01*
X84752742Y-40518866D02*
X84657504Y-40471247D01*
X83752742Y-40852200D02*
X83847980Y-40899819D01*
X83847980Y-40899819D02*
X84038456Y-40899819D01*
X84038456Y-40899819D02*
X84133694Y-40852200D01*
X84133694Y-40852200D02*
X84181313Y-40804580D01*
X84181313Y-40804580D02*
X84228932Y-40709342D01*
X84228932Y-40709342D02*
X84228932Y-40423628D01*
X84228932Y-40423628D02*
X84181313Y-40328390D01*
X84181313Y-40328390D02*
X84133694Y-40280771D01*
X84133694Y-40280771D02*
X84038456Y-40233152D01*
X84038456Y-40233152D02*
X83847980Y-40233152D01*
X83847980Y-40233152D02*
X83752742Y-40280771D01*
X83467027Y-40233152D02*
X83086075Y-40233152D01*
X83324170Y-39899819D02*
X83324170Y-40756961D01*
X83324170Y-40756961D02*
X83276551Y-40852200D01*
X83276551Y-40852200D02*
X83181313Y-40899819D01*
X83181313Y-40899819D02*
X83086075Y-40899819D01*
X82038455Y-40852200D02*
X81943217Y-40899819D01*
X81943217Y-40899819D02*
X81752741Y-40899819D01*
X81752741Y-40899819D02*
X81657503Y-40852200D01*
X81657503Y-40852200D02*
X81609884Y-40756961D01*
X81609884Y-40756961D02*
X81609884Y-40709342D01*
X81609884Y-40709342D02*
X81657503Y-40614104D01*
X81657503Y-40614104D02*
X81752741Y-40566485D01*
X81752741Y-40566485D02*
X81895598Y-40566485D01*
X81895598Y-40566485D02*
X81990836Y-40518866D01*
X81990836Y-40518866D02*
X82038455Y-40423628D01*
X82038455Y-40423628D02*
X82038455Y-40376009D01*
X82038455Y-40376009D02*
X81990836Y-40280771D01*
X81990836Y-40280771D02*
X81895598Y-40233152D01*
X81895598Y-40233152D02*
X81752741Y-40233152D01*
X81752741Y-40233152D02*
X81657503Y-40280771D01*
X81276550Y-40233152D02*
X81086074Y-40899819D01*
X81086074Y-40899819D02*
X80895598Y-40423628D01*
X80895598Y-40423628D02*
X80705122Y-40899819D01*
X80705122Y-40899819D02*
X80514646Y-40233152D01*
X80133693Y-40899819D02*
X80133693Y-40233152D01*
X80133693Y-39899819D02*
X80181312Y-39947438D01*
X80181312Y-39947438D02*
X80133693Y-39995057D01*
X80133693Y-39995057D02*
X80086074Y-39947438D01*
X80086074Y-39947438D02*
X80133693Y-39899819D01*
X80133693Y-39899819D02*
X80133693Y-39995057D01*
X79800360Y-40233152D02*
X79419408Y-40233152D01*
X79657503Y-39899819D02*
X79657503Y-40756961D01*
X79657503Y-40756961D02*
X79609884Y-40852200D01*
X79609884Y-40852200D02*
X79514646Y-40899819D01*
X79514646Y-40899819D02*
X79419408Y-40899819D01*
X78657503Y-40852200D02*
X78752741Y-40899819D01*
X78752741Y-40899819D02*
X78943217Y-40899819D01*
X78943217Y-40899819D02*
X79038455Y-40852200D01*
X79038455Y-40852200D02*
X79086074Y-40804580D01*
X79086074Y-40804580D02*
X79133693Y-40709342D01*
X79133693Y-40709342D02*
X79133693Y-40423628D01*
X79133693Y-40423628D02*
X79086074Y-40328390D01*
X79086074Y-40328390D02*
X79038455Y-40280771D01*
X79038455Y-40280771D02*
X78943217Y-40233152D01*
X78943217Y-40233152D02*
X78752741Y-40233152D01*
X78752741Y-40233152D02*
X78657503Y-40280771D01*
X78228931Y-40899819D02*
X78228931Y-39899819D01*
X77800360Y-40899819D02*
X77800360Y-40376009D01*
X77800360Y-40376009D02*
X77847979Y-40280771D01*
X77847979Y-40280771D02*
X77943217Y-40233152D01*
X77943217Y-40233152D02*
X78086074Y-40233152D01*
X78086074Y-40233152D02*
X78181312Y-40280771D01*
X78181312Y-40280771D02*
X78228931Y-40328390D01*
X76943217Y-40852200D02*
X77038455Y-40899819D01*
X77038455Y-40899819D02*
X77228931Y-40899819D01*
X77228931Y-40899819D02*
X77324169Y-40852200D01*
X77324169Y-40852200D02*
X77371788Y-40756961D01*
X77371788Y-40756961D02*
X77371788Y-40376009D01*
X77371788Y-40376009D02*
X77324169Y-40280771D01*
X77324169Y-40280771D02*
X77228931Y-40233152D01*
X77228931Y-40233152D02*
X77038455Y-40233152D01*
X77038455Y-40233152D02*
X76943217Y-40280771D01*
X76943217Y-40280771D02*
X76895598Y-40376009D01*
X76895598Y-40376009D02*
X76895598Y-40471247D01*
X76895598Y-40471247D02*
X77371788Y-40566485D01*
X76514645Y-40852200D02*
X76419407Y-40899819D01*
X76419407Y-40899819D02*
X76228931Y-40899819D01*
X76228931Y-40899819D02*
X76133693Y-40852200D01*
X76133693Y-40852200D02*
X76086074Y-40756961D01*
X76086074Y-40756961D02*
X76086074Y-40709342D01*
X76086074Y-40709342D02*
X76133693Y-40614104D01*
X76133693Y-40614104D02*
X76228931Y-40566485D01*
X76228931Y-40566485D02*
X76371788Y-40566485D01*
X76371788Y-40566485D02*
X76467026Y-40518866D01*
X76467026Y-40518866D02*
X76514645Y-40423628D01*
X76514645Y-40423628D02*
X76514645Y-40376009D01*
X76514645Y-40376009D02*
X76467026Y-40280771D01*
X76467026Y-40280771D02*
X76371788Y-40233152D01*
X76371788Y-40233152D02*
X76228931Y-40233152D01*
X76228931Y-40233152D02*
X76133693Y-40280771D01*
X165600839Y-80525057D02*
X165553220Y-80477438D01*
X165553220Y-80477438D02*
X165457982Y-80429819D01*
X165457982Y-80429819D02*
X165219887Y-80429819D01*
X165219887Y-80429819D02*
X165124649Y-80477438D01*
X165124649Y-80477438D02*
X165077030Y-80525057D01*
X165077030Y-80525057D02*
X165029411Y-80620295D01*
X165029411Y-80620295D02*
X165029411Y-80715533D01*
X165029411Y-80715533D02*
X165077030Y-80858390D01*
X165077030Y-80858390D02*
X165648458Y-81429819D01*
X165648458Y-81429819D02*
X165029411Y-81429819D01*
X164648458Y-80525057D02*
X164600839Y-80477438D01*
X164600839Y-80477438D02*
X164505601Y-80429819D01*
X164505601Y-80429819D02*
X164267506Y-80429819D01*
X164267506Y-80429819D02*
X164172268Y-80477438D01*
X164172268Y-80477438D02*
X164124649Y-80525057D01*
X164124649Y-80525057D02*
X164077030Y-80620295D01*
X164077030Y-80620295D02*
X164077030Y-80715533D01*
X164077030Y-80715533D02*
X164124649Y-80858390D01*
X164124649Y-80858390D02*
X164696077Y-81429819D01*
X164696077Y-81429819D02*
X164077030Y-81429819D01*
X163457982Y-80429819D02*
X163362744Y-80429819D01*
X163362744Y-80429819D02*
X163267506Y-80477438D01*
X163267506Y-80477438D02*
X163219887Y-80525057D01*
X163219887Y-80525057D02*
X163172268Y-80620295D01*
X163172268Y-80620295D02*
X163124649Y-80810771D01*
X163124649Y-80810771D02*
X163124649Y-81048866D01*
X163124649Y-81048866D02*
X163172268Y-81239342D01*
X163172268Y-81239342D02*
X163219887Y-81334580D01*
X163219887Y-81334580D02*
X163267506Y-81382200D01*
X163267506Y-81382200D02*
X163362744Y-81429819D01*
X163362744Y-81429819D02*
X163457982Y-81429819D01*
X163457982Y-81429819D02*
X163553220Y-81382200D01*
X163553220Y-81382200D02*
X163600839Y-81334580D01*
X163600839Y-81334580D02*
X163648458Y-81239342D01*
X163648458Y-81239342D02*
X163696077Y-81048866D01*
X163696077Y-81048866D02*
X163696077Y-80810771D01*
X163696077Y-80810771D02*
X163648458Y-80620295D01*
X163648458Y-80620295D02*
X163600839Y-80525057D01*
X163600839Y-80525057D02*
X163553220Y-80477438D01*
X163553220Y-80477438D02*
X163457982Y-80429819D01*
X162934173Y-81525057D02*
X162172268Y-81525057D01*
X161743696Y-80429819D02*
X161553220Y-80429819D01*
X161553220Y-80429819D02*
X161457982Y-80477438D01*
X161457982Y-80477438D02*
X161362744Y-80572676D01*
X161362744Y-80572676D02*
X161315125Y-80763152D01*
X161315125Y-80763152D02*
X161315125Y-81096485D01*
X161315125Y-81096485D02*
X161362744Y-81286961D01*
X161362744Y-81286961D02*
X161457982Y-81382200D01*
X161457982Y-81382200D02*
X161553220Y-81429819D01*
X161553220Y-81429819D02*
X161743696Y-81429819D01*
X161743696Y-81429819D02*
X161838934Y-81382200D01*
X161838934Y-81382200D02*
X161934172Y-81286961D01*
X161934172Y-81286961D02*
X161981791Y-81096485D01*
X161981791Y-81096485D02*
X161981791Y-80763152D01*
X161981791Y-80763152D02*
X161934172Y-80572676D01*
X161934172Y-80572676D02*
X161838934Y-80477438D01*
X161838934Y-80477438D02*
X161743696Y-80429819D01*
X160886553Y-81429819D02*
X160886553Y-80429819D01*
X160457982Y-81429819D02*
X160457982Y-80906009D01*
X160457982Y-80906009D02*
X160505601Y-80810771D01*
X160505601Y-80810771D02*
X160600839Y-80763152D01*
X160600839Y-80763152D02*
X160743696Y-80763152D01*
X160743696Y-80763152D02*
X160838934Y-80810771D01*
X160838934Y-80810771D02*
X160886553Y-80858390D01*
X159981791Y-81429819D02*
X159981791Y-80763152D01*
X159981791Y-80858390D02*
X159934172Y-80810771D01*
X159934172Y-80810771D02*
X159838934Y-80763152D01*
X159838934Y-80763152D02*
X159696077Y-80763152D01*
X159696077Y-80763152D02*
X159600839Y-80810771D01*
X159600839Y-80810771D02*
X159553220Y-80906009D01*
X159553220Y-80906009D02*
X159553220Y-81429819D01*
X159553220Y-80906009D02*
X159505601Y-80810771D01*
X159505601Y-80810771D02*
X159410363Y-80763152D01*
X159410363Y-80763152D02*
X159267506Y-80763152D01*
X159267506Y-80763152D02*
X159172267Y-80810771D01*
X159172267Y-80810771D02*
X159124648Y-80906009D01*
X159124648Y-80906009D02*
X159124648Y-81429819D01*
X201360839Y-102325057D02*
X201313220Y-102277438D01*
X201313220Y-102277438D02*
X201217982Y-102229819D01*
X201217982Y-102229819D02*
X200979887Y-102229819D01*
X200979887Y-102229819D02*
X200884649Y-102277438D01*
X200884649Y-102277438D02*
X200837030Y-102325057D01*
X200837030Y-102325057D02*
X200789411Y-102420295D01*
X200789411Y-102420295D02*
X200789411Y-102515533D01*
X200789411Y-102515533D02*
X200837030Y-102658390D01*
X200837030Y-102658390D02*
X201408458Y-103229819D01*
X201408458Y-103229819D02*
X200789411Y-103229819D01*
X200408458Y-102325057D02*
X200360839Y-102277438D01*
X200360839Y-102277438D02*
X200265601Y-102229819D01*
X200265601Y-102229819D02*
X200027506Y-102229819D01*
X200027506Y-102229819D02*
X199932268Y-102277438D01*
X199932268Y-102277438D02*
X199884649Y-102325057D01*
X199884649Y-102325057D02*
X199837030Y-102420295D01*
X199837030Y-102420295D02*
X199837030Y-102515533D01*
X199837030Y-102515533D02*
X199884649Y-102658390D01*
X199884649Y-102658390D02*
X200456077Y-103229819D01*
X200456077Y-103229819D02*
X199837030Y-103229819D01*
X199217982Y-102229819D02*
X199122744Y-102229819D01*
X199122744Y-102229819D02*
X199027506Y-102277438D01*
X199027506Y-102277438D02*
X198979887Y-102325057D01*
X198979887Y-102325057D02*
X198932268Y-102420295D01*
X198932268Y-102420295D02*
X198884649Y-102610771D01*
X198884649Y-102610771D02*
X198884649Y-102848866D01*
X198884649Y-102848866D02*
X198932268Y-103039342D01*
X198932268Y-103039342D02*
X198979887Y-103134580D01*
X198979887Y-103134580D02*
X199027506Y-103182200D01*
X199027506Y-103182200D02*
X199122744Y-103229819D01*
X199122744Y-103229819D02*
X199217982Y-103229819D01*
X199217982Y-103229819D02*
X199313220Y-103182200D01*
X199313220Y-103182200D02*
X199360839Y-103134580D01*
X199360839Y-103134580D02*
X199408458Y-103039342D01*
X199408458Y-103039342D02*
X199456077Y-102848866D01*
X199456077Y-102848866D02*
X199456077Y-102610771D01*
X199456077Y-102610771D02*
X199408458Y-102420295D01*
X199408458Y-102420295D02*
X199360839Y-102325057D01*
X199360839Y-102325057D02*
X199313220Y-102277438D01*
X199313220Y-102277438D02*
X199217982Y-102229819D01*
X198694173Y-103325057D02*
X197932268Y-103325057D01*
X197503696Y-102229819D02*
X197313220Y-102229819D01*
X197313220Y-102229819D02*
X197217982Y-102277438D01*
X197217982Y-102277438D02*
X197122744Y-102372676D01*
X197122744Y-102372676D02*
X197075125Y-102563152D01*
X197075125Y-102563152D02*
X197075125Y-102896485D01*
X197075125Y-102896485D02*
X197122744Y-103086961D01*
X197122744Y-103086961D02*
X197217982Y-103182200D01*
X197217982Y-103182200D02*
X197313220Y-103229819D01*
X197313220Y-103229819D02*
X197503696Y-103229819D01*
X197503696Y-103229819D02*
X197598934Y-103182200D01*
X197598934Y-103182200D02*
X197694172Y-103086961D01*
X197694172Y-103086961D02*
X197741791Y-102896485D01*
X197741791Y-102896485D02*
X197741791Y-102563152D01*
X197741791Y-102563152D02*
X197694172Y-102372676D01*
X197694172Y-102372676D02*
X197598934Y-102277438D01*
X197598934Y-102277438D02*
X197503696Y-102229819D01*
X196646553Y-103229819D02*
X196646553Y-102229819D01*
X196217982Y-103229819D02*
X196217982Y-102706009D01*
X196217982Y-102706009D02*
X196265601Y-102610771D01*
X196265601Y-102610771D02*
X196360839Y-102563152D01*
X196360839Y-102563152D02*
X196503696Y-102563152D01*
X196503696Y-102563152D02*
X196598934Y-102610771D01*
X196598934Y-102610771D02*
X196646553Y-102658390D01*
X195741791Y-103229819D02*
X195741791Y-102563152D01*
X195741791Y-102658390D02*
X195694172Y-102610771D01*
X195694172Y-102610771D02*
X195598934Y-102563152D01*
X195598934Y-102563152D02*
X195456077Y-102563152D01*
X195456077Y-102563152D02*
X195360839Y-102610771D01*
X195360839Y-102610771D02*
X195313220Y-102706009D01*
X195313220Y-102706009D02*
X195313220Y-103229819D01*
X195313220Y-102706009D02*
X195265601Y-102610771D01*
X195265601Y-102610771D02*
X195170363Y-102563152D01*
X195170363Y-102563152D02*
X195027506Y-102563152D01*
X195027506Y-102563152D02*
X194932267Y-102610771D01*
X194932267Y-102610771D02*
X194884648Y-102706009D01*
X194884648Y-102706009D02*
X194884648Y-103229819D01*
X98670839Y-80695057D02*
X98623220Y-80647438D01*
X98623220Y-80647438D02*
X98527982Y-80599819D01*
X98527982Y-80599819D02*
X98289887Y-80599819D01*
X98289887Y-80599819D02*
X98194649Y-80647438D01*
X98194649Y-80647438D02*
X98147030Y-80695057D01*
X98147030Y-80695057D02*
X98099411Y-80790295D01*
X98099411Y-80790295D02*
X98099411Y-80885533D01*
X98099411Y-80885533D02*
X98147030Y-81028390D01*
X98147030Y-81028390D02*
X98718458Y-81599819D01*
X98718458Y-81599819D02*
X98099411Y-81599819D01*
X97718458Y-80695057D02*
X97670839Y-80647438D01*
X97670839Y-80647438D02*
X97575601Y-80599819D01*
X97575601Y-80599819D02*
X97337506Y-80599819D01*
X97337506Y-80599819D02*
X97242268Y-80647438D01*
X97242268Y-80647438D02*
X97194649Y-80695057D01*
X97194649Y-80695057D02*
X97147030Y-80790295D01*
X97147030Y-80790295D02*
X97147030Y-80885533D01*
X97147030Y-80885533D02*
X97194649Y-81028390D01*
X97194649Y-81028390D02*
X97766077Y-81599819D01*
X97766077Y-81599819D02*
X97147030Y-81599819D01*
X96527982Y-80599819D02*
X96432744Y-80599819D01*
X96432744Y-80599819D02*
X96337506Y-80647438D01*
X96337506Y-80647438D02*
X96289887Y-80695057D01*
X96289887Y-80695057D02*
X96242268Y-80790295D01*
X96242268Y-80790295D02*
X96194649Y-80980771D01*
X96194649Y-80980771D02*
X96194649Y-81218866D01*
X96194649Y-81218866D02*
X96242268Y-81409342D01*
X96242268Y-81409342D02*
X96289887Y-81504580D01*
X96289887Y-81504580D02*
X96337506Y-81552200D01*
X96337506Y-81552200D02*
X96432744Y-81599819D01*
X96432744Y-81599819D02*
X96527982Y-81599819D01*
X96527982Y-81599819D02*
X96623220Y-81552200D01*
X96623220Y-81552200D02*
X96670839Y-81504580D01*
X96670839Y-81504580D02*
X96718458Y-81409342D01*
X96718458Y-81409342D02*
X96766077Y-81218866D01*
X96766077Y-81218866D02*
X96766077Y-80980771D01*
X96766077Y-80980771D02*
X96718458Y-80790295D01*
X96718458Y-80790295D02*
X96670839Y-80695057D01*
X96670839Y-80695057D02*
X96623220Y-80647438D01*
X96623220Y-80647438D02*
X96527982Y-80599819D01*
X96004173Y-81695057D02*
X95242268Y-81695057D01*
X94813696Y-80599819D02*
X94623220Y-80599819D01*
X94623220Y-80599819D02*
X94527982Y-80647438D01*
X94527982Y-80647438D02*
X94432744Y-80742676D01*
X94432744Y-80742676D02*
X94385125Y-80933152D01*
X94385125Y-80933152D02*
X94385125Y-81266485D01*
X94385125Y-81266485D02*
X94432744Y-81456961D01*
X94432744Y-81456961D02*
X94527982Y-81552200D01*
X94527982Y-81552200D02*
X94623220Y-81599819D01*
X94623220Y-81599819D02*
X94813696Y-81599819D01*
X94813696Y-81599819D02*
X94908934Y-81552200D01*
X94908934Y-81552200D02*
X95004172Y-81456961D01*
X95004172Y-81456961D02*
X95051791Y-81266485D01*
X95051791Y-81266485D02*
X95051791Y-80933152D01*
X95051791Y-80933152D02*
X95004172Y-80742676D01*
X95004172Y-80742676D02*
X94908934Y-80647438D01*
X94908934Y-80647438D02*
X94813696Y-80599819D01*
X93956553Y-81599819D02*
X93956553Y-80599819D01*
X93527982Y-81599819D02*
X93527982Y-81076009D01*
X93527982Y-81076009D02*
X93575601Y-80980771D01*
X93575601Y-80980771D02*
X93670839Y-80933152D01*
X93670839Y-80933152D02*
X93813696Y-80933152D01*
X93813696Y-80933152D02*
X93908934Y-80980771D01*
X93908934Y-80980771D02*
X93956553Y-81028390D01*
X93051791Y-81599819D02*
X93051791Y-80933152D01*
X93051791Y-81028390D02*
X93004172Y-80980771D01*
X93004172Y-80980771D02*
X92908934Y-80933152D01*
X92908934Y-80933152D02*
X92766077Y-80933152D01*
X92766077Y-80933152D02*
X92670839Y-80980771D01*
X92670839Y-80980771D02*
X92623220Y-81076009D01*
X92623220Y-81076009D02*
X92623220Y-81599819D01*
X92623220Y-81076009D02*
X92575601Y-80980771D01*
X92575601Y-80980771D02*
X92480363Y-80933152D01*
X92480363Y-80933152D02*
X92337506Y-80933152D01*
X92337506Y-80933152D02*
X92242267Y-80980771D01*
X92242267Y-80980771D02*
X92194648Y-81076009D01*
X92194648Y-81076009D02*
X92194648Y-81599819D01*
X179050839Y-110845057D02*
X179003220Y-110797438D01*
X179003220Y-110797438D02*
X178907982Y-110749819D01*
X178907982Y-110749819D02*
X178669887Y-110749819D01*
X178669887Y-110749819D02*
X178574649Y-110797438D01*
X178574649Y-110797438D02*
X178527030Y-110845057D01*
X178527030Y-110845057D02*
X178479411Y-110940295D01*
X178479411Y-110940295D02*
X178479411Y-111035533D01*
X178479411Y-111035533D02*
X178527030Y-111178390D01*
X178527030Y-111178390D02*
X179098458Y-111749819D01*
X179098458Y-111749819D02*
X178479411Y-111749819D01*
X178098458Y-110845057D02*
X178050839Y-110797438D01*
X178050839Y-110797438D02*
X177955601Y-110749819D01*
X177955601Y-110749819D02*
X177717506Y-110749819D01*
X177717506Y-110749819D02*
X177622268Y-110797438D01*
X177622268Y-110797438D02*
X177574649Y-110845057D01*
X177574649Y-110845057D02*
X177527030Y-110940295D01*
X177527030Y-110940295D02*
X177527030Y-111035533D01*
X177527030Y-111035533D02*
X177574649Y-111178390D01*
X177574649Y-111178390D02*
X178146077Y-111749819D01*
X178146077Y-111749819D02*
X177527030Y-111749819D01*
X176907982Y-110749819D02*
X176812744Y-110749819D01*
X176812744Y-110749819D02*
X176717506Y-110797438D01*
X176717506Y-110797438D02*
X176669887Y-110845057D01*
X176669887Y-110845057D02*
X176622268Y-110940295D01*
X176622268Y-110940295D02*
X176574649Y-111130771D01*
X176574649Y-111130771D02*
X176574649Y-111368866D01*
X176574649Y-111368866D02*
X176622268Y-111559342D01*
X176622268Y-111559342D02*
X176669887Y-111654580D01*
X176669887Y-111654580D02*
X176717506Y-111702200D01*
X176717506Y-111702200D02*
X176812744Y-111749819D01*
X176812744Y-111749819D02*
X176907982Y-111749819D01*
X176907982Y-111749819D02*
X177003220Y-111702200D01*
X177003220Y-111702200D02*
X177050839Y-111654580D01*
X177050839Y-111654580D02*
X177098458Y-111559342D01*
X177098458Y-111559342D02*
X177146077Y-111368866D01*
X177146077Y-111368866D02*
X177146077Y-111130771D01*
X177146077Y-111130771D02*
X177098458Y-110940295D01*
X177098458Y-110940295D02*
X177050839Y-110845057D01*
X177050839Y-110845057D02*
X177003220Y-110797438D01*
X177003220Y-110797438D02*
X176907982Y-110749819D01*
X176384173Y-111845057D02*
X175622268Y-111845057D01*
X175193696Y-110749819D02*
X175003220Y-110749819D01*
X175003220Y-110749819D02*
X174907982Y-110797438D01*
X174907982Y-110797438D02*
X174812744Y-110892676D01*
X174812744Y-110892676D02*
X174765125Y-111083152D01*
X174765125Y-111083152D02*
X174765125Y-111416485D01*
X174765125Y-111416485D02*
X174812744Y-111606961D01*
X174812744Y-111606961D02*
X174907982Y-111702200D01*
X174907982Y-111702200D02*
X175003220Y-111749819D01*
X175003220Y-111749819D02*
X175193696Y-111749819D01*
X175193696Y-111749819D02*
X175288934Y-111702200D01*
X175288934Y-111702200D02*
X175384172Y-111606961D01*
X175384172Y-111606961D02*
X175431791Y-111416485D01*
X175431791Y-111416485D02*
X175431791Y-111083152D01*
X175431791Y-111083152D02*
X175384172Y-110892676D01*
X175384172Y-110892676D02*
X175288934Y-110797438D01*
X175288934Y-110797438D02*
X175193696Y-110749819D01*
X174336553Y-111749819D02*
X174336553Y-110749819D01*
X173907982Y-111749819D02*
X173907982Y-111226009D01*
X173907982Y-111226009D02*
X173955601Y-111130771D01*
X173955601Y-111130771D02*
X174050839Y-111083152D01*
X174050839Y-111083152D02*
X174193696Y-111083152D01*
X174193696Y-111083152D02*
X174288934Y-111130771D01*
X174288934Y-111130771D02*
X174336553Y-111178390D01*
X173431791Y-111749819D02*
X173431791Y-111083152D01*
X173431791Y-111178390D02*
X173384172Y-111130771D01*
X173384172Y-111130771D02*
X173288934Y-111083152D01*
X173288934Y-111083152D02*
X173146077Y-111083152D01*
X173146077Y-111083152D02*
X173050839Y-111130771D01*
X173050839Y-111130771D02*
X173003220Y-111226009D01*
X173003220Y-111226009D02*
X173003220Y-111749819D01*
X173003220Y-111226009D02*
X172955601Y-111130771D01*
X172955601Y-111130771D02*
X172860363Y-111083152D01*
X172860363Y-111083152D02*
X172717506Y-111083152D01*
X172717506Y-111083152D02*
X172622267Y-111130771D01*
X172622267Y-111130771D02*
X172574648Y-111226009D01*
X172574648Y-111226009D02*
X172574648Y-111749819D01*
X188080839Y-71155057D02*
X188033220Y-71107438D01*
X188033220Y-71107438D02*
X187937982Y-71059819D01*
X187937982Y-71059819D02*
X187699887Y-71059819D01*
X187699887Y-71059819D02*
X187604649Y-71107438D01*
X187604649Y-71107438D02*
X187557030Y-71155057D01*
X187557030Y-71155057D02*
X187509411Y-71250295D01*
X187509411Y-71250295D02*
X187509411Y-71345533D01*
X187509411Y-71345533D02*
X187557030Y-71488390D01*
X187557030Y-71488390D02*
X188128458Y-72059819D01*
X188128458Y-72059819D02*
X187509411Y-72059819D01*
X187128458Y-71155057D02*
X187080839Y-71107438D01*
X187080839Y-71107438D02*
X186985601Y-71059819D01*
X186985601Y-71059819D02*
X186747506Y-71059819D01*
X186747506Y-71059819D02*
X186652268Y-71107438D01*
X186652268Y-71107438D02*
X186604649Y-71155057D01*
X186604649Y-71155057D02*
X186557030Y-71250295D01*
X186557030Y-71250295D02*
X186557030Y-71345533D01*
X186557030Y-71345533D02*
X186604649Y-71488390D01*
X186604649Y-71488390D02*
X187176077Y-72059819D01*
X187176077Y-72059819D02*
X186557030Y-72059819D01*
X185937982Y-71059819D02*
X185842744Y-71059819D01*
X185842744Y-71059819D02*
X185747506Y-71107438D01*
X185747506Y-71107438D02*
X185699887Y-71155057D01*
X185699887Y-71155057D02*
X185652268Y-71250295D01*
X185652268Y-71250295D02*
X185604649Y-71440771D01*
X185604649Y-71440771D02*
X185604649Y-71678866D01*
X185604649Y-71678866D02*
X185652268Y-71869342D01*
X185652268Y-71869342D02*
X185699887Y-71964580D01*
X185699887Y-71964580D02*
X185747506Y-72012200D01*
X185747506Y-72012200D02*
X185842744Y-72059819D01*
X185842744Y-72059819D02*
X185937982Y-72059819D01*
X185937982Y-72059819D02*
X186033220Y-72012200D01*
X186033220Y-72012200D02*
X186080839Y-71964580D01*
X186080839Y-71964580D02*
X186128458Y-71869342D01*
X186128458Y-71869342D02*
X186176077Y-71678866D01*
X186176077Y-71678866D02*
X186176077Y-71440771D01*
X186176077Y-71440771D02*
X186128458Y-71250295D01*
X186128458Y-71250295D02*
X186080839Y-71155057D01*
X186080839Y-71155057D02*
X186033220Y-71107438D01*
X186033220Y-71107438D02*
X185937982Y-71059819D01*
X185414173Y-72155057D02*
X184652268Y-72155057D01*
X184223696Y-71059819D02*
X184033220Y-71059819D01*
X184033220Y-71059819D02*
X183937982Y-71107438D01*
X183937982Y-71107438D02*
X183842744Y-71202676D01*
X183842744Y-71202676D02*
X183795125Y-71393152D01*
X183795125Y-71393152D02*
X183795125Y-71726485D01*
X183795125Y-71726485D02*
X183842744Y-71916961D01*
X183842744Y-71916961D02*
X183937982Y-72012200D01*
X183937982Y-72012200D02*
X184033220Y-72059819D01*
X184033220Y-72059819D02*
X184223696Y-72059819D01*
X184223696Y-72059819D02*
X184318934Y-72012200D01*
X184318934Y-72012200D02*
X184414172Y-71916961D01*
X184414172Y-71916961D02*
X184461791Y-71726485D01*
X184461791Y-71726485D02*
X184461791Y-71393152D01*
X184461791Y-71393152D02*
X184414172Y-71202676D01*
X184414172Y-71202676D02*
X184318934Y-71107438D01*
X184318934Y-71107438D02*
X184223696Y-71059819D01*
X183366553Y-72059819D02*
X183366553Y-71059819D01*
X182937982Y-72059819D02*
X182937982Y-71536009D01*
X182937982Y-71536009D02*
X182985601Y-71440771D01*
X182985601Y-71440771D02*
X183080839Y-71393152D01*
X183080839Y-71393152D02*
X183223696Y-71393152D01*
X183223696Y-71393152D02*
X183318934Y-71440771D01*
X183318934Y-71440771D02*
X183366553Y-71488390D01*
X182461791Y-72059819D02*
X182461791Y-71393152D01*
X182461791Y-71488390D02*
X182414172Y-71440771D01*
X182414172Y-71440771D02*
X182318934Y-71393152D01*
X182318934Y-71393152D02*
X182176077Y-71393152D01*
X182176077Y-71393152D02*
X182080839Y-71440771D01*
X182080839Y-71440771D02*
X182033220Y-71536009D01*
X182033220Y-71536009D02*
X182033220Y-72059819D01*
X182033220Y-71536009D02*
X181985601Y-71440771D01*
X181985601Y-71440771D02*
X181890363Y-71393152D01*
X181890363Y-71393152D02*
X181747506Y-71393152D01*
X181747506Y-71393152D02*
X181652267Y-71440771D01*
X181652267Y-71440771D02*
X181604648Y-71536009D01*
X181604648Y-71536009D02*
X181604648Y-72059819D01*
X156740839Y-125655057D02*
X156693220Y-125607438D01*
X156693220Y-125607438D02*
X156597982Y-125559819D01*
X156597982Y-125559819D02*
X156359887Y-125559819D01*
X156359887Y-125559819D02*
X156264649Y-125607438D01*
X156264649Y-125607438D02*
X156217030Y-125655057D01*
X156217030Y-125655057D02*
X156169411Y-125750295D01*
X156169411Y-125750295D02*
X156169411Y-125845533D01*
X156169411Y-125845533D02*
X156217030Y-125988390D01*
X156217030Y-125988390D02*
X156788458Y-126559819D01*
X156788458Y-126559819D02*
X156169411Y-126559819D01*
X155788458Y-125655057D02*
X155740839Y-125607438D01*
X155740839Y-125607438D02*
X155645601Y-125559819D01*
X155645601Y-125559819D02*
X155407506Y-125559819D01*
X155407506Y-125559819D02*
X155312268Y-125607438D01*
X155312268Y-125607438D02*
X155264649Y-125655057D01*
X155264649Y-125655057D02*
X155217030Y-125750295D01*
X155217030Y-125750295D02*
X155217030Y-125845533D01*
X155217030Y-125845533D02*
X155264649Y-125988390D01*
X155264649Y-125988390D02*
X155836077Y-126559819D01*
X155836077Y-126559819D02*
X155217030Y-126559819D01*
X154597982Y-125559819D02*
X154502744Y-125559819D01*
X154502744Y-125559819D02*
X154407506Y-125607438D01*
X154407506Y-125607438D02*
X154359887Y-125655057D01*
X154359887Y-125655057D02*
X154312268Y-125750295D01*
X154312268Y-125750295D02*
X154264649Y-125940771D01*
X154264649Y-125940771D02*
X154264649Y-126178866D01*
X154264649Y-126178866D02*
X154312268Y-126369342D01*
X154312268Y-126369342D02*
X154359887Y-126464580D01*
X154359887Y-126464580D02*
X154407506Y-126512200D01*
X154407506Y-126512200D02*
X154502744Y-126559819D01*
X154502744Y-126559819D02*
X154597982Y-126559819D01*
X154597982Y-126559819D02*
X154693220Y-126512200D01*
X154693220Y-126512200D02*
X154740839Y-126464580D01*
X154740839Y-126464580D02*
X154788458Y-126369342D01*
X154788458Y-126369342D02*
X154836077Y-126178866D01*
X154836077Y-126178866D02*
X154836077Y-125940771D01*
X154836077Y-125940771D02*
X154788458Y-125750295D01*
X154788458Y-125750295D02*
X154740839Y-125655057D01*
X154740839Y-125655057D02*
X154693220Y-125607438D01*
X154693220Y-125607438D02*
X154597982Y-125559819D01*
X154074173Y-126655057D02*
X153312268Y-126655057D01*
X152883696Y-125559819D02*
X152693220Y-125559819D01*
X152693220Y-125559819D02*
X152597982Y-125607438D01*
X152597982Y-125607438D02*
X152502744Y-125702676D01*
X152502744Y-125702676D02*
X152455125Y-125893152D01*
X152455125Y-125893152D02*
X152455125Y-126226485D01*
X152455125Y-126226485D02*
X152502744Y-126416961D01*
X152502744Y-126416961D02*
X152597982Y-126512200D01*
X152597982Y-126512200D02*
X152693220Y-126559819D01*
X152693220Y-126559819D02*
X152883696Y-126559819D01*
X152883696Y-126559819D02*
X152978934Y-126512200D01*
X152978934Y-126512200D02*
X153074172Y-126416961D01*
X153074172Y-126416961D02*
X153121791Y-126226485D01*
X153121791Y-126226485D02*
X153121791Y-125893152D01*
X153121791Y-125893152D02*
X153074172Y-125702676D01*
X153074172Y-125702676D02*
X152978934Y-125607438D01*
X152978934Y-125607438D02*
X152883696Y-125559819D01*
X152026553Y-126559819D02*
X152026553Y-125559819D01*
X151597982Y-126559819D02*
X151597982Y-126036009D01*
X151597982Y-126036009D02*
X151645601Y-125940771D01*
X151645601Y-125940771D02*
X151740839Y-125893152D01*
X151740839Y-125893152D02*
X151883696Y-125893152D01*
X151883696Y-125893152D02*
X151978934Y-125940771D01*
X151978934Y-125940771D02*
X152026553Y-125988390D01*
X151121791Y-126559819D02*
X151121791Y-125893152D01*
X151121791Y-125988390D02*
X151074172Y-125940771D01*
X151074172Y-125940771D02*
X150978934Y-125893152D01*
X150978934Y-125893152D02*
X150836077Y-125893152D01*
X150836077Y-125893152D02*
X150740839Y-125940771D01*
X150740839Y-125940771D02*
X150693220Y-126036009D01*
X150693220Y-126036009D02*
X150693220Y-126559819D01*
X150693220Y-126036009D02*
X150645601Y-125940771D01*
X150645601Y-125940771D02*
X150550363Y-125893152D01*
X150550363Y-125893152D02*
X150407506Y-125893152D01*
X150407506Y-125893152D02*
X150312267Y-125940771D01*
X150312267Y-125940771D02*
X150264648Y-126036009D01*
X150264648Y-126036009D02*
X150264648Y-126559819D01*
%TO.C,U1*%
X99064819Y-112318095D02*
X99874342Y-112318095D01*
X99874342Y-112318095D02*
X99969580Y-112365714D01*
X99969580Y-112365714D02*
X100017200Y-112413333D01*
X100017200Y-112413333D02*
X100064819Y-112508571D01*
X100064819Y-112508571D02*
X100064819Y-112699047D01*
X100064819Y-112699047D02*
X100017200Y-112794285D01*
X100017200Y-112794285D02*
X99969580Y-112841904D01*
X99969580Y-112841904D02*
X99874342Y-112889523D01*
X99874342Y-112889523D02*
X99064819Y-112889523D01*
X100064819Y-113889523D02*
X100064819Y-113318095D01*
X100064819Y-113603809D02*
X99064819Y-113603809D01*
X99064819Y-113603809D02*
X99207676Y-113508571D01*
X99207676Y-113508571D02*
X99302914Y-113413333D01*
X99302914Y-113413333D02*
X99350533Y-113318095D01*
X124130868Y-125177998D02*
X124157805Y-125097185D01*
X124157805Y-125097185D02*
X124238618Y-125016373D01*
X124238618Y-125016373D02*
X124346367Y-124962498D01*
X124346367Y-124962498D02*
X124454117Y-124962498D01*
X124454117Y-124962498D02*
X124534929Y-124989436D01*
X124534929Y-124989436D02*
X124669616Y-125070248D01*
X124669616Y-125070248D02*
X124750428Y-125151060D01*
X124750428Y-125151060D02*
X124831241Y-125285747D01*
X124831241Y-125285747D02*
X124858178Y-125366560D01*
X124858178Y-125366560D02*
X124858178Y-125474309D01*
X124858178Y-125474309D02*
X124804303Y-125582059D01*
X124804303Y-125582059D02*
X124750428Y-125635934D01*
X124750428Y-125635934D02*
X124642679Y-125689808D01*
X124642679Y-125689808D02*
X124588804Y-125689808D01*
X124588804Y-125689808D02*
X124400242Y-125501247D01*
X124400242Y-125501247D02*
X124507992Y-125393497D01*
X124400242Y-125986120D02*
X123834557Y-125420434D01*
X123834557Y-125420434D02*
X123619057Y-125635934D01*
X123619057Y-125635934D02*
X123592120Y-125716746D01*
X123592120Y-125716746D02*
X123592120Y-125770621D01*
X123592120Y-125770621D02*
X123619057Y-125851433D01*
X123619057Y-125851433D02*
X123699870Y-125932245D01*
X123699870Y-125932245D02*
X123780682Y-125959182D01*
X123780682Y-125959182D02*
X123834557Y-125959182D01*
X123834557Y-125959182D02*
X123915369Y-125932245D01*
X123915369Y-125932245D02*
X124130868Y-125716746D01*
X123538245Y-126848117D02*
X123861494Y-126524868D01*
X123699870Y-126686492D02*
X123134184Y-126120807D01*
X123134184Y-126120807D02*
X123268871Y-126147744D01*
X123268871Y-126147744D02*
X123376621Y-126147744D01*
X123376621Y-126147744D02*
X123457433Y-126120807D01*
X122487686Y-126767305D02*
X122595436Y-126659555D01*
X122595436Y-126659555D02*
X122676248Y-126632618D01*
X122676248Y-126632618D02*
X122730123Y-126632618D01*
X122730123Y-126632618D02*
X122864810Y-126659555D01*
X122864810Y-126659555D02*
X122999497Y-126740367D01*
X122999497Y-126740367D02*
X123214996Y-126955866D01*
X123214996Y-126955866D02*
X123241934Y-127036679D01*
X123241934Y-127036679D02*
X123241934Y-127090553D01*
X123241934Y-127090553D02*
X123214996Y-127171366D01*
X123214996Y-127171366D02*
X123107247Y-127279115D01*
X123107247Y-127279115D02*
X123026434Y-127306053D01*
X123026434Y-127306053D02*
X122972560Y-127306053D01*
X122972560Y-127306053D02*
X122891747Y-127279115D01*
X122891747Y-127279115D02*
X122757060Y-127144428D01*
X122757060Y-127144428D02*
X122730123Y-127063616D01*
X122730123Y-127063616D02*
X122730123Y-127009741D01*
X122730123Y-127009741D02*
X122757060Y-126928929D01*
X122757060Y-126928929D02*
X122864810Y-126821179D01*
X122864810Y-126821179D02*
X122945622Y-126794242D01*
X122945622Y-126794242D02*
X122999497Y-126794242D01*
X122999497Y-126794242D02*
X123080309Y-126821179D01*
X111430868Y-98923998D02*
X111457805Y-98843185D01*
X111457805Y-98843185D02*
X111538618Y-98762373D01*
X111538618Y-98762373D02*
X111646367Y-98708498D01*
X111646367Y-98708498D02*
X111754117Y-98708498D01*
X111754117Y-98708498D02*
X111834929Y-98735436D01*
X111834929Y-98735436D02*
X111969616Y-98816248D01*
X111969616Y-98816248D02*
X112050428Y-98897060D01*
X112050428Y-98897060D02*
X112131241Y-99031747D01*
X112131241Y-99031747D02*
X112158178Y-99112560D01*
X112158178Y-99112560D02*
X112158178Y-99220309D01*
X112158178Y-99220309D02*
X112104303Y-99328059D01*
X112104303Y-99328059D02*
X112050428Y-99381934D01*
X112050428Y-99381934D02*
X111942679Y-99435808D01*
X111942679Y-99435808D02*
X111888804Y-99435808D01*
X111888804Y-99435808D02*
X111700242Y-99247247D01*
X111700242Y-99247247D02*
X111807992Y-99139497D01*
X111700242Y-99732120D02*
X111134557Y-99166434D01*
X111134557Y-99166434D02*
X110919057Y-99381934D01*
X110919057Y-99381934D02*
X110892120Y-99462746D01*
X110892120Y-99462746D02*
X110892120Y-99516621D01*
X110892120Y-99516621D02*
X110919057Y-99597433D01*
X110919057Y-99597433D02*
X110999870Y-99678245D01*
X110999870Y-99678245D02*
X111080682Y-99705182D01*
X111080682Y-99705182D02*
X111134557Y-99705182D01*
X111134557Y-99705182D02*
X111215369Y-99678245D01*
X111215369Y-99678245D02*
X111430868Y-99462746D01*
X110838245Y-100594117D02*
X111161494Y-100270868D01*
X110999870Y-100432492D02*
X110434184Y-99866807D01*
X110434184Y-99866807D02*
X110568871Y-99893744D01*
X110568871Y-99893744D02*
X110676621Y-99893744D01*
X110676621Y-99893744D02*
X110757433Y-99866807D01*
X110299497Y-101132865D02*
X110622746Y-100809616D01*
X110461121Y-100971240D02*
X109895436Y-100405555D01*
X109895436Y-100405555D02*
X110030123Y-100432492D01*
X110030123Y-100432492D02*
X110137873Y-100432492D01*
X110137873Y-100432492D02*
X110218685Y-100405555D01*
X76137585Y-125033406D02*
X76514709Y-125787653D01*
X76514709Y-125787653D02*
X75760462Y-125410529D01*
X75652712Y-126057027D02*
X75598838Y-126164776D01*
X75598838Y-126164776D02*
X75598838Y-126218651D01*
X75598838Y-126218651D02*
X75625775Y-126299463D01*
X75625775Y-126299463D02*
X75706587Y-126380276D01*
X75706587Y-126380276D02*
X75787399Y-126407213D01*
X75787399Y-126407213D02*
X75841274Y-126407213D01*
X75841274Y-126407213D02*
X75922086Y-126380276D01*
X75922086Y-126380276D02*
X76137586Y-126164776D01*
X76137586Y-126164776D02*
X75571900Y-125599091D01*
X75571900Y-125599091D02*
X75383338Y-125787653D01*
X75383338Y-125787653D02*
X75356401Y-125868465D01*
X75356401Y-125868465D02*
X75356401Y-125922340D01*
X75356401Y-125922340D02*
X75383338Y-126003152D01*
X75383338Y-126003152D02*
X75437213Y-126057027D01*
X75437213Y-126057027D02*
X75518025Y-126083964D01*
X75518025Y-126083964D02*
X75571900Y-126083964D01*
X75571900Y-126083964D02*
X75652712Y-126057027D01*
X75652712Y-126057027D02*
X75841274Y-125868465D01*
X75006215Y-126164776D02*
X75464151Y-126622712D01*
X75464151Y-126622712D02*
X75491088Y-126703524D01*
X75491088Y-126703524D02*
X75491088Y-126757399D01*
X75491088Y-126757399D02*
X75464151Y-126838211D01*
X75464151Y-126838211D02*
X75356401Y-126945961D01*
X75356401Y-126945961D02*
X75275589Y-126972898D01*
X75275589Y-126972898D02*
X75221714Y-126972898D01*
X75221714Y-126972898D02*
X75140902Y-126945961D01*
X75140902Y-126945961D02*
X74682966Y-126488025D01*
X74979277Y-127269210D02*
X74925403Y-127376959D01*
X74925403Y-127376959D02*
X74790716Y-127511646D01*
X74790716Y-127511646D02*
X74709903Y-127538584D01*
X74709903Y-127538584D02*
X74656029Y-127538584D01*
X74656029Y-127538584D02*
X74575216Y-127511646D01*
X74575216Y-127511646D02*
X74521342Y-127457771D01*
X74521342Y-127457771D02*
X74494404Y-127376959D01*
X74494404Y-127376959D02*
X74494404Y-127323084D01*
X74494404Y-127323084D02*
X74521342Y-127242272D01*
X74521342Y-127242272D02*
X74602154Y-127107585D01*
X74602154Y-127107585D02*
X74629091Y-127026773D01*
X74629091Y-127026773D02*
X74629091Y-126972898D01*
X74629091Y-126972898D02*
X74602154Y-126892086D01*
X74602154Y-126892086D02*
X74548279Y-126838211D01*
X74548279Y-126838211D02*
X74467467Y-126811274D01*
X74467467Y-126811274D02*
X74413592Y-126811274D01*
X74413592Y-126811274D02*
X74332780Y-126838211D01*
X74332780Y-126838211D02*
X74198093Y-126972898D01*
X74198093Y-126972898D02*
X74144218Y-127080648D01*
X108900868Y-125177998D02*
X108927805Y-125097185D01*
X108927805Y-125097185D02*
X109008618Y-125016373D01*
X109008618Y-125016373D02*
X109116367Y-124962498D01*
X109116367Y-124962498D02*
X109224117Y-124962498D01*
X109224117Y-124962498D02*
X109304929Y-124989436D01*
X109304929Y-124989436D02*
X109439616Y-125070248D01*
X109439616Y-125070248D02*
X109520428Y-125151060D01*
X109520428Y-125151060D02*
X109601241Y-125285747D01*
X109601241Y-125285747D02*
X109628178Y-125366560D01*
X109628178Y-125366560D02*
X109628178Y-125474309D01*
X109628178Y-125474309D02*
X109574303Y-125582059D01*
X109574303Y-125582059D02*
X109520428Y-125635934D01*
X109520428Y-125635934D02*
X109412679Y-125689808D01*
X109412679Y-125689808D02*
X109358804Y-125689808D01*
X109358804Y-125689808D02*
X109170242Y-125501247D01*
X109170242Y-125501247D02*
X109277992Y-125393497D01*
X109170242Y-125986120D02*
X108604557Y-125420434D01*
X108604557Y-125420434D02*
X108389057Y-125635934D01*
X108389057Y-125635934D02*
X108362120Y-125716746D01*
X108362120Y-125716746D02*
X108362120Y-125770621D01*
X108362120Y-125770621D02*
X108389057Y-125851433D01*
X108389057Y-125851433D02*
X108469870Y-125932245D01*
X108469870Y-125932245D02*
X108550682Y-125959182D01*
X108550682Y-125959182D02*
X108604557Y-125959182D01*
X108604557Y-125959182D02*
X108685369Y-125932245D01*
X108685369Y-125932245D02*
X108900868Y-125716746D01*
X108119683Y-126013057D02*
X108065809Y-126013057D01*
X108065809Y-126013057D02*
X107984996Y-126039995D01*
X107984996Y-126039995D02*
X107850309Y-126174682D01*
X107850309Y-126174682D02*
X107823372Y-126255494D01*
X107823372Y-126255494D02*
X107823372Y-126309369D01*
X107823372Y-126309369D02*
X107850309Y-126390181D01*
X107850309Y-126390181D02*
X107904184Y-126444056D01*
X107904184Y-126444056D02*
X108011934Y-126497930D01*
X108011934Y-126497930D02*
X108658431Y-126497930D01*
X108658431Y-126497930D02*
X108308245Y-126848117D01*
X107769497Y-127386865D02*
X108092746Y-127063616D01*
X107931121Y-127225240D02*
X107365436Y-126659555D01*
X107365436Y-126659555D02*
X107500123Y-126686492D01*
X107500123Y-126686492D02*
X107607873Y-126686492D01*
X107607873Y-126686492D02*
X107688685Y-126659555D01*
X126134200Y-116984761D02*
X126172295Y-117099047D01*
X126172295Y-117099047D02*
X126172295Y-117289523D01*
X126172295Y-117289523D02*
X126134200Y-117365714D01*
X126134200Y-117365714D02*
X126096104Y-117403809D01*
X126096104Y-117403809D02*
X126019914Y-117441904D01*
X126019914Y-117441904D02*
X125943723Y-117441904D01*
X125943723Y-117441904D02*
X125867533Y-117403809D01*
X125867533Y-117403809D02*
X125829438Y-117365714D01*
X125829438Y-117365714D02*
X125791342Y-117289523D01*
X125791342Y-117289523D02*
X125753247Y-117137142D01*
X125753247Y-117137142D02*
X125715152Y-117060952D01*
X125715152Y-117060952D02*
X125677057Y-117022857D01*
X125677057Y-117022857D02*
X125600866Y-116984761D01*
X125600866Y-116984761D02*
X125524676Y-116984761D01*
X125524676Y-116984761D02*
X125448485Y-117022857D01*
X125448485Y-117022857D02*
X125410390Y-117060952D01*
X125410390Y-117060952D02*
X125372295Y-117137142D01*
X125372295Y-117137142D02*
X125372295Y-117327619D01*
X125372295Y-117327619D02*
X125410390Y-117441904D01*
X125372295Y-117708571D02*
X126172295Y-117899047D01*
X126172295Y-117899047D02*
X125600866Y-118051428D01*
X125600866Y-118051428D02*
X126172295Y-118203809D01*
X126172295Y-118203809D02*
X125372295Y-118394286D01*
X126172295Y-118699048D02*
X125372295Y-118699048D01*
X125372295Y-118699048D02*
X125372295Y-118889524D01*
X125372295Y-118889524D02*
X125410390Y-119003810D01*
X125410390Y-119003810D02*
X125486580Y-119080000D01*
X125486580Y-119080000D02*
X125562771Y-119118095D01*
X125562771Y-119118095D02*
X125715152Y-119156191D01*
X125715152Y-119156191D02*
X125829438Y-119156191D01*
X125829438Y-119156191D02*
X125981819Y-119118095D01*
X125981819Y-119118095D02*
X126058009Y-119080000D01*
X126058009Y-119080000D02*
X126134200Y-119003810D01*
X126134200Y-119003810D02*
X126172295Y-118889524D01*
X126172295Y-118889524D02*
X126172295Y-118699048D01*
X126172295Y-119499048D02*
X125372295Y-119499048D01*
X125372295Y-120032381D02*
X125372295Y-120184762D01*
X125372295Y-120184762D02*
X125410390Y-120260952D01*
X125410390Y-120260952D02*
X125486580Y-120337143D01*
X125486580Y-120337143D02*
X125638961Y-120375238D01*
X125638961Y-120375238D02*
X125905628Y-120375238D01*
X125905628Y-120375238D02*
X126058009Y-120337143D01*
X126058009Y-120337143D02*
X126134200Y-120260952D01*
X126134200Y-120260952D02*
X126172295Y-120184762D01*
X126172295Y-120184762D02*
X126172295Y-120032381D01*
X126172295Y-120032381D02*
X126134200Y-119956190D01*
X126134200Y-119956190D02*
X126058009Y-119880000D01*
X126058009Y-119880000D02*
X125905628Y-119841904D01*
X125905628Y-119841904D02*
X125638961Y-119841904D01*
X125638961Y-119841904D02*
X125486580Y-119880000D01*
X125486580Y-119880000D02*
X125410390Y-119956190D01*
X125410390Y-119956190D02*
X125372295Y-120032381D01*
X90856868Y-125177998D02*
X90883805Y-125097185D01*
X90883805Y-125097185D02*
X90964618Y-125016373D01*
X90964618Y-125016373D02*
X91072367Y-124962498D01*
X91072367Y-124962498D02*
X91180117Y-124962498D01*
X91180117Y-124962498D02*
X91260929Y-124989436D01*
X91260929Y-124989436D02*
X91395616Y-125070248D01*
X91395616Y-125070248D02*
X91476428Y-125151060D01*
X91476428Y-125151060D02*
X91557241Y-125285747D01*
X91557241Y-125285747D02*
X91584178Y-125366560D01*
X91584178Y-125366560D02*
X91584178Y-125474309D01*
X91584178Y-125474309D02*
X91530303Y-125582059D01*
X91530303Y-125582059D02*
X91476428Y-125635934D01*
X91476428Y-125635934D02*
X91368679Y-125689808D01*
X91368679Y-125689808D02*
X91314804Y-125689808D01*
X91314804Y-125689808D02*
X91126242Y-125501247D01*
X91126242Y-125501247D02*
X91233992Y-125393497D01*
X91126242Y-125986120D02*
X90560557Y-125420434D01*
X90560557Y-125420434D02*
X90345057Y-125635934D01*
X90345057Y-125635934D02*
X90318120Y-125716746D01*
X90318120Y-125716746D02*
X90318120Y-125770621D01*
X90318120Y-125770621D02*
X90345057Y-125851433D01*
X90345057Y-125851433D02*
X90425870Y-125932245D01*
X90425870Y-125932245D02*
X90506682Y-125959182D01*
X90506682Y-125959182D02*
X90560557Y-125959182D01*
X90560557Y-125959182D02*
X90641369Y-125932245D01*
X90641369Y-125932245D02*
X90856868Y-125716746D01*
X90075683Y-126013057D02*
X90021809Y-126013057D01*
X90021809Y-126013057D02*
X89940996Y-126039995D01*
X89940996Y-126039995D02*
X89806309Y-126174682D01*
X89806309Y-126174682D02*
X89779372Y-126255494D01*
X89779372Y-126255494D02*
X89779372Y-126309369D01*
X89779372Y-126309369D02*
X89806309Y-126390181D01*
X89806309Y-126390181D02*
X89860184Y-126444056D01*
X89860184Y-126444056D02*
X89967934Y-126497930D01*
X89967934Y-126497930D02*
X90614431Y-126497930D01*
X90614431Y-126497930D02*
X90264245Y-126848117D01*
X89617747Y-126848117D02*
X89644685Y-126767305D01*
X89644685Y-126767305D02*
X89644685Y-126713430D01*
X89644685Y-126713430D02*
X89617747Y-126632618D01*
X89617747Y-126632618D02*
X89590810Y-126605680D01*
X89590810Y-126605680D02*
X89509998Y-126578743D01*
X89509998Y-126578743D02*
X89456123Y-126578743D01*
X89456123Y-126578743D02*
X89375311Y-126605680D01*
X89375311Y-126605680D02*
X89267561Y-126713430D01*
X89267561Y-126713430D02*
X89240624Y-126794242D01*
X89240624Y-126794242D02*
X89240624Y-126848117D01*
X89240624Y-126848117D02*
X89267561Y-126928929D01*
X89267561Y-126928929D02*
X89294499Y-126955866D01*
X89294499Y-126955866D02*
X89375311Y-126982804D01*
X89375311Y-126982804D02*
X89429186Y-126982804D01*
X89429186Y-126982804D02*
X89509998Y-126955866D01*
X89509998Y-126955866D02*
X89617747Y-126848117D01*
X89617747Y-126848117D02*
X89698560Y-126821179D01*
X89698560Y-126821179D02*
X89752434Y-126821179D01*
X89752434Y-126821179D02*
X89833247Y-126848117D01*
X89833247Y-126848117D02*
X89940996Y-126955866D01*
X89940996Y-126955866D02*
X89967934Y-127036679D01*
X89967934Y-127036679D02*
X89967934Y-127090553D01*
X89967934Y-127090553D02*
X89940996Y-127171366D01*
X89940996Y-127171366D02*
X89833247Y-127279115D01*
X89833247Y-127279115D02*
X89752434Y-127306053D01*
X89752434Y-127306053D02*
X89698560Y-127306053D01*
X89698560Y-127306053D02*
X89617747Y-127279115D01*
X89617747Y-127279115D02*
X89509998Y-127171366D01*
X89509998Y-127171366D02*
X89483060Y-127090553D01*
X89483060Y-127090553D02*
X89483060Y-127036679D01*
X89483060Y-127036679D02*
X89509998Y-126955866D01*
X96200868Y-125177998D02*
X96227805Y-125097185D01*
X96227805Y-125097185D02*
X96308618Y-125016373D01*
X96308618Y-125016373D02*
X96416367Y-124962498D01*
X96416367Y-124962498D02*
X96524117Y-124962498D01*
X96524117Y-124962498D02*
X96604929Y-124989436D01*
X96604929Y-124989436D02*
X96739616Y-125070248D01*
X96739616Y-125070248D02*
X96820428Y-125151060D01*
X96820428Y-125151060D02*
X96901241Y-125285747D01*
X96901241Y-125285747D02*
X96928178Y-125366560D01*
X96928178Y-125366560D02*
X96928178Y-125474309D01*
X96928178Y-125474309D02*
X96874303Y-125582059D01*
X96874303Y-125582059D02*
X96820428Y-125635934D01*
X96820428Y-125635934D02*
X96712679Y-125689808D01*
X96712679Y-125689808D02*
X96658804Y-125689808D01*
X96658804Y-125689808D02*
X96470242Y-125501247D01*
X96470242Y-125501247D02*
X96577992Y-125393497D01*
X96470242Y-125986120D02*
X95904557Y-125420434D01*
X95904557Y-125420434D02*
X95689057Y-125635934D01*
X95689057Y-125635934D02*
X95662120Y-125716746D01*
X95662120Y-125716746D02*
X95662120Y-125770621D01*
X95662120Y-125770621D02*
X95689057Y-125851433D01*
X95689057Y-125851433D02*
X95769870Y-125932245D01*
X95769870Y-125932245D02*
X95850682Y-125959182D01*
X95850682Y-125959182D02*
X95904557Y-125959182D01*
X95904557Y-125959182D02*
X95985369Y-125932245D01*
X95985369Y-125932245D02*
X96200868Y-125716746D01*
X95419683Y-126013057D02*
X95365809Y-126013057D01*
X95365809Y-126013057D02*
X95284996Y-126039995D01*
X95284996Y-126039995D02*
X95150309Y-126174682D01*
X95150309Y-126174682D02*
X95123372Y-126255494D01*
X95123372Y-126255494D02*
X95123372Y-126309369D01*
X95123372Y-126309369D02*
X95150309Y-126390181D01*
X95150309Y-126390181D02*
X95204184Y-126444056D01*
X95204184Y-126444056D02*
X95311934Y-126497930D01*
X95311934Y-126497930D02*
X95958431Y-126497930D01*
X95958431Y-126497930D02*
X95608245Y-126848117D01*
X94853998Y-126470993D02*
X94476874Y-126848117D01*
X94476874Y-126848117D02*
X95284996Y-127171366D01*
X78131494Y-99493372D02*
X78158431Y-99412560D01*
X78158431Y-99412560D02*
X78239243Y-99331748D01*
X78239243Y-99331748D02*
X78346993Y-99277873D01*
X78346993Y-99277873D02*
X78454742Y-99277873D01*
X78454742Y-99277873D02*
X78535555Y-99304810D01*
X78535555Y-99304810D02*
X78670242Y-99385623D01*
X78670242Y-99385623D02*
X78751054Y-99466435D01*
X78751054Y-99466435D02*
X78831866Y-99601122D01*
X78831866Y-99601122D02*
X78858803Y-99681934D01*
X78858803Y-99681934D02*
X78858803Y-99789684D01*
X78858803Y-99789684D02*
X78804929Y-99897433D01*
X78804929Y-99897433D02*
X78751054Y-99951308D01*
X78751054Y-99951308D02*
X78643304Y-100005183D01*
X78643304Y-100005183D02*
X78589429Y-100005183D01*
X78589429Y-100005183D02*
X78400868Y-99816621D01*
X78400868Y-99816621D02*
X78508617Y-99708871D01*
X78400868Y-100301494D02*
X77835182Y-99735809D01*
X77835182Y-99735809D02*
X77619683Y-99951308D01*
X77619683Y-99951308D02*
X77592746Y-100032120D01*
X77592746Y-100032120D02*
X77592746Y-100085995D01*
X77592746Y-100085995D02*
X77619683Y-100166807D01*
X77619683Y-100166807D02*
X77700495Y-100247619D01*
X77700495Y-100247619D02*
X77781307Y-100274557D01*
X77781307Y-100274557D02*
X77835182Y-100274557D01*
X77835182Y-100274557D02*
X77915994Y-100247619D01*
X77915994Y-100247619D02*
X78131494Y-100032120D01*
X77538871Y-101163491D02*
X77862120Y-100840242D01*
X77700495Y-101001867D02*
X77134810Y-100436181D01*
X77134810Y-100436181D02*
X77269497Y-100463119D01*
X77269497Y-100463119D02*
X77377246Y-100463119D01*
X77377246Y-100463119D02*
X77458059Y-100436181D01*
X108890868Y-99069998D02*
X108917805Y-98989185D01*
X108917805Y-98989185D02*
X108998618Y-98908373D01*
X108998618Y-98908373D02*
X109106367Y-98854498D01*
X109106367Y-98854498D02*
X109214117Y-98854498D01*
X109214117Y-98854498D02*
X109294929Y-98881436D01*
X109294929Y-98881436D02*
X109429616Y-98962248D01*
X109429616Y-98962248D02*
X109510428Y-99043060D01*
X109510428Y-99043060D02*
X109591241Y-99177747D01*
X109591241Y-99177747D02*
X109618178Y-99258560D01*
X109618178Y-99258560D02*
X109618178Y-99366309D01*
X109618178Y-99366309D02*
X109564303Y-99474059D01*
X109564303Y-99474059D02*
X109510428Y-99527934D01*
X109510428Y-99527934D02*
X109402679Y-99581808D01*
X109402679Y-99581808D02*
X109348804Y-99581808D01*
X109348804Y-99581808D02*
X109160242Y-99393247D01*
X109160242Y-99393247D02*
X109267992Y-99285497D01*
X109160242Y-99878120D02*
X108594557Y-99312434D01*
X108594557Y-99312434D02*
X108379057Y-99527934D01*
X108379057Y-99527934D02*
X108352120Y-99608746D01*
X108352120Y-99608746D02*
X108352120Y-99662621D01*
X108352120Y-99662621D02*
X108379057Y-99743433D01*
X108379057Y-99743433D02*
X108459870Y-99824245D01*
X108459870Y-99824245D02*
X108540682Y-99851182D01*
X108540682Y-99851182D02*
X108594557Y-99851182D01*
X108594557Y-99851182D02*
X108675369Y-99824245D01*
X108675369Y-99824245D02*
X108890868Y-99608746D01*
X108298245Y-100740117D02*
X108621494Y-100416868D01*
X108459870Y-100578492D02*
X107894184Y-100012807D01*
X107894184Y-100012807D02*
X108028871Y-100039744D01*
X108028871Y-100039744D02*
X108136621Y-100039744D01*
X108136621Y-100039744D02*
X108217433Y-100012807D01*
X107382373Y-100524618D02*
X107328499Y-100578492D01*
X107328499Y-100578492D02*
X107301561Y-100659305D01*
X107301561Y-100659305D02*
X107301561Y-100713179D01*
X107301561Y-100713179D02*
X107328499Y-100793992D01*
X107328499Y-100793992D02*
X107409311Y-100928679D01*
X107409311Y-100928679D02*
X107543998Y-101063366D01*
X107543998Y-101063366D02*
X107678685Y-101144178D01*
X107678685Y-101144178D02*
X107759497Y-101171115D01*
X107759497Y-101171115D02*
X107813372Y-101171115D01*
X107813372Y-101171115D02*
X107894184Y-101144178D01*
X107894184Y-101144178D02*
X107948059Y-101090303D01*
X107948059Y-101090303D02*
X107974996Y-101009491D01*
X107974996Y-101009491D02*
X107974996Y-100955616D01*
X107974996Y-100955616D02*
X107948059Y-100874804D01*
X107948059Y-100874804D02*
X107867247Y-100740117D01*
X107867247Y-100740117D02*
X107732560Y-100605430D01*
X107732560Y-100605430D02*
X107597873Y-100524618D01*
X107597873Y-100524618D02*
X107517060Y-100497680D01*
X107517060Y-100497680D02*
X107463186Y-100497680D01*
X107463186Y-100497680D02*
X107382373Y-100524618D01*
X75601494Y-99593372D02*
X75628431Y-99512560D01*
X75628431Y-99512560D02*
X75709243Y-99431748D01*
X75709243Y-99431748D02*
X75816993Y-99377873D01*
X75816993Y-99377873D02*
X75924742Y-99377873D01*
X75924742Y-99377873D02*
X76005555Y-99404810D01*
X76005555Y-99404810D02*
X76140242Y-99485623D01*
X76140242Y-99485623D02*
X76221054Y-99566435D01*
X76221054Y-99566435D02*
X76301866Y-99701122D01*
X76301866Y-99701122D02*
X76328803Y-99781934D01*
X76328803Y-99781934D02*
X76328803Y-99889684D01*
X76328803Y-99889684D02*
X76274929Y-99997433D01*
X76274929Y-99997433D02*
X76221054Y-100051308D01*
X76221054Y-100051308D02*
X76113304Y-100105183D01*
X76113304Y-100105183D02*
X76059429Y-100105183D01*
X76059429Y-100105183D02*
X75870868Y-99916621D01*
X75870868Y-99916621D02*
X75978617Y-99808871D01*
X75870868Y-100401494D02*
X75305182Y-99835809D01*
X75305182Y-99835809D02*
X75089683Y-100051308D01*
X75089683Y-100051308D02*
X75062746Y-100132120D01*
X75062746Y-100132120D02*
X75062746Y-100185995D01*
X75062746Y-100185995D02*
X75089683Y-100266807D01*
X75089683Y-100266807D02*
X75170495Y-100347619D01*
X75170495Y-100347619D02*
X75251307Y-100374557D01*
X75251307Y-100374557D02*
X75305182Y-100374557D01*
X75305182Y-100374557D02*
X75385994Y-100347619D01*
X75385994Y-100347619D02*
X75601494Y-100132120D01*
X74631747Y-100509244D02*
X74577872Y-100563119D01*
X74577872Y-100563119D02*
X74550935Y-100643931D01*
X74550935Y-100643931D02*
X74550935Y-100697806D01*
X74550935Y-100697806D02*
X74577872Y-100778618D01*
X74577872Y-100778618D02*
X74658685Y-100913305D01*
X74658685Y-100913305D02*
X74793372Y-101047992D01*
X74793372Y-101047992D02*
X74928059Y-101128804D01*
X74928059Y-101128804D02*
X75008871Y-101155741D01*
X75008871Y-101155741D02*
X75062746Y-101155741D01*
X75062746Y-101155741D02*
X75143558Y-101128804D01*
X75143558Y-101128804D02*
X75197433Y-101074929D01*
X75197433Y-101074929D02*
X75224370Y-100994117D01*
X75224370Y-100994117D02*
X75224370Y-100940242D01*
X75224370Y-100940242D02*
X75197433Y-100859430D01*
X75197433Y-100859430D02*
X75116620Y-100724743D01*
X75116620Y-100724743D02*
X74981933Y-100590056D01*
X74981933Y-100590056D02*
X74847246Y-100509244D01*
X74847246Y-100509244D02*
X74766434Y-100482306D01*
X74766434Y-100482306D02*
X74712559Y-100482306D01*
X74712559Y-100482306D02*
X74631747Y-100509244D01*
X80708431Y-125166435D02*
X80735368Y-125085623D01*
X80735368Y-125085623D02*
X80816180Y-125004811D01*
X80816180Y-125004811D02*
X80923930Y-124950936D01*
X80923930Y-124950936D02*
X81031680Y-124950936D01*
X81031680Y-124950936D02*
X81112492Y-124977873D01*
X81112492Y-124977873D02*
X81247179Y-125058685D01*
X81247179Y-125058685D02*
X81327991Y-125139498D01*
X81327991Y-125139498D02*
X81408803Y-125274185D01*
X81408803Y-125274185D02*
X81435741Y-125354997D01*
X81435741Y-125354997D02*
X81435741Y-125462746D01*
X81435741Y-125462746D02*
X81381866Y-125570496D01*
X81381866Y-125570496D02*
X81327991Y-125624371D01*
X81327991Y-125624371D02*
X81220241Y-125678246D01*
X81220241Y-125678246D02*
X81166367Y-125678246D01*
X81166367Y-125678246D02*
X80977805Y-125489684D01*
X80977805Y-125489684D02*
X81085554Y-125381934D01*
X80977805Y-125974557D02*
X80412119Y-125408872D01*
X80412119Y-125408872D02*
X80654556Y-126297806D01*
X80654556Y-126297806D02*
X80088871Y-125732120D01*
X80385182Y-126567180D02*
X79819497Y-126001494D01*
X79819497Y-126001494D02*
X79684810Y-126136181D01*
X79684810Y-126136181D02*
X79630935Y-126243931D01*
X79630935Y-126243931D02*
X79630935Y-126351680D01*
X79630935Y-126351680D02*
X79657872Y-126432493D01*
X79657872Y-126432493D02*
X79738685Y-126567180D01*
X79738685Y-126567180D02*
X79819497Y-126647992D01*
X79819497Y-126647992D02*
X79954184Y-126728804D01*
X79954184Y-126728804D02*
X80034996Y-126755741D01*
X80034996Y-126755741D02*
X80142746Y-126755741D01*
X80142746Y-126755741D02*
X80250495Y-126701867D01*
X80250495Y-126701867D02*
X80385182Y-126567180D01*
X89144049Y-125235064D02*
X88874675Y-125504438D01*
X89359549Y-125342813D02*
X88605301Y-124965690D01*
X88605301Y-124965690D02*
X88982425Y-125719937D01*
X88793863Y-125908499D02*
X88228178Y-125342813D01*
X88228178Y-125342813D02*
X88093491Y-125477500D01*
X88093491Y-125477500D02*
X88039616Y-125585250D01*
X88039616Y-125585250D02*
X88039616Y-125692999D01*
X88039616Y-125692999D02*
X88066553Y-125773812D01*
X88066553Y-125773812D02*
X88147366Y-125908499D01*
X88147366Y-125908499D02*
X88228178Y-125989311D01*
X88228178Y-125989311D02*
X88362865Y-126070123D01*
X88362865Y-126070123D02*
X88443677Y-126097060D01*
X88443677Y-126097060D02*
X88551427Y-126097060D01*
X88551427Y-126097060D02*
X88659176Y-126043186D01*
X88659176Y-126043186D02*
X88793863Y-125908499D01*
X87851054Y-126743558D02*
X87904929Y-126743558D01*
X87904929Y-126743558D02*
X88012679Y-126689683D01*
X88012679Y-126689683D02*
X88066553Y-126635808D01*
X88066553Y-126635808D02*
X88120428Y-126528059D01*
X88120428Y-126528059D02*
X88120428Y-126420309D01*
X88120428Y-126420309D02*
X88093491Y-126339497D01*
X88093491Y-126339497D02*
X88012679Y-126204810D01*
X88012679Y-126204810D02*
X87931866Y-126123998D01*
X87931866Y-126123998D02*
X87797179Y-126043186D01*
X87797179Y-126043186D02*
X87716367Y-126016248D01*
X87716367Y-126016248D02*
X87608618Y-126016248D01*
X87608618Y-126016248D02*
X87500868Y-126070123D01*
X87500868Y-126070123D02*
X87446993Y-126123998D01*
X87446993Y-126123998D02*
X87393118Y-126231747D01*
X87393118Y-126231747D02*
X87393118Y-126285622D01*
X87851054Y-126959057D02*
X87420056Y-127390056D01*
X86746621Y-126824370D02*
X87123744Y-127578618D01*
X87123744Y-127578618D02*
X86369497Y-127201494D01*
X86423372Y-128278990D02*
X86342560Y-127821054D01*
X86746621Y-127955741D02*
X86180935Y-127390056D01*
X86180935Y-127390056D02*
X85965436Y-127605555D01*
X85965436Y-127605555D02*
X85938499Y-127686367D01*
X85938499Y-127686367D02*
X85938499Y-127740242D01*
X85938499Y-127740242D02*
X85965436Y-127821054D01*
X85965436Y-127821054D02*
X86046248Y-127901866D01*
X86046248Y-127901866D02*
X86127061Y-127928804D01*
X86127061Y-127928804D02*
X86180935Y-127928804D01*
X86180935Y-127928804D02*
X86261748Y-127901866D01*
X86261748Y-127901866D02*
X86477247Y-127686367D01*
X85884624Y-128225115D02*
X85696062Y-128413677D01*
X85911561Y-128790800D02*
X86180935Y-128521426D01*
X86180935Y-128521426D02*
X85615250Y-127955741D01*
X85615250Y-127955741D02*
X85345876Y-128225115D01*
X85184251Y-128925488D02*
X85372813Y-128736926D01*
X85669125Y-129033237D02*
X85103439Y-128467552D01*
X85103439Y-128467552D02*
X84834065Y-128736926D01*
X80708431Y-99566435D02*
X80735368Y-99485623D01*
X80735368Y-99485623D02*
X80816180Y-99404811D01*
X80816180Y-99404811D02*
X80923930Y-99350936D01*
X80923930Y-99350936D02*
X81031680Y-99350936D01*
X81031680Y-99350936D02*
X81112492Y-99377873D01*
X81112492Y-99377873D02*
X81247179Y-99458685D01*
X81247179Y-99458685D02*
X81327991Y-99539498D01*
X81327991Y-99539498D02*
X81408803Y-99674185D01*
X81408803Y-99674185D02*
X81435741Y-99754997D01*
X81435741Y-99754997D02*
X81435741Y-99862746D01*
X81435741Y-99862746D02*
X81381866Y-99970496D01*
X81381866Y-99970496D02*
X81327991Y-100024371D01*
X81327991Y-100024371D02*
X81220241Y-100078246D01*
X81220241Y-100078246D02*
X81166367Y-100078246D01*
X81166367Y-100078246D02*
X80977805Y-99889684D01*
X80977805Y-99889684D02*
X81085554Y-99781934D01*
X80977805Y-100374557D02*
X80412119Y-99808872D01*
X80412119Y-99808872D02*
X80654556Y-100697806D01*
X80654556Y-100697806D02*
X80088871Y-100132120D01*
X80385182Y-100967180D02*
X79819497Y-100401494D01*
X79819497Y-100401494D02*
X79684810Y-100536181D01*
X79684810Y-100536181D02*
X79630935Y-100643931D01*
X79630935Y-100643931D02*
X79630935Y-100751680D01*
X79630935Y-100751680D02*
X79657872Y-100832493D01*
X79657872Y-100832493D02*
X79738685Y-100967180D01*
X79738685Y-100967180D02*
X79819497Y-101047992D01*
X79819497Y-101047992D02*
X79954184Y-101128804D01*
X79954184Y-101128804D02*
X80034996Y-101155741D01*
X80034996Y-101155741D02*
X80142746Y-101155741D01*
X80142746Y-101155741D02*
X80250495Y-101101867D01*
X80250495Y-101101867D02*
X80385182Y-100967180D01*
X111430868Y-125177998D02*
X111457805Y-125097185D01*
X111457805Y-125097185D02*
X111538618Y-125016373D01*
X111538618Y-125016373D02*
X111646367Y-124962498D01*
X111646367Y-124962498D02*
X111754117Y-124962498D01*
X111754117Y-124962498D02*
X111834929Y-124989436D01*
X111834929Y-124989436D02*
X111969616Y-125070248D01*
X111969616Y-125070248D02*
X112050428Y-125151060D01*
X112050428Y-125151060D02*
X112131241Y-125285747D01*
X112131241Y-125285747D02*
X112158178Y-125366560D01*
X112158178Y-125366560D02*
X112158178Y-125474309D01*
X112158178Y-125474309D02*
X112104303Y-125582059D01*
X112104303Y-125582059D02*
X112050428Y-125635934D01*
X112050428Y-125635934D02*
X111942679Y-125689808D01*
X111942679Y-125689808D02*
X111888804Y-125689808D01*
X111888804Y-125689808D02*
X111700242Y-125501247D01*
X111700242Y-125501247D02*
X111807992Y-125393497D01*
X111700242Y-125986120D02*
X111134557Y-125420434D01*
X111134557Y-125420434D02*
X110919057Y-125635934D01*
X110919057Y-125635934D02*
X110892120Y-125716746D01*
X110892120Y-125716746D02*
X110892120Y-125770621D01*
X110892120Y-125770621D02*
X110919057Y-125851433D01*
X110919057Y-125851433D02*
X110999870Y-125932245D01*
X110999870Y-125932245D02*
X111080682Y-125959182D01*
X111080682Y-125959182D02*
X111134557Y-125959182D01*
X111134557Y-125959182D02*
X111215369Y-125932245D01*
X111215369Y-125932245D02*
X111430868Y-125716746D01*
X110649683Y-126013057D02*
X110595809Y-126013057D01*
X110595809Y-126013057D02*
X110514996Y-126039995D01*
X110514996Y-126039995D02*
X110380309Y-126174682D01*
X110380309Y-126174682D02*
X110353372Y-126255494D01*
X110353372Y-126255494D02*
X110353372Y-126309369D01*
X110353372Y-126309369D02*
X110380309Y-126390181D01*
X110380309Y-126390181D02*
X110434184Y-126444056D01*
X110434184Y-126444056D02*
X110541934Y-126497930D01*
X110541934Y-126497930D02*
X111188431Y-126497930D01*
X111188431Y-126497930D02*
X110838245Y-126848117D01*
X109922373Y-126632618D02*
X109868499Y-126686492D01*
X109868499Y-126686492D02*
X109841561Y-126767305D01*
X109841561Y-126767305D02*
X109841561Y-126821179D01*
X109841561Y-126821179D02*
X109868499Y-126901992D01*
X109868499Y-126901992D02*
X109949311Y-127036679D01*
X109949311Y-127036679D02*
X110083998Y-127171366D01*
X110083998Y-127171366D02*
X110218685Y-127252178D01*
X110218685Y-127252178D02*
X110299497Y-127279115D01*
X110299497Y-127279115D02*
X110353372Y-127279115D01*
X110353372Y-127279115D02*
X110434184Y-127252178D01*
X110434184Y-127252178D02*
X110488059Y-127198303D01*
X110488059Y-127198303D02*
X110514996Y-127117491D01*
X110514996Y-127117491D02*
X110514996Y-127063616D01*
X110514996Y-127063616D02*
X110488059Y-126982804D01*
X110488059Y-126982804D02*
X110407247Y-126848117D01*
X110407247Y-126848117D02*
X110272560Y-126713430D01*
X110272560Y-126713430D02*
X110137873Y-126632618D01*
X110137873Y-126632618D02*
X110057060Y-126605680D01*
X110057060Y-126605680D02*
X110003186Y-126605680D01*
X110003186Y-126605680D02*
X109922373Y-126632618D01*
X118808431Y-99566435D02*
X118835368Y-99485623D01*
X118835368Y-99485623D02*
X118916180Y-99404811D01*
X118916180Y-99404811D02*
X119023930Y-99350936D01*
X119023930Y-99350936D02*
X119131680Y-99350936D01*
X119131680Y-99350936D02*
X119212492Y-99377873D01*
X119212492Y-99377873D02*
X119347179Y-99458685D01*
X119347179Y-99458685D02*
X119427991Y-99539498D01*
X119427991Y-99539498D02*
X119508803Y-99674185D01*
X119508803Y-99674185D02*
X119535741Y-99754997D01*
X119535741Y-99754997D02*
X119535741Y-99862746D01*
X119535741Y-99862746D02*
X119481866Y-99970496D01*
X119481866Y-99970496D02*
X119427991Y-100024371D01*
X119427991Y-100024371D02*
X119320241Y-100078246D01*
X119320241Y-100078246D02*
X119266367Y-100078246D01*
X119266367Y-100078246D02*
X119077805Y-99889684D01*
X119077805Y-99889684D02*
X119185554Y-99781934D01*
X119077805Y-100374557D02*
X118512119Y-99808872D01*
X118512119Y-99808872D02*
X118754556Y-100697806D01*
X118754556Y-100697806D02*
X118188871Y-100132120D01*
X118485182Y-100967180D02*
X117919497Y-100401494D01*
X117919497Y-100401494D02*
X117784810Y-100536181D01*
X117784810Y-100536181D02*
X117730935Y-100643931D01*
X117730935Y-100643931D02*
X117730935Y-100751680D01*
X117730935Y-100751680D02*
X117757872Y-100832493D01*
X117757872Y-100832493D02*
X117838685Y-100967180D01*
X117838685Y-100967180D02*
X117919497Y-101047992D01*
X117919497Y-101047992D02*
X118054184Y-101128804D01*
X118054184Y-101128804D02*
X118134996Y-101155741D01*
X118134996Y-101155741D02*
X118242746Y-101155741D01*
X118242746Y-101155741D02*
X118350495Y-101101867D01*
X118350495Y-101101867D02*
X118485182Y-100967180D01*
X86100868Y-124970123D02*
X85750682Y-125320309D01*
X85750682Y-125320309D02*
X86154743Y-125347247D01*
X86154743Y-125347247D02*
X86073931Y-125428059D01*
X86073931Y-125428059D02*
X86046993Y-125508871D01*
X86046993Y-125508871D02*
X86046993Y-125562746D01*
X86046993Y-125562746D02*
X86073931Y-125643558D01*
X86073931Y-125643558D02*
X86208618Y-125778245D01*
X86208618Y-125778245D02*
X86289430Y-125805182D01*
X86289430Y-125805182D02*
X86343305Y-125805182D01*
X86343305Y-125805182D02*
X86424117Y-125778245D01*
X86424117Y-125778245D02*
X86585741Y-125616621D01*
X86585741Y-125616621D02*
X86612679Y-125535808D01*
X86612679Y-125535808D02*
X86612679Y-125481934D01*
X85589057Y-125481934D02*
X85966181Y-126236181D01*
X85966181Y-126236181D02*
X85211934Y-125859057D01*
X85077247Y-125993744D02*
X84727061Y-126343930D01*
X84727061Y-126343930D02*
X85131122Y-126370868D01*
X85131122Y-126370868D02*
X85050309Y-126451680D01*
X85050309Y-126451680D02*
X85023372Y-126532492D01*
X85023372Y-126532492D02*
X85023372Y-126586367D01*
X85023372Y-126586367D02*
X85050309Y-126667179D01*
X85050309Y-126667179D02*
X85184996Y-126801866D01*
X85184996Y-126801866D02*
X85265809Y-126828804D01*
X85265809Y-126828804D02*
X85319683Y-126828804D01*
X85319683Y-126828804D02*
X85400496Y-126801866D01*
X85400496Y-126801866D02*
X85562120Y-126640242D01*
X85562120Y-126640242D02*
X85589057Y-126559430D01*
X85589057Y-126559430D02*
X85589057Y-126505555D01*
X116510868Y-99069998D02*
X116537805Y-98989185D01*
X116537805Y-98989185D02*
X116618618Y-98908373D01*
X116618618Y-98908373D02*
X116726367Y-98854498D01*
X116726367Y-98854498D02*
X116834117Y-98854498D01*
X116834117Y-98854498D02*
X116914929Y-98881436D01*
X116914929Y-98881436D02*
X117049616Y-98962248D01*
X117049616Y-98962248D02*
X117130428Y-99043060D01*
X117130428Y-99043060D02*
X117211241Y-99177747D01*
X117211241Y-99177747D02*
X117238178Y-99258560D01*
X117238178Y-99258560D02*
X117238178Y-99366309D01*
X117238178Y-99366309D02*
X117184303Y-99474059D01*
X117184303Y-99474059D02*
X117130428Y-99527934D01*
X117130428Y-99527934D02*
X117022679Y-99581808D01*
X117022679Y-99581808D02*
X116968804Y-99581808D01*
X116968804Y-99581808D02*
X116780242Y-99393247D01*
X116780242Y-99393247D02*
X116887992Y-99285497D01*
X116780242Y-99878120D02*
X116214557Y-99312434D01*
X116214557Y-99312434D02*
X115999057Y-99527934D01*
X115999057Y-99527934D02*
X115972120Y-99608746D01*
X115972120Y-99608746D02*
X115972120Y-99662621D01*
X115972120Y-99662621D02*
X115999057Y-99743433D01*
X115999057Y-99743433D02*
X116079870Y-99824245D01*
X116079870Y-99824245D02*
X116160682Y-99851182D01*
X116160682Y-99851182D02*
X116214557Y-99851182D01*
X116214557Y-99851182D02*
X116295369Y-99824245D01*
X116295369Y-99824245D02*
X116510868Y-99608746D01*
X115918245Y-100740117D02*
X116241494Y-100416868D01*
X116079870Y-100578492D02*
X115514184Y-100012807D01*
X115514184Y-100012807D02*
X115648871Y-100039744D01*
X115648871Y-100039744D02*
X115756621Y-100039744D01*
X115756621Y-100039744D02*
X115837433Y-100012807D01*
X115163998Y-100362993D02*
X114813812Y-100713179D01*
X114813812Y-100713179D02*
X115217873Y-100740117D01*
X115217873Y-100740117D02*
X115137060Y-100820929D01*
X115137060Y-100820929D02*
X115110123Y-100901741D01*
X115110123Y-100901741D02*
X115110123Y-100955616D01*
X115110123Y-100955616D02*
X115137060Y-101036428D01*
X115137060Y-101036428D02*
X115271747Y-101171115D01*
X115271747Y-101171115D02*
X115352560Y-101198053D01*
X115352560Y-101198053D02*
X115406434Y-101198053D01*
X115406434Y-101198053D02*
X115487247Y-101171115D01*
X115487247Y-101171115D02*
X115648871Y-101009491D01*
X115648871Y-101009491D02*
X115675808Y-100928679D01*
X115675808Y-100928679D02*
X115675808Y-100874804D01*
X106108431Y-99566435D02*
X106135368Y-99485623D01*
X106135368Y-99485623D02*
X106216180Y-99404811D01*
X106216180Y-99404811D02*
X106323930Y-99350936D01*
X106323930Y-99350936D02*
X106431680Y-99350936D01*
X106431680Y-99350936D02*
X106512492Y-99377873D01*
X106512492Y-99377873D02*
X106647179Y-99458685D01*
X106647179Y-99458685D02*
X106727991Y-99539498D01*
X106727991Y-99539498D02*
X106808803Y-99674185D01*
X106808803Y-99674185D02*
X106835741Y-99754997D01*
X106835741Y-99754997D02*
X106835741Y-99862746D01*
X106835741Y-99862746D02*
X106781866Y-99970496D01*
X106781866Y-99970496D02*
X106727991Y-100024371D01*
X106727991Y-100024371D02*
X106620241Y-100078246D01*
X106620241Y-100078246D02*
X106566367Y-100078246D01*
X106566367Y-100078246D02*
X106377805Y-99889684D01*
X106377805Y-99889684D02*
X106485554Y-99781934D01*
X106377805Y-100374557D02*
X105812119Y-99808872D01*
X105812119Y-99808872D02*
X106054556Y-100697806D01*
X106054556Y-100697806D02*
X105488871Y-100132120D01*
X105785182Y-100967180D02*
X105219497Y-100401494D01*
X105219497Y-100401494D02*
X105084810Y-100536181D01*
X105084810Y-100536181D02*
X105030935Y-100643931D01*
X105030935Y-100643931D02*
X105030935Y-100751680D01*
X105030935Y-100751680D02*
X105057872Y-100832493D01*
X105057872Y-100832493D02*
X105138685Y-100967180D01*
X105138685Y-100967180D02*
X105219497Y-101047992D01*
X105219497Y-101047992D02*
X105354184Y-101128804D01*
X105354184Y-101128804D02*
X105434996Y-101155741D01*
X105434996Y-101155741D02*
X105542746Y-101155741D01*
X105542746Y-101155741D02*
X105650495Y-101101867D01*
X105650495Y-101101867D02*
X105785182Y-100967180D01*
X94351240Y-125231873D02*
X94081866Y-125501247D01*
X94566739Y-125339623D02*
X93812492Y-124962499D01*
X93812492Y-124962499D02*
X94189615Y-125716746D01*
X93165994Y-125662871D02*
X93192932Y-125582059D01*
X93192932Y-125582059D02*
X93273744Y-125501247D01*
X93273744Y-125501247D02*
X93381494Y-125447372D01*
X93381494Y-125447372D02*
X93489243Y-125447372D01*
X93489243Y-125447372D02*
X93570055Y-125474310D01*
X93570055Y-125474310D02*
X93704742Y-125555122D01*
X93704742Y-125555122D02*
X93785555Y-125635934D01*
X93785555Y-125635934D02*
X93866367Y-125770621D01*
X93866367Y-125770621D02*
X93893304Y-125851433D01*
X93893304Y-125851433D02*
X93893304Y-125959183D01*
X93893304Y-125959183D02*
X93839429Y-126066932D01*
X93839429Y-126066932D02*
X93785555Y-126120807D01*
X93785555Y-126120807D02*
X93677805Y-126174682D01*
X93677805Y-126174682D02*
X93623930Y-126174682D01*
X93623930Y-126174682D02*
X93435368Y-125986120D01*
X93435368Y-125986120D02*
X93543118Y-125878371D01*
X93435368Y-126470993D02*
X92869683Y-125905308D01*
X92869683Y-125905308D02*
X93112120Y-126794242D01*
X93112120Y-126794242D02*
X92546434Y-126228557D01*
X92842746Y-127063616D02*
X92277060Y-126497931D01*
X92277060Y-126497931D02*
X92142373Y-126632618D01*
X92142373Y-126632618D02*
X92088498Y-126740367D01*
X92088498Y-126740367D02*
X92088498Y-126848117D01*
X92088498Y-126848117D02*
X92115436Y-126928929D01*
X92115436Y-126928929D02*
X92196248Y-127063616D01*
X92196248Y-127063616D02*
X92277060Y-127144428D01*
X92277060Y-127144428D02*
X92411747Y-127225241D01*
X92411747Y-127225241D02*
X92492560Y-127252178D01*
X92492560Y-127252178D02*
X92600309Y-127252178D01*
X92600309Y-127252178D02*
X92708059Y-127198303D01*
X92708059Y-127198303D02*
X92842746Y-127063616D01*
X101001494Y-99593372D02*
X101028431Y-99512560D01*
X101028431Y-99512560D02*
X101109243Y-99431748D01*
X101109243Y-99431748D02*
X101216993Y-99377873D01*
X101216993Y-99377873D02*
X101324742Y-99377873D01*
X101324742Y-99377873D02*
X101405555Y-99404810D01*
X101405555Y-99404810D02*
X101540242Y-99485623D01*
X101540242Y-99485623D02*
X101621054Y-99566435D01*
X101621054Y-99566435D02*
X101701866Y-99701122D01*
X101701866Y-99701122D02*
X101728803Y-99781934D01*
X101728803Y-99781934D02*
X101728803Y-99889684D01*
X101728803Y-99889684D02*
X101674929Y-99997433D01*
X101674929Y-99997433D02*
X101621054Y-100051308D01*
X101621054Y-100051308D02*
X101513304Y-100105183D01*
X101513304Y-100105183D02*
X101459429Y-100105183D01*
X101459429Y-100105183D02*
X101270868Y-99916621D01*
X101270868Y-99916621D02*
X101378617Y-99808871D01*
X101270868Y-100401494D02*
X100705182Y-99835809D01*
X100705182Y-99835809D02*
X100489683Y-100051308D01*
X100489683Y-100051308D02*
X100462746Y-100132120D01*
X100462746Y-100132120D02*
X100462746Y-100185995D01*
X100462746Y-100185995D02*
X100489683Y-100266807D01*
X100489683Y-100266807D02*
X100570495Y-100347619D01*
X100570495Y-100347619D02*
X100651307Y-100374557D01*
X100651307Y-100374557D02*
X100705182Y-100374557D01*
X100705182Y-100374557D02*
X100785994Y-100347619D01*
X100785994Y-100347619D02*
X101001494Y-100132120D01*
X100301121Y-100724743D02*
X100328059Y-100643931D01*
X100328059Y-100643931D02*
X100328059Y-100590056D01*
X100328059Y-100590056D02*
X100301121Y-100509244D01*
X100301121Y-100509244D02*
X100274184Y-100482306D01*
X100274184Y-100482306D02*
X100193372Y-100455369D01*
X100193372Y-100455369D02*
X100139497Y-100455369D01*
X100139497Y-100455369D02*
X100058685Y-100482306D01*
X100058685Y-100482306D02*
X99950935Y-100590056D01*
X99950935Y-100590056D02*
X99923998Y-100670868D01*
X99923998Y-100670868D02*
X99923998Y-100724743D01*
X99923998Y-100724743D02*
X99950935Y-100805555D01*
X99950935Y-100805555D02*
X99977872Y-100832493D01*
X99977872Y-100832493D02*
X100058685Y-100859430D01*
X100058685Y-100859430D02*
X100112559Y-100859430D01*
X100112559Y-100859430D02*
X100193372Y-100832493D01*
X100193372Y-100832493D02*
X100301121Y-100724743D01*
X100301121Y-100724743D02*
X100381933Y-100697806D01*
X100381933Y-100697806D02*
X100435808Y-100697806D01*
X100435808Y-100697806D02*
X100516620Y-100724743D01*
X100516620Y-100724743D02*
X100624370Y-100832493D01*
X100624370Y-100832493D02*
X100651307Y-100913305D01*
X100651307Y-100913305D02*
X100651307Y-100967180D01*
X100651307Y-100967180D02*
X100624370Y-101047992D01*
X100624370Y-101047992D02*
X100516620Y-101155741D01*
X100516620Y-101155741D02*
X100435808Y-101182679D01*
X100435808Y-101182679D02*
X100381933Y-101182679D01*
X100381933Y-101182679D02*
X100301121Y-101155741D01*
X100301121Y-101155741D02*
X100193372Y-101047992D01*
X100193372Y-101047992D02*
X100166434Y-100967180D01*
X100166434Y-100967180D02*
X100166434Y-100913305D01*
X100166434Y-100913305D02*
X100193372Y-100832493D01*
X83221494Y-99493372D02*
X83248431Y-99412560D01*
X83248431Y-99412560D02*
X83329243Y-99331748D01*
X83329243Y-99331748D02*
X83436993Y-99277873D01*
X83436993Y-99277873D02*
X83544742Y-99277873D01*
X83544742Y-99277873D02*
X83625555Y-99304810D01*
X83625555Y-99304810D02*
X83760242Y-99385623D01*
X83760242Y-99385623D02*
X83841054Y-99466435D01*
X83841054Y-99466435D02*
X83921866Y-99601122D01*
X83921866Y-99601122D02*
X83948803Y-99681934D01*
X83948803Y-99681934D02*
X83948803Y-99789684D01*
X83948803Y-99789684D02*
X83894929Y-99897433D01*
X83894929Y-99897433D02*
X83841054Y-99951308D01*
X83841054Y-99951308D02*
X83733304Y-100005183D01*
X83733304Y-100005183D02*
X83679429Y-100005183D01*
X83679429Y-100005183D02*
X83490868Y-99816621D01*
X83490868Y-99816621D02*
X83598617Y-99708871D01*
X83490868Y-100301494D02*
X82925182Y-99735809D01*
X82925182Y-99735809D02*
X82709683Y-99951308D01*
X82709683Y-99951308D02*
X82682746Y-100032120D01*
X82682746Y-100032120D02*
X82682746Y-100085995D01*
X82682746Y-100085995D02*
X82709683Y-100166807D01*
X82709683Y-100166807D02*
X82790495Y-100247619D01*
X82790495Y-100247619D02*
X82871307Y-100274557D01*
X82871307Y-100274557D02*
X82925182Y-100274557D01*
X82925182Y-100274557D02*
X83005994Y-100247619D01*
X83005994Y-100247619D02*
X83221494Y-100032120D01*
X82440309Y-100328432D02*
X82386434Y-100328432D01*
X82386434Y-100328432D02*
X82305622Y-100355369D01*
X82305622Y-100355369D02*
X82170935Y-100490056D01*
X82170935Y-100490056D02*
X82143998Y-100570868D01*
X82143998Y-100570868D02*
X82143998Y-100624743D01*
X82143998Y-100624743D02*
X82170935Y-100705555D01*
X82170935Y-100705555D02*
X82224810Y-100759430D01*
X82224810Y-100759430D02*
X82332559Y-100813305D01*
X82332559Y-100813305D02*
X82979057Y-100813305D01*
X82979057Y-100813305D02*
X82628871Y-101163491D01*
X121590868Y-125177998D02*
X121617805Y-125097185D01*
X121617805Y-125097185D02*
X121698618Y-125016373D01*
X121698618Y-125016373D02*
X121806367Y-124962498D01*
X121806367Y-124962498D02*
X121914117Y-124962498D01*
X121914117Y-124962498D02*
X121994929Y-124989436D01*
X121994929Y-124989436D02*
X122129616Y-125070248D01*
X122129616Y-125070248D02*
X122210428Y-125151060D01*
X122210428Y-125151060D02*
X122291241Y-125285747D01*
X122291241Y-125285747D02*
X122318178Y-125366560D01*
X122318178Y-125366560D02*
X122318178Y-125474309D01*
X122318178Y-125474309D02*
X122264303Y-125582059D01*
X122264303Y-125582059D02*
X122210428Y-125635934D01*
X122210428Y-125635934D02*
X122102679Y-125689808D01*
X122102679Y-125689808D02*
X122048804Y-125689808D01*
X122048804Y-125689808D02*
X121860242Y-125501247D01*
X121860242Y-125501247D02*
X121967992Y-125393497D01*
X121860242Y-125986120D02*
X121294557Y-125420434D01*
X121294557Y-125420434D02*
X121079057Y-125635934D01*
X121079057Y-125635934D02*
X121052120Y-125716746D01*
X121052120Y-125716746D02*
X121052120Y-125770621D01*
X121052120Y-125770621D02*
X121079057Y-125851433D01*
X121079057Y-125851433D02*
X121159870Y-125932245D01*
X121159870Y-125932245D02*
X121240682Y-125959182D01*
X121240682Y-125959182D02*
X121294557Y-125959182D01*
X121294557Y-125959182D02*
X121375369Y-125932245D01*
X121375369Y-125932245D02*
X121590868Y-125716746D01*
X120998245Y-126848117D02*
X121321494Y-126524868D01*
X121159870Y-126686492D02*
X120594184Y-126120807D01*
X120594184Y-126120807D02*
X120728871Y-126147744D01*
X120728871Y-126147744D02*
X120836621Y-126147744D01*
X120836621Y-126147744D02*
X120917433Y-126120807D01*
X120243998Y-126470993D02*
X119866874Y-126848117D01*
X119866874Y-126848117D02*
X120674996Y-127171366D01*
X103541494Y-99593372D02*
X103568431Y-99512560D01*
X103568431Y-99512560D02*
X103649243Y-99431748D01*
X103649243Y-99431748D02*
X103756993Y-99377873D01*
X103756993Y-99377873D02*
X103864742Y-99377873D01*
X103864742Y-99377873D02*
X103945555Y-99404810D01*
X103945555Y-99404810D02*
X104080242Y-99485623D01*
X104080242Y-99485623D02*
X104161054Y-99566435D01*
X104161054Y-99566435D02*
X104241866Y-99701122D01*
X104241866Y-99701122D02*
X104268803Y-99781934D01*
X104268803Y-99781934D02*
X104268803Y-99889684D01*
X104268803Y-99889684D02*
X104214929Y-99997433D01*
X104214929Y-99997433D02*
X104161054Y-100051308D01*
X104161054Y-100051308D02*
X104053304Y-100105183D01*
X104053304Y-100105183D02*
X103999429Y-100105183D01*
X103999429Y-100105183D02*
X103810868Y-99916621D01*
X103810868Y-99916621D02*
X103918617Y-99808871D01*
X103810868Y-100401494D02*
X103245182Y-99835809D01*
X103245182Y-99835809D02*
X103029683Y-100051308D01*
X103029683Y-100051308D02*
X103002746Y-100132120D01*
X103002746Y-100132120D02*
X103002746Y-100185995D01*
X103002746Y-100185995D02*
X103029683Y-100266807D01*
X103029683Y-100266807D02*
X103110495Y-100347619D01*
X103110495Y-100347619D02*
X103191307Y-100374557D01*
X103191307Y-100374557D02*
X103245182Y-100374557D01*
X103245182Y-100374557D02*
X103325994Y-100347619D01*
X103325994Y-100347619D02*
X103541494Y-100132120D01*
X103218245Y-100994117D02*
X103110495Y-101101867D01*
X103110495Y-101101867D02*
X103029683Y-101128804D01*
X103029683Y-101128804D02*
X102975808Y-101128804D01*
X102975808Y-101128804D02*
X102841121Y-101101867D01*
X102841121Y-101101867D02*
X102706434Y-101021054D01*
X102706434Y-101021054D02*
X102490935Y-100805555D01*
X102490935Y-100805555D02*
X102463998Y-100724743D01*
X102463998Y-100724743D02*
X102463998Y-100670868D01*
X102463998Y-100670868D02*
X102490935Y-100590056D01*
X102490935Y-100590056D02*
X102598685Y-100482306D01*
X102598685Y-100482306D02*
X102679497Y-100455369D01*
X102679497Y-100455369D02*
X102733372Y-100455369D01*
X102733372Y-100455369D02*
X102814184Y-100482306D01*
X102814184Y-100482306D02*
X102948871Y-100616993D01*
X102948871Y-100616993D02*
X102975808Y-100697806D01*
X102975808Y-100697806D02*
X102975808Y-100751680D01*
X102975808Y-100751680D02*
X102948871Y-100832493D01*
X102948871Y-100832493D02*
X102841121Y-100940242D01*
X102841121Y-100940242D02*
X102760309Y-100967180D01*
X102760309Y-100967180D02*
X102706434Y-100967180D01*
X102706434Y-100967180D02*
X102625622Y-100940242D01*
X113970868Y-98923998D02*
X113997805Y-98843185D01*
X113997805Y-98843185D02*
X114078618Y-98762373D01*
X114078618Y-98762373D02*
X114186367Y-98708498D01*
X114186367Y-98708498D02*
X114294117Y-98708498D01*
X114294117Y-98708498D02*
X114374929Y-98735436D01*
X114374929Y-98735436D02*
X114509616Y-98816248D01*
X114509616Y-98816248D02*
X114590428Y-98897060D01*
X114590428Y-98897060D02*
X114671241Y-99031747D01*
X114671241Y-99031747D02*
X114698178Y-99112560D01*
X114698178Y-99112560D02*
X114698178Y-99220309D01*
X114698178Y-99220309D02*
X114644303Y-99328059D01*
X114644303Y-99328059D02*
X114590428Y-99381934D01*
X114590428Y-99381934D02*
X114482679Y-99435808D01*
X114482679Y-99435808D02*
X114428804Y-99435808D01*
X114428804Y-99435808D02*
X114240242Y-99247247D01*
X114240242Y-99247247D02*
X114347992Y-99139497D01*
X114240242Y-99732120D02*
X113674557Y-99166434D01*
X113674557Y-99166434D02*
X113459057Y-99381934D01*
X113459057Y-99381934D02*
X113432120Y-99462746D01*
X113432120Y-99462746D02*
X113432120Y-99516621D01*
X113432120Y-99516621D02*
X113459057Y-99597433D01*
X113459057Y-99597433D02*
X113539870Y-99678245D01*
X113539870Y-99678245D02*
X113620682Y-99705182D01*
X113620682Y-99705182D02*
X113674557Y-99705182D01*
X113674557Y-99705182D02*
X113755369Y-99678245D01*
X113755369Y-99678245D02*
X113970868Y-99462746D01*
X113378245Y-100594117D02*
X113701494Y-100270868D01*
X113539870Y-100432492D02*
X112974184Y-99866807D01*
X112974184Y-99866807D02*
X113108871Y-99893744D01*
X113108871Y-99893744D02*
X113216621Y-99893744D01*
X113216621Y-99893744D02*
X113297433Y-99866807D01*
X112650935Y-100297805D02*
X112597060Y-100297805D01*
X112597060Y-100297805D02*
X112516248Y-100324743D01*
X112516248Y-100324743D02*
X112381561Y-100459430D01*
X112381561Y-100459430D02*
X112354624Y-100540242D01*
X112354624Y-100540242D02*
X112354624Y-100594117D01*
X112354624Y-100594117D02*
X112381561Y-100674929D01*
X112381561Y-100674929D02*
X112435436Y-100728804D01*
X112435436Y-100728804D02*
X112543186Y-100782679D01*
X112543186Y-100782679D02*
X113189683Y-100782679D01*
X113189683Y-100782679D02*
X112839497Y-101132865D01*
X90841494Y-99593372D02*
X90868431Y-99512560D01*
X90868431Y-99512560D02*
X90949243Y-99431748D01*
X90949243Y-99431748D02*
X91056993Y-99377873D01*
X91056993Y-99377873D02*
X91164742Y-99377873D01*
X91164742Y-99377873D02*
X91245555Y-99404810D01*
X91245555Y-99404810D02*
X91380242Y-99485623D01*
X91380242Y-99485623D02*
X91461054Y-99566435D01*
X91461054Y-99566435D02*
X91541866Y-99701122D01*
X91541866Y-99701122D02*
X91568803Y-99781934D01*
X91568803Y-99781934D02*
X91568803Y-99889684D01*
X91568803Y-99889684D02*
X91514929Y-99997433D01*
X91514929Y-99997433D02*
X91461054Y-100051308D01*
X91461054Y-100051308D02*
X91353304Y-100105183D01*
X91353304Y-100105183D02*
X91299429Y-100105183D01*
X91299429Y-100105183D02*
X91110868Y-99916621D01*
X91110868Y-99916621D02*
X91218617Y-99808871D01*
X91110868Y-100401494D02*
X90545182Y-99835809D01*
X90545182Y-99835809D02*
X90329683Y-100051308D01*
X90329683Y-100051308D02*
X90302746Y-100132120D01*
X90302746Y-100132120D02*
X90302746Y-100185995D01*
X90302746Y-100185995D02*
X90329683Y-100266807D01*
X90329683Y-100266807D02*
X90410495Y-100347619D01*
X90410495Y-100347619D02*
X90491307Y-100374557D01*
X90491307Y-100374557D02*
X90545182Y-100374557D01*
X90545182Y-100374557D02*
X90625994Y-100347619D01*
X90625994Y-100347619D02*
X90841494Y-100132120D01*
X89710123Y-100670868D02*
X89979497Y-100401494D01*
X89979497Y-100401494D02*
X90275808Y-100643931D01*
X90275808Y-100643931D02*
X90221933Y-100643931D01*
X90221933Y-100643931D02*
X90141121Y-100670868D01*
X90141121Y-100670868D02*
X90006434Y-100805555D01*
X90006434Y-100805555D02*
X89979497Y-100886367D01*
X89979497Y-100886367D02*
X89979497Y-100940242D01*
X89979497Y-100940242D02*
X90006434Y-101021054D01*
X90006434Y-101021054D02*
X90141121Y-101155741D01*
X90141121Y-101155741D02*
X90221933Y-101182679D01*
X90221933Y-101182679D02*
X90275808Y-101182679D01*
X90275808Y-101182679D02*
X90356620Y-101155741D01*
X90356620Y-101155741D02*
X90491307Y-101021054D01*
X90491307Y-101021054D02*
X90518245Y-100940242D01*
X90518245Y-100940242D02*
X90518245Y-100886367D01*
X88301494Y-99593372D02*
X88328431Y-99512560D01*
X88328431Y-99512560D02*
X88409243Y-99431748D01*
X88409243Y-99431748D02*
X88516993Y-99377873D01*
X88516993Y-99377873D02*
X88624742Y-99377873D01*
X88624742Y-99377873D02*
X88705555Y-99404810D01*
X88705555Y-99404810D02*
X88840242Y-99485623D01*
X88840242Y-99485623D02*
X88921054Y-99566435D01*
X88921054Y-99566435D02*
X89001866Y-99701122D01*
X89001866Y-99701122D02*
X89028803Y-99781934D01*
X89028803Y-99781934D02*
X89028803Y-99889684D01*
X89028803Y-99889684D02*
X88974929Y-99997433D01*
X88974929Y-99997433D02*
X88921054Y-100051308D01*
X88921054Y-100051308D02*
X88813304Y-100105183D01*
X88813304Y-100105183D02*
X88759429Y-100105183D01*
X88759429Y-100105183D02*
X88570868Y-99916621D01*
X88570868Y-99916621D02*
X88678617Y-99808871D01*
X88570868Y-100401494D02*
X88005182Y-99835809D01*
X88005182Y-99835809D02*
X87789683Y-100051308D01*
X87789683Y-100051308D02*
X87762746Y-100132120D01*
X87762746Y-100132120D02*
X87762746Y-100185995D01*
X87762746Y-100185995D02*
X87789683Y-100266807D01*
X87789683Y-100266807D02*
X87870495Y-100347619D01*
X87870495Y-100347619D02*
X87951307Y-100374557D01*
X87951307Y-100374557D02*
X88005182Y-100374557D01*
X88005182Y-100374557D02*
X88085994Y-100347619D01*
X88085994Y-100347619D02*
X88301494Y-100132120D01*
X87385622Y-100832493D02*
X87762746Y-101209616D01*
X87304810Y-100482306D02*
X87843558Y-100751680D01*
X87843558Y-100751680D02*
X87493372Y-101101867D01*
X103810868Y-125177998D02*
X103837805Y-125097185D01*
X103837805Y-125097185D02*
X103918618Y-125016373D01*
X103918618Y-125016373D02*
X104026367Y-124962498D01*
X104026367Y-124962498D02*
X104134117Y-124962498D01*
X104134117Y-124962498D02*
X104214929Y-124989436D01*
X104214929Y-124989436D02*
X104349616Y-125070248D01*
X104349616Y-125070248D02*
X104430428Y-125151060D01*
X104430428Y-125151060D02*
X104511241Y-125285747D01*
X104511241Y-125285747D02*
X104538178Y-125366560D01*
X104538178Y-125366560D02*
X104538178Y-125474309D01*
X104538178Y-125474309D02*
X104484303Y-125582059D01*
X104484303Y-125582059D02*
X104430428Y-125635934D01*
X104430428Y-125635934D02*
X104322679Y-125689808D01*
X104322679Y-125689808D02*
X104268804Y-125689808D01*
X104268804Y-125689808D02*
X104080242Y-125501247D01*
X104080242Y-125501247D02*
X104187992Y-125393497D01*
X104080242Y-125986120D02*
X103514557Y-125420434D01*
X103514557Y-125420434D02*
X103299057Y-125635934D01*
X103299057Y-125635934D02*
X103272120Y-125716746D01*
X103272120Y-125716746D02*
X103272120Y-125770621D01*
X103272120Y-125770621D02*
X103299057Y-125851433D01*
X103299057Y-125851433D02*
X103379870Y-125932245D01*
X103379870Y-125932245D02*
X103460682Y-125959182D01*
X103460682Y-125959182D02*
X103514557Y-125959182D01*
X103514557Y-125959182D02*
X103595369Y-125932245D01*
X103595369Y-125932245D02*
X103810868Y-125716746D01*
X103029683Y-126013057D02*
X102975809Y-126013057D01*
X102975809Y-126013057D02*
X102894996Y-126039995D01*
X102894996Y-126039995D02*
X102760309Y-126174682D01*
X102760309Y-126174682D02*
X102733372Y-126255494D01*
X102733372Y-126255494D02*
X102733372Y-126309369D01*
X102733372Y-126309369D02*
X102760309Y-126390181D01*
X102760309Y-126390181D02*
X102814184Y-126444056D01*
X102814184Y-126444056D02*
X102921934Y-126497930D01*
X102921934Y-126497930D02*
X103568431Y-126497930D01*
X103568431Y-126497930D02*
X103218245Y-126848117D01*
X102490935Y-126551805D02*
X102437060Y-126551805D01*
X102437060Y-126551805D02*
X102356248Y-126578743D01*
X102356248Y-126578743D02*
X102221561Y-126713430D01*
X102221561Y-126713430D02*
X102194624Y-126794242D01*
X102194624Y-126794242D02*
X102194624Y-126848117D01*
X102194624Y-126848117D02*
X102221561Y-126928929D01*
X102221561Y-126928929D02*
X102275436Y-126982804D01*
X102275436Y-126982804D02*
X102383186Y-127036679D01*
X102383186Y-127036679D02*
X103029683Y-127036679D01*
X103029683Y-127036679D02*
X102679497Y-127386865D01*
X113970868Y-125177998D02*
X113997805Y-125097185D01*
X113997805Y-125097185D02*
X114078618Y-125016373D01*
X114078618Y-125016373D02*
X114186367Y-124962498D01*
X114186367Y-124962498D02*
X114294117Y-124962498D01*
X114294117Y-124962498D02*
X114374929Y-124989436D01*
X114374929Y-124989436D02*
X114509616Y-125070248D01*
X114509616Y-125070248D02*
X114590428Y-125151060D01*
X114590428Y-125151060D02*
X114671241Y-125285747D01*
X114671241Y-125285747D02*
X114698178Y-125366560D01*
X114698178Y-125366560D02*
X114698178Y-125474309D01*
X114698178Y-125474309D02*
X114644303Y-125582059D01*
X114644303Y-125582059D02*
X114590428Y-125635934D01*
X114590428Y-125635934D02*
X114482679Y-125689808D01*
X114482679Y-125689808D02*
X114428804Y-125689808D01*
X114428804Y-125689808D02*
X114240242Y-125501247D01*
X114240242Y-125501247D02*
X114347992Y-125393497D01*
X114240242Y-125986120D02*
X113674557Y-125420434D01*
X113674557Y-125420434D02*
X113459057Y-125635934D01*
X113459057Y-125635934D02*
X113432120Y-125716746D01*
X113432120Y-125716746D02*
X113432120Y-125770621D01*
X113432120Y-125770621D02*
X113459057Y-125851433D01*
X113459057Y-125851433D02*
X113539870Y-125932245D01*
X113539870Y-125932245D02*
X113620682Y-125959182D01*
X113620682Y-125959182D02*
X113674557Y-125959182D01*
X113674557Y-125959182D02*
X113755369Y-125932245D01*
X113755369Y-125932245D02*
X113970868Y-125716746D01*
X113378245Y-126848117D02*
X113701494Y-126524868D01*
X113539870Y-126686492D02*
X112974184Y-126120807D01*
X112974184Y-126120807D02*
X113108871Y-126147744D01*
X113108871Y-126147744D02*
X113216621Y-126147744D01*
X113216621Y-126147744D02*
X113297433Y-126120807D01*
X113108871Y-127117491D02*
X113001121Y-127225240D01*
X113001121Y-127225240D02*
X112920309Y-127252178D01*
X112920309Y-127252178D02*
X112866434Y-127252178D01*
X112866434Y-127252178D02*
X112731747Y-127225240D01*
X112731747Y-127225240D02*
X112597060Y-127144428D01*
X112597060Y-127144428D02*
X112381561Y-126928929D01*
X112381561Y-126928929D02*
X112354624Y-126848117D01*
X112354624Y-126848117D02*
X112354624Y-126794242D01*
X112354624Y-126794242D02*
X112381561Y-126713430D01*
X112381561Y-126713430D02*
X112489311Y-126605680D01*
X112489311Y-126605680D02*
X112570123Y-126578743D01*
X112570123Y-126578743D02*
X112623998Y-126578743D01*
X112623998Y-126578743D02*
X112704810Y-126605680D01*
X112704810Y-126605680D02*
X112839497Y-126740367D01*
X112839497Y-126740367D02*
X112866434Y-126821179D01*
X112866434Y-126821179D02*
X112866434Y-126875054D01*
X112866434Y-126875054D02*
X112839497Y-126955866D01*
X112839497Y-126955866D02*
X112731747Y-127063616D01*
X112731747Y-127063616D02*
X112650935Y-127090553D01*
X112650935Y-127090553D02*
X112597060Y-127090553D01*
X112597060Y-127090553D02*
X112516248Y-127063616D01*
X83568584Y-125002407D02*
X83218398Y-125352593D01*
X83218398Y-125352593D02*
X83622459Y-125379531D01*
X83622459Y-125379531D02*
X83541646Y-125460343D01*
X83541646Y-125460343D02*
X83514709Y-125541155D01*
X83514709Y-125541155D02*
X83514709Y-125595030D01*
X83514709Y-125595030D02*
X83541646Y-125675842D01*
X83541646Y-125675842D02*
X83676333Y-125810529D01*
X83676333Y-125810529D02*
X83757146Y-125837467D01*
X83757146Y-125837467D02*
X83811020Y-125837467D01*
X83811020Y-125837467D02*
X83891833Y-125810529D01*
X83891833Y-125810529D02*
X84053457Y-125648905D01*
X84053457Y-125648905D02*
X84080394Y-125568093D01*
X84080394Y-125568093D02*
X84080394Y-125514218D01*
X83056773Y-125514218D02*
X83433897Y-126268465D01*
X83433897Y-126268465D02*
X82679649Y-125891342D01*
X82544963Y-126026028D02*
X82194776Y-126376215D01*
X82194776Y-126376215D02*
X82598837Y-126403152D01*
X82598837Y-126403152D02*
X82518025Y-126483964D01*
X82518025Y-126483964D02*
X82491088Y-126564776D01*
X82491088Y-126564776D02*
X82491088Y-126618651D01*
X82491088Y-126618651D02*
X82518025Y-126699464D01*
X82518025Y-126699464D02*
X82652712Y-126834151D01*
X82652712Y-126834151D02*
X82733524Y-126861088D01*
X82733524Y-126861088D02*
X82787399Y-126861088D01*
X82787399Y-126861088D02*
X82868211Y-126834151D01*
X82868211Y-126834151D02*
X83029836Y-126672526D01*
X83029836Y-126672526D02*
X83056773Y-126591714D01*
X83056773Y-126591714D02*
X83056773Y-126537839D01*
X82706587Y-127103525D02*
X82275588Y-127534523D01*
X81790715Y-127319024D02*
X81602153Y-127507586D01*
X81817652Y-127884709D02*
X82087026Y-127615335D01*
X82087026Y-127615335D02*
X81521341Y-127049650D01*
X81521341Y-127049650D02*
X81251967Y-127319024D01*
X81575215Y-128127146D02*
X81009530Y-127561461D01*
X81009530Y-127561461D02*
X81251967Y-128450395D01*
X81251967Y-128450395D02*
X80686281Y-127884710D01*
X124130868Y-99069998D02*
X124157805Y-98989185D01*
X124157805Y-98989185D02*
X124238618Y-98908373D01*
X124238618Y-98908373D02*
X124346367Y-98854498D01*
X124346367Y-98854498D02*
X124454117Y-98854498D01*
X124454117Y-98854498D02*
X124534929Y-98881436D01*
X124534929Y-98881436D02*
X124669616Y-98962248D01*
X124669616Y-98962248D02*
X124750428Y-99043060D01*
X124750428Y-99043060D02*
X124831241Y-99177747D01*
X124831241Y-99177747D02*
X124858178Y-99258560D01*
X124858178Y-99258560D02*
X124858178Y-99366309D01*
X124858178Y-99366309D02*
X124804303Y-99474059D01*
X124804303Y-99474059D02*
X124750428Y-99527934D01*
X124750428Y-99527934D02*
X124642679Y-99581808D01*
X124642679Y-99581808D02*
X124588804Y-99581808D01*
X124588804Y-99581808D02*
X124400242Y-99393247D01*
X124400242Y-99393247D02*
X124507992Y-99285497D01*
X124400242Y-99878120D02*
X123834557Y-99312434D01*
X123834557Y-99312434D02*
X123619057Y-99527934D01*
X123619057Y-99527934D02*
X123592120Y-99608746D01*
X123592120Y-99608746D02*
X123592120Y-99662621D01*
X123592120Y-99662621D02*
X123619057Y-99743433D01*
X123619057Y-99743433D02*
X123699870Y-99824245D01*
X123699870Y-99824245D02*
X123780682Y-99851182D01*
X123780682Y-99851182D02*
X123834557Y-99851182D01*
X123834557Y-99851182D02*
X123915369Y-99824245D01*
X123915369Y-99824245D02*
X124130868Y-99608746D01*
X123538245Y-100740117D02*
X123861494Y-100416868D01*
X123699870Y-100578492D02*
X123134184Y-100012807D01*
X123134184Y-100012807D02*
X123268871Y-100039744D01*
X123268871Y-100039744D02*
X123376621Y-100039744D01*
X123376621Y-100039744D02*
X123457433Y-100012807D01*
X122460749Y-100686242D02*
X122730123Y-100416868D01*
X122730123Y-100416868D02*
X123026434Y-100659305D01*
X123026434Y-100659305D02*
X122972560Y-100659305D01*
X122972560Y-100659305D02*
X122891747Y-100686242D01*
X122891747Y-100686242D02*
X122757060Y-100820929D01*
X122757060Y-100820929D02*
X122730123Y-100901741D01*
X122730123Y-100901741D02*
X122730123Y-100955616D01*
X122730123Y-100955616D02*
X122757060Y-101036428D01*
X122757060Y-101036428D02*
X122891747Y-101171115D01*
X122891747Y-101171115D02*
X122972560Y-101198053D01*
X122972560Y-101198053D02*
X123026434Y-101198053D01*
X123026434Y-101198053D02*
X123107247Y-101171115D01*
X123107247Y-101171115D02*
X123241934Y-101036428D01*
X123241934Y-101036428D02*
X123268871Y-100955616D01*
X123268871Y-100955616D02*
X123268871Y-100901741D01*
X118808431Y-125166435D02*
X118835368Y-125085623D01*
X118835368Y-125085623D02*
X118916180Y-125004811D01*
X118916180Y-125004811D02*
X119023930Y-124950936D01*
X119023930Y-124950936D02*
X119131680Y-124950936D01*
X119131680Y-124950936D02*
X119212492Y-124977873D01*
X119212492Y-124977873D02*
X119347179Y-125058685D01*
X119347179Y-125058685D02*
X119427991Y-125139498D01*
X119427991Y-125139498D02*
X119508803Y-125274185D01*
X119508803Y-125274185D02*
X119535741Y-125354997D01*
X119535741Y-125354997D02*
X119535741Y-125462746D01*
X119535741Y-125462746D02*
X119481866Y-125570496D01*
X119481866Y-125570496D02*
X119427991Y-125624371D01*
X119427991Y-125624371D02*
X119320241Y-125678246D01*
X119320241Y-125678246D02*
X119266367Y-125678246D01*
X119266367Y-125678246D02*
X119077805Y-125489684D01*
X119077805Y-125489684D02*
X119185554Y-125381934D01*
X119077805Y-125974557D02*
X118512119Y-125408872D01*
X118512119Y-125408872D02*
X118754556Y-126297806D01*
X118754556Y-126297806D02*
X118188871Y-125732120D01*
X118485182Y-126567180D02*
X117919497Y-126001494D01*
X117919497Y-126001494D02*
X117784810Y-126136181D01*
X117784810Y-126136181D02*
X117730935Y-126243931D01*
X117730935Y-126243931D02*
X117730935Y-126351680D01*
X117730935Y-126351680D02*
X117757872Y-126432493D01*
X117757872Y-126432493D02*
X117838685Y-126567180D01*
X117838685Y-126567180D02*
X117919497Y-126647992D01*
X117919497Y-126647992D02*
X118054184Y-126728804D01*
X118054184Y-126728804D02*
X118134996Y-126755741D01*
X118134996Y-126755741D02*
X118242746Y-126755741D01*
X118242746Y-126755741D02*
X118350495Y-126701867D01*
X118350495Y-126701867D02*
X118485182Y-126567180D01*
X101553710Y-125918651D02*
X101472898Y-125460716D01*
X101876959Y-125595403D02*
X101311274Y-125029717D01*
X101311274Y-125029717D02*
X101095775Y-125245216D01*
X101095775Y-125245216D02*
X101068837Y-125326029D01*
X101068837Y-125326029D02*
X101068837Y-125379903D01*
X101068837Y-125379903D02*
X101095775Y-125460716D01*
X101095775Y-125460716D02*
X101176587Y-125541528D01*
X101176587Y-125541528D02*
X101257399Y-125568465D01*
X101257399Y-125568465D02*
X101311274Y-125568465D01*
X101311274Y-125568465D02*
X101392086Y-125541528D01*
X101392086Y-125541528D02*
X101607585Y-125326029D01*
X100745588Y-125595403D02*
X101203524Y-126053338D01*
X101203524Y-126053338D02*
X101230462Y-126134151D01*
X101230462Y-126134151D02*
X101230462Y-126188025D01*
X101230462Y-126188025D02*
X101203524Y-126268838D01*
X101203524Y-126268838D02*
X101095775Y-126376587D01*
X101095775Y-126376587D02*
X101014962Y-126403525D01*
X101014962Y-126403525D02*
X100961088Y-126403525D01*
X100961088Y-126403525D02*
X100880275Y-126376587D01*
X100880275Y-126376587D02*
X100422340Y-125918651D01*
X100718651Y-126753711D02*
X100152966Y-126188025D01*
X100152966Y-126188025D02*
X100395402Y-127076959D01*
X100395402Y-127076959D02*
X99829717Y-126511274D01*
X85761494Y-99593372D02*
X85788431Y-99512560D01*
X85788431Y-99512560D02*
X85869243Y-99431748D01*
X85869243Y-99431748D02*
X85976993Y-99377873D01*
X85976993Y-99377873D02*
X86084742Y-99377873D01*
X86084742Y-99377873D02*
X86165555Y-99404810D01*
X86165555Y-99404810D02*
X86300242Y-99485623D01*
X86300242Y-99485623D02*
X86381054Y-99566435D01*
X86381054Y-99566435D02*
X86461866Y-99701122D01*
X86461866Y-99701122D02*
X86488803Y-99781934D01*
X86488803Y-99781934D02*
X86488803Y-99889684D01*
X86488803Y-99889684D02*
X86434929Y-99997433D01*
X86434929Y-99997433D02*
X86381054Y-100051308D01*
X86381054Y-100051308D02*
X86273304Y-100105183D01*
X86273304Y-100105183D02*
X86219429Y-100105183D01*
X86219429Y-100105183D02*
X86030868Y-99916621D01*
X86030868Y-99916621D02*
X86138617Y-99808871D01*
X86030868Y-100401494D02*
X85465182Y-99835809D01*
X85465182Y-99835809D02*
X85249683Y-100051308D01*
X85249683Y-100051308D02*
X85222746Y-100132120D01*
X85222746Y-100132120D02*
X85222746Y-100185995D01*
X85222746Y-100185995D02*
X85249683Y-100266807D01*
X85249683Y-100266807D02*
X85330495Y-100347619D01*
X85330495Y-100347619D02*
X85411307Y-100374557D01*
X85411307Y-100374557D02*
X85465182Y-100374557D01*
X85465182Y-100374557D02*
X85545994Y-100347619D01*
X85545994Y-100347619D02*
X85761494Y-100132120D01*
X84953372Y-100347619D02*
X84603185Y-100697806D01*
X84603185Y-100697806D02*
X85007246Y-100724743D01*
X85007246Y-100724743D02*
X84926434Y-100805555D01*
X84926434Y-100805555D02*
X84899497Y-100886367D01*
X84899497Y-100886367D02*
X84899497Y-100940242D01*
X84899497Y-100940242D02*
X84926434Y-101021054D01*
X84926434Y-101021054D02*
X85061121Y-101155741D01*
X85061121Y-101155741D02*
X85141933Y-101182679D01*
X85141933Y-101182679D02*
X85195808Y-101182679D01*
X85195808Y-101182679D02*
X85276620Y-101155741D01*
X85276620Y-101155741D02*
X85438245Y-100994117D01*
X85438245Y-100994117D02*
X85465182Y-100913305D01*
X85465182Y-100913305D02*
X85465182Y-100859430D01*
X121590868Y-99023998D02*
X121617805Y-98943185D01*
X121617805Y-98943185D02*
X121698618Y-98862373D01*
X121698618Y-98862373D02*
X121806367Y-98808498D01*
X121806367Y-98808498D02*
X121914117Y-98808498D01*
X121914117Y-98808498D02*
X121994929Y-98835436D01*
X121994929Y-98835436D02*
X122129616Y-98916248D01*
X122129616Y-98916248D02*
X122210428Y-98997060D01*
X122210428Y-98997060D02*
X122291241Y-99131747D01*
X122291241Y-99131747D02*
X122318178Y-99212560D01*
X122318178Y-99212560D02*
X122318178Y-99320309D01*
X122318178Y-99320309D02*
X122264303Y-99428059D01*
X122264303Y-99428059D02*
X122210428Y-99481934D01*
X122210428Y-99481934D02*
X122102679Y-99535808D01*
X122102679Y-99535808D02*
X122048804Y-99535808D01*
X122048804Y-99535808D02*
X121860242Y-99347247D01*
X121860242Y-99347247D02*
X121967992Y-99239497D01*
X121860242Y-99832120D02*
X121294557Y-99266434D01*
X121294557Y-99266434D02*
X121079057Y-99481934D01*
X121079057Y-99481934D02*
X121052120Y-99562746D01*
X121052120Y-99562746D02*
X121052120Y-99616621D01*
X121052120Y-99616621D02*
X121079057Y-99697433D01*
X121079057Y-99697433D02*
X121159870Y-99778245D01*
X121159870Y-99778245D02*
X121240682Y-99805182D01*
X121240682Y-99805182D02*
X121294557Y-99805182D01*
X121294557Y-99805182D02*
X121375369Y-99778245D01*
X121375369Y-99778245D02*
X121590868Y-99562746D01*
X120998245Y-100694117D02*
X121321494Y-100370868D01*
X121159870Y-100532492D02*
X120594184Y-99966807D01*
X120594184Y-99966807D02*
X120728871Y-99993744D01*
X120728871Y-99993744D02*
X120836621Y-99993744D01*
X120836621Y-99993744D02*
X120917433Y-99966807D01*
X120136248Y-100801866D02*
X120513372Y-101178990D01*
X120055436Y-100451680D02*
X120594184Y-100721054D01*
X120594184Y-100721054D02*
X120243998Y-101071240D01*
X93408431Y-99566435D02*
X93435368Y-99485623D01*
X93435368Y-99485623D02*
X93516180Y-99404811D01*
X93516180Y-99404811D02*
X93623930Y-99350936D01*
X93623930Y-99350936D02*
X93731680Y-99350936D01*
X93731680Y-99350936D02*
X93812492Y-99377873D01*
X93812492Y-99377873D02*
X93947179Y-99458685D01*
X93947179Y-99458685D02*
X94027991Y-99539498D01*
X94027991Y-99539498D02*
X94108803Y-99674185D01*
X94108803Y-99674185D02*
X94135741Y-99754997D01*
X94135741Y-99754997D02*
X94135741Y-99862746D01*
X94135741Y-99862746D02*
X94081866Y-99970496D01*
X94081866Y-99970496D02*
X94027991Y-100024371D01*
X94027991Y-100024371D02*
X93920241Y-100078246D01*
X93920241Y-100078246D02*
X93866367Y-100078246D01*
X93866367Y-100078246D02*
X93677805Y-99889684D01*
X93677805Y-99889684D02*
X93785554Y-99781934D01*
X93677805Y-100374557D02*
X93112119Y-99808872D01*
X93112119Y-99808872D02*
X93354556Y-100697806D01*
X93354556Y-100697806D02*
X92788871Y-100132120D01*
X93085182Y-100967180D02*
X92519497Y-100401494D01*
X92519497Y-100401494D02*
X92384810Y-100536181D01*
X92384810Y-100536181D02*
X92330935Y-100643931D01*
X92330935Y-100643931D02*
X92330935Y-100751680D01*
X92330935Y-100751680D02*
X92357872Y-100832493D01*
X92357872Y-100832493D02*
X92438685Y-100967180D01*
X92438685Y-100967180D02*
X92519497Y-101047992D01*
X92519497Y-101047992D02*
X92654184Y-101128804D01*
X92654184Y-101128804D02*
X92734996Y-101155741D01*
X92734996Y-101155741D02*
X92842746Y-101155741D01*
X92842746Y-101155741D02*
X92950495Y-101101867D01*
X92950495Y-101101867D02*
X93085182Y-100967180D01*
X126134200Y-105570475D02*
X126172295Y-105684761D01*
X126172295Y-105684761D02*
X126172295Y-105875237D01*
X126172295Y-105875237D02*
X126134200Y-105951428D01*
X126134200Y-105951428D02*
X126096104Y-105989523D01*
X126096104Y-105989523D02*
X126019914Y-106027618D01*
X126019914Y-106027618D02*
X125943723Y-106027618D01*
X125943723Y-106027618D02*
X125867533Y-105989523D01*
X125867533Y-105989523D02*
X125829438Y-105951428D01*
X125829438Y-105951428D02*
X125791342Y-105875237D01*
X125791342Y-105875237D02*
X125753247Y-105722856D01*
X125753247Y-105722856D02*
X125715152Y-105646666D01*
X125715152Y-105646666D02*
X125677057Y-105608571D01*
X125677057Y-105608571D02*
X125600866Y-105570475D01*
X125600866Y-105570475D02*
X125524676Y-105570475D01*
X125524676Y-105570475D02*
X125448485Y-105608571D01*
X125448485Y-105608571D02*
X125410390Y-105646666D01*
X125410390Y-105646666D02*
X125372295Y-105722856D01*
X125372295Y-105722856D02*
X125372295Y-105913333D01*
X125372295Y-105913333D02*
X125410390Y-106027618D01*
X125372295Y-106294285D02*
X126172295Y-106484761D01*
X126172295Y-106484761D02*
X125600866Y-106637142D01*
X125600866Y-106637142D02*
X126172295Y-106789523D01*
X126172295Y-106789523D02*
X125372295Y-106980000D01*
X126096104Y-107741905D02*
X126134200Y-107703809D01*
X126134200Y-107703809D02*
X126172295Y-107589524D01*
X126172295Y-107589524D02*
X126172295Y-107513333D01*
X126172295Y-107513333D02*
X126134200Y-107399047D01*
X126134200Y-107399047D02*
X126058009Y-107322857D01*
X126058009Y-107322857D02*
X125981819Y-107284762D01*
X125981819Y-107284762D02*
X125829438Y-107246666D01*
X125829438Y-107246666D02*
X125715152Y-107246666D01*
X125715152Y-107246666D02*
X125562771Y-107284762D01*
X125562771Y-107284762D02*
X125486580Y-107322857D01*
X125486580Y-107322857D02*
X125410390Y-107399047D01*
X125410390Y-107399047D02*
X125372295Y-107513333D01*
X125372295Y-107513333D02*
X125372295Y-107589524D01*
X125372295Y-107589524D02*
X125410390Y-107703809D01*
X125410390Y-107703809D02*
X125448485Y-107741905D01*
X126172295Y-108465714D02*
X126172295Y-108084762D01*
X126172295Y-108084762D02*
X125372295Y-108084762D01*
X126172295Y-108732381D02*
X125372295Y-108732381D01*
X126172295Y-109189524D02*
X125715152Y-108846666D01*
X125372295Y-109189524D02*
X125829438Y-108732381D01*
X95921494Y-99593372D02*
X95948431Y-99512560D01*
X95948431Y-99512560D02*
X96029243Y-99431748D01*
X96029243Y-99431748D02*
X96136993Y-99377873D01*
X96136993Y-99377873D02*
X96244742Y-99377873D01*
X96244742Y-99377873D02*
X96325555Y-99404810D01*
X96325555Y-99404810D02*
X96460242Y-99485623D01*
X96460242Y-99485623D02*
X96541054Y-99566435D01*
X96541054Y-99566435D02*
X96621866Y-99701122D01*
X96621866Y-99701122D02*
X96648803Y-99781934D01*
X96648803Y-99781934D02*
X96648803Y-99889684D01*
X96648803Y-99889684D02*
X96594929Y-99997433D01*
X96594929Y-99997433D02*
X96541054Y-100051308D01*
X96541054Y-100051308D02*
X96433304Y-100105183D01*
X96433304Y-100105183D02*
X96379429Y-100105183D01*
X96379429Y-100105183D02*
X96190868Y-99916621D01*
X96190868Y-99916621D02*
X96298617Y-99808871D01*
X96190868Y-100401494D02*
X95625182Y-99835809D01*
X95625182Y-99835809D02*
X95409683Y-100051308D01*
X95409683Y-100051308D02*
X95382746Y-100132120D01*
X95382746Y-100132120D02*
X95382746Y-100185995D01*
X95382746Y-100185995D02*
X95409683Y-100266807D01*
X95409683Y-100266807D02*
X95490495Y-100347619D01*
X95490495Y-100347619D02*
X95571307Y-100374557D01*
X95571307Y-100374557D02*
X95625182Y-100374557D01*
X95625182Y-100374557D02*
X95705994Y-100347619D01*
X95705994Y-100347619D02*
X95921494Y-100132120D01*
X94817060Y-100643931D02*
X94924810Y-100536181D01*
X94924810Y-100536181D02*
X95005622Y-100509244D01*
X95005622Y-100509244D02*
X95059497Y-100509244D01*
X95059497Y-100509244D02*
X95194184Y-100536181D01*
X95194184Y-100536181D02*
X95328871Y-100616993D01*
X95328871Y-100616993D02*
X95544370Y-100832493D01*
X95544370Y-100832493D02*
X95571307Y-100913305D01*
X95571307Y-100913305D02*
X95571307Y-100967180D01*
X95571307Y-100967180D02*
X95544370Y-101047992D01*
X95544370Y-101047992D02*
X95436620Y-101155741D01*
X95436620Y-101155741D02*
X95355808Y-101182679D01*
X95355808Y-101182679D02*
X95301933Y-101182679D01*
X95301933Y-101182679D02*
X95221121Y-101155741D01*
X95221121Y-101155741D02*
X95086434Y-101021054D01*
X95086434Y-101021054D02*
X95059497Y-100940242D01*
X95059497Y-100940242D02*
X95059497Y-100886367D01*
X95059497Y-100886367D02*
X95086434Y-100805555D01*
X95086434Y-100805555D02*
X95194184Y-100697806D01*
X95194184Y-100697806D02*
X95274996Y-100670868D01*
X95274996Y-100670868D02*
X95328871Y-100670868D01*
X95328871Y-100670868D02*
X95409683Y-100697806D01*
X98730868Y-125177998D02*
X98757805Y-125097185D01*
X98757805Y-125097185D02*
X98838618Y-125016373D01*
X98838618Y-125016373D02*
X98946367Y-124962498D01*
X98946367Y-124962498D02*
X99054117Y-124962498D01*
X99054117Y-124962498D02*
X99134929Y-124989436D01*
X99134929Y-124989436D02*
X99269616Y-125070248D01*
X99269616Y-125070248D02*
X99350428Y-125151060D01*
X99350428Y-125151060D02*
X99431241Y-125285747D01*
X99431241Y-125285747D02*
X99458178Y-125366560D01*
X99458178Y-125366560D02*
X99458178Y-125474309D01*
X99458178Y-125474309D02*
X99404303Y-125582059D01*
X99404303Y-125582059D02*
X99350428Y-125635934D01*
X99350428Y-125635934D02*
X99242679Y-125689808D01*
X99242679Y-125689808D02*
X99188804Y-125689808D01*
X99188804Y-125689808D02*
X99000242Y-125501247D01*
X99000242Y-125501247D02*
X99107992Y-125393497D01*
X99000242Y-125986120D02*
X98434557Y-125420434D01*
X98434557Y-125420434D02*
X98219057Y-125635934D01*
X98219057Y-125635934D02*
X98192120Y-125716746D01*
X98192120Y-125716746D02*
X98192120Y-125770621D01*
X98192120Y-125770621D02*
X98219057Y-125851433D01*
X98219057Y-125851433D02*
X98299870Y-125932245D01*
X98299870Y-125932245D02*
X98380682Y-125959182D01*
X98380682Y-125959182D02*
X98434557Y-125959182D01*
X98434557Y-125959182D02*
X98515369Y-125932245D01*
X98515369Y-125932245D02*
X98730868Y-125716746D01*
X97949683Y-126013057D02*
X97895809Y-126013057D01*
X97895809Y-126013057D02*
X97814996Y-126039995D01*
X97814996Y-126039995D02*
X97680309Y-126174682D01*
X97680309Y-126174682D02*
X97653372Y-126255494D01*
X97653372Y-126255494D02*
X97653372Y-126309369D01*
X97653372Y-126309369D02*
X97680309Y-126390181D01*
X97680309Y-126390181D02*
X97734184Y-126444056D01*
X97734184Y-126444056D02*
X97841934Y-126497930D01*
X97841934Y-126497930D02*
X98488431Y-126497930D01*
X98488431Y-126497930D02*
X98138245Y-126848117D01*
X97087686Y-126767305D02*
X97195436Y-126659555D01*
X97195436Y-126659555D02*
X97276248Y-126632618D01*
X97276248Y-126632618D02*
X97330123Y-126632618D01*
X97330123Y-126632618D02*
X97464810Y-126659555D01*
X97464810Y-126659555D02*
X97599497Y-126740367D01*
X97599497Y-126740367D02*
X97814996Y-126955866D01*
X97814996Y-126955866D02*
X97841934Y-127036679D01*
X97841934Y-127036679D02*
X97841934Y-127090553D01*
X97841934Y-127090553D02*
X97814996Y-127171366D01*
X97814996Y-127171366D02*
X97707247Y-127279115D01*
X97707247Y-127279115D02*
X97626434Y-127306053D01*
X97626434Y-127306053D02*
X97572560Y-127306053D01*
X97572560Y-127306053D02*
X97491747Y-127279115D01*
X97491747Y-127279115D02*
X97357060Y-127144428D01*
X97357060Y-127144428D02*
X97330123Y-127063616D01*
X97330123Y-127063616D02*
X97330123Y-127009741D01*
X97330123Y-127009741D02*
X97357060Y-126928929D01*
X97357060Y-126928929D02*
X97464810Y-126821179D01*
X97464810Y-126821179D02*
X97545622Y-126794242D01*
X97545622Y-126794242D02*
X97599497Y-126794242D01*
X97599497Y-126794242D02*
X97680309Y-126821179D01*
X78680242Y-125000749D02*
X79057366Y-125754996D01*
X79057366Y-125754996D02*
X78303118Y-125377873D01*
X78680242Y-126078245D02*
X78626367Y-126185995D01*
X78626367Y-126185995D02*
X78491680Y-126320682D01*
X78491680Y-126320682D02*
X78410868Y-126347619D01*
X78410868Y-126347619D02*
X78356993Y-126347619D01*
X78356993Y-126347619D02*
X78276181Y-126320682D01*
X78276181Y-126320682D02*
X78222306Y-126266807D01*
X78222306Y-126266807D02*
X78195369Y-126185995D01*
X78195369Y-126185995D02*
X78195369Y-126132120D01*
X78195369Y-126132120D02*
X78222306Y-126051308D01*
X78222306Y-126051308D02*
X78303118Y-125916621D01*
X78303118Y-125916621D02*
X78330056Y-125835808D01*
X78330056Y-125835808D02*
X78330056Y-125781934D01*
X78330056Y-125781934D02*
X78303118Y-125701121D01*
X78303118Y-125701121D02*
X78249244Y-125647247D01*
X78249244Y-125647247D02*
X78168431Y-125620309D01*
X78168431Y-125620309D02*
X78114557Y-125620309D01*
X78114557Y-125620309D02*
X78033744Y-125647247D01*
X78033744Y-125647247D02*
X77899057Y-125781934D01*
X77899057Y-125781934D02*
X77845183Y-125889683D01*
X77764370Y-126509244D02*
X78033744Y-126778618D01*
X77656621Y-126024370D02*
X77764370Y-126509244D01*
X77764370Y-126509244D02*
X77279497Y-126401494D01*
X77656621Y-127101866D02*
X77602746Y-127209616D01*
X77602746Y-127209616D02*
X77468059Y-127344303D01*
X77468059Y-127344303D02*
X77387247Y-127371240D01*
X77387247Y-127371240D02*
X77333372Y-127371240D01*
X77333372Y-127371240D02*
X77252560Y-127344303D01*
X77252560Y-127344303D02*
X77198685Y-127290428D01*
X77198685Y-127290428D02*
X77171748Y-127209616D01*
X77171748Y-127209616D02*
X77171748Y-127155741D01*
X77171748Y-127155741D02*
X77198685Y-127074929D01*
X77198685Y-127074929D02*
X77279497Y-126940242D01*
X77279497Y-126940242D02*
X77306435Y-126859430D01*
X77306435Y-126859430D02*
X77306435Y-126805555D01*
X77306435Y-126805555D02*
X77279497Y-126724743D01*
X77279497Y-126724743D02*
X77225622Y-126670868D01*
X77225622Y-126670868D02*
X77144810Y-126643930D01*
X77144810Y-126643930D02*
X77090935Y-126643930D01*
X77090935Y-126643930D02*
X77010123Y-126670868D01*
X77010123Y-126670868D02*
X76875436Y-126805555D01*
X76875436Y-126805555D02*
X76821561Y-126913304D01*
X106108431Y-125166435D02*
X106135368Y-125085623D01*
X106135368Y-125085623D02*
X106216180Y-125004811D01*
X106216180Y-125004811D02*
X106323930Y-124950936D01*
X106323930Y-124950936D02*
X106431680Y-124950936D01*
X106431680Y-124950936D02*
X106512492Y-124977873D01*
X106512492Y-124977873D02*
X106647179Y-125058685D01*
X106647179Y-125058685D02*
X106727991Y-125139498D01*
X106727991Y-125139498D02*
X106808803Y-125274185D01*
X106808803Y-125274185D02*
X106835741Y-125354997D01*
X106835741Y-125354997D02*
X106835741Y-125462746D01*
X106835741Y-125462746D02*
X106781866Y-125570496D01*
X106781866Y-125570496D02*
X106727991Y-125624371D01*
X106727991Y-125624371D02*
X106620241Y-125678246D01*
X106620241Y-125678246D02*
X106566367Y-125678246D01*
X106566367Y-125678246D02*
X106377805Y-125489684D01*
X106377805Y-125489684D02*
X106485554Y-125381934D01*
X106377805Y-125974557D02*
X105812119Y-125408872D01*
X105812119Y-125408872D02*
X106054556Y-126297806D01*
X106054556Y-126297806D02*
X105488871Y-125732120D01*
X105785182Y-126567180D02*
X105219497Y-126001494D01*
X105219497Y-126001494D02*
X105084810Y-126136181D01*
X105084810Y-126136181D02*
X105030935Y-126243931D01*
X105030935Y-126243931D02*
X105030935Y-126351680D01*
X105030935Y-126351680D02*
X105057872Y-126432493D01*
X105057872Y-126432493D02*
X105138685Y-126567180D01*
X105138685Y-126567180D02*
X105219497Y-126647992D01*
X105219497Y-126647992D02*
X105354184Y-126728804D01*
X105354184Y-126728804D02*
X105434996Y-126755741D01*
X105434996Y-126755741D02*
X105542746Y-126755741D01*
X105542746Y-126755741D02*
X105650495Y-126701867D01*
X105650495Y-126701867D02*
X105785182Y-126567180D01*
X116510868Y-125177998D02*
X116537805Y-125097185D01*
X116537805Y-125097185D02*
X116618618Y-125016373D01*
X116618618Y-125016373D02*
X116726367Y-124962498D01*
X116726367Y-124962498D02*
X116834117Y-124962498D01*
X116834117Y-124962498D02*
X116914929Y-124989436D01*
X116914929Y-124989436D02*
X117049616Y-125070248D01*
X117049616Y-125070248D02*
X117130428Y-125151060D01*
X117130428Y-125151060D02*
X117211241Y-125285747D01*
X117211241Y-125285747D02*
X117238178Y-125366560D01*
X117238178Y-125366560D02*
X117238178Y-125474309D01*
X117238178Y-125474309D02*
X117184303Y-125582059D01*
X117184303Y-125582059D02*
X117130428Y-125635934D01*
X117130428Y-125635934D02*
X117022679Y-125689808D01*
X117022679Y-125689808D02*
X116968804Y-125689808D01*
X116968804Y-125689808D02*
X116780242Y-125501247D01*
X116780242Y-125501247D02*
X116887992Y-125393497D01*
X116780242Y-125986120D02*
X116214557Y-125420434D01*
X116214557Y-125420434D02*
X115999057Y-125635934D01*
X115999057Y-125635934D02*
X115972120Y-125716746D01*
X115972120Y-125716746D02*
X115972120Y-125770621D01*
X115972120Y-125770621D02*
X115999057Y-125851433D01*
X115999057Y-125851433D02*
X116079870Y-125932245D01*
X116079870Y-125932245D02*
X116160682Y-125959182D01*
X116160682Y-125959182D02*
X116214557Y-125959182D01*
X116214557Y-125959182D02*
X116295369Y-125932245D01*
X116295369Y-125932245D02*
X116510868Y-125716746D01*
X115918245Y-126848117D02*
X116241494Y-126524868D01*
X116079870Y-126686492D02*
X115514184Y-126120807D01*
X115514184Y-126120807D02*
X115648871Y-126147744D01*
X115648871Y-126147744D02*
X115756621Y-126147744D01*
X115756621Y-126147744D02*
X115837433Y-126120807D01*
X115271747Y-126848117D02*
X115298685Y-126767305D01*
X115298685Y-126767305D02*
X115298685Y-126713430D01*
X115298685Y-126713430D02*
X115271747Y-126632618D01*
X115271747Y-126632618D02*
X115244810Y-126605680D01*
X115244810Y-126605680D02*
X115163998Y-126578743D01*
X115163998Y-126578743D02*
X115110123Y-126578743D01*
X115110123Y-126578743D02*
X115029311Y-126605680D01*
X115029311Y-126605680D02*
X114921561Y-126713430D01*
X114921561Y-126713430D02*
X114894624Y-126794242D01*
X114894624Y-126794242D02*
X114894624Y-126848117D01*
X114894624Y-126848117D02*
X114921561Y-126928929D01*
X114921561Y-126928929D02*
X114948499Y-126955866D01*
X114948499Y-126955866D02*
X115029311Y-126982804D01*
X115029311Y-126982804D02*
X115083186Y-126982804D01*
X115083186Y-126982804D02*
X115163998Y-126955866D01*
X115163998Y-126955866D02*
X115271747Y-126848117D01*
X115271747Y-126848117D02*
X115352560Y-126821179D01*
X115352560Y-126821179D02*
X115406434Y-126821179D01*
X115406434Y-126821179D02*
X115487247Y-126848117D01*
X115487247Y-126848117D02*
X115594996Y-126955866D01*
X115594996Y-126955866D02*
X115621934Y-127036679D01*
X115621934Y-127036679D02*
X115621934Y-127090553D01*
X115621934Y-127090553D02*
X115594996Y-127171366D01*
X115594996Y-127171366D02*
X115487247Y-127279115D01*
X115487247Y-127279115D02*
X115406434Y-127306053D01*
X115406434Y-127306053D02*
X115352560Y-127306053D01*
X115352560Y-127306053D02*
X115271747Y-127279115D01*
X115271747Y-127279115D02*
X115163998Y-127171366D01*
X115163998Y-127171366D02*
X115137060Y-127090553D01*
X115137060Y-127090553D02*
X115137060Y-127036679D01*
X115137060Y-127036679D02*
X115163998Y-126955866D01*
X98431494Y-99693372D02*
X98458431Y-99612560D01*
X98458431Y-99612560D02*
X98539243Y-99531748D01*
X98539243Y-99531748D02*
X98646993Y-99477873D01*
X98646993Y-99477873D02*
X98754742Y-99477873D01*
X98754742Y-99477873D02*
X98835555Y-99504810D01*
X98835555Y-99504810D02*
X98970242Y-99585623D01*
X98970242Y-99585623D02*
X99051054Y-99666435D01*
X99051054Y-99666435D02*
X99131866Y-99801122D01*
X99131866Y-99801122D02*
X99158803Y-99881934D01*
X99158803Y-99881934D02*
X99158803Y-99989684D01*
X99158803Y-99989684D02*
X99104929Y-100097433D01*
X99104929Y-100097433D02*
X99051054Y-100151308D01*
X99051054Y-100151308D02*
X98943304Y-100205183D01*
X98943304Y-100205183D02*
X98889429Y-100205183D01*
X98889429Y-100205183D02*
X98700868Y-100016621D01*
X98700868Y-100016621D02*
X98808617Y-99908871D01*
X98700868Y-100501494D02*
X98135182Y-99935809D01*
X98135182Y-99935809D02*
X97919683Y-100151308D01*
X97919683Y-100151308D02*
X97892746Y-100232120D01*
X97892746Y-100232120D02*
X97892746Y-100285995D01*
X97892746Y-100285995D02*
X97919683Y-100366807D01*
X97919683Y-100366807D02*
X98000495Y-100447619D01*
X98000495Y-100447619D02*
X98081307Y-100474557D01*
X98081307Y-100474557D02*
X98135182Y-100474557D01*
X98135182Y-100474557D02*
X98215994Y-100447619D01*
X98215994Y-100447619D02*
X98431494Y-100232120D01*
X97623372Y-100447619D02*
X97246248Y-100824743D01*
X97246248Y-100824743D02*
X98054370Y-101147992D01*
D11*
X122310000Y-102580000D02*
X122710000Y-102580000D01*
X119710000Y-102580000D02*
X120110000Y-102580000D01*
X117210000Y-102580000D02*
X117610000Y-102580000D01*
X114710000Y-102580000D02*
X115110000Y-102580000D01*
X112110000Y-102580000D02*
X112510000Y-102580000D01*
X109610000Y-102580000D02*
X110010000Y-102580000D01*
X107010000Y-102580000D02*
X107410000Y-102580000D01*
X104510000Y-102580000D02*
X104910000Y-102580000D01*
X101910000Y-102580000D02*
X102310000Y-102580000D01*
X99410000Y-102580000D02*
X99810000Y-102580000D01*
X96910000Y-102580000D02*
X97310000Y-102580000D01*
X94310000Y-102580000D02*
X94710000Y-102580000D01*
X91810000Y-102580000D02*
X92210000Y-102580000D01*
X89210000Y-102580000D02*
X89610000Y-102580000D01*
X86710000Y-102580000D02*
X87110000Y-102580000D01*
X84210000Y-102580000D02*
X84610000Y-102580000D01*
X81610000Y-102580000D02*
X82010000Y-102580000D01*
X79110000Y-102580000D02*
X79510000Y-102580000D01*
X76777000Y-102580000D02*
X76777000Y-105587000D01*
X76510000Y-102580000D02*
X76910000Y-102580000D01*
X74110000Y-102580000D02*
X74410000Y-102580000D01*
X74110000Y-102580000D02*
X74110000Y-123580000D01*
X76777000Y-105587000D02*
X74110000Y-105587000D01*
X125110000Y-109380000D02*
X125110000Y-102580000D01*
X125110000Y-111580000D02*
X125110000Y-111980000D01*
X125110000Y-114180000D02*
X125110000Y-114580000D01*
X125110000Y-123580000D02*
X125110000Y-116780000D01*
X122310000Y-123580000D02*
X122710000Y-123580000D01*
X119710000Y-123580000D02*
X120110000Y-123580000D01*
X117210000Y-123580000D02*
X117610000Y-123580000D01*
X114710000Y-123580000D02*
X115110000Y-123580000D01*
X112110000Y-123580000D02*
X112510000Y-123580000D01*
X109610000Y-123580000D02*
X110010000Y-123580000D01*
X107010000Y-123580000D02*
X107410000Y-123580000D01*
X104510000Y-123580000D02*
X104910000Y-123580000D01*
X101910000Y-123580000D02*
X102310000Y-123580000D01*
X99410000Y-123580000D02*
X99810000Y-123580000D01*
X96910000Y-123580000D02*
X97310000Y-123580000D01*
X94310000Y-123580000D02*
X94710000Y-123580000D01*
X91810000Y-123580000D02*
X92210000Y-123580000D01*
X89210000Y-123580000D02*
X89610000Y-123580000D01*
X86710000Y-123580000D02*
X87110000Y-123580000D01*
X84210000Y-123580000D02*
X84610000Y-123580000D01*
X81610000Y-123580000D02*
X82010000Y-123580000D01*
X79110000Y-123580000D02*
X79510000Y-123580000D01*
X76510000Y-123580000D02*
X76910000Y-123580000D01*
X74110000Y-123580000D02*
X74410000Y-123580000D01*
%TD*%
M02*
