%TF.GenerationSoftware,KiCad,Pcbnew,7.0.5*%
%TF.CreationDate,2023-08-06T18:29:24-05:00*%
%TF.ProjectId,Box,426f782e-6b69-4636-9164-5f7063625858,rev?*%
%TF.SameCoordinates,Original*%
%TF.FileFunction,Drillmap*%
%TF.FilePolarity,Positive*%
%FSLAX45Y45*%
G04 Gerber Fmt 4.5, Leading zero omitted, Abs format (unit mm)*
G04 Created by KiCad (PCBNEW 7.0.5) date 2023-08-06 18:29:24*
%MOMM*%
%LPD*%
G01*
G04 APERTURE LIST*
%ADD10C,0.100000*%
%ADD11C,0.200000*%
%ADD12C,0.150000*%
%ADD13C,0.170180*%
%ADD14C,0.180000*%
%ADD15C,0.300000*%
%ADD16C,0.398780*%
G04 APERTURE END LIST*
D10*
X6602000Y-4259000D02*
G75*
G03*
X6602000Y-4259000I-135000J0D01*
G01*
X23131000Y-15780000D02*
G75*
G03*
X23131000Y-15780000I-135000J0D01*
G01*
X23105000Y-4259000D02*
G75*
G03*
X23105000Y-4259000I-135000J0D01*
G01*
X14753000Y-13239000D02*
G75*
G03*
X14753000Y-13239000I-135000J0D01*
G01*
X6628000Y-15780000D02*
G75*
G03*
X6628000Y-15780000I-135000J0D01*
G01*
X14753000Y-5979000D02*
G75*
G03*
X14753000Y-5979000I-135000J0D01*
G01*
X5109000Y-2754000D02*
X23928000Y-2754000D01*
X23928000Y-16176000D01*
X5109000Y-16176000D01*
X5109000Y-2754000D01*
D11*
D12*
X7789000Y-10990500D02*
X7939000Y-11140500D01*
X7939000Y-10990500D02*
X7789000Y-11140500D01*
X7789000Y-11475500D02*
X7939000Y-11625500D01*
X7939000Y-11475500D02*
X7789000Y-11625500D01*
D13*
X5795890Y-5848000D02*
G75*
G03*
X5795890Y-5848000I-85090J0D01*
G01*
X6811890Y-5848000D02*
G75*
G03*
X6811890Y-5848000I-85090J0D01*
G01*
X8397090Y-6569000D02*
G75*
G03*
X8397090Y-6569000I-85090J0D01*
G01*
X9413090Y-6569000D02*
G75*
G03*
X9413090Y-6569000I-85090J0D01*
G01*
X10890090Y-8016000D02*
G75*
G03*
X10890090Y-8016000I-85090J0D01*
G01*
X11906090Y-8016000D02*
G75*
G03*
X11906090Y-8016000I-85090J0D01*
G01*
X12320090Y-13731000D02*
G75*
G03*
X12320090Y-13731000I-85090J0D01*
G01*
X13336090Y-13731000D02*
G75*
G03*
X13336090Y-13731000I-85090J0D01*
G01*
X14204090Y-8012000D02*
G75*
G03*
X14204090Y-8012000I-85090J0D01*
G01*
X14204090Y-10889000D02*
G75*
G03*
X14204090Y-10889000I-85090J0D01*
G01*
X15220090Y-8012000D02*
G75*
G03*
X15220090Y-8012000I-85090J0D01*
G01*
X15220090Y-10889000D02*
G75*
G03*
X15220090Y-10889000I-85090J0D01*
G01*
X16702090Y-6571000D02*
G75*
G03*
X16702090Y-6571000I-85090J0D01*
G01*
X16703090Y-9451000D02*
G75*
G03*
X16703090Y-9451000I-85090J0D01*
G01*
X17718090Y-6571000D02*
G75*
G03*
X17718090Y-6571000I-85090J0D01*
G01*
X17719090Y-9451000D02*
G75*
G03*
X17719090Y-9451000I-85090J0D01*
G01*
X19442090Y-5804000D02*
G75*
G03*
X19442090Y-5804000I-85090J0D01*
G01*
X19442090Y-8683000D02*
G75*
G03*
X19442090Y-8683000I-85090J0D01*
G01*
X20458090Y-5804000D02*
G75*
G03*
X20458090Y-5804000I-85090J0D01*
G01*
X20458090Y-8683000D02*
G75*
G03*
X20458090Y-8683000I-85090J0D01*
G01*
X22339590Y-5798000D02*
G75*
G03*
X22339590Y-5798000I-85090J0D01*
G01*
X22344590Y-8674000D02*
G75*
G03*
X22344590Y-8674000I-85090J0D01*
G01*
X23355590Y-5798000D02*
G75*
G03*
X23355590Y-5798000I-85090J0D01*
G01*
X23360590Y-8674000D02*
G75*
G03*
X23360590Y-8674000I-85090J0D01*
G01*
D14*
X7561000Y-10945500D02*
X7561000Y-11125500D01*
X7471000Y-11035500D02*
X7651000Y-11035500D01*
X7561000Y-11490500D02*
X7561000Y-11670500D01*
X7471000Y-11580500D02*
X7651000Y-11580500D01*
D15*
X5943867Y-5700067D02*
X5943867Y-5487933D01*
X5731733Y-5487933D01*
X5731733Y-5700067D01*
X5943867Y-5700067D01*
X6578867Y-5446067D02*
X6578867Y-5233933D01*
X6366733Y-5233933D01*
X6366733Y-5446067D01*
X6578867Y-5446067D01*
X8545067Y-6421067D02*
X8545067Y-6208933D01*
X8332933Y-6208933D01*
X8332933Y-6421067D01*
X8545067Y-6421067D01*
X9180067Y-6167067D02*
X9180067Y-5954933D01*
X8967933Y-5954933D01*
X8967933Y-6167067D01*
X9180067Y-6167067D01*
X11038067Y-7868067D02*
X11038067Y-7655933D01*
X10825933Y-7655933D01*
X10825933Y-7868067D01*
X11038067Y-7868067D01*
X11673067Y-7614067D02*
X11673067Y-7401933D01*
X11460933Y-7401933D01*
X11460933Y-7614067D01*
X11673067Y-7614067D01*
X12468067Y-13583067D02*
X12468067Y-13370933D01*
X12255933Y-13370933D01*
X12255933Y-13583067D01*
X12468067Y-13583067D01*
X13103067Y-13329067D02*
X13103067Y-13116933D01*
X12890933Y-13116933D01*
X12890933Y-13329067D01*
X13103067Y-13329067D01*
X14352067Y-7864067D02*
X14352067Y-7651933D01*
X14139933Y-7651933D01*
X14139933Y-7864067D01*
X14352067Y-7864067D01*
X14352067Y-10741067D02*
X14352067Y-10528933D01*
X14139933Y-10528933D01*
X14139933Y-10741067D01*
X14352067Y-10741067D01*
X14987067Y-7610067D02*
X14987067Y-7397933D01*
X14774933Y-7397933D01*
X14774933Y-7610067D01*
X14987067Y-7610067D01*
X14987067Y-10487067D02*
X14987067Y-10274933D01*
X14774933Y-10274933D01*
X14774933Y-10487067D01*
X14987067Y-10487067D01*
X16850067Y-6423067D02*
X16850067Y-6210933D01*
X16637933Y-6210933D01*
X16637933Y-6423067D01*
X16850067Y-6423067D01*
X16851067Y-9303067D02*
X16851067Y-9090933D01*
X16638933Y-9090933D01*
X16638933Y-9303067D01*
X16851067Y-9303067D01*
X17485067Y-6169067D02*
X17485067Y-5956933D01*
X17272933Y-5956933D01*
X17272933Y-6169067D01*
X17485067Y-6169067D01*
X17486067Y-9049067D02*
X17486067Y-8836933D01*
X17273933Y-8836933D01*
X17273933Y-9049067D01*
X17486067Y-9049067D01*
X19590067Y-5656067D02*
X19590067Y-5443933D01*
X19377933Y-5443933D01*
X19377933Y-5656067D01*
X19590067Y-5656067D01*
X19590067Y-8535067D02*
X19590067Y-8322933D01*
X19377933Y-8322933D01*
X19377933Y-8535067D01*
X19590067Y-8535067D01*
X20225067Y-5402067D02*
X20225067Y-5189933D01*
X20012933Y-5189933D01*
X20012933Y-5402067D01*
X20225067Y-5402067D01*
X20225067Y-8281067D02*
X20225067Y-8068933D01*
X20012933Y-8068933D01*
X20012933Y-8281067D01*
X20225067Y-8281067D01*
X22487567Y-5650067D02*
X22487567Y-5437933D01*
X22275433Y-5437933D01*
X22275433Y-5650067D01*
X22487567Y-5650067D01*
X22492567Y-8526067D02*
X22492567Y-8313933D01*
X22280433Y-8313933D01*
X22280433Y-8526067D01*
X22492567Y-8526067D01*
X23122567Y-5396067D02*
X23122567Y-5183933D01*
X22910433Y-5183933D01*
X22910433Y-5396067D01*
X23122567Y-5396067D01*
X23127567Y-8272067D02*
X23127567Y-8059933D01*
X22915433Y-8059933D01*
X22915433Y-8272067D01*
X23127567Y-8272067D01*
D16*
X6218800Y-6047390D02*
X6418190Y-5848000D01*
X6218800Y-5648610D01*
X6019410Y-5848000D01*
X6218800Y-6047390D01*
X8820000Y-6768390D02*
X9019390Y-6569000D01*
X8820000Y-6369610D01*
X8620610Y-6569000D01*
X8820000Y-6768390D01*
X11313000Y-8215390D02*
X11512390Y-8016000D01*
X11313000Y-7816610D01*
X11113610Y-8016000D01*
X11313000Y-8215390D01*
X12743000Y-13930390D02*
X12942390Y-13731000D01*
X12743000Y-13531610D01*
X12543610Y-13731000D01*
X12743000Y-13930390D01*
X14627000Y-8211390D02*
X14826390Y-8012000D01*
X14627000Y-7812610D01*
X14427610Y-8012000D01*
X14627000Y-8211390D01*
X14627000Y-11088390D02*
X14826390Y-10889000D01*
X14627000Y-10689610D01*
X14427610Y-10889000D01*
X14627000Y-11088390D01*
X17125000Y-6770390D02*
X17324390Y-6571000D01*
X17125000Y-6371610D01*
X16925610Y-6571000D01*
X17125000Y-6770390D01*
X17126000Y-9650390D02*
X17325390Y-9451000D01*
X17126000Y-9251610D01*
X16926610Y-9451000D01*
X17126000Y-9650390D01*
X19865000Y-6003390D02*
X20064390Y-5804000D01*
X19865000Y-5604610D01*
X19665610Y-5804000D01*
X19865000Y-6003390D01*
X19865000Y-8882390D02*
X20064390Y-8683000D01*
X19865000Y-8483610D01*
X19665610Y-8683000D01*
X19865000Y-8882390D01*
X22762500Y-5997390D02*
X22961890Y-5798000D01*
X22762500Y-5598610D01*
X22563110Y-5798000D01*
X22762500Y-5997390D01*
X22767500Y-8873390D02*
X22966890Y-8674000D01*
X22767500Y-8474610D01*
X22568110Y-8674000D01*
X22767500Y-8873390D01*
D11*
X5364777Y-16492484D02*
X5364777Y-16292484D01*
X5364777Y-16292484D02*
X5412396Y-16292484D01*
X5412396Y-16292484D02*
X5440967Y-16302008D01*
X5440967Y-16302008D02*
X5460015Y-16321055D01*
X5460015Y-16321055D02*
X5469539Y-16340103D01*
X5469539Y-16340103D02*
X5479063Y-16378198D01*
X5479063Y-16378198D02*
X5479063Y-16406769D01*
X5479063Y-16406769D02*
X5469539Y-16444865D01*
X5469539Y-16444865D02*
X5460015Y-16463912D01*
X5460015Y-16463912D02*
X5440967Y-16482960D01*
X5440967Y-16482960D02*
X5412396Y-16492484D01*
X5412396Y-16492484D02*
X5364777Y-16492484D01*
X5564777Y-16492484D02*
X5564777Y-16359150D01*
X5564777Y-16397246D02*
X5574301Y-16378198D01*
X5574301Y-16378198D02*
X5583824Y-16368674D01*
X5583824Y-16368674D02*
X5602872Y-16359150D01*
X5602872Y-16359150D02*
X5621920Y-16359150D01*
X5688586Y-16492484D02*
X5688586Y-16359150D01*
X5688586Y-16292484D02*
X5679062Y-16302008D01*
X5679062Y-16302008D02*
X5688586Y-16311531D01*
X5688586Y-16311531D02*
X5698110Y-16302008D01*
X5698110Y-16302008D02*
X5688586Y-16292484D01*
X5688586Y-16292484D02*
X5688586Y-16311531D01*
X5812396Y-16492484D02*
X5793348Y-16482960D01*
X5793348Y-16482960D02*
X5783824Y-16463912D01*
X5783824Y-16463912D02*
X5783824Y-16292484D01*
X5917158Y-16492484D02*
X5898110Y-16482960D01*
X5898110Y-16482960D02*
X5888586Y-16463912D01*
X5888586Y-16463912D02*
X5888586Y-16292484D01*
X6145729Y-16492484D02*
X6145729Y-16292484D01*
X6145729Y-16292484D02*
X6212396Y-16435341D01*
X6212396Y-16435341D02*
X6279062Y-16292484D01*
X6279062Y-16292484D02*
X6279062Y-16492484D01*
X6460015Y-16492484D02*
X6460015Y-16387722D01*
X6460015Y-16387722D02*
X6450491Y-16368674D01*
X6450491Y-16368674D02*
X6431443Y-16359150D01*
X6431443Y-16359150D02*
X6393348Y-16359150D01*
X6393348Y-16359150D02*
X6374301Y-16368674D01*
X6460015Y-16482960D02*
X6440967Y-16492484D01*
X6440967Y-16492484D02*
X6393348Y-16492484D01*
X6393348Y-16492484D02*
X6374301Y-16482960D01*
X6374301Y-16482960D02*
X6364777Y-16463912D01*
X6364777Y-16463912D02*
X6364777Y-16444865D01*
X6364777Y-16444865D02*
X6374301Y-16425817D01*
X6374301Y-16425817D02*
X6393348Y-16416293D01*
X6393348Y-16416293D02*
X6440967Y-16416293D01*
X6440967Y-16416293D02*
X6460015Y-16406769D01*
X6555253Y-16359150D02*
X6555253Y-16559150D01*
X6555253Y-16368674D02*
X6574301Y-16359150D01*
X6574301Y-16359150D02*
X6612396Y-16359150D01*
X6612396Y-16359150D02*
X6631443Y-16368674D01*
X6631443Y-16368674D02*
X6640967Y-16378198D01*
X6640967Y-16378198D02*
X6650491Y-16397246D01*
X6650491Y-16397246D02*
X6650491Y-16454388D01*
X6650491Y-16454388D02*
X6640967Y-16473436D01*
X6640967Y-16473436D02*
X6631443Y-16482960D01*
X6631443Y-16482960D02*
X6612396Y-16492484D01*
X6612396Y-16492484D02*
X6574301Y-16492484D01*
X6574301Y-16492484D02*
X6555253Y-16482960D01*
X6736205Y-16473436D02*
X6745729Y-16482960D01*
X6745729Y-16482960D02*
X6736205Y-16492484D01*
X6736205Y-16492484D02*
X6726682Y-16482960D01*
X6726682Y-16482960D02*
X6736205Y-16473436D01*
X6736205Y-16473436D02*
X6736205Y-16492484D01*
X6736205Y-16368674D02*
X6745729Y-16378198D01*
X6745729Y-16378198D02*
X6736205Y-16387722D01*
X6736205Y-16387722D02*
X6726682Y-16378198D01*
X6726682Y-16378198D02*
X6736205Y-16368674D01*
X6736205Y-16368674D02*
X6736205Y-16387722D01*
D12*
X4954000Y-16746000D02*
X5104000Y-16896000D01*
X5104000Y-16746000D02*
X4954000Y-16896000D01*
D11*
X5469539Y-16912484D02*
X5355253Y-16912484D01*
X5412396Y-16912484D02*
X5412396Y-16712484D01*
X5412396Y-16712484D02*
X5393348Y-16741055D01*
X5393348Y-16741055D02*
X5374301Y-16760103D01*
X5374301Y-16760103D02*
X5355253Y-16769627D01*
X5555253Y-16893436D02*
X5564777Y-16902960D01*
X5564777Y-16902960D02*
X5555253Y-16912484D01*
X5555253Y-16912484D02*
X5545729Y-16902960D01*
X5545729Y-16902960D02*
X5555253Y-16893436D01*
X5555253Y-16893436D02*
X5555253Y-16912484D01*
X5745729Y-16712484D02*
X5650491Y-16712484D01*
X5650491Y-16712484D02*
X5640967Y-16807722D01*
X5640967Y-16807722D02*
X5650491Y-16798198D01*
X5650491Y-16798198D02*
X5669539Y-16788674D01*
X5669539Y-16788674D02*
X5717158Y-16788674D01*
X5717158Y-16788674D02*
X5736205Y-16798198D01*
X5736205Y-16798198D02*
X5745729Y-16807722D01*
X5745729Y-16807722D02*
X5755253Y-16826770D01*
X5755253Y-16826770D02*
X5755253Y-16874389D01*
X5755253Y-16874389D02*
X5745729Y-16893436D01*
X5745729Y-16893436D02*
X5736205Y-16902960D01*
X5736205Y-16902960D02*
X5717158Y-16912484D01*
X5717158Y-16912484D02*
X5669539Y-16912484D01*
X5669539Y-16912484D02*
X5650491Y-16902960D01*
X5650491Y-16902960D02*
X5640967Y-16893436D01*
X5879062Y-16712484D02*
X5898110Y-16712484D01*
X5898110Y-16712484D02*
X5917158Y-16722008D01*
X5917158Y-16722008D02*
X5926682Y-16731531D01*
X5926682Y-16731531D02*
X5936205Y-16750579D01*
X5936205Y-16750579D02*
X5945729Y-16788674D01*
X5945729Y-16788674D02*
X5945729Y-16836293D01*
X5945729Y-16836293D02*
X5936205Y-16874389D01*
X5936205Y-16874389D02*
X5926682Y-16893436D01*
X5926682Y-16893436D02*
X5917158Y-16902960D01*
X5917158Y-16902960D02*
X5898110Y-16912484D01*
X5898110Y-16912484D02*
X5879062Y-16912484D01*
X5879062Y-16912484D02*
X5860015Y-16902960D01*
X5860015Y-16902960D02*
X5850491Y-16893436D01*
X5850491Y-16893436D02*
X5840967Y-16874389D01*
X5840967Y-16874389D02*
X5831443Y-16836293D01*
X5831443Y-16836293D02*
X5831443Y-16788674D01*
X5831443Y-16788674D02*
X5840967Y-16750579D01*
X5840967Y-16750579D02*
X5850491Y-16731531D01*
X5850491Y-16731531D02*
X5860015Y-16722008D01*
X5860015Y-16722008D02*
X5879062Y-16712484D01*
X6069539Y-16712484D02*
X6088586Y-16712484D01*
X6088586Y-16712484D02*
X6107634Y-16722008D01*
X6107634Y-16722008D02*
X6117158Y-16731531D01*
X6117158Y-16731531D02*
X6126682Y-16750579D01*
X6126682Y-16750579D02*
X6136205Y-16788674D01*
X6136205Y-16788674D02*
X6136205Y-16836293D01*
X6136205Y-16836293D02*
X6126682Y-16874389D01*
X6126682Y-16874389D02*
X6117158Y-16893436D01*
X6117158Y-16893436D02*
X6107634Y-16902960D01*
X6107634Y-16902960D02*
X6088586Y-16912484D01*
X6088586Y-16912484D02*
X6069539Y-16912484D01*
X6069539Y-16912484D02*
X6050491Y-16902960D01*
X6050491Y-16902960D02*
X6040967Y-16893436D01*
X6040967Y-16893436D02*
X6031443Y-16874389D01*
X6031443Y-16874389D02*
X6021920Y-16836293D01*
X6021920Y-16836293D02*
X6021920Y-16788674D01*
X6021920Y-16788674D02*
X6031443Y-16750579D01*
X6031443Y-16750579D02*
X6040967Y-16731531D01*
X6040967Y-16731531D02*
X6050491Y-16722008D01*
X6050491Y-16722008D02*
X6069539Y-16712484D01*
X6221920Y-16912484D02*
X6221920Y-16779150D01*
X6221920Y-16798198D02*
X6231443Y-16788674D01*
X6231443Y-16788674D02*
X6250491Y-16779150D01*
X6250491Y-16779150D02*
X6279063Y-16779150D01*
X6279063Y-16779150D02*
X6298110Y-16788674D01*
X6298110Y-16788674D02*
X6307634Y-16807722D01*
X6307634Y-16807722D02*
X6307634Y-16912484D01*
X6307634Y-16807722D02*
X6317158Y-16788674D01*
X6317158Y-16788674D02*
X6336205Y-16779150D01*
X6336205Y-16779150D02*
X6364777Y-16779150D01*
X6364777Y-16779150D02*
X6383824Y-16788674D01*
X6383824Y-16788674D02*
X6393348Y-16807722D01*
X6393348Y-16807722D02*
X6393348Y-16912484D01*
X6488586Y-16912484D02*
X6488586Y-16779150D01*
X6488586Y-16798198D02*
X6498110Y-16788674D01*
X6498110Y-16788674D02*
X6517158Y-16779150D01*
X6517158Y-16779150D02*
X6545729Y-16779150D01*
X6545729Y-16779150D02*
X6564777Y-16788674D01*
X6564777Y-16788674D02*
X6574301Y-16807722D01*
X6574301Y-16807722D02*
X6574301Y-16912484D01*
X6574301Y-16807722D02*
X6583824Y-16788674D01*
X6583824Y-16788674D02*
X6602872Y-16779150D01*
X6602872Y-16779150D02*
X6631443Y-16779150D01*
X6631443Y-16779150D02*
X6650491Y-16788674D01*
X6650491Y-16788674D02*
X6660015Y-16807722D01*
X6660015Y-16807722D02*
X6660015Y-16912484D01*
X7050491Y-16702960D02*
X6879063Y-16960103D01*
X7307634Y-16712484D02*
X7326682Y-16712484D01*
X7326682Y-16712484D02*
X7345729Y-16722008D01*
X7345729Y-16722008D02*
X7355253Y-16731531D01*
X7355253Y-16731531D02*
X7364777Y-16750579D01*
X7364777Y-16750579D02*
X7374301Y-16788674D01*
X7374301Y-16788674D02*
X7374301Y-16836293D01*
X7374301Y-16836293D02*
X7364777Y-16874389D01*
X7364777Y-16874389D02*
X7355253Y-16893436D01*
X7355253Y-16893436D02*
X7345729Y-16902960D01*
X7345729Y-16902960D02*
X7326682Y-16912484D01*
X7326682Y-16912484D02*
X7307634Y-16912484D01*
X7307634Y-16912484D02*
X7288586Y-16902960D01*
X7288586Y-16902960D02*
X7279063Y-16893436D01*
X7279063Y-16893436D02*
X7269539Y-16874389D01*
X7269539Y-16874389D02*
X7260015Y-16836293D01*
X7260015Y-16836293D02*
X7260015Y-16788674D01*
X7260015Y-16788674D02*
X7269539Y-16750579D01*
X7269539Y-16750579D02*
X7279063Y-16731531D01*
X7279063Y-16731531D02*
X7288586Y-16722008D01*
X7288586Y-16722008D02*
X7307634Y-16712484D01*
X7460015Y-16893436D02*
X7469539Y-16902960D01*
X7469539Y-16902960D02*
X7460015Y-16912484D01*
X7460015Y-16912484D02*
X7450491Y-16902960D01*
X7450491Y-16902960D02*
X7460015Y-16893436D01*
X7460015Y-16893436D02*
X7460015Y-16912484D01*
X7593348Y-16712484D02*
X7612396Y-16712484D01*
X7612396Y-16712484D02*
X7631444Y-16722008D01*
X7631444Y-16722008D02*
X7640967Y-16731531D01*
X7640967Y-16731531D02*
X7650491Y-16750579D01*
X7650491Y-16750579D02*
X7660015Y-16788674D01*
X7660015Y-16788674D02*
X7660015Y-16836293D01*
X7660015Y-16836293D02*
X7650491Y-16874389D01*
X7650491Y-16874389D02*
X7640967Y-16893436D01*
X7640967Y-16893436D02*
X7631444Y-16902960D01*
X7631444Y-16902960D02*
X7612396Y-16912484D01*
X7612396Y-16912484D02*
X7593348Y-16912484D01*
X7593348Y-16912484D02*
X7574301Y-16902960D01*
X7574301Y-16902960D02*
X7564777Y-16893436D01*
X7564777Y-16893436D02*
X7555253Y-16874389D01*
X7555253Y-16874389D02*
X7545729Y-16836293D01*
X7545729Y-16836293D02*
X7545729Y-16788674D01*
X7545729Y-16788674D02*
X7555253Y-16750579D01*
X7555253Y-16750579D02*
X7564777Y-16731531D01*
X7564777Y-16731531D02*
X7574301Y-16722008D01*
X7574301Y-16722008D02*
X7593348Y-16712484D01*
X7840967Y-16712484D02*
X7745729Y-16712484D01*
X7745729Y-16712484D02*
X7736206Y-16807722D01*
X7736206Y-16807722D02*
X7745729Y-16798198D01*
X7745729Y-16798198D02*
X7764777Y-16788674D01*
X7764777Y-16788674D02*
X7812396Y-16788674D01*
X7812396Y-16788674D02*
X7831444Y-16798198D01*
X7831444Y-16798198D02*
X7840967Y-16807722D01*
X7840967Y-16807722D02*
X7850491Y-16826770D01*
X7850491Y-16826770D02*
X7850491Y-16874389D01*
X7850491Y-16874389D02*
X7840967Y-16893436D01*
X7840967Y-16893436D02*
X7831444Y-16902960D01*
X7831444Y-16902960D02*
X7812396Y-16912484D01*
X7812396Y-16912484D02*
X7764777Y-16912484D01*
X7764777Y-16912484D02*
X7745729Y-16902960D01*
X7745729Y-16902960D02*
X7736206Y-16893436D01*
X7945729Y-16912484D02*
X7983825Y-16912484D01*
X7983825Y-16912484D02*
X8002872Y-16902960D01*
X8002872Y-16902960D02*
X8012396Y-16893436D01*
X8012396Y-16893436D02*
X8031444Y-16864865D01*
X8031444Y-16864865D02*
X8040967Y-16826770D01*
X8040967Y-16826770D02*
X8040967Y-16750579D01*
X8040967Y-16750579D02*
X8031444Y-16731531D01*
X8031444Y-16731531D02*
X8021920Y-16722008D01*
X8021920Y-16722008D02*
X8002872Y-16712484D01*
X8002872Y-16712484D02*
X7964777Y-16712484D01*
X7964777Y-16712484D02*
X7945729Y-16722008D01*
X7945729Y-16722008D02*
X7936206Y-16731531D01*
X7936206Y-16731531D02*
X7926682Y-16750579D01*
X7926682Y-16750579D02*
X7926682Y-16798198D01*
X7926682Y-16798198D02*
X7936206Y-16817246D01*
X7936206Y-16817246D02*
X7945729Y-16826770D01*
X7945729Y-16826770D02*
X7964777Y-16836293D01*
X7964777Y-16836293D02*
X8002872Y-16836293D01*
X8002872Y-16836293D02*
X8021920Y-16826770D01*
X8021920Y-16826770D02*
X8031444Y-16817246D01*
X8031444Y-16817246D02*
X8040967Y-16798198D01*
X8231444Y-16912484D02*
X8117158Y-16912484D01*
X8174301Y-16912484D02*
X8174301Y-16712484D01*
X8174301Y-16712484D02*
X8155253Y-16741055D01*
X8155253Y-16741055D02*
X8136206Y-16760103D01*
X8136206Y-16760103D02*
X8117158Y-16769627D01*
X8307634Y-16712484D02*
X8307634Y-16750579D01*
X8383825Y-16712484D02*
X8383825Y-16750579D01*
X8679063Y-16988674D02*
X8669539Y-16979150D01*
X8669539Y-16979150D02*
X8650491Y-16950579D01*
X8650491Y-16950579D02*
X8640968Y-16931531D01*
X8640968Y-16931531D02*
X8631444Y-16902960D01*
X8631444Y-16902960D02*
X8621920Y-16855341D01*
X8621920Y-16855341D02*
X8621920Y-16817246D01*
X8621920Y-16817246D02*
X8631444Y-16769627D01*
X8631444Y-16769627D02*
X8640968Y-16741055D01*
X8640968Y-16741055D02*
X8650491Y-16722008D01*
X8650491Y-16722008D02*
X8669539Y-16693436D01*
X8669539Y-16693436D02*
X8679063Y-16683912D01*
X8745730Y-16731531D02*
X8755253Y-16722008D01*
X8755253Y-16722008D02*
X8774301Y-16712484D01*
X8774301Y-16712484D02*
X8821920Y-16712484D01*
X8821920Y-16712484D02*
X8840968Y-16722008D01*
X8840968Y-16722008D02*
X8850491Y-16731531D01*
X8850491Y-16731531D02*
X8860015Y-16750579D01*
X8860015Y-16750579D02*
X8860015Y-16769627D01*
X8860015Y-16769627D02*
X8850491Y-16798198D01*
X8850491Y-16798198D02*
X8736206Y-16912484D01*
X8736206Y-16912484D02*
X8860015Y-16912484D01*
X9098111Y-16912484D02*
X9098111Y-16712484D01*
X9183825Y-16912484D02*
X9183825Y-16807722D01*
X9183825Y-16807722D02*
X9174301Y-16788674D01*
X9174301Y-16788674D02*
X9155253Y-16779150D01*
X9155253Y-16779150D02*
X9126682Y-16779150D01*
X9126682Y-16779150D02*
X9107634Y-16788674D01*
X9107634Y-16788674D02*
X9098111Y-16798198D01*
X9307634Y-16912484D02*
X9288587Y-16902960D01*
X9288587Y-16902960D02*
X9279063Y-16893436D01*
X9279063Y-16893436D02*
X9269539Y-16874389D01*
X9269539Y-16874389D02*
X9269539Y-16817246D01*
X9269539Y-16817246D02*
X9279063Y-16798198D01*
X9279063Y-16798198D02*
X9288587Y-16788674D01*
X9288587Y-16788674D02*
X9307634Y-16779150D01*
X9307634Y-16779150D02*
X9336206Y-16779150D01*
X9336206Y-16779150D02*
X9355253Y-16788674D01*
X9355253Y-16788674D02*
X9364777Y-16798198D01*
X9364777Y-16798198D02*
X9374301Y-16817246D01*
X9374301Y-16817246D02*
X9374301Y-16874389D01*
X9374301Y-16874389D02*
X9364777Y-16893436D01*
X9364777Y-16893436D02*
X9355253Y-16902960D01*
X9355253Y-16902960D02*
X9336206Y-16912484D01*
X9336206Y-16912484D02*
X9307634Y-16912484D01*
X9488587Y-16912484D02*
X9469539Y-16902960D01*
X9469539Y-16902960D02*
X9460015Y-16883912D01*
X9460015Y-16883912D02*
X9460015Y-16712484D01*
X9640968Y-16902960D02*
X9621920Y-16912484D01*
X9621920Y-16912484D02*
X9583825Y-16912484D01*
X9583825Y-16912484D02*
X9564777Y-16902960D01*
X9564777Y-16902960D02*
X9555253Y-16883912D01*
X9555253Y-16883912D02*
X9555253Y-16807722D01*
X9555253Y-16807722D02*
X9564777Y-16788674D01*
X9564777Y-16788674D02*
X9583825Y-16779150D01*
X9583825Y-16779150D02*
X9621920Y-16779150D01*
X9621920Y-16779150D02*
X9640968Y-16788674D01*
X9640968Y-16788674D02*
X9650492Y-16807722D01*
X9650492Y-16807722D02*
X9650492Y-16826770D01*
X9650492Y-16826770D02*
X9555253Y-16845817D01*
X9726682Y-16902960D02*
X9745730Y-16912484D01*
X9745730Y-16912484D02*
X9783825Y-16912484D01*
X9783825Y-16912484D02*
X9802873Y-16902960D01*
X9802873Y-16902960D02*
X9812396Y-16883912D01*
X9812396Y-16883912D02*
X9812396Y-16874389D01*
X9812396Y-16874389D02*
X9802873Y-16855341D01*
X9802873Y-16855341D02*
X9783825Y-16845817D01*
X9783825Y-16845817D02*
X9755253Y-16845817D01*
X9755253Y-16845817D02*
X9736206Y-16836293D01*
X9736206Y-16836293D02*
X9726682Y-16817246D01*
X9726682Y-16817246D02*
X9726682Y-16807722D01*
X9726682Y-16807722D02*
X9736206Y-16788674D01*
X9736206Y-16788674D02*
X9755253Y-16779150D01*
X9755253Y-16779150D02*
X9783825Y-16779150D01*
X9783825Y-16779150D02*
X9802873Y-16788674D01*
X9879063Y-16988674D02*
X9888587Y-16979150D01*
X9888587Y-16979150D02*
X9907634Y-16950579D01*
X9907634Y-16950579D02*
X9917158Y-16931531D01*
X9917158Y-16931531D02*
X9926682Y-16902960D01*
X9926682Y-16902960D02*
X9936206Y-16855341D01*
X9936206Y-16855341D02*
X9936206Y-16817246D01*
X9936206Y-16817246D02*
X9926682Y-16769627D01*
X9926682Y-16769627D02*
X9917158Y-16741055D01*
X9917158Y-16741055D02*
X9907634Y-16722008D01*
X9907634Y-16722008D02*
X9888587Y-16693436D01*
X9888587Y-16693436D02*
X9879063Y-16683912D01*
X10240968Y-16988674D02*
X10231444Y-16979150D01*
X10231444Y-16979150D02*
X10212396Y-16950579D01*
X10212396Y-16950579D02*
X10202873Y-16931531D01*
X10202873Y-16931531D02*
X10193349Y-16902960D01*
X10193349Y-16902960D02*
X10183825Y-16855341D01*
X10183825Y-16855341D02*
X10183825Y-16817246D01*
X10183825Y-16817246D02*
X10193349Y-16769627D01*
X10193349Y-16769627D02*
X10202873Y-16741055D01*
X10202873Y-16741055D02*
X10212396Y-16722008D01*
X10212396Y-16722008D02*
X10231444Y-16693436D01*
X10231444Y-16693436D02*
X10240968Y-16683912D01*
X10317158Y-16779150D02*
X10317158Y-16912484D01*
X10317158Y-16798198D02*
X10326682Y-16788674D01*
X10326682Y-16788674D02*
X10345730Y-16779150D01*
X10345730Y-16779150D02*
X10374301Y-16779150D01*
X10374301Y-16779150D02*
X10393349Y-16788674D01*
X10393349Y-16788674D02*
X10402873Y-16807722D01*
X10402873Y-16807722D02*
X10402873Y-16912484D01*
X10526682Y-16912484D02*
X10507634Y-16902960D01*
X10507634Y-16902960D02*
X10498111Y-16893436D01*
X10498111Y-16893436D02*
X10488587Y-16874389D01*
X10488587Y-16874389D02*
X10488587Y-16817246D01*
X10488587Y-16817246D02*
X10498111Y-16798198D01*
X10498111Y-16798198D02*
X10507634Y-16788674D01*
X10507634Y-16788674D02*
X10526682Y-16779150D01*
X10526682Y-16779150D02*
X10555254Y-16779150D01*
X10555254Y-16779150D02*
X10574301Y-16788674D01*
X10574301Y-16788674D02*
X10583825Y-16798198D01*
X10583825Y-16798198D02*
X10593349Y-16817246D01*
X10593349Y-16817246D02*
X10593349Y-16874389D01*
X10593349Y-16874389D02*
X10583825Y-16893436D01*
X10583825Y-16893436D02*
X10574301Y-16902960D01*
X10574301Y-16902960D02*
X10555254Y-16912484D01*
X10555254Y-16912484D02*
X10526682Y-16912484D01*
X10650492Y-16779150D02*
X10726682Y-16779150D01*
X10679063Y-16712484D02*
X10679063Y-16883912D01*
X10679063Y-16883912D02*
X10688587Y-16902960D01*
X10688587Y-16902960D02*
X10707634Y-16912484D01*
X10707634Y-16912484D02*
X10726682Y-16912484D01*
X10945730Y-16779150D02*
X10945730Y-16979150D01*
X10945730Y-16788674D02*
X10964777Y-16779150D01*
X10964777Y-16779150D02*
X11002873Y-16779150D01*
X11002873Y-16779150D02*
X11021920Y-16788674D01*
X11021920Y-16788674D02*
X11031444Y-16798198D01*
X11031444Y-16798198D02*
X11040968Y-16817246D01*
X11040968Y-16817246D02*
X11040968Y-16874389D01*
X11040968Y-16874389D02*
X11031444Y-16893436D01*
X11031444Y-16893436D02*
X11021920Y-16902960D01*
X11021920Y-16902960D02*
X11002873Y-16912484D01*
X11002873Y-16912484D02*
X10964777Y-16912484D01*
X10964777Y-16912484D02*
X10945730Y-16902960D01*
X11155254Y-16912484D02*
X11136206Y-16902960D01*
X11136206Y-16902960D02*
X11126682Y-16883912D01*
X11126682Y-16883912D02*
X11126682Y-16712484D01*
X11317158Y-16912484D02*
X11317158Y-16807722D01*
X11317158Y-16807722D02*
X11307634Y-16788674D01*
X11307634Y-16788674D02*
X11288587Y-16779150D01*
X11288587Y-16779150D02*
X11250492Y-16779150D01*
X11250492Y-16779150D02*
X11231444Y-16788674D01*
X11317158Y-16902960D02*
X11298111Y-16912484D01*
X11298111Y-16912484D02*
X11250492Y-16912484D01*
X11250492Y-16912484D02*
X11231444Y-16902960D01*
X11231444Y-16902960D02*
X11221920Y-16883912D01*
X11221920Y-16883912D02*
X11221920Y-16864865D01*
X11221920Y-16864865D02*
X11231444Y-16845817D01*
X11231444Y-16845817D02*
X11250492Y-16836293D01*
X11250492Y-16836293D02*
X11298111Y-16836293D01*
X11298111Y-16836293D02*
X11317158Y-16826770D01*
X11383825Y-16779150D02*
X11460015Y-16779150D01*
X11412396Y-16712484D02*
X11412396Y-16883912D01*
X11412396Y-16883912D02*
X11421920Y-16902960D01*
X11421920Y-16902960D02*
X11440968Y-16912484D01*
X11440968Y-16912484D02*
X11460015Y-16912484D01*
X11602873Y-16902960D02*
X11583825Y-16912484D01*
X11583825Y-16912484D02*
X11545730Y-16912484D01*
X11545730Y-16912484D02*
X11526682Y-16902960D01*
X11526682Y-16902960D02*
X11517158Y-16883912D01*
X11517158Y-16883912D02*
X11517158Y-16807722D01*
X11517158Y-16807722D02*
X11526682Y-16788674D01*
X11526682Y-16788674D02*
X11545730Y-16779150D01*
X11545730Y-16779150D02*
X11583825Y-16779150D01*
X11583825Y-16779150D02*
X11602873Y-16788674D01*
X11602873Y-16788674D02*
X11612396Y-16807722D01*
X11612396Y-16807722D02*
X11612396Y-16826770D01*
X11612396Y-16826770D02*
X11517158Y-16845817D01*
X11783825Y-16912484D02*
X11783825Y-16712484D01*
X11783825Y-16902960D02*
X11764777Y-16912484D01*
X11764777Y-16912484D02*
X11726682Y-16912484D01*
X11726682Y-16912484D02*
X11707634Y-16902960D01*
X11707634Y-16902960D02*
X11698111Y-16893436D01*
X11698111Y-16893436D02*
X11688587Y-16874389D01*
X11688587Y-16874389D02*
X11688587Y-16817246D01*
X11688587Y-16817246D02*
X11698111Y-16798198D01*
X11698111Y-16798198D02*
X11707634Y-16788674D01*
X11707634Y-16788674D02*
X11726682Y-16779150D01*
X11726682Y-16779150D02*
X11764777Y-16779150D01*
X11764777Y-16779150D02*
X11783825Y-16788674D01*
X11860015Y-16988674D02*
X11869539Y-16979150D01*
X11869539Y-16979150D02*
X11888587Y-16950579D01*
X11888587Y-16950579D02*
X11898111Y-16931531D01*
X11898111Y-16931531D02*
X11907634Y-16902960D01*
X11907634Y-16902960D02*
X11917158Y-16855341D01*
X11917158Y-16855341D02*
X11917158Y-16817246D01*
X11917158Y-16817246D02*
X11907634Y-16769627D01*
X11907634Y-16769627D02*
X11898111Y-16741055D01*
X11898111Y-16741055D02*
X11888587Y-16722008D01*
X11888587Y-16722008D02*
X11869539Y-16693436D01*
X11869539Y-16693436D02*
X11860015Y-16683912D01*
D13*
X5104000Y-17091000D02*
G75*
G03*
X5104000Y-17091000I-85090J0D01*
G01*
D11*
X5469539Y-17182484D02*
X5355253Y-17182484D01*
X5412396Y-17182484D02*
X5412396Y-16982484D01*
X5412396Y-16982484D02*
X5393348Y-17011055D01*
X5393348Y-17011055D02*
X5374301Y-17030103D01*
X5374301Y-17030103D02*
X5355253Y-17039627D01*
X5555253Y-17163436D02*
X5564777Y-17172960D01*
X5564777Y-17172960D02*
X5555253Y-17182484D01*
X5555253Y-17182484D02*
X5545729Y-17172960D01*
X5545729Y-17172960D02*
X5555253Y-17163436D01*
X5555253Y-17163436D02*
X5555253Y-17182484D01*
X5631443Y-16982484D02*
X5764777Y-16982484D01*
X5764777Y-16982484D02*
X5679062Y-17182484D01*
X5879062Y-16982484D02*
X5898110Y-16982484D01*
X5898110Y-16982484D02*
X5917158Y-16992008D01*
X5917158Y-16992008D02*
X5926682Y-17001531D01*
X5926682Y-17001531D02*
X5936205Y-17020579D01*
X5936205Y-17020579D02*
X5945729Y-17058674D01*
X5945729Y-17058674D02*
X5945729Y-17106293D01*
X5945729Y-17106293D02*
X5936205Y-17144389D01*
X5936205Y-17144389D02*
X5926682Y-17163436D01*
X5926682Y-17163436D02*
X5917158Y-17172960D01*
X5917158Y-17172960D02*
X5898110Y-17182484D01*
X5898110Y-17182484D02*
X5879062Y-17182484D01*
X5879062Y-17182484D02*
X5860015Y-17172960D01*
X5860015Y-17172960D02*
X5850491Y-17163436D01*
X5850491Y-17163436D02*
X5840967Y-17144389D01*
X5840967Y-17144389D02*
X5831443Y-17106293D01*
X5831443Y-17106293D02*
X5831443Y-17058674D01*
X5831443Y-17058674D02*
X5840967Y-17020579D01*
X5840967Y-17020579D02*
X5850491Y-17001531D01*
X5850491Y-17001531D02*
X5860015Y-16992008D01*
X5860015Y-16992008D02*
X5879062Y-16982484D01*
X6021920Y-17001531D02*
X6031443Y-16992008D01*
X6031443Y-16992008D02*
X6050491Y-16982484D01*
X6050491Y-16982484D02*
X6098110Y-16982484D01*
X6098110Y-16982484D02*
X6117158Y-16992008D01*
X6117158Y-16992008D02*
X6126682Y-17001531D01*
X6126682Y-17001531D02*
X6136205Y-17020579D01*
X6136205Y-17020579D02*
X6136205Y-17039627D01*
X6136205Y-17039627D02*
X6126682Y-17068198D01*
X6126682Y-17068198D02*
X6012396Y-17182484D01*
X6012396Y-17182484D02*
X6136205Y-17182484D01*
X6221920Y-17182484D02*
X6221920Y-17049150D01*
X6221920Y-17068198D02*
X6231443Y-17058674D01*
X6231443Y-17058674D02*
X6250491Y-17049150D01*
X6250491Y-17049150D02*
X6279063Y-17049150D01*
X6279063Y-17049150D02*
X6298110Y-17058674D01*
X6298110Y-17058674D02*
X6307634Y-17077722D01*
X6307634Y-17077722D02*
X6307634Y-17182484D01*
X6307634Y-17077722D02*
X6317158Y-17058674D01*
X6317158Y-17058674D02*
X6336205Y-17049150D01*
X6336205Y-17049150D02*
X6364777Y-17049150D01*
X6364777Y-17049150D02*
X6383824Y-17058674D01*
X6383824Y-17058674D02*
X6393348Y-17077722D01*
X6393348Y-17077722D02*
X6393348Y-17182484D01*
X6488586Y-17182484D02*
X6488586Y-17049150D01*
X6488586Y-17068198D02*
X6498110Y-17058674D01*
X6498110Y-17058674D02*
X6517158Y-17049150D01*
X6517158Y-17049150D02*
X6545729Y-17049150D01*
X6545729Y-17049150D02*
X6564777Y-17058674D01*
X6564777Y-17058674D02*
X6574301Y-17077722D01*
X6574301Y-17077722D02*
X6574301Y-17182484D01*
X6574301Y-17077722D02*
X6583824Y-17058674D01*
X6583824Y-17058674D02*
X6602872Y-17049150D01*
X6602872Y-17049150D02*
X6631443Y-17049150D01*
X6631443Y-17049150D02*
X6650491Y-17058674D01*
X6650491Y-17058674D02*
X6660015Y-17077722D01*
X6660015Y-17077722D02*
X6660015Y-17182484D01*
X7050491Y-16972960D02*
X6879063Y-17230103D01*
X7307634Y-16982484D02*
X7326682Y-16982484D01*
X7326682Y-16982484D02*
X7345729Y-16992008D01*
X7345729Y-16992008D02*
X7355253Y-17001531D01*
X7355253Y-17001531D02*
X7364777Y-17020579D01*
X7364777Y-17020579D02*
X7374301Y-17058674D01*
X7374301Y-17058674D02*
X7374301Y-17106293D01*
X7374301Y-17106293D02*
X7364777Y-17144389D01*
X7364777Y-17144389D02*
X7355253Y-17163436D01*
X7355253Y-17163436D02*
X7345729Y-17172960D01*
X7345729Y-17172960D02*
X7326682Y-17182484D01*
X7326682Y-17182484D02*
X7307634Y-17182484D01*
X7307634Y-17182484D02*
X7288586Y-17172960D01*
X7288586Y-17172960D02*
X7279063Y-17163436D01*
X7279063Y-17163436D02*
X7269539Y-17144389D01*
X7269539Y-17144389D02*
X7260015Y-17106293D01*
X7260015Y-17106293D02*
X7260015Y-17058674D01*
X7260015Y-17058674D02*
X7269539Y-17020579D01*
X7269539Y-17020579D02*
X7279063Y-17001531D01*
X7279063Y-17001531D02*
X7288586Y-16992008D01*
X7288586Y-16992008D02*
X7307634Y-16982484D01*
X7460015Y-17163436D02*
X7469539Y-17172960D01*
X7469539Y-17172960D02*
X7460015Y-17182484D01*
X7460015Y-17182484D02*
X7450491Y-17172960D01*
X7450491Y-17172960D02*
X7460015Y-17163436D01*
X7460015Y-17163436D02*
X7460015Y-17182484D01*
X7593348Y-16982484D02*
X7612396Y-16982484D01*
X7612396Y-16982484D02*
X7631444Y-16992008D01*
X7631444Y-16992008D02*
X7640967Y-17001531D01*
X7640967Y-17001531D02*
X7650491Y-17020579D01*
X7650491Y-17020579D02*
X7660015Y-17058674D01*
X7660015Y-17058674D02*
X7660015Y-17106293D01*
X7660015Y-17106293D02*
X7650491Y-17144389D01*
X7650491Y-17144389D02*
X7640967Y-17163436D01*
X7640967Y-17163436D02*
X7631444Y-17172960D01*
X7631444Y-17172960D02*
X7612396Y-17182484D01*
X7612396Y-17182484D02*
X7593348Y-17182484D01*
X7593348Y-17182484D02*
X7574301Y-17172960D01*
X7574301Y-17172960D02*
X7564777Y-17163436D01*
X7564777Y-17163436D02*
X7555253Y-17144389D01*
X7555253Y-17144389D02*
X7545729Y-17106293D01*
X7545729Y-17106293D02*
X7545729Y-17058674D01*
X7545729Y-17058674D02*
X7555253Y-17020579D01*
X7555253Y-17020579D02*
X7564777Y-17001531D01*
X7564777Y-17001531D02*
X7574301Y-16992008D01*
X7574301Y-16992008D02*
X7593348Y-16982484D01*
X7831444Y-16982484D02*
X7793348Y-16982484D01*
X7793348Y-16982484D02*
X7774301Y-16992008D01*
X7774301Y-16992008D02*
X7764777Y-17001531D01*
X7764777Y-17001531D02*
X7745729Y-17030103D01*
X7745729Y-17030103D02*
X7736206Y-17068198D01*
X7736206Y-17068198D02*
X7736206Y-17144389D01*
X7736206Y-17144389D02*
X7745729Y-17163436D01*
X7745729Y-17163436D02*
X7755253Y-17172960D01*
X7755253Y-17172960D02*
X7774301Y-17182484D01*
X7774301Y-17182484D02*
X7812396Y-17182484D01*
X7812396Y-17182484D02*
X7831444Y-17172960D01*
X7831444Y-17172960D02*
X7840967Y-17163436D01*
X7840967Y-17163436D02*
X7850491Y-17144389D01*
X7850491Y-17144389D02*
X7850491Y-17096770D01*
X7850491Y-17096770D02*
X7840967Y-17077722D01*
X7840967Y-17077722D02*
X7831444Y-17068198D01*
X7831444Y-17068198D02*
X7812396Y-17058674D01*
X7812396Y-17058674D02*
X7774301Y-17058674D01*
X7774301Y-17058674D02*
X7755253Y-17068198D01*
X7755253Y-17068198D02*
X7745729Y-17077722D01*
X7745729Y-17077722D02*
X7736206Y-17096770D01*
X7917158Y-16982484D02*
X8050491Y-16982484D01*
X8050491Y-16982484D02*
X7964777Y-17182484D01*
X8164777Y-16982484D02*
X8183825Y-16982484D01*
X8183825Y-16982484D02*
X8202872Y-16992008D01*
X8202872Y-16992008D02*
X8212396Y-17001531D01*
X8212396Y-17001531D02*
X8221920Y-17020579D01*
X8221920Y-17020579D02*
X8231444Y-17058674D01*
X8231444Y-17058674D02*
X8231444Y-17106293D01*
X8231444Y-17106293D02*
X8221920Y-17144389D01*
X8221920Y-17144389D02*
X8212396Y-17163436D01*
X8212396Y-17163436D02*
X8202872Y-17172960D01*
X8202872Y-17172960D02*
X8183825Y-17182484D01*
X8183825Y-17182484D02*
X8164777Y-17182484D01*
X8164777Y-17182484D02*
X8145729Y-17172960D01*
X8145729Y-17172960D02*
X8136206Y-17163436D01*
X8136206Y-17163436D02*
X8126682Y-17144389D01*
X8126682Y-17144389D02*
X8117158Y-17106293D01*
X8117158Y-17106293D02*
X8117158Y-17058674D01*
X8117158Y-17058674D02*
X8126682Y-17020579D01*
X8126682Y-17020579D02*
X8136206Y-17001531D01*
X8136206Y-17001531D02*
X8145729Y-16992008D01*
X8145729Y-16992008D02*
X8164777Y-16982484D01*
X8307634Y-16982484D02*
X8307634Y-17020579D01*
X8383825Y-16982484D02*
X8383825Y-17020579D01*
X8679063Y-17258674D02*
X8669539Y-17249150D01*
X8669539Y-17249150D02*
X8650491Y-17220579D01*
X8650491Y-17220579D02*
X8640968Y-17201531D01*
X8640968Y-17201531D02*
X8631444Y-17172960D01*
X8631444Y-17172960D02*
X8621920Y-17125341D01*
X8621920Y-17125341D02*
X8621920Y-17087246D01*
X8621920Y-17087246D02*
X8631444Y-17039627D01*
X8631444Y-17039627D02*
X8640968Y-17011055D01*
X8640968Y-17011055D02*
X8650491Y-16992008D01*
X8650491Y-16992008D02*
X8669539Y-16963436D01*
X8669539Y-16963436D02*
X8679063Y-16953912D01*
X8745730Y-17001531D02*
X8755253Y-16992008D01*
X8755253Y-16992008D02*
X8774301Y-16982484D01*
X8774301Y-16982484D02*
X8821920Y-16982484D01*
X8821920Y-16982484D02*
X8840968Y-16992008D01*
X8840968Y-16992008D02*
X8850491Y-17001531D01*
X8850491Y-17001531D02*
X8860015Y-17020579D01*
X8860015Y-17020579D02*
X8860015Y-17039627D01*
X8860015Y-17039627D02*
X8850491Y-17068198D01*
X8850491Y-17068198D02*
X8736206Y-17182484D01*
X8736206Y-17182484D02*
X8860015Y-17182484D01*
X9031444Y-17049150D02*
X9031444Y-17182484D01*
X8983825Y-16972960D02*
X8936206Y-17115817D01*
X8936206Y-17115817D02*
X9060015Y-17115817D01*
X9288587Y-17182484D02*
X9288587Y-16982484D01*
X9374301Y-17182484D02*
X9374301Y-17077722D01*
X9374301Y-17077722D02*
X9364777Y-17058674D01*
X9364777Y-17058674D02*
X9345730Y-17049150D01*
X9345730Y-17049150D02*
X9317158Y-17049150D01*
X9317158Y-17049150D02*
X9298111Y-17058674D01*
X9298111Y-17058674D02*
X9288587Y-17068198D01*
X9498111Y-17182484D02*
X9479063Y-17172960D01*
X9479063Y-17172960D02*
X9469539Y-17163436D01*
X9469539Y-17163436D02*
X9460015Y-17144389D01*
X9460015Y-17144389D02*
X9460015Y-17087246D01*
X9460015Y-17087246D02*
X9469539Y-17068198D01*
X9469539Y-17068198D02*
X9479063Y-17058674D01*
X9479063Y-17058674D02*
X9498111Y-17049150D01*
X9498111Y-17049150D02*
X9526682Y-17049150D01*
X9526682Y-17049150D02*
X9545730Y-17058674D01*
X9545730Y-17058674D02*
X9555253Y-17068198D01*
X9555253Y-17068198D02*
X9564777Y-17087246D01*
X9564777Y-17087246D02*
X9564777Y-17144389D01*
X9564777Y-17144389D02*
X9555253Y-17163436D01*
X9555253Y-17163436D02*
X9545730Y-17172960D01*
X9545730Y-17172960D02*
X9526682Y-17182484D01*
X9526682Y-17182484D02*
X9498111Y-17182484D01*
X9679063Y-17182484D02*
X9660015Y-17172960D01*
X9660015Y-17172960D02*
X9650492Y-17153912D01*
X9650492Y-17153912D02*
X9650492Y-16982484D01*
X9831444Y-17172960D02*
X9812396Y-17182484D01*
X9812396Y-17182484D02*
X9774301Y-17182484D01*
X9774301Y-17182484D02*
X9755253Y-17172960D01*
X9755253Y-17172960D02*
X9745730Y-17153912D01*
X9745730Y-17153912D02*
X9745730Y-17077722D01*
X9745730Y-17077722D02*
X9755253Y-17058674D01*
X9755253Y-17058674D02*
X9774301Y-17049150D01*
X9774301Y-17049150D02*
X9812396Y-17049150D01*
X9812396Y-17049150D02*
X9831444Y-17058674D01*
X9831444Y-17058674D02*
X9840968Y-17077722D01*
X9840968Y-17077722D02*
X9840968Y-17096770D01*
X9840968Y-17096770D02*
X9745730Y-17115817D01*
X9917158Y-17172960D02*
X9936206Y-17182484D01*
X9936206Y-17182484D02*
X9974301Y-17182484D01*
X9974301Y-17182484D02*
X9993349Y-17172960D01*
X9993349Y-17172960D02*
X10002873Y-17153912D01*
X10002873Y-17153912D02*
X10002873Y-17144389D01*
X10002873Y-17144389D02*
X9993349Y-17125341D01*
X9993349Y-17125341D02*
X9974301Y-17115817D01*
X9974301Y-17115817D02*
X9945730Y-17115817D01*
X9945730Y-17115817D02*
X9926682Y-17106293D01*
X9926682Y-17106293D02*
X9917158Y-17087246D01*
X9917158Y-17087246D02*
X9917158Y-17077722D01*
X9917158Y-17077722D02*
X9926682Y-17058674D01*
X9926682Y-17058674D02*
X9945730Y-17049150D01*
X9945730Y-17049150D02*
X9974301Y-17049150D01*
X9974301Y-17049150D02*
X9993349Y-17058674D01*
X10069539Y-17258674D02*
X10079063Y-17249150D01*
X10079063Y-17249150D02*
X10098111Y-17220579D01*
X10098111Y-17220579D02*
X10107634Y-17201531D01*
X10107634Y-17201531D02*
X10117158Y-17172960D01*
X10117158Y-17172960D02*
X10126682Y-17125341D01*
X10126682Y-17125341D02*
X10126682Y-17087246D01*
X10126682Y-17087246D02*
X10117158Y-17039627D01*
X10117158Y-17039627D02*
X10107634Y-17011055D01*
X10107634Y-17011055D02*
X10098111Y-16992008D01*
X10098111Y-16992008D02*
X10079063Y-16963436D01*
X10079063Y-16963436D02*
X10069539Y-16953912D01*
X10431444Y-17258674D02*
X10421920Y-17249150D01*
X10421920Y-17249150D02*
X10402873Y-17220579D01*
X10402873Y-17220579D02*
X10393349Y-17201531D01*
X10393349Y-17201531D02*
X10383825Y-17172960D01*
X10383825Y-17172960D02*
X10374301Y-17125341D01*
X10374301Y-17125341D02*
X10374301Y-17087246D01*
X10374301Y-17087246D02*
X10383825Y-17039627D01*
X10383825Y-17039627D02*
X10393349Y-17011055D01*
X10393349Y-17011055D02*
X10402873Y-16992008D01*
X10402873Y-16992008D02*
X10421920Y-16963436D01*
X10421920Y-16963436D02*
X10431444Y-16953912D01*
X10507634Y-17049150D02*
X10507634Y-17182484D01*
X10507634Y-17068198D02*
X10517158Y-17058674D01*
X10517158Y-17058674D02*
X10536206Y-17049150D01*
X10536206Y-17049150D02*
X10564777Y-17049150D01*
X10564777Y-17049150D02*
X10583825Y-17058674D01*
X10583825Y-17058674D02*
X10593349Y-17077722D01*
X10593349Y-17077722D02*
X10593349Y-17182484D01*
X10717158Y-17182484D02*
X10698111Y-17172960D01*
X10698111Y-17172960D02*
X10688587Y-17163436D01*
X10688587Y-17163436D02*
X10679063Y-17144389D01*
X10679063Y-17144389D02*
X10679063Y-17087246D01*
X10679063Y-17087246D02*
X10688587Y-17068198D01*
X10688587Y-17068198D02*
X10698111Y-17058674D01*
X10698111Y-17058674D02*
X10717158Y-17049150D01*
X10717158Y-17049150D02*
X10745730Y-17049150D01*
X10745730Y-17049150D02*
X10764777Y-17058674D01*
X10764777Y-17058674D02*
X10774301Y-17068198D01*
X10774301Y-17068198D02*
X10783825Y-17087246D01*
X10783825Y-17087246D02*
X10783825Y-17144389D01*
X10783825Y-17144389D02*
X10774301Y-17163436D01*
X10774301Y-17163436D02*
X10764777Y-17172960D01*
X10764777Y-17172960D02*
X10745730Y-17182484D01*
X10745730Y-17182484D02*
X10717158Y-17182484D01*
X10840968Y-17049150D02*
X10917158Y-17049150D01*
X10869539Y-16982484D02*
X10869539Y-17153912D01*
X10869539Y-17153912D02*
X10879063Y-17172960D01*
X10879063Y-17172960D02*
X10898111Y-17182484D01*
X10898111Y-17182484D02*
X10917158Y-17182484D01*
X11136206Y-17049150D02*
X11136206Y-17249150D01*
X11136206Y-17058674D02*
X11155254Y-17049150D01*
X11155254Y-17049150D02*
X11193349Y-17049150D01*
X11193349Y-17049150D02*
X11212396Y-17058674D01*
X11212396Y-17058674D02*
X11221920Y-17068198D01*
X11221920Y-17068198D02*
X11231444Y-17087246D01*
X11231444Y-17087246D02*
X11231444Y-17144389D01*
X11231444Y-17144389D02*
X11221920Y-17163436D01*
X11221920Y-17163436D02*
X11212396Y-17172960D01*
X11212396Y-17172960D02*
X11193349Y-17182484D01*
X11193349Y-17182484D02*
X11155254Y-17182484D01*
X11155254Y-17182484D02*
X11136206Y-17172960D01*
X11345730Y-17182484D02*
X11326682Y-17172960D01*
X11326682Y-17172960D02*
X11317158Y-17153912D01*
X11317158Y-17153912D02*
X11317158Y-16982484D01*
X11507634Y-17182484D02*
X11507634Y-17077722D01*
X11507634Y-17077722D02*
X11498111Y-17058674D01*
X11498111Y-17058674D02*
X11479063Y-17049150D01*
X11479063Y-17049150D02*
X11440968Y-17049150D01*
X11440968Y-17049150D02*
X11421920Y-17058674D01*
X11507634Y-17172960D02*
X11488587Y-17182484D01*
X11488587Y-17182484D02*
X11440968Y-17182484D01*
X11440968Y-17182484D02*
X11421920Y-17172960D01*
X11421920Y-17172960D02*
X11412396Y-17153912D01*
X11412396Y-17153912D02*
X11412396Y-17134865D01*
X11412396Y-17134865D02*
X11421920Y-17115817D01*
X11421920Y-17115817D02*
X11440968Y-17106293D01*
X11440968Y-17106293D02*
X11488587Y-17106293D01*
X11488587Y-17106293D02*
X11507634Y-17096770D01*
X11574301Y-17049150D02*
X11650492Y-17049150D01*
X11602873Y-16982484D02*
X11602873Y-17153912D01*
X11602873Y-17153912D02*
X11612396Y-17172960D01*
X11612396Y-17172960D02*
X11631444Y-17182484D01*
X11631444Y-17182484D02*
X11650492Y-17182484D01*
X11793349Y-17172960D02*
X11774301Y-17182484D01*
X11774301Y-17182484D02*
X11736206Y-17182484D01*
X11736206Y-17182484D02*
X11717158Y-17172960D01*
X11717158Y-17172960D02*
X11707634Y-17153912D01*
X11707634Y-17153912D02*
X11707634Y-17077722D01*
X11707634Y-17077722D02*
X11717158Y-17058674D01*
X11717158Y-17058674D02*
X11736206Y-17049150D01*
X11736206Y-17049150D02*
X11774301Y-17049150D01*
X11774301Y-17049150D02*
X11793349Y-17058674D01*
X11793349Y-17058674D02*
X11802873Y-17077722D01*
X11802873Y-17077722D02*
X11802873Y-17096770D01*
X11802873Y-17096770D02*
X11707634Y-17115817D01*
X11974301Y-17182484D02*
X11974301Y-16982484D01*
X11974301Y-17172960D02*
X11955254Y-17182484D01*
X11955254Y-17182484D02*
X11917158Y-17182484D01*
X11917158Y-17182484D02*
X11898111Y-17172960D01*
X11898111Y-17172960D02*
X11888587Y-17163436D01*
X11888587Y-17163436D02*
X11879063Y-17144389D01*
X11879063Y-17144389D02*
X11879063Y-17087246D01*
X11879063Y-17087246D02*
X11888587Y-17068198D01*
X11888587Y-17068198D02*
X11898111Y-17058674D01*
X11898111Y-17058674D02*
X11917158Y-17049150D01*
X11917158Y-17049150D02*
X11955254Y-17049150D01*
X11955254Y-17049150D02*
X11974301Y-17058674D01*
X12050492Y-17258674D02*
X12060015Y-17249150D01*
X12060015Y-17249150D02*
X12079063Y-17220579D01*
X12079063Y-17220579D02*
X12088587Y-17201531D01*
X12088587Y-17201531D02*
X12098111Y-17172960D01*
X12098111Y-17172960D02*
X12107634Y-17125341D01*
X12107634Y-17125341D02*
X12107634Y-17087246D01*
X12107634Y-17087246D02*
X12098111Y-17039627D01*
X12098111Y-17039627D02*
X12088587Y-17011055D01*
X12088587Y-17011055D02*
X12079063Y-16992008D01*
X12079063Y-16992008D02*
X12060015Y-16963436D01*
X12060015Y-16963436D02*
X12050492Y-16953912D01*
D14*
X5014000Y-17291180D02*
X5014000Y-17471180D01*
X4924000Y-17381180D02*
X5104000Y-17381180D01*
D11*
X5469539Y-17472664D02*
X5355253Y-17472664D01*
X5412396Y-17472664D02*
X5412396Y-17272664D01*
X5412396Y-17272664D02*
X5393348Y-17301235D01*
X5393348Y-17301235D02*
X5374301Y-17320283D01*
X5374301Y-17320283D02*
X5355253Y-17329807D01*
X5555253Y-17453616D02*
X5564777Y-17463140D01*
X5564777Y-17463140D02*
X5555253Y-17472664D01*
X5555253Y-17472664D02*
X5545729Y-17463140D01*
X5545729Y-17463140D02*
X5555253Y-17453616D01*
X5555253Y-17453616D02*
X5555253Y-17472664D01*
X5679062Y-17358378D02*
X5660015Y-17348854D01*
X5660015Y-17348854D02*
X5650491Y-17339330D01*
X5650491Y-17339330D02*
X5640967Y-17320283D01*
X5640967Y-17320283D02*
X5640967Y-17310759D01*
X5640967Y-17310759D02*
X5650491Y-17291711D01*
X5650491Y-17291711D02*
X5660015Y-17282188D01*
X5660015Y-17282188D02*
X5679062Y-17272664D01*
X5679062Y-17272664D02*
X5717158Y-17272664D01*
X5717158Y-17272664D02*
X5736205Y-17282188D01*
X5736205Y-17282188D02*
X5745729Y-17291711D01*
X5745729Y-17291711D02*
X5755253Y-17310759D01*
X5755253Y-17310759D02*
X5755253Y-17320283D01*
X5755253Y-17320283D02*
X5745729Y-17339330D01*
X5745729Y-17339330D02*
X5736205Y-17348854D01*
X5736205Y-17348854D02*
X5717158Y-17358378D01*
X5717158Y-17358378D02*
X5679062Y-17358378D01*
X5679062Y-17358378D02*
X5660015Y-17367902D01*
X5660015Y-17367902D02*
X5650491Y-17377426D01*
X5650491Y-17377426D02*
X5640967Y-17396473D01*
X5640967Y-17396473D02*
X5640967Y-17434569D01*
X5640967Y-17434569D02*
X5650491Y-17453616D01*
X5650491Y-17453616D02*
X5660015Y-17463140D01*
X5660015Y-17463140D02*
X5679062Y-17472664D01*
X5679062Y-17472664D02*
X5717158Y-17472664D01*
X5717158Y-17472664D02*
X5736205Y-17463140D01*
X5736205Y-17463140D02*
X5745729Y-17453616D01*
X5745729Y-17453616D02*
X5755253Y-17434569D01*
X5755253Y-17434569D02*
X5755253Y-17396473D01*
X5755253Y-17396473D02*
X5745729Y-17377426D01*
X5745729Y-17377426D02*
X5736205Y-17367902D01*
X5736205Y-17367902D02*
X5717158Y-17358378D01*
X5879062Y-17272664D02*
X5898110Y-17272664D01*
X5898110Y-17272664D02*
X5917158Y-17282188D01*
X5917158Y-17282188D02*
X5926682Y-17291711D01*
X5926682Y-17291711D02*
X5936205Y-17310759D01*
X5936205Y-17310759D02*
X5945729Y-17348854D01*
X5945729Y-17348854D02*
X5945729Y-17396473D01*
X5945729Y-17396473D02*
X5936205Y-17434569D01*
X5936205Y-17434569D02*
X5926682Y-17453616D01*
X5926682Y-17453616D02*
X5917158Y-17463140D01*
X5917158Y-17463140D02*
X5898110Y-17472664D01*
X5898110Y-17472664D02*
X5879062Y-17472664D01*
X5879062Y-17472664D02*
X5860015Y-17463140D01*
X5860015Y-17463140D02*
X5850491Y-17453616D01*
X5850491Y-17453616D02*
X5840967Y-17434569D01*
X5840967Y-17434569D02*
X5831443Y-17396473D01*
X5831443Y-17396473D02*
X5831443Y-17348854D01*
X5831443Y-17348854D02*
X5840967Y-17310759D01*
X5840967Y-17310759D02*
X5850491Y-17291711D01*
X5850491Y-17291711D02*
X5860015Y-17282188D01*
X5860015Y-17282188D02*
X5879062Y-17272664D01*
X6069539Y-17272664D02*
X6088586Y-17272664D01*
X6088586Y-17272664D02*
X6107634Y-17282188D01*
X6107634Y-17282188D02*
X6117158Y-17291711D01*
X6117158Y-17291711D02*
X6126682Y-17310759D01*
X6126682Y-17310759D02*
X6136205Y-17348854D01*
X6136205Y-17348854D02*
X6136205Y-17396473D01*
X6136205Y-17396473D02*
X6126682Y-17434569D01*
X6126682Y-17434569D02*
X6117158Y-17453616D01*
X6117158Y-17453616D02*
X6107634Y-17463140D01*
X6107634Y-17463140D02*
X6088586Y-17472664D01*
X6088586Y-17472664D02*
X6069539Y-17472664D01*
X6069539Y-17472664D02*
X6050491Y-17463140D01*
X6050491Y-17463140D02*
X6040967Y-17453616D01*
X6040967Y-17453616D02*
X6031443Y-17434569D01*
X6031443Y-17434569D02*
X6021920Y-17396473D01*
X6021920Y-17396473D02*
X6021920Y-17348854D01*
X6021920Y-17348854D02*
X6031443Y-17310759D01*
X6031443Y-17310759D02*
X6040967Y-17291711D01*
X6040967Y-17291711D02*
X6050491Y-17282188D01*
X6050491Y-17282188D02*
X6069539Y-17272664D01*
X6221920Y-17472664D02*
X6221920Y-17339330D01*
X6221920Y-17358378D02*
X6231443Y-17348854D01*
X6231443Y-17348854D02*
X6250491Y-17339330D01*
X6250491Y-17339330D02*
X6279063Y-17339330D01*
X6279063Y-17339330D02*
X6298110Y-17348854D01*
X6298110Y-17348854D02*
X6307634Y-17367902D01*
X6307634Y-17367902D02*
X6307634Y-17472664D01*
X6307634Y-17367902D02*
X6317158Y-17348854D01*
X6317158Y-17348854D02*
X6336205Y-17339330D01*
X6336205Y-17339330D02*
X6364777Y-17339330D01*
X6364777Y-17339330D02*
X6383824Y-17348854D01*
X6383824Y-17348854D02*
X6393348Y-17367902D01*
X6393348Y-17367902D02*
X6393348Y-17472664D01*
X6488586Y-17472664D02*
X6488586Y-17339330D01*
X6488586Y-17358378D02*
X6498110Y-17348854D01*
X6498110Y-17348854D02*
X6517158Y-17339330D01*
X6517158Y-17339330D02*
X6545729Y-17339330D01*
X6545729Y-17339330D02*
X6564777Y-17348854D01*
X6564777Y-17348854D02*
X6574301Y-17367902D01*
X6574301Y-17367902D02*
X6574301Y-17472664D01*
X6574301Y-17367902D02*
X6583824Y-17348854D01*
X6583824Y-17348854D02*
X6602872Y-17339330D01*
X6602872Y-17339330D02*
X6631443Y-17339330D01*
X6631443Y-17339330D02*
X6650491Y-17348854D01*
X6650491Y-17348854D02*
X6660015Y-17367902D01*
X6660015Y-17367902D02*
X6660015Y-17472664D01*
X7050491Y-17263140D02*
X6879063Y-17520283D01*
X7307634Y-17272664D02*
X7326682Y-17272664D01*
X7326682Y-17272664D02*
X7345729Y-17282188D01*
X7345729Y-17282188D02*
X7355253Y-17291711D01*
X7355253Y-17291711D02*
X7364777Y-17310759D01*
X7364777Y-17310759D02*
X7374301Y-17348854D01*
X7374301Y-17348854D02*
X7374301Y-17396473D01*
X7374301Y-17396473D02*
X7364777Y-17434569D01*
X7364777Y-17434569D02*
X7355253Y-17453616D01*
X7355253Y-17453616D02*
X7345729Y-17463140D01*
X7345729Y-17463140D02*
X7326682Y-17472664D01*
X7326682Y-17472664D02*
X7307634Y-17472664D01*
X7307634Y-17472664D02*
X7288586Y-17463140D01*
X7288586Y-17463140D02*
X7279063Y-17453616D01*
X7279063Y-17453616D02*
X7269539Y-17434569D01*
X7269539Y-17434569D02*
X7260015Y-17396473D01*
X7260015Y-17396473D02*
X7260015Y-17348854D01*
X7260015Y-17348854D02*
X7269539Y-17310759D01*
X7269539Y-17310759D02*
X7279063Y-17291711D01*
X7279063Y-17291711D02*
X7288586Y-17282188D01*
X7288586Y-17282188D02*
X7307634Y-17272664D01*
X7460015Y-17453616D02*
X7469539Y-17463140D01*
X7469539Y-17463140D02*
X7460015Y-17472664D01*
X7460015Y-17472664D02*
X7450491Y-17463140D01*
X7450491Y-17463140D02*
X7460015Y-17453616D01*
X7460015Y-17453616D02*
X7460015Y-17472664D01*
X7593348Y-17272664D02*
X7612396Y-17272664D01*
X7612396Y-17272664D02*
X7631444Y-17282188D01*
X7631444Y-17282188D02*
X7640967Y-17291711D01*
X7640967Y-17291711D02*
X7650491Y-17310759D01*
X7650491Y-17310759D02*
X7660015Y-17348854D01*
X7660015Y-17348854D02*
X7660015Y-17396473D01*
X7660015Y-17396473D02*
X7650491Y-17434569D01*
X7650491Y-17434569D02*
X7640967Y-17453616D01*
X7640967Y-17453616D02*
X7631444Y-17463140D01*
X7631444Y-17463140D02*
X7612396Y-17472664D01*
X7612396Y-17472664D02*
X7593348Y-17472664D01*
X7593348Y-17472664D02*
X7574301Y-17463140D01*
X7574301Y-17463140D02*
X7564777Y-17453616D01*
X7564777Y-17453616D02*
X7555253Y-17434569D01*
X7555253Y-17434569D02*
X7545729Y-17396473D01*
X7545729Y-17396473D02*
X7545729Y-17348854D01*
X7545729Y-17348854D02*
X7555253Y-17310759D01*
X7555253Y-17310759D02*
X7564777Y-17291711D01*
X7564777Y-17291711D02*
X7574301Y-17282188D01*
X7574301Y-17282188D02*
X7593348Y-17272664D01*
X7726682Y-17272664D02*
X7860015Y-17272664D01*
X7860015Y-17272664D02*
X7774301Y-17472664D01*
X7974301Y-17272664D02*
X7993348Y-17272664D01*
X7993348Y-17272664D02*
X8012396Y-17282188D01*
X8012396Y-17282188D02*
X8021920Y-17291711D01*
X8021920Y-17291711D02*
X8031444Y-17310759D01*
X8031444Y-17310759D02*
X8040967Y-17348854D01*
X8040967Y-17348854D02*
X8040967Y-17396473D01*
X8040967Y-17396473D02*
X8031444Y-17434569D01*
X8031444Y-17434569D02*
X8021920Y-17453616D01*
X8021920Y-17453616D02*
X8012396Y-17463140D01*
X8012396Y-17463140D02*
X7993348Y-17472664D01*
X7993348Y-17472664D02*
X7974301Y-17472664D01*
X7974301Y-17472664D02*
X7955253Y-17463140D01*
X7955253Y-17463140D02*
X7945729Y-17453616D01*
X7945729Y-17453616D02*
X7936206Y-17434569D01*
X7936206Y-17434569D02*
X7926682Y-17396473D01*
X7926682Y-17396473D02*
X7926682Y-17348854D01*
X7926682Y-17348854D02*
X7936206Y-17310759D01*
X7936206Y-17310759D02*
X7945729Y-17291711D01*
X7945729Y-17291711D02*
X7955253Y-17282188D01*
X7955253Y-17282188D02*
X7974301Y-17272664D01*
X8136206Y-17472664D02*
X8174301Y-17472664D01*
X8174301Y-17472664D02*
X8193348Y-17463140D01*
X8193348Y-17463140D02*
X8202872Y-17453616D01*
X8202872Y-17453616D02*
X8221920Y-17425045D01*
X8221920Y-17425045D02*
X8231444Y-17386950D01*
X8231444Y-17386950D02*
X8231444Y-17310759D01*
X8231444Y-17310759D02*
X8221920Y-17291711D01*
X8221920Y-17291711D02*
X8212396Y-17282188D01*
X8212396Y-17282188D02*
X8193348Y-17272664D01*
X8193348Y-17272664D02*
X8155253Y-17272664D01*
X8155253Y-17272664D02*
X8136206Y-17282188D01*
X8136206Y-17282188D02*
X8126682Y-17291711D01*
X8126682Y-17291711D02*
X8117158Y-17310759D01*
X8117158Y-17310759D02*
X8117158Y-17358378D01*
X8117158Y-17358378D02*
X8126682Y-17377426D01*
X8126682Y-17377426D02*
X8136206Y-17386950D01*
X8136206Y-17386950D02*
X8155253Y-17396473D01*
X8155253Y-17396473D02*
X8193348Y-17396473D01*
X8193348Y-17396473D02*
X8212396Y-17386950D01*
X8212396Y-17386950D02*
X8221920Y-17377426D01*
X8221920Y-17377426D02*
X8231444Y-17358378D01*
X8307634Y-17272664D02*
X8307634Y-17310759D01*
X8383825Y-17272664D02*
X8383825Y-17310759D01*
X8679063Y-17548854D02*
X8669539Y-17539330D01*
X8669539Y-17539330D02*
X8650491Y-17510759D01*
X8650491Y-17510759D02*
X8640968Y-17491711D01*
X8640968Y-17491711D02*
X8631444Y-17463140D01*
X8631444Y-17463140D02*
X8621920Y-17415521D01*
X8621920Y-17415521D02*
X8621920Y-17377426D01*
X8621920Y-17377426D02*
X8631444Y-17329807D01*
X8631444Y-17329807D02*
X8640968Y-17301235D01*
X8640968Y-17301235D02*
X8650491Y-17282188D01*
X8650491Y-17282188D02*
X8669539Y-17253616D01*
X8669539Y-17253616D02*
X8679063Y-17244092D01*
X8745730Y-17291711D02*
X8755253Y-17282188D01*
X8755253Y-17282188D02*
X8774301Y-17272664D01*
X8774301Y-17272664D02*
X8821920Y-17272664D01*
X8821920Y-17272664D02*
X8840968Y-17282188D01*
X8840968Y-17282188D02*
X8850491Y-17291711D01*
X8850491Y-17291711D02*
X8860015Y-17310759D01*
X8860015Y-17310759D02*
X8860015Y-17329807D01*
X8860015Y-17329807D02*
X8850491Y-17358378D01*
X8850491Y-17358378D02*
X8736206Y-17472664D01*
X8736206Y-17472664D02*
X8860015Y-17472664D01*
X9098111Y-17472664D02*
X9098111Y-17272664D01*
X9183825Y-17472664D02*
X9183825Y-17367902D01*
X9183825Y-17367902D02*
X9174301Y-17348854D01*
X9174301Y-17348854D02*
X9155253Y-17339330D01*
X9155253Y-17339330D02*
X9126682Y-17339330D01*
X9126682Y-17339330D02*
X9107634Y-17348854D01*
X9107634Y-17348854D02*
X9098111Y-17358378D01*
X9307634Y-17472664D02*
X9288587Y-17463140D01*
X9288587Y-17463140D02*
X9279063Y-17453616D01*
X9279063Y-17453616D02*
X9269539Y-17434569D01*
X9269539Y-17434569D02*
X9269539Y-17377426D01*
X9269539Y-17377426D02*
X9279063Y-17358378D01*
X9279063Y-17358378D02*
X9288587Y-17348854D01*
X9288587Y-17348854D02*
X9307634Y-17339330D01*
X9307634Y-17339330D02*
X9336206Y-17339330D01*
X9336206Y-17339330D02*
X9355253Y-17348854D01*
X9355253Y-17348854D02*
X9364777Y-17358378D01*
X9364777Y-17358378D02*
X9374301Y-17377426D01*
X9374301Y-17377426D02*
X9374301Y-17434569D01*
X9374301Y-17434569D02*
X9364777Y-17453616D01*
X9364777Y-17453616D02*
X9355253Y-17463140D01*
X9355253Y-17463140D02*
X9336206Y-17472664D01*
X9336206Y-17472664D02*
X9307634Y-17472664D01*
X9488587Y-17472664D02*
X9469539Y-17463140D01*
X9469539Y-17463140D02*
X9460015Y-17444092D01*
X9460015Y-17444092D02*
X9460015Y-17272664D01*
X9640968Y-17463140D02*
X9621920Y-17472664D01*
X9621920Y-17472664D02*
X9583825Y-17472664D01*
X9583825Y-17472664D02*
X9564777Y-17463140D01*
X9564777Y-17463140D02*
X9555253Y-17444092D01*
X9555253Y-17444092D02*
X9555253Y-17367902D01*
X9555253Y-17367902D02*
X9564777Y-17348854D01*
X9564777Y-17348854D02*
X9583825Y-17339330D01*
X9583825Y-17339330D02*
X9621920Y-17339330D01*
X9621920Y-17339330D02*
X9640968Y-17348854D01*
X9640968Y-17348854D02*
X9650492Y-17367902D01*
X9650492Y-17367902D02*
X9650492Y-17386950D01*
X9650492Y-17386950D02*
X9555253Y-17405997D01*
X9726682Y-17463140D02*
X9745730Y-17472664D01*
X9745730Y-17472664D02*
X9783825Y-17472664D01*
X9783825Y-17472664D02*
X9802873Y-17463140D01*
X9802873Y-17463140D02*
X9812396Y-17444092D01*
X9812396Y-17444092D02*
X9812396Y-17434569D01*
X9812396Y-17434569D02*
X9802873Y-17415521D01*
X9802873Y-17415521D02*
X9783825Y-17405997D01*
X9783825Y-17405997D02*
X9755253Y-17405997D01*
X9755253Y-17405997D02*
X9736206Y-17396473D01*
X9736206Y-17396473D02*
X9726682Y-17377426D01*
X9726682Y-17377426D02*
X9726682Y-17367902D01*
X9726682Y-17367902D02*
X9736206Y-17348854D01*
X9736206Y-17348854D02*
X9755253Y-17339330D01*
X9755253Y-17339330D02*
X9783825Y-17339330D01*
X9783825Y-17339330D02*
X9802873Y-17348854D01*
X9879063Y-17548854D02*
X9888587Y-17539330D01*
X9888587Y-17539330D02*
X9907634Y-17510759D01*
X9907634Y-17510759D02*
X9917158Y-17491711D01*
X9917158Y-17491711D02*
X9926682Y-17463140D01*
X9926682Y-17463140D02*
X9936206Y-17415521D01*
X9936206Y-17415521D02*
X9936206Y-17377426D01*
X9936206Y-17377426D02*
X9926682Y-17329807D01*
X9926682Y-17329807D02*
X9917158Y-17301235D01*
X9917158Y-17301235D02*
X9907634Y-17282188D01*
X9907634Y-17282188D02*
X9888587Y-17253616D01*
X9888587Y-17253616D02*
X9879063Y-17244092D01*
X10240968Y-17548854D02*
X10231444Y-17539330D01*
X10231444Y-17539330D02*
X10212396Y-17510759D01*
X10212396Y-17510759D02*
X10202873Y-17491711D01*
X10202873Y-17491711D02*
X10193349Y-17463140D01*
X10193349Y-17463140D02*
X10183825Y-17415521D01*
X10183825Y-17415521D02*
X10183825Y-17377426D01*
X10183825Y-17377426D02*
X10193349Y-17329807D01*
X10193349Y-17329807D02*
X10202873Y-17301235D01*
X10202873Y-17301235D02*
X10212396Y-17282188D01*
X10212396Y-17282188D02*
X10231444Y-17253616D01*
X10231444Y-17253616D02*
X10240968Y-17244092D01*
X10317158Y-17339330D02*
X10317158Y-17472664D01*
X10317158Y-17358378D02*
X10326682Y-17348854D01*
X10326682Y-17348854D02*
X10345730Y-17339330D01*
X10345730Y-17339330D02*
X10374301Y-17339330D01*
X10374301Y-17339330D02*
X10393349Y-17348854D01*
X10393349Y-17348854D02*
X10402873Y-17367902D01*
X10402873Y-17367902D02*
X10402873Y-17472664D01*
X10526682Y-17472664D02*
X10507634Y-17463140D01*
X10507634Y-17463140D02*
X10498111Y-17453616D01*
X10498111Y-17453616D02*
X10488587Y-17434569D01*
X10488587Y-17434569D02*
X10488587Y-17377426D01*
X10488587Y-17377426D02*
X10498111Y-17358378D01*
X10498111Y-17358378D02*
X10507634Y-17348854D01*
X10507634Y-17348854D02*
X10526682Y-17339330D01*
X10526682Y-17339330D02*
X10555254Y-17339330D01*
X10555254Y-17339330D02*
X10574301Y-17348854D01*
X10574301Y-17348854D02*
X10583825Y-17358378D01*
X10583825Y-17358378D02*
X10593349Y-17377426D01*
X10593349Y-17377426D02*
X10593349Y-17434569D01*
X10593349Y-17434569D02*
X10583825Y-17453616D01*
X10583825Y-17453616D02*
X10574301Y-17463140D01*
X10574301Y-17463140D02*
X10555254Y-17472664D01*
X10555254Y-17472664D02*
X10526682Y-17472664D01*
X10650492Y-17339330D02*
X10726682Y-17339330D01*
X10679063Y-17272664D02*
X10679063Y-17444092D01*
X10679063Y-17444092D02*
X10688587Y-17463140D01*
X10688587Y-17463140D02*
X10707634Y-17472664D01*
X10707634Y-17472664D02*
X10726682Y-17472664D01*
X10945730Y-17339330D02*
X10945730Y-17539330D01*
X10945730Y-17348854D02*
X10964777Y-17339330D01*
X10964777Y-17339330D02*
X11002873Y-17339330D01*
X11002873Y-17339330D02*
X11021920Y-17348854D01*
X11021920Y-17348854D02*
X11031444Y-17358378D01*
X11031444Y-17358378D02*
X11040968Y-17377426D01*
X11040968Y-17377426D02*
X11040968Y-17434569D01*
X11040968Y-17434569D02*
X11031444Y-17453616D01*
X11031444Y-17453616D02*
X11021920Y-17463140D01*
X11021920Y-17463140D02*
X11002873Y-17472664D01*
X11002873Y-17472664D02*
X10964777Y-17472664D01*
X10964777Y-17472664D02*
X10945730Y-17463140D01*
X11155254Y-17472664D02*
X11136206Y-17463140D01*
X11136206Y-17463140D02*
X11126682Y-17444092D01*
X11126682Y-17444092D02*
X11126682Y-17272664D01*
X11317158Y-17472664D02*
X11317158Y-17367902D01*
X11317158Y-17367902D02*
X11307634Y-17348854D01*
X11307634Y-17348854D02*
X11288587Y-17339330D01*
X11288587Y-17339330D02*
X11250492Y-17339330D01*
X11250492Y-17339330D02*
X11231444Y-17348854D01*
X11317158Y-17463140D02*
X11298111Y-17472664D01*
X11298111Y-17472664D02*
X11250492Y-17472664D01*
X11250492Y-17472664D02*
X11231444Y-17463140D01*
X11231444Y-17463140D02*
X11221920Y-17444092D01*
X11221920Y-17444092D02*
X11221920Y-17425045D01*
X11221920Y-17425045D02*
X11231444Y-17405997D01*
X11231444Y-17405997D02*
X11250492Y-17396473D01*
X11250492Y-17396473D02*
X11298111Y-17396473D01*
X11298111Y-17396473D02*
X11317158Y-17386950D01*
X11383825Y-17339330D02*
X11460015Y-17339330D01*
X11412396Y-17272664D02*
X11412396Y-17444092D01*
X11412396Y-17444092D02*
X11421920Y-17463140D01*
X11421920Y-17463140D02*
X11440968Y-17472664D01*
X11440968Y-17472664D02*
X11460015Y-17472664D01*
X11602873Y-17463140D02*
X11583825Y-17472664D01*
X11583825Y-17472664D02*
X11545730Y-17472664D01*
X11545730Y-17472664D02*
X11526682Y-17463140D01*
X11526682Y-17463140D02*
X11517158Y-17444092D01*
X11517158Y-17444092D02*
X11517158Y-17367902D01*
X11517158Y-17367902D02*
X11526682Y-17348854D01*
X11526682Y-17348854D02*
X11545730Y-17339330D01*
X11545730Y-17339330D02*
X11583825Y-17339330D01*
X11583825Y-17339330D02*
X11602873Y-17348854D01*
X11602873Y-17348854D02*
X11612396Y-17367902D01*
X11612396Y-17367902D02*
X11612396Y-17386950D01*
X11612396Y-17386950D02*
X11517158Y-17405997D01*
X11783825Y-17472664D02*
X11783825Y-17272664D01*
X11783825Y-17463140D02*
X11764777Y-17472664D01*
X11764777Y-17472664D02*
X11726682Y-17472664D01*
X11726682Y-17472664D02*
X11707634Y-17463140D01*
X11707634Y-17463140D02*
X11698111Y-17453616D01*
X11698111Y-17453616D02*
X11688587Y-17434569D01*
X11688587Y-17434569D02*
X11688587Y-17377426D01*
X11688587Y-17377426D02*
X11698111Y-17358378D01*
X11698111Y-17358378D02*
X11707634Y-17348854D01*
X11707634Y-17348854D02*
X11726682Y-17339330D01*
X11726682Y-17339330D02*
X11764777Y-17339330D01*
X11764777Y-17339330D02*
X11783825Y-17348854D01*
X11860015Y-17548854D02*
X11869539Y-17539330D01*
X11869539Y-17539330D02*
X11888587Y-17510759D01*
X11888587Y-17510759D02*
X11898111Y-17491711D01*
X11898111Y-17491711D02*
X11907634Y-17463140D01*
X11907634Y-17463140D02*
X11917158Y-17415521D01*
X11917158Y-17415521D02*
X11917158Y-17377426D01*
X11917158Y-17377426D02*
X11907634Y-17329807D01*
X11907634Y-17329807D02*
X11898111Y-17301235D01*
X11898111Y-17301235D02*
X11888587Y-17282188D01*
X11888587Y-17282188D02*
X11869539Y-17253616D01*
X11869539Y-17253616D02*
X11860015Y-17244092D01*
X5074711Y-17751891D02*
X5074711Y-17610469D01*
X4933289Y-17610469D01*
X4933289Y-17751891D01*
X5074711Y-17751891D01*
X5345729Y-17572664D02*
X5469539Y-17572664D01*
X5469539Y-17572664D02*
X5402872Y-17648854D01*
X5402872Y-17648854D02*
X5431444Y-17648854D01*
X5431444Y-17648854D02*
X5450491Y-17658378D01*
X5450491Y-17658378D02*
X5460015Y-17667902D01*
X5460015Y-17667902D02*
X5469539Y-17686950D01*
X5469539Y-17686950D02*
X5469539Y-17734569D01*
X5469539Y-17734569D02*
X5460015Y-17753616D01*
X5460015Y-17753616D02*
X5450491Y-17763140D01*
X5450491Y-17763140D02*
X5431444Y-17772664D01*
X5431444Y-17772664D02*
X5374301Y-17772664D01*
X5374301Y-17772664D02*
X5355253Y-17763140D01*
X5355253Y-17763140D02*
X5345729Y-17753616D01*
X5555253Y-17753616D02*
X5564777Y-17763140D01*
X5564777Y-17763140D02*
X5555253Y-17772664D01*
X5555253Y-17772664D02*
X5545729Y-17763140D01*
X5545729Y-17763140D02*
X5555253Y-17753616D01*
X5555253Y-17753616D02*
X5555253Y-17772664D01*
X5688586Y-17572664D02*
X5707634Y-17572664D01*
X5707634Y-17572664D02*
X5726682Y-17582188D01*
X5726682Y-17582188D02*
X5736205Y-17591711D01*
X5736205Y-17591711D02*
X5745729Y-17610759D01*
X5745729Y-17610759D02*
X5755253Y-17648854D01*
X5755253Y-17648854D02*
X5755253Y-17696473D01*
X5755253Y-17696473D02*
X5745729Y-17734569D01*
X5745729Y-17734569D02*
X5736205Y-17753616D01*
X5736205Y-17753616D02*
X5726682Y-17763140D01*
X5726682Y-17763140D02*
X5707634Y-17772664D01*
X5707634Y-17772664D02*
X5688586Y-17772664D01*
X5688586Y-17772664D02*
X5669539Y-17763140D01*
X5669539Y-17763140D02*
X5660015Y-17753616D01*
X5660015Y-17753616D02*
X5650491Y-17734569D01*
X5650491Y-17734569D02*
X5640967Y-17696473D01*
X5640967Y-17696473D02*
X5640967Y-17648854D01*
X5640967Y-17648854D02*
X5650491Y-17610759D01*
X5650491Y-17610759D02*
X5660015Y-17591711D01*
X5660015Y-17591711D02*
X5669539Y-17582188D01*
X5669539Y-17582188D02*
X5688586Y-17572664D01*
X5879062Y-17572664D02*
X5898110Y-17572664D01*
X5898110Y-17572664D02*
X5917158Y-17582188D01*
X5917158Y-17582188D02*
X5926682Y-17591711D01*
X5926682Y-17591711D02*
X5936205Y-17610759D01*
X5936205Y-17610759D02*
X5945729Y-17648854D01*
X5945729Y-17648854D02*
X5945729Y-17696473D01*
X5945729Y-17696473D02*
X5936205Y-17734569D01*
X5936205Y-17734569D02*
X5926682Y-17753616D01*
X5926682Y-17753616D02*
X5917158Y-17763140D01*
X5917158Y-17763140D02*
X5898110Y-17772664D01*
X5898110Y-17772664D02*
X5879062Y-17772664D01*
X5879062Y-17772664D02*
X5860015Y-17763140D01*
X5860015Y-17763140D02*
X5850491Y-17753616D01*
X5850491Y-17753616D02*
X5840967Y-17734569D01*
X5840967Y-17734569D02*
X5831443Y-17696473D01*
X5831443Y-17696473D02*
X5831443Y-17648854D01*
X5831443Y-17648854D02*
X5840967Y-17610759D01*
X5840967Y-17610759D02*
X5850491Y-17591711D01*
X5850491Y-17591711D02*
X5860015Y-17582188D01*
X5860015Y-17582188D02*
X5879062Y-17572664D01*
X6069539Y-17572664D02*
X6088586Y-17572664D01*
X6088586Y-17572664D02*
X6107634Y-17582188D01*
X6107634Y-17582188D02*
X6117158Y-17591711D01*
X6117158Y-17591711D02*
X6126682Y-17610759D01*
X6126682Y-17610759D02*
X6136205Y-17648854D01*
X6136205Y-17648854D02*
X6136205Y-17696473D01*
X6136205Y-17696473D02*
X6126682Y-17734569D01*
X6126682Y-17734569D02*
X6117158Y-17753616D01*
X6117158Y-17753616D02*
X6107634Y-17763140D01*
X6107634Y-17763140D02*
X6088586Y-17772664D01*
X6088586Y-17772664D02*
X6069539Y-17772664D01*
X6069539Y-17772664D02*
X6050491Y-17763140D01*
X6050491Y-17763140D02*
X6040967Y-17753616D01*
X6040967Y-17753616D02*
X6031443Y-17734569D01*
X6031443Y-17734569D02*
X6021920Y-17696473D01*
X6021920Y-17696473D02*
X6021920Y-17648854D01*
X6021920Y-17648854D02*
X6031443Y-17610759D01*
X6031443Y-17610759D02*
X6040967Y-17591711D01*
X6040967Y-17591711D02*
X6050491Y-17582188D01*
X6050491Y-17582188D02*
X6069539Y-17572664D01*
X6221920Y-17772664D02*
X6221920Y-17639330D01*
X6221920Y-17658378D02*
X6231443Y-17648854D01*
X6231443Y-17648854D02*
X6250491Y-17639330D01*
X6250491Y-17639330D02*
X6279063Y-17639330D01*
X6279063Y-17639330D02*
X6298110Y-17648854D01*
X6298110Y-17648854D02*
X6307634Y-17667902D01*
X6307634Y-17667902D02*
X6307634Y-17772664D01*
X6307634Y-17667902D02*
X6317158Y-17648854D01*
X6317158Y-17648854D02*
X6336205Y-17639330D01*
X6336205Y-17639330D02*
X6364777Y-17639330D01*
X6364777Y-17639330D02*
X6383824Y-17648854D01*
X6383824Y-17648854D02*
X6393348Y-17667902D01*
X6393348Y-17667902D02*
X6393348Y-17772664D01*
X6488586Y-17772664D02*
X6488586Y-17639330D01*
X6488586Y-17658378D02*
X6498110Y-17648854D01*
X6498110Y-17648854D02*
X6517158Y-17639330D01*
X6517158Y-17639330D02*
X6545729Y-17639330D01*
X6545729Y-17639330D02*
X6564777Y-17648854D01*
X6564777Y-17648854D02*
X6574301Y-17667902D01*
X6574301Y-17667902D02*
X6574301Y-17772664D01*
X6574301Y-17667902D02*
X6583824Y-17648854D01*
X6583824Y-17648854D02*
X6602872Y-17639330D01*
X6602872Y-17639330D02*
X6631443Y-17639330D01*
X6631443Y-17639330D02*
X6650491Y-17648854D01*
X6650491Y-17648854D02*
X6660015Y-17667902D01*
X6660015Y-17667902D02*
X6660015Y-17772664D01*
X7050491Y-17563140D02*
X6879063Y-17820283D01*
X7307634Y-17572664D02*
X7326682Y-17572664D01*
X7326682Y-17572664D02*
X7345729Y-17582188D01*
X7345729Y-17582188D02*
X7355253Y-17591711D01*
X7355253Y-17591711D02*
X7364777Y-17610759D01*
X7364777Y-17610759D02*
X7374301Y-17648854D01*
X7374301Y-17648854D02*
X7374301Y-17696473D01*
X7374301Y-17696473D02*
X7364777Y-17734569D01*
X7364777Y-17734569D02*
X7355253Y-17753616D01*
X7355253Y-17753616D02*
X7345729Y-17763140D01*
X7345729Y-17763140D02*
X7326682Y-17772664D01*
X7326682Y-17772664D02*
X7307634Y-17772664D01*
X7307634Y-17772664D02*
X7288586Y-17763140D01*
X7288586Y-17763140D02*
X7279063Y-17753616D01*
X7279063Y-17753616D02*
X7269539Y-17734569D01*
X7269539Y-17734569D02*
X7260015Y-17696473D01*
X7260015Y-17696473D02*
X7260015Y-17648854D01*
X7260015Y-17648854D02*
X7269539Y-17610759D01*
X7269539Y-17610759D02*
X7279063Y-17591711D01*
X7279063Y-17591711D02*
X7288586Y-17582188D01*
X7288586Y-17582188D02*
X7307634Y-17572664D01*
X7460015Y-17753616D02*
X7469539Y-17763140D01*
X7469539Y-17763140D02*
X7460015Y-17772664D01*
X7460015Y-17772664D02*
X7450491Y-17763140D01*
X7450491Y-17763140D02*
X7460015Y-17753616D01*
X7460015Y-17753616D02*
X7460015Y-17772664D01*
X7660015Y-17772664D02*
X7545729Y-17772664D01*
X7602872Y-17772664D02*
X7602872Y-17572664D01*
X7602872Y-17572664D02*
X7583825Y-17601235D01*
X7583825Y-17601235D02*
X7564777Y-17620283D01*
X7564777Y-17620283D02*
X7545729Y-17629807D01*
X7850491Y-17772664D02*
X7736206Y-17772664D01*
X7793348Y-17772664D02*
X7793348Y-17572664D01*
X7793348Y-17572664D02*
X7774301Y-17601235D01*
X7774301Y-17601235D02*
X7755253Y-17620283D01*
X7755253Y-17620283D02*
X7736206Y-17629807D01*
X7964777Y-17658378D02*
X7945729Y-17648854D01*
X7945729Y-17648854D02*
X7936206Y-17639330D01*
X7936206Y-17639330D02*
X7926682Y-17620283D01*
X7926682Y-17620283D02*
X7926682Y-17610759D01*
X7926682Y-17610759D02*
X7936206Y-17591711D01*
X7936206Y-17591711D02*
X7945729Y-17582188D01*
X7945729Y-17582188D02*
X7964777Y-17572664D01*
X7964777Y-17572664D02*
X8002872Y-17572664D01*
X8002872Y-17572664D02*
X8021920Y-17582188D01*
X8021920Y-17582188D02*
X8031444Y-17591711D01*
X8031444Y-17591711D02*
X8040967Y-17610759D01*
X8040967Y-17610759D02*
X8040967Y-17620283D01*
X8040967Y-17620283D02*
X8031444Y-17639330D01*
X8031444Y-17639330D02*
X8021920Y-17648854D01*
X8021920Y-17648854D02*
X8002872Y-17658378D01*
X8002872Y-17658378D02*
X7964777Y-17658378D01*
X7964777Y-17658378D02*
X7945729Y-17667902D01*
X7945729Y-17667902D02*
X7936206Y-17677426D01*
X7936206Y-17677426D02*
X7926682Y-17696473D01*
X7926682Y-17696473D02*
X7926682Y-17734569D01*
X7926682Y-17734569D02*
X7936206Y-17753616D01*
X7936206Y-17753616D02*
X7945729Y-17763140D01*
X7945729Y-17763140D02*
X7964777Y-17772664D01*
X7964777Y-17772664D02*
X8002872Y-17772664D01*
X8002872Y-17772664D02*
X8021920Y-17763140D01*
X8021920Y-17763140D02*
X8031444Y-17753616D01*
X8031444Y-17753616D02*
X8040967Y-17734569D01*
X8040967Y-17734569D02*
X8040967Y-17696473D01*
X8040967Y-17696473D02*
X8031444Y-17677426D01*
X8031444Y-17677426D02*
X8021920Y-17667902D01*
X8021920Y-17667902D02*
X8002872Y-17658378D01*
X8231444Y-17772664D02*
X8117158Y-17772664D01*
X8174301Y-17772664D02*
X8174301Y-17572664D01*
X8174301Y-17572664D02*
X8155253Y-17601235D01*
X8155253Y-17601235D02*
X8136206Y-17620283D01*
X8136206Y-17620283D02*
X8117158Y-17629807D01*
X8307634Y-17572664D02*
X8307634Y-17610759D01*
X8383825Y-17572664D02*
X8383825Y-17610759D01*
X8679063Y-17848854D02*
X8669539Y-17839330D01*
X8669539Y-17839330D02*
X8650491Y-17810759D01*
X8650491Y-17810759D02*
X8640968Y-17791711D01*
X8640968Y-17791711D02*
X8631444Y-17763140D01*
X8631444Y-17763140D02*
X8621920Y-17715521D01*
X8621920Y-17715521D02*
X8621920Y-17677426D01*
X8621920Y-17677426D02*
X8631444Y-17629807D01*
X8631444Y-17629807D02*
X8640968Y-17601235D01*
X8640968Y-17601235D02*
X8650491Y-17582188D01*
X8650491Y-17582188D02*
X8669539Y-17553616D01*
X8669539Y-17553616D02*
X8679063Y-17544092D01*
X8745730Y-17591711D02*
X8755253Y-17582188D01*
X8755253Y-17582188D02*
X8774301Y-17572664D01*
X8774301Y-17572664D02*
X8821920Y-17572664D01*
X8821920Y-17572664D02*
X8840968Y-17582188D01*
X8840968Y-17582188D02*
X8850491Y-17591711D01*
X8850491Y-17591711D02*
X8860015Y-17610759D01*
X8860015Y-17610759D02*
X8860015Y-17629807D01*
X8860015Y-17629807D02*
X8850491Y-17658378D01*
X8850491Y-17658378D02*
X8736206Y-17772664D01*
X8736206Y-17772664D02*
X8860015Y-17772664D01*
X9031444Y-17639330D02*
X9031444Y-17772664D01*
X8983825Y-17563140D02*
X8936206Y-17705997D01*
X8936206Y-17705997D02*
X9060015Y-17705997D01*
X9288587Y-17772664D02*
X9288587Y-17572664D01*
X9374301Y-17772664D02*
X9374301Y-17667902D01*
X9374301Y-17667902D02*
X9364777Y-17648854D01*
X9364777Y-17648854D02*
X9345730Y-17639330D01*
X9345730Y-17639330D02*
X9317158Y-17639330D01*
X9317158Y-17639330D02*
X9298111Y-17648854D01*
X9298111Y-17648854D02*
X9288587Y-17658378D01*
X9498111Y-17772664D02*
X9479063Y-17763140D01*
X9479063Y-17763140D02*
X9469539Y-17753616D01*
X9469539Y-17753616D02*
X9460015Y-17734569D01*
X9460015Y-17734569D02*
X9460015Y-17677426D01*
X9460015Y-17677426D02*
X9469539Y-17658378D01*
X9469539Y-17658378D02*
X9479063Y-17648854D01*
X9479063Y-17648854D02*
X9498111Y-17639330D01*
X9498111Y-17639330D02*
X9526682Y-17639330D01*
X9526682Y-17639330D02*
X9545730Y-17648854D01*
X9545730Y-17648854D02*
X9555253Y-17658378D01*
X9555253Y-17658378D02*
X9564777Y-17677426D01*
X9564777Y-17677426D02*
X9564777Y-17734569D01*
X9564777Y-17734569D02*
X9555253Y-17753616D01*
X9555253Y-17753616D02*
X9545730Y-17763140D01*
X9545730Y-17763140D02*
X9526682Y-17772664D01*
X9526682Y-17772664D02*
X9498111Y-17772664D01*
X9679063Y-17772664D02*
X9660015Y-17763140D01*
X9660015Y-17763140D02*
X9650492Y-17744092D01*
X9650492Y-17744092D02*
X9650492Y-17572664D01*
X9831444Y-17763140D02*
X9812396Y-17772664D01*
X9812396Y-17772664D02*
X9774301Y-17772664D01*
X9774301Y-17772664D02*
X9755253Y-17763140D01*
X9755253Y-17763140D02*
X9745730Y-17744092D01*
X9745730Y-17744092D02*
X9745730Y-17667902D01*
X9745730Y-17667902D02*
X9755253Y-17648854D01*
X9755253Y-17648854D02*
X9774301Y-17639330D01*
X9774301Y-17639330D02*
X9812396Y-17639330D01*
X9812396Y-17639330D02*
X9831444Y-17648854D01*
X9831444Y-17648854D02*
X9840968Y-17667902D01*
X9840968Y-17667902D02*
X9840968Y-17686950D01*
X9840968Y-17686950D02*
X9745730Y-17705997D01*
X9917158Y-17763140D02*
X9936206Y-17772664D01*
X9936206Y-17772664D02*
X9974301Y-17772664D01*
X9974301Y-17772664D02*
X9993349Y-17763140D01*
X9993349Y-17763140D02*
X10002873Y-17744092D01*
X10002873Y-17744092D02*
X10002873Y-17734569D01*
X10002873Y-17734569D02*
X9993349Y-17715521D01*
X9993349Y-17715521D02*
X9974301Y-17705997D01*
X9974301Y-17705997D02*
X9945730Y-17705997D01*
X9945730Y-17705997D02*
X9926682Y-17696473D01*
X9926682Y-17696473D02*
X9917158Y-17677426D01*
X9917158Y-17677426D02*
X9917158Y-17667902D01*
X9917158Y-17667902D02*
X9926682Y-17648854D01*
X9926682Y-17648854D02*
X9945730Y-17639330D01*
X9945730Y-17639330D02*
X9974301Y-17639330D01*
X9974301Y-17639330D02*
X9993349Y-17648854D01*
X10069539Y-17848854D02*
X10079063Y-17839330D01*
X10079063Y-17839330D02*
X10098111Y-17810759D01*
X10098111Y-17810759D02*
X10107634Y-17791711D01*
X10107634Y-17791711D02*
X10117158Y-17763140D01*
X10117158Y-17763140D02*
X10126682Y-17715521D01*
X10126682Y-17715521D02*
X10126682Y-17677426D01*
X10126682Y-17677426D02*
X10117158Y-17629807D01*
X10117158Y-17629807D02*
X10107634Y-17601235D01*
X10107634Y-17601235D02*
X10098111Y-17582188D01*
X10098111Y-17582188D02*
X10079063Y-17553616D01*
X10079063Y-17553616D02*
X10069539Y-17544092D01*
X10431444Y-17848854D02*
X10421920Y-17839330D01*
X10421920Y-17839330D02*
X10402873Y-17810759D01*
X10402873Y-17810759D02*
X10393349Y-17791711D01*
X10393349Y-17791711D02*
X10383825Y-17763140D01*
X10383825Y-17763140D02*
X10374301Y-17715521D01*
X10374301Y-17715521D02*
X10374301Y-17677426D01*
X10374301Y-17677426D02*
X10383825Y-17629807D01*
X10383825Y-17629807D02*
X10393349Y-17601235D01*
X10393349Y-17601235D02*
X10402873Y-17582188D01*
X10402873Y-17582188D02*
X10421920Y-17553616D01*
X10421920Y-17553616D02*
X10431444Y-17544092D01*
X10507634Y-17639330D02*
X10507634Y-17772664D01*
X10507634Y-17658378D02*
X10517158Y-17648854D01*
X10517158Y-17648854D02*
X10536206Y-17639330D01*
X10536206Y-17639330D02*
X10564777Y-17639330D01*
X10564777Y-17639330D02*
X10583825Y-17648854D01*
X10583825Y-17648854D02*
X10593349Y-17667902D01*
X10593349Y-17667902D02*
X10593349Y-17772664D01*
X10717158Y-17772664D02*
X10698111Y-17763140D01*
X10698111Y-17763140D02*
X10688587Y-17753616D01*
X10688587Y-17753616D02*
X10679063Y-17734569D01*
X10679063Y-17734569D02*
X10679063Y-17677426D01*
X10679063Y-17677426D02*
X10688587Y-17658378D01*
X10688587Y-17658378D02*
X10698111Y-17648854D01*
X10698111Y-17648854D02*
X10717158Y-17639330D01*
X10717158Y-17639330D02*
X10745730Y-17639330D01*
X10745730Y-17639330D02*
X10764777Y-17648854D01*
X10764777Y-17648854D02*
X10774301Y-17658378D01*
X10774301Y-17658378D02*
X10783825Y-17677426D01*
X10783825Y-17677426D02*
X10783825Y-17734569D01*
X10783825Y-17734569D02*
X10774301Y-17753616D01*
X10774301Y-17753616D02*
X10764777Y-17763140D01*
X10764777Y-17763140D02*
X10745730Y-17772664D01*
X10745730Y-17772664D02*
X10717158Y-17772664D01*
X10840968Y-17639330D02*
X10917158Y-17639330D01*
X10869539Y-17572664D02*
X10869539Y-17744092D01*
X10869539Y-17744092D02*
X10879063Y-17763140D01*
X10879063Y-17763140D02*
X10898111Y-17772664D01*
X10898111Y-17772664D02*
X10917158Y-17772664D01*
X11136206Y-17639330D02*
X11136206Y-17839330D01*
X11136206Y-17648854D02*
X11155254Y-17639330D01*
X11155254Y-17639330D02*
X11193349Y-17639330D01*
X11193349Y-17639330D02*
X11212396Y-17648854D01*
X11212396Y-17648854D02*
X11221920Y-17658378D01*
X11221920Y-17658378D02*
X11231444Y-17677426D01*
X11231444Y-17677426D02*
X11231444Y-17734569D01*
X11231444Y-17734569D02*
X11221920Y-17753616D01*
X11221920Y-17753616D02*
X11212396Y-17763140D01*
X11212396Y-17763140D02*
X11193349Y-17772664D01*
X11193349Y-17772664D02*
X11155254Y-17772664D01*
X11155254Y-17772664D02*
X11136206Y-17763140D01*
X11345730Y-17772664D02*
X11326682Y-17763140D01*
X11326682Y-17763140D02*
X11317158Y-17744092D01*
X11317158Y-17744092D02*
X11317158Y-17572664D01*
X11507634Y-17772664D02*
X11507634Y-17667902D01*
X11507634Y-17667902D02*
X11498111Y-17648854D01*
X11498111Y-17648854D02*
X11479063Y-17639330D01*
X11479063Y-17639330D02*
X11440968Y-17639330D01*
X11440968Y-17639330D02*
X11421920Y-17648854D01*
X11507634Y-17763140D02*
X11488587Y-17772664D01*
X11488587Y-17772664D02*
X11440968Y-17772664D01*
X11440968Y-17772664D02*
X11421920Y-17763140D01*
X11421920Y-17763140D02*
X11412396Y-17744092D01*
X11412396Y-17744092D02*
X11412396Y-17725045D01*
X11412396Y-17725045D02*
X11421920Y-17705997D01*
X11421920Y-17705997D02*
X11440968Y-17696473D01*
X11440968Y-17696473D02*
X11488587Y-17696473D01*
X11488587Y-17696473D02*
X11507634Y-17686950D01*
X11574301Y-17639330D02*
X11650492Y-17639330D01*
X11602873Y-17572664D02*
X11602873Y-17744092D01*
X11602873Y-17744092D02*
X11612396Y-17763140D01*
X11612396Y-17763140D02*
X11631444Y-17772664D01*
X11631444Y-17772664D02*
X11650492Y-17772664D01*
X11793349Y-17763140D02*
X11774301Y-17772664D01*
X11774301Y-17772664D02*
X11736206Y-17772664D01*
X11736206Y-17772664D02*
X11717158Y-17763140D01*
X11717158Y-17763140D02*
X11707634Y-17744092D01*
X11707634Y-17744092D02*
X11707634Y-17667902D01*
X11707634Y-17667902D02*
X11717158Y-17648854D01*
X11717158Y-17648854D02*
X11736206Y-17639330D01*
X11736206Y-17639330D02*
X11774301Y-17639330D01*
X11774301Y-17639330D02*
X11793349Y-17648854D01*
X11793349Y-17648854D02*
X11802873Y-17667902D01*
X11802873Y-17667902D02*
X11802873Y-17686950D01*
X11802873Y-17686950D02*
X11707634Y-17705997D01*
X11974301Y-17772664D02*
X11974301Y-17572664D01*
X11974301Y-17763140D02*
X11955254Y-17772664D01*
X11955254Y-17772664D02*
X11917158Y-17772664D01*
X11917158Y-17772664D02*
X11898111Y-17763140D01*
X11898111Y-17763140D02*
X11888587Y-17753616D01*
X11888587Y-17753616D02*
X11879063Y-17734569D01*
X11879063Y-17734569D02*
X11879063Y-17677426D01*
X11879063Y-17677426D02*
X11888587Y-17658378D01*
X11888587Y-17658378D02*
X11898111Y-17648854D01*
X11898111Y-17648854D02*
X11917158Y-17639330D01*
X11917158Y-17639330D02*
X11955254Y-17639330D01*
X11955254Y-17639330D02*
X11974301Y-17648854D01*
X12050492Y-17848854D02*
X12060015Y-17839330D01*
X12060015Y-17839330D02*
X12079063Y-17810759D01*
X12079063Y-17810759D02*
X12088587Y-17791711D01*
X12088587Y-17791711D02*
X12098111Y-17763140D01*
X12098111Y-17763140D02*
X12107634Y-17715521D01*
X12107634Y-17715521D02*
X12107634Y-17677426D01*
X12107634Y-17677426D02*
X12098111Y-17629807D01*
X12098111Y-17629807D02*
X12088587Y-17601235D01*
X12088587Y-17601235D02*
X12079063Y-17582188D01*
X12079063Y-17582188D02*
X12060015Y-17553616D01*
X12060015Y-17553616D02*
X12050492Y-17544092D01*
X5004000Y-18101180D02*
X5104000Y-18001180D01*
X5004000Y-17901180D01*
X4904000Y-18001180D01*
X5004000Y-18101180D01*
X5345729Y-17892664D02*
X5469539Y-17892664D01*
X5469539Y-17892664D02*
X5402872Y-17968854D01*
X5402872Y-17968854D02*
X5431444Y-17968854D01*
X5431444Y-17968854D02*
X5450491Y-17978378D01*
X5450491Y-17978378D02*
X5460015Y-17987902D01*
X5460015Y-17987902D02*
X5469539Y-18006950D01*
X5469539Y-18006950D02*
X5469539Y-18054569D01*
X5469539Y-18054569D02*
X5460015Y-18073616D01*
X5460015Y-18073616D02*
X5450491Y-18083140D01*
X5450491Y-18083140D02*
X5431444Y-18092664D01*
X5431444Y-18092664D02*
X5374301Y-18092664D01*
X5374301Y-18092664D02*
X5355253Y-18083140D01*
X5355253Y-18083140D02*
X5345729Y-18073616D01*
X5555253Y-18073616D02*
X5564777Y-18083140D01*
X5564777Y-18083140D02*
X5555253Y-18092664D01*
X5555253Y-18092664D02*
X5545729Y-18083140D01*
X5545729Y-18083140D02*
X5555253Y-18073616D01*
X5555253Y-18073616D02*
X5555253Y-18092664D01*
X5660015Y-18092664D02*
X5698110Y-18092664D01*
X5698110Y-18092664D02*
X5717158Y-18083140D01*
X5717158Y-18083140D02*
X5726682Y-18073616D01*
X5726682Y-18073616D02*
X5745729Y-18045045D01*
X5745729Y-18045045D02*
X5755253Y-18006950D01*
X5755253Y-18006950D02*
X5755253Y-17930759D01*
X5755253Y-17930759D02*
X5745729Y-17911711D01*
X5745729Y-17911711D02*
X5736205Y-17902188D01*
X5736205Y-17902188D02*
X5717158Y-17892664D01*
X5717158Y-17892664D02*
X5679062Y-17892664D01*
X5679062Y-17892664D02*
X5660015Y-17902188D01*
X5660015Y-17902188D02*
X5650491Y-17911711D01*
X5650491Y-17911711D02*
X5640967Y-17930759D01*
X5640967Y-17930759D02*
X5640967Y-17978378D01*
X5640967Y-17978378D02*
X5650491Y-17997426D01*
X5650491Y-17997426D02*
X5660015Y-18006950D01*
X5660015Y-18006950D02*
X5679062Y-18016473D01*
X5679062Y-18016473D02*
X5717158Y-18016473D01*
X5717158Y-18016473D02*
X5736205Y-18006950D01*
X5736205Y-18006950D02*
X5745729Y-17997426D01*
X5745729Y-17997426D02*
X5755253Y-17978378D01*
X5869539Y-17978378D02*
X5850491Y-17968854D01*
X5850491Y-17968854D02*
X5840967Y-17959330D01*
X5840967Y-17959330D02*
X5831443Y-17940283D01*
X5831443Y-17940283D02*
X5831443Y-17930759D01*
X5831443Y-17930759D02*
X5840967Y-17911711D01*
X5840967Y-17911711D02*
X5850491Y-17902188D01*
X5850491Y-17902188D02*
X5869539Y-17892664D01*
X5869539Y-17892664D02*
X5907634Y-17892664D01*
X5907634Y-17892664D02*
X5926682Y-17902188D01*
X5926682Y-17902188D02*
X5936205Y-17911711D01*
X5936205Y-17911711D02*
X5945729Y-17930759D01*
X5945729Y-17930759D02*
X5945729Y-17940283D01*
X5945729Y-17940283D02*
X5936205Y-17959330D01*
X5936205Y-17959330D02*
X5926682Y-17968854D01*
X5926682Y-17968854D02*
X5907634Y-17978378D01*
X5907634Y-17978378D02*
X5869539Y-17978378D01*
X5869539Y-17978378D02*
X5850491Y-17987902D01*
X5850491Y-17987902D02*
X5840967Y-17997426D01*
X5840967Y-17997426D02*
X5831443Y-18016473D01*
X5831443Y-18016473D02*
X5831443Y-18054569D01*
X5831443Y-18054569D02*
X5840967Y-18073616D01*
X5840967Y-18073616D02*
X5850491Y-18083140D01*
X5850491Y-18083140D02*
X5869539Y-18092664D01*
X5869539Y-18092664D02*
X5907634Y-18092664D01*
X5907634Y-18092664D02*
X5926682Y-18083140D01*
X5926682Y-18083140D02*
X5936205Y-18073616D01*
X5936205Y-18073616D02*
X5945729Y-18054569D01*
X5945729Y-18054569D02*
X5945729Y-18016473D01*
X5945729Y-18016473D02*
X5936205Y-17997426D01*
X5936205Y-17997426D02*
X5926682Y-17987902D01*
X5926682Y-17987902D02*
X5907634Y-17978378D01*
X6060015Y-17978378D02*
X6040967Y-17968854D01*
X6040967Y-17968854D02*
X6031443Y-17959330D01*
X6031443Y-17959330D02*
X6021920Y-17940283D01*
X6021920Y-17940283D02*
X6021920Y-17930759D01*
X6021920Y-17930759D02*
X6031443Y-17911711D01*
X6031443Y-17911711D02*
X6040967Y-17902188D01*
X6040967Y-17902188D02*
X6060015Y-17892664D01*
X6060015Y-17892664D02*
X6098110Y-17892664D01*
X6098110Y-17892664D02*
X6117158Y-17902188D01*
X6117158Y-17902188D02*
X6126682Y-17911711D01*
X6126682Y-17911711D02*
X6136205Y-17930759D01*
X6136205Y-17930759D02*
X6136205Y-17940283D01*
X6136205Y-17940283D02*
X6126682Y-17959330D01*
X6126682Y-17959330D02*
X6117158Y-17968854D01*
X6117158Y-17968854D02*
X6098110Y-17978378D01*
X6098110Y-17978378D02*
X6060015Y-17978378D01*
X6060015Y-17978378D02*
X6040967Y-17987902D01*
X6040967Y-17987902D02*
X6031443Y-17997426D01*
X6031443Y-17997426D02*
X6021920Y-18016473D01*
X6021920Y-18016473D02*
X6021920Y-18054569D01*
X6021920Y-18054569D02*
X6031443Y-18073616D01*
X6031443Y-18073616D02*
X6040967Y-18083140D01*
X6040967Y-18083140D02*
X6060015Y-18092664D01*
X6060015Y-18092664D02*
X6098110Y-18092664D01*
X6098110Y-18092664D02*
X6117158Y-18083140D01*
X6117158Y-18083140D02*
X6126682Y-18073616D01*
X6126682Y-18073616D02*
X6136205Y-18054569D01*
X6136205Y-18054569D02*
X6136205Y-18016473D01*
X6136205Y-18016473D02*
X6126682Y-17997426D01*
X6126682Y-17997426D02*
X6117158Y-17987902D01*
X6117158Y-17987902D02*
X6098110Y-17978378D01*
X6221920Y-18092664D02*
X6221920Y-17959330D01*
X6221920Y-17978378D02*
X6231443Y-17968854D01*
X6231443Y-17968854D02*
X6250491Y-17959330D01*
X6250491Y-17959330D02*
X6279063Y-17959330D01*
X6279063Y-17959330D02*
X6298110Y-17968854D01*
X6298110Y-17968854D02*
X6307634Y-17987902D01*
X6307634Y-17987902D02*
X6307634Y-18092664D01*
X6307634Y-17987902D02*
X6317158Y-17968854D01*
X6317158Y-17968854D02*
X6336205Y-17959330D01*
X6336205Y-17959330D02*
X6364777Y-17959330D01*
X6364777Y-17959330D02*
X6383824Y-17968854D01*
X6383824Y-17968854D02*
X6393348Y-17987902D01*
X6393348Y-17987902D02*
X6393348Y-18092664D01*
X6488586Y-18092664D02*
X6488586Y-17959330D01*
X6488586Y-17978378D02*
X6498110Y-17968854D01*
X6498110Y-17968854D02*
X6517158Y-17959330D01*
X6517158Y-17959330D02*
X6545729Y-17959330D01*
X6545729Y-17959330D02*
X6564777Y-17968854D01*
X6564777Y-17968854D02*
X6574301Y-17987902D01*
X6574301Y-17987902D02*
X6574301Y-18092664D01*
X6574301Y-17987902D02*
X6583824Y-17968854D01*
X6583824Y-17968854D02*
X6602872Y-17959330D01*
X6602872Y-17959330D02*
X6631443Y-17959330D01*
X6631443Y-17959330D02*
X6650491Y-17968854D01*
X6650491Y-17968854D02*
X6660015Y-17987902D01*
X6660015Y-17987902D02*
X6660015Y-18092664D01*
X7050491Y-17883140D02*
X6879063Y-18140283D01*
X7307634Y-17892664D02*
X7326682Y-17892664D01*
X7326682Y-17892664D02*
X7345729Y-17902188D01*
X7345729Y-17902188D02*
X7355253Y-17911711D01*
X7355253Y-17911711D02*
X7364777Y-17930759D01*
X7364777Y-17930759D02*
X7374301Y-17968854D01*
X7374301Y-17968854D02*
X7374301Y-18016473D01*
X7374301Y-18016473D02*
X7364777Y-18054569D01*
X7364777Y-18054569D02*
X7355253Y-18073616D01*
X7355253Y-18073616D02*
X7345729Y-18083140D01*
X7345729Y-18083140D02*
X7326682Y-18092664D01*
X7326682Y-18092664D02*
X7307634Y-18092664D01*
X7307634Y-18092664D02*
X7288586Y-18083140D01*
X7288586Y-18083140D02*
X7279063Y-18073616D01*
X7279063Y-18073616D02*
X7269539Y-18054569D01*
X7269539Y-18054569D02*
X7260015Y-18016473D01*
X7260015Y-18016473D02*
X7260015Y-17968854D01*
X7260015Y-17968854D02*
X7269539Y-17930759D01*
X7269539Y-17930759D02*
X7279063Y-17911711D01*
X7279063Y-17911711D02*
X7288586Y-17902188D01*
X7288586Y-17902188D02*
X7307634Y-17892664D01*
X7460015Y-18073616D02*
X7469539Y-18083140D01*
X7469539Y-18083140D02*
X7460015Y-18092664D01*
X7460015Y-18092664D02*
X7450491Y-18083140D01*
X7450491Y-18083140D02*
X7460015Y-18073616D01*
X7460015Y-18073616D02*
X7460015Y-18092664D01*
X7660015Y-18092664D02*
X7545729Y-18092664D01*
X7602872Y-18092664D02*
X7602872Y-17892664D01*
X7602872Y-17892664D02*
X7583825Y-17921235D01*
X7583825Y-17921235D02*
X7564777Y-17940283D01*
X7564777Y-17940283D02*
X7545729Y-17949807D01*
X7840967Y-17892664D02*
X7745729Y-17892664D01*
X7745729Y-17892664D02*
X7736206Y-17987902D01*
X7736206Y-17987902D02*
X7745729Y-17978378D01*
X7745729Y-17978378D02*
X7764777Y-17968854D01*
X7764777Y-17968854D02*
X7812396Y-17968854D01*
X7812396Y-17968854D02*
X7831444Y-17978378D01*
X7831444Y-17978378D02*
X7840967Y-17987902D01*
X7840967Y-17987902D02*
X7850491Y-18006950D01*
X7850491Y-18006950D02*
X7850491Y-18054569D01*
X7850491Y-18054569D02*
X7840967Y-18073616D01*
X7840967Y-18073616D02*
X7831444Y-18083140D01*
X7831444Y-18083140D02*
X7812396Y-18092664D01*
X7812396Y-18092664D02*
X7764777Y-18092664D01*
X7764777Y-18092664D02*
X7745729Y-18083140D01*
X7745729Y-18083140D02*
X7736206Y-18073616D01*
X7917158Y-17892664D02*
X8050491Y-17892664D01*
X8050491Y-17892664D02*
X7964777Y-18092664D01*
X8164777Y-17892664D02*
X8183825Y-17892664D01*
X8183825Y-17892664D02*
X8202872Y-17902188D01*
X8202872Y-17902188D02*
X8212396Y-17911711D01*
X8212396Y-17911711D02*
X8221920Y-17930759D01*
X8221920Y-17930759D02*
X8231444Y-17968854D01*
X8231444Y-17968854D02*
X8231444Y-18016473D01*
X8231444Y-18016473D02*
X8221920Y-18054569D01*
X8221920Y-18054569D02*
X8212396Y-18073616D01*
X8212396Y-18073616D02*
X8202872Y-18083140D01*
X8202872Y-18083140D02*
X8183825Y-18092664D01*
X8183825Y-18092664D02*
X8164777Y-18092664D01*
X8164777Y-18092664D02*
X8145729Y-18083140D01*
X8145729Y-18083140D02*
X8136206Y-18073616D01*
X8136206Y-18073616D02*
X8126682Y-18054569D01*
X8126682Y-18054569D02*
X8117158Y-18016473D01*
X8117158Y-18016473D02*
X8117158Y-17968854D01*
X8117158Y-17968854D02*
X8126682Y-17930759D01*
X8126682Y-17930759D02*
X8136206Y-17911711D01*
X8136206Y-17911711D02*
X8145729Y-17902188D01*
X8145729Y-17902188D02*
X8164777Y-17892664D01*
X8307634Y-17892664D02*
X8307634Y-17930759D01*
X8383825Y-17892664D02*
X8383825Y-17930759D01*
X8679063Y-18168854D02*
X8669539Y-18159330D01*
X8669539Y-18159330D02*
X8650491Y-18130759D01*
X8650491Y-18130759D02*
X8640968Y-18111711D01*
X8640968Y-18111711D02*
X8631444Y-18083140D01*
X8631444Y-18083140D02*
X8621920Y-18035521D01*
X8621920Y-18035521D02*
X8621920Y-17997426D01*
X8621920Y-17997426D02*
X8631444Y-17949807D01*
X8631444Y-17949807D02*
X8640968Y-17921235D01*
X8640968Y-17921235D02*
X8650491Y-17902188D01*
X8650491Y-17902188D02*
X8669539Y-17873616D01*
X8669539Y-17873616D02*
X8679063Y-17864092D01*
X8860015Y-18092664D02*
X8745730Y-18092664D01*
X8802872Y-18092664D02*
X8802872Y-17892664D01*
X8802872Y-17892664D02*
X8783825Y-17921235D01*
X8783825Y-17921235D02*
X8764777Y-17940283D01*
X8764777Y-17940283D02*
X8745730Y-17949807D01*
X8936206Y-17911711D02*
X8945730Y-17902188D01*
X8945730Y-17902188D02*
X8964777Y-17892664D01*
X8964777Y-17892664D02*
X9012396Y-17892664D01*
X9012396Y-17892664D02*
X9031444Y-17902188D01*
X9031444Y-17902188D02*
X9040968Y-17911711D01*
X9040968Y-17911711D02*
X9050491Y-17930759D01*
X9050491Y-17930759D02*
X9050491Y-17949807D01*
X9050491Y-17949807D02*
X9040968Y-17978378D01*
X9040968Y-17978378D02*
X8926682Y-18092664D01*
X8926682Y-18092664D02*
X9050491Y-18092664D01*
X9288587Y-18092664D02*
X9288587Y-17892664D01*
X9374301Y-18092664D02*
X9374301Y-17987902D01*
X9374301Y-17987902D02*
X9364777Y-17968854D01*
X9364777Y-17968854D02*
X9345730Y-17959330D01*
X9345730Y-17959330D02*
X9317158Y-17959330D01*
X9317158Y-17959330D02*
X9298111Y-17968854D01*
X9298111Y-17968854D02*
X9288587Y-17978378D01*
X9498111Y-18092664D02*
X9479063Y-18083140D01*
X9479063Y-18083140D02*
X9469539Y-18073616D01*
X9469539Y-18073616D02*
X9460015Y-18054569D01*
X9460015Y-18054569D02*
X9460015Y-17997426D01*
X9460015Y-17997426D02*
X9469539Y-17978378D01*
X9469539Y-17978378D02*
X9479063Y-17968854D01*
X9479063Y-17968854D02*
X9498111Y-17959330D01*
X9498111Y-17959330D02*
X9526682Y-17959330D01*
X9526682Y-17959330D02*
X9545730Y-17968854D01*
X9545730Y-17968854D02*
X9555253Y-17978378D01*
X9555253Y-17978378D02*
X9564777Y-17997426D01*
X9564777Y-17997426D02*
X9564777Y-18054569D01*
X9564777Y-18054569D02*
X9555253Y-18073616D01*
X9555253Y-18073616D02*
X9545730Y-18083140D01*
X9545730Y-18083140D02*
X9526682Y-18092664D01*
X9526682Y-18092664D02*
X9498111Y-18092664D01*
X9679063Y-18092664D02*
X9660015Y-18083140D01*
X9660015Y-18083140D02*
X9650492Y-18064092D01*
X9650492Y-18064092D02*
X9650492Y-17892664D01*
X9831444Y-18083140D02*
X9812396Y-18092664D01*
X9812396Y-18092664D02*
X9774301Y-18092664D01*
X9774301Y-18092664D02*
X9755253Y-18083140D01*
X9755253Y-18083140D02*
X9745730Y-18064092D01*
X9745730Y-18064092D02*
X9745730Y-17987902D01*
X9745730Y-17987902D02*
X9755253Y-17968854D01*
X9755253Y-17968854D02*
X9774301Y-17959330D01*
X9774301Y-17959330D02*
X9812396Y-17959330D01*
X9812396Y-17959330D02*
X9831444Y-17968854D01*
X9831444Y-17968854D02*
X9840968Y-17987902D01*
X9840968Y-17987902D02*
X9840968Y-18006950D01*
X9840968Y-18006950D02*
X9745730Y-18025997D01*
X9917158Y-18083140D02*
X9936206Y-18092664D01*
X9936206Y-18092664D02*
X9974301Y-18092664D01*
X9974301Y-18092664D02*
X9993349Y-18083140D01*
X9993349Y-18083140D02*
X10002873Y-18064092D01*
X10002873Y-18064092D02*
X10002873Y-18054569D01*
X10002873Y-18054569D02*
X9993349Y-18035521D01*
X9993349Y-18035521D02*
X9974301Y-18025997D01*
X9974301Y-18025997D02*
X9945730Y-18025997D01*
X9945730Y-18025997D02*
X9926682Y-18016473D01*
X9926682Y-18016473D02*
X9917158Y-17997426D01*
X9917158Y-17997426D02*
X9917158Y-17987902D01*
X9917158Y-17987902D02*
X9926682Y-17968854D01*
X9926682Y-17968854D02*
X9945730Y-17959330D01*
X9945730Y-17959330D02*
X9974301Y-17959330D01*
X9974301Y-17959330D02*
X9993349Y-17968854D01*
X10069539Y-18168854D02*
X10079063Y-18159330D01*
X10079063Y-18159330D02*
X10098111Y-18130759D01*
X10098111Y-18130759D02*
X10107634Y-18111711D01*
X10107634Y-18111711D02*
X10117158Y-18083140D01*
X10117158Y-18083140D02*
X10126682Y-18035521D01*
X10126682Y-18035521D02*
X10126682Y-17997426D01*
X10126682Y-17997426D02*
X10117158Y-17949807D01*
X10117158Y-17949807D02*
X10107634Y-17921235D01*
X10107634Y-17921235D02*
X10098111Y-17902188D01*
X10098111Y-17902188D02*
X10079063Y-17873616D01*
X10079063Y-17873616D02*
X10069539Y-17864092D01*
X10431444Y-18168854D02*
X10421920Y-18159330D01*
X10421920Y-18159330D02*
X10402873Y-18130759D01*
X10402873Y-18130759D02*
X10393349Y-18111711D01*
X10393349Y-18111711D02*
X10383825Y-18083140D01*
X10383825Y-18083140D02*
X10374301Y-18035521D01*
X10374301Y-18035521D02*
X10374301Y-17997426D01*
X10374301Y-17997426D02*
X10383825Y-17949807D01*
X10383825Y-17949807D02*
X10393349Y-17921235D01*
X10393349Y-17921235D02*
X10402873Y-17902188D01*
X10402873Y-17902188D02*
X10421920Y-17873616D01*
X10421920Y-17873616D02*
X10431444Y-17864092D01*
X10507634Y-17959330D02*
X10507634Y-18092664D01*
X10507634Y-17978378D02*
X10517158Y-17968854D01*
X10517158Y-17968854D02*
X10536206Y-17959330D01*
X10536206Y-17959330D02*
X10564777Y-17959330D01*
X10564777Y-17959330D02*
X10583825Y-17968854D01*
X10583825Y-17968854D02*
X10593349Y-17987902D01*
X10593349Y-17987902D02*
X10593349Y-18092664D01*
X10717158Y-18092664D02*
X10698111Y-18083140D01*
X10698111Y-18083140D02*
X10688587Y-18073616D01*
X10688587Y-18073616D02*
X10679063Y-18054569D01*
X10679063Y-18054569D02*
X10679063Y-17997426D01*
X10679063Y-17997426D02*
X10688587Y-17978378D01*
X10688587Y-17978378D02*
X10698111Y-17968854D01*
X10698111Y-17968854D02*
X10717158Y-17959330D01*
X10717158Y-17959330D02*
X10745730Y-17959330D01*
X10745730Y-17959330D02*
X10764777Y-17968854D01*
X10764777Y-17968854D02*
X10774301Y-17978378D01*
X10774301Y-17978378D02*
X10783825Y-17997426D01*
X10783825Y-17997426D02*
X10783825Y-18054569D01*
X10783825Y-18054569D02*
X10774301Y-18073616D01*
X10774301Y-18073616D02*
X10764777Y-18083140D01*
X10764777Y-18083140D02*
X10745730Y-18092664D01*
X10745730Y-18092664D02*
X10717158Y-18092664D01*
X10840968Y-17959330D02*
X10917158Y-17959330D01*
X10869539Y-17892664D02*
X10869539Y-18064092D01*
X10869539Y-18064092D02*
X10879063Y-18083140D01*
X10879063Y-18083140D02*
X10898111Y-18092664D01*
X10898111Y-18092664D02*
X10917158Y-18092664D01*
X11136206Y-17959330D02*
X11136206Y-18159330D01*
X11136206Y-17968854D02*
X11155254Y-17959330D01*
X11155254Y-17959330D02*
X11193349Y-17959330D01*
X11193349Y-17959330D02*
X11212396Y-17968854D01*
X11212396Y-17968854D02*
X11221920Y-17978378D01*
X11221920Y-17978378D02*
X11231444Y-17997426D01*
X11231444Y-17997426D02*
X11231444Y-18054569D01*
X11231444Y-18054569D02*
X11221920Y-18073616D01*
X11221920Y-18073616D02*
X11212396Y-18083140D01*
X11212396Y-18083140D02*
X11193349Y-18092664D01*
X11193349Y-18092664D02*
X11155254Y-18092664D01*
X11155254Y-18092664D02*
X11136206Y-18083140D01*
X11345730Y-18092664D02*
X11326682Y-18083140D01*
X11326682Y-18083140D02*
X11317158Y-18064092D01*
X11317158Y-18064092D02*
X11317158Y-17892664D01*
X11507634Y-18092664D02*
X11507634Y-17987902D01*
X11507634Y-17987902D02*
X11498111Y-17968854D01*
X11498111Y-17968854D02*
X11479063Y-17959330D01*
X11479063Y-17959330D02*
X11440968Y-17959330D01*
X11440968Y-17959330D02*
X11421920Y-17968854D01*
X11507634Y-18083140D02*
X11488587Y-18092664D01*
X11488587Y-18092664D02*
X11440968Y-18092664D01*
X11440968Y-18092664D02*
X11421920Y-18083140D01*
X11421920Y-18083140D02*
X11412396Y-18064092D01*
X11412396Y-18064092D02*
X11412396Y-18045045D01*
X11412396Y-18045045D02*
X11421920Y-18025997D01*
X11421920Y-18025997D02*
X11440968Y-18016473D01*
X11440968Y-18016473D02*
X11488587Y-18016473D01*
X11488587Y-18016473D02*
X11507634Y-18006950D01*
X11574301Y-17959330D02*
X11650492Y-17959330D01*
X11602873Y-17892664D02*
X11602873Y-18064092D01*
X11602873Y-18064092D02*
X11612396Y-18083140D01*
X11612396Y-18083140D02*
X11631444Y-18092664D01*
X11631444Y-18092664D02*
X11650492Y-18092664D01*
X11793349Y-18083140D02*
X11774301Y-18092664D01*
X11774301Y-18092664D02*
X11736206Y-18092664D01*
X11736206Y-18092664D02*
X11717158Y-18083140D01*
X11717158Y-18083140D02*
X11707634Y-18064092D01*
X11707634Y-18064092D02*
X11707634Y-17987902D01*
X11707634Y-17987902D02*
X11717158Y-17968854D01*
X11717158Y-17968854D02*
X11736206Y-17959330D01*
X11736206Y-17959330D02*
X11774301Y-17959330D01*
X11774301Y-17959330D02*
X11793349Y-17968854D01*
X11793349Y-17968854D02*
X11802873Y-17987902D01*
X11802873Y-17987902D02*
X11802873Y-18006950D01*
X11802873Y-18006950D02*
X11707634Y-18025997D01*
X11974301Y-18092664D02*
X11974301Y-17892664D01*
X11974301Y-18083140D02*
X11955254Y-18092664D01*
X11955254Y-18092664D02*
X11917158Y-18092664D01*
X11917158Y-18092664D02*
X11898111Y-18083140D01*
X11898111Y-18083140D02*
X11888587Y-18073616D01*
X11888587Y-18073616D02*
X11879063Y-18054569D01*
X11879063Y-18054569D02*
X11879063Y-17997426D01*
X11879063Y-17997426D02*
X11888587Y-17978378D01*
X11888587Y-17978378D02*
X11898111Y-17968854D01*
X11898111Y-17968854D02*
X11917158Y-17959330D01*
X11917158Y-17959330D02*
X11955254Y-17959330D01*
X11955254Y-17959330D02*
X11974301Y-17968854D01*
X12050492Y-18168854D02*
X12060015Y-18159330D01*
X12060015Y-18159330D02*
X12079063Y-18130759D01*
X12079063Y-18130759D02*
X12088587Y-18111711D01*
X12088587Y-18111711D02*
X12098111Y-18083140D01*
X12098111Y-18083140D02*
X12107634Y-18035521D01*
X12107634Y-18035521D02*
X12107634Y-17997426D01*
X12107634Y-17997426D02*
X12098111Y-17949807D01*
X12098111Y-17949807D02*
X12088587Y-17921235D01*
X12088587Y-17921235D02*
X12079063Y-17902188D01*
X12079063Y-17902188D02*
X12060015Y-17873616D01*
X12060015Y-17873616D02*
X12050492Y-17864092D01*
M02*
