M48
; DRILL file {KiCad 7.0.5} date Sun Aug  6 18:29:25 2023
; FORMAT={-:-/ absolute / inch / decimal}
; #@! TF.CreationDate,2023-08-06T18:29:25-05:00
; #@! TF.GenerationSoftware,Kicad,Pcbnew,7.0.5
; #@! TF.FileFunction,NonPlated,1,2,NPTH
FMAT,2
INCH
; #@! TA.AperFunction,NonPlated,NPTH,ComponentDrill
T1C0.0591
; #@! TA.AperFunction,NonPlated,NPTH,ComponentDrill
T2C0.0670
; #@! TA.AperFunction,NonPlated,NPTH,ComponentDrill
T3C0.0709
; #@! TA.AperFunction,NonPlated,NPTH,ComponentDrill
T4C0.1181
; #@! TA.AperFunction,NonPlated,NPTH,ComponentDrill
T5C0.1570
%
G90
G05
T1
X3.0961Y-4.3565
X3.0961Y-4.5474
T2
X2.2483Y-2.3024
X2.6483Y-2.3024
X3.2724Y-2.5862
X3.6724Y-2.5862
X4.2539Y-3.1559
X4.6539Y-3.1559
X4.8169Y-5.4059
X5.2169Y-5.4059
X5.5587Y-3.1543
X5.5587Y-4.287
X5.9587Y-3.1543
X5.9587Y-4.287
X6.5421Y-2.587
X6.5425Y-3.7209
X6.9421Y-2.587
X6.9425Y-3.7209
X7.6209Y-2.285
X7.6209Y-3.4185
X8.0209Y-2.285
X8.0209Y-3.4185
X8.7616Y-2.2827
X8.7636Y-3.415
X9.1616Y-2.2827
X9.1636Y-3.415
T3
X2.9768Y-4.3447
X2.9768Y-4.5593
T4
X2.2983Y-2.2024
X2.5483Y-2.1024
X3.3224Y-2.4862
X3.5724Y-2.3862
X4.3039Y-3.0559
X4.5539Y-2.9559
X4.8669Y-5.3059
X5.1169Y-5.2059
X5.6087Y-3.0543
X5.6087Y-4.187
X5.8587Y-2.9543
X5.8587Y-4.087
X6.5921Y-2.487
X6.5925Y-3.6209
X6.8421Y-2.387
X6.8425Y-3.5209
X7.6709Y-2.185
X7.6709Y-3.3185
X7.9209Y-2.085
X7.9209Y-3.2185
X8.8116Y-2.1827
X8.8136Y-3.315
X9.0616Y-2.0827
X9.0636Y-3.215
T5
X2.4483Y-2.3024
X3.4724Y-2.5862
X4.4539Y-3.1559
X5.0169Y-5.4059
X5.7587Y-3.1543
X5.7587Y-4.287
X6.7421Y-2.587
X6.7425Y-3.7209
X7.8209Y-2.285
X7.8209Y-3.4185
X8.9616Y-2.2827
X8.9636Y-3.415
T0
M30
