%TF.GenerationSoftware,KiCad,Pcbnew,7.0.5*%
%TF.CreationDate,2023-08-06T18:29:22-05:00*%
%TF.ProjectId,Box,426f782e-6b69-4636-9164-5f7063625858,rev?*%
%TF.SameCoordinates,Original*%
%TF.FileFunction,Legend,Top*%
%TF.FilePolarity,Positive*%
%FSLAX46Y46*%
G04 Gerber Fmt 4.6, Leading zero omitted, Abs format (unit mm)*
G04 Created by KiCad (PCBNEW 7.0.5) date 2023-08-06 18:29:22*
%MOMM*%
%LPD*%
G01*
G04 APERTURE LIST*
%ADD10C,0.150000*%
%ADD11C,0.120000*%
%ADD12C,0.050000*%
%ADD13R,1.700000X1.700000*%
G04 APERTURE END LIST*
D10*
X58879160Y-94594104D02*
X59355350Y-94594104D01*
X58783922Y-94879819D02*
X59117255Y-93879819D01*
X59117255Y-93879819D02*
X59450588Y-94879819D01*
X59641065Y-94213152D02*
X60022017Y-94213152D01*
X59783922Y-93879819D02*
X59783922Y-94736961D01*
X59783922Y-94736961D02*
X59831541Y-94832200D01*
X59831541Y-94832200D02*
X59926779Y-94879819D01*
X59926779Y-94879819D02*
X60022017Y-94879819D01*
X60212494Y-94213152D02*
X60593446Y-94213152D01*
X60355351Y-93879819D02*
X60355351Y-94736961D01*
X60355351Y-94736961D02*
X60402970Y-94832200D01*
X60402970Y-94832200D02*
X60498208Y-94879819D01*
X60498208Y-94879819D02*
X60593446Y-94879819D01*
X60926780Y-94879819D02*
X60926780Y-94213152D01*
X60926780Y-93879819D02*
X60879161Y-93927438D01*
X60879161Y-93927438D02*
X60926780Y-93975057D01*
X60926780Y-93975057D02*
X60974399Y-93927438D01*
X60974399Y-93927438D02*
X60926780Y-93879819D01*
X60926780Y-93879819D02*
X60926780Y-93975057D01*
X61402970Y-94213152D02*
X61402970Y-94879819D01*
X61402970Y-94308390D02*
X61450589Y-94260771D01*
X61450589Y-94260771D02*
X61545827Y-94213152D01*
X61545827Y-94213152D02*
X61688684Y-94213152D01*
X61688684Y-94213152D02*
X61783922Y-94260771D01*
X61783922Y-94260771D02*
X61831541Y-94356009D01*
X61831541Y-94356009D02*
X61831541Y-94879819D01*
X62212494Y-94213152D02*
X62450589Y-94879819D01*
X62688684Y-94213152D02*
X62450589Y-94879819D01*
X62450589Y-94879819D02*
X62355351Y-95117914D01*
X62355351Y-95117914D02*
X62307732Y-95165533D01*
X62307732Y-95165533D02*
X62212494Y-95213152D01*
X63593446Y-94879819D02*
X63022018Y-94879819D01*
X63307732Y-94879819D02*
X63307732Y-93879819D01*
X63307732Y-93879819D02*
X63212494Y-94022676D01*
X63212494Y-94022676D02*
X63117256Y-94117914D01*
X63117256Y-94117914D02*
X63022018Y-94165533D01*
X63926780Y-93879819D02*
X64545827Y-93879819D01*
X64545827Y-93879819D02*
X64212494Y-94260771D01*
X64212494Y-94260771D02*
X64355351Y-94260771D01*
X64355351Y-94260771D02*
X64450589Y-94308390D01*
X64450589Y-94308390D02*
X64498208Y-94356009D01*
X64498208Y-94356009D02*
X64545827Y-94451247D01*
X64545827Y-94451247D02*
X64545827Y-94689342D01*
X64545827Y-94689342D02*
X64498208Y-94784580D01*
X64498208Y-94784580D02*
X64450589Y-94832200D01*
X64450589Y-94832200D02*
X64355351Y-94879819D01*
X64355351Y-94879819D02*
X64069637Y-94879819D01*
X64069637Y-94879819D02*
X63974399Y-94832200D01*
X63974399Y-94832200D02*
X63926780Y-94784580D01*
X64926780Y-94594104D02*
X65402970Y-94594104D01*
X64831542Y-94879819D02*
X65164875Y-93879819D01*
X65164875Y-93879819D02*
X65498208Y-94879819D01*
X66879161Y-95260771D02*
X66831542Y-95213152D01*
X66831542Y-95213152D02*
X66736304Y-95070295D01*
X66736304Y-95070295D02*
X66688685Y-94975057D01*
X66688685Y-94975057D02*
X66641066Y-94832200D01*
X66641066Y-94832200D02*
X66593447Y-94594104D01*
X66593447Y-94594104D02*
X66593447Y-94403628D01*
X66593447Y-94403628D02*
X66641066Y-94165533D01*
X66641066Y-94165533D02*
X66688685Y-94022676D01*
X66688685Y-94022676D02*
X66736304Y-93927438D01*
X66736304Y-93927438D02*
X66831542Y-93784580D01*
X66831542Y-93784580D02*
X66879161Y-93736961D01*
X67212495Y-94832200D02*
X67355352Y-94879819D01*
X67355352Y-94879819D02*
X67593447Y-94879819D01*
X67593447Y-94879819D02*
X67688685Y-94832200D01*
X67688685Y-94832200D02*
X67736304Y-94784580D01*
X67736304Y-94784580D02*
X67783923Y-94689342D01*
X67783923Y-94689342D02*
X67783923Y-94594104D01*
X67783923Y-94594104D02*
X67736304Y-94498866D01*
X67736304Y-94498866D02*
X67688685Y-94451247D01*
X67688685Y-94451247D02*
X67593447Y-94403628D01*
X67593447Y-94403628D02*
X67402971Y-94356009D01*
X67402971Y-94356009D02*
X67307733Y-94308390D01*
X67307733Y-94308390D02*
X67260114Y-94260771D01*
X67260114Y-94260771D02*
X67212495Y-94165533D01*
X67212495Y-94165533D02*
X67212495Y-94070295D01*
X67212495Y-94070295D02*
X67260114Y-93975057D01*
X67260114Y-93975057D02*
X67307733Y-93927438D01*
X67307733Y-93927438D02*
X67402971Y-93879819D01*
X67402971Y-93879819D02*
X67641066Y-93879819D01*
X67641066Y-93879819D02*
X67783923Y-93927438D01*
X68402971Y-93879819D02*
X68593447Y-93879819D01*
X68593447Y-93879819D02*
X68688685Y-93927438D01*
X68688685Y-93927438D02*
X68783923Y-94022676D01*
X68783923Y-94022676D02*
X68831542Y-94213152D01*
X68831542Y-94213152D02*
X68831542Y-94546485D01*
X68831542Y-94546485D02*
X68783923Y-94736961D01*
X68783923Y-94736961D02*
X68688685Y-94832200D01*
X68688685Y-94832200D02*
X68593447Y-94879819D01*
X68593447Y-94879819D02*
X68402971Y-94879819D01*
X68402971Y-94879819D02*
X68307733Y-94832200D01*
X68307733Y-94832200D02*
X68212495Y-94736961D01*
X68212495Y-94736961D02*
X68164876Y-94546485D01*
X68164876Y-94546485D02*
X68164876Y-94213152D01*
X68164876Y-94213152D02*
X68212495Y-94022676D01*
X68212495Y-94022676D02*
X68307733Y-93927438D01*
X68307733Y-93927438D02*
X68402971Y-93879819D01*
X69260114Y-94879819D02*
X69260114Y-93879819D01*
X70307732Y-94784580D02*
X70260113Y-94832200D01*
X70260113Y-94832200D02*
X70117256Y-94879819D01*
X70117256Y-94879819D02*
X70022018Y-94879819D01*
X70022018Y-94879819D02*
X69879161Y-94832200D01*
X69879161Y-94832200D02*
X69783923Y-94736961D01*
X69783923Y-94736961D02*
X69736304Y-94641723D01*
X69736304Y-94641723D02*
X69688685Y-94451247D01*
X69688685Y-94451247D02*
X69688685Y-94308390D01*
X69688685Y-94308390D02*
X69736304Y-94117914D01*
X69736304Y-94117914D02*
X69783923Y-94022676D01*
X69783923Y-94022676D02*
X69879161Y-93927438D01*
X69879161Y-93927438D02*
X70022018Y-93879819D01*
X70022018Y-93879819D02*
X70117256Y-93879819D01*
X70117256Y-93879819D02*
X70260113Y-93927438D01*
X70260113Y-93927438D02*
X70307732Y-93975057D01*
X70736304Y-94498866D02*
X71498209Y-94498866D01*
X72117256Y-94308390D02*
X72022018Y-94260771D01*
X72022018Y-94260771D02*
X71974399Y-94213152D01*
X71974399Y-94213152D02*
X71926780Y-94117914D01*
X71926780Y-94117914D02*
X71926780Y-94070295D01*
X71926780Y-94070295D02*
X71974399Y-93975057D01*
X71974399Y-93975057D02*
X72022018Y-93927438D01*
X72022018Y-93927438D02*
X72117256Y-93879819D01*
X72117256Y-93879819D02*
X72307732Y-93879819D01*
X72307732Y-93879819D02*
X72402970Y-93927438D01*
X72402970Y-93927438D02*
X72450589Y-93975057D01*
X72450589Y-93975057D02*
X72498208Y-94070295D01*
X72498208Y-94070295D02*
X72498208Y-94117914D01*
X72498208Y-94117914D02*
X72450589Y-94213152D01*
X72450589Y-94213152D02*
X72402970Y-94260771D01*
X72402970Y-94260771D02*
X72307732Y-94308390D01*
X72307732Y-94308390D02*
X72117256Y-94308390D01*
X72117256Y-94308390D02*
X72022018Y-94356009D01*
X72022018Y-94356009D02*
X71974399Y-94403628D01*
X71974399Y-94403628D02*
X71926780Y-94498866D01*
X71926780Y-94498866D02*
X71926780Y-94689342D01*
X71926780Y-94689342D02*
X71974399Y-94784580D01*
X71974399Y-94784580D02*
X72022018Y-94832200D01*
X72022018Y-94832200D02*
X72117256Y-94879819D01*
X72117256Y-94879819D02*
X72307732Y-94879819D01*
X72307732Y-94879819D02*
X72402970Y-94832200D01*
X72402970Y-94832200D02*
X72450589Y-94784580D01*
X72450589Y-94784580D02*
X72498208Y-94689342D01*
X72498208Y-94689342D02*
X72498208Y-94498866D01*
X72498208Y-94498866D02*
X72450589Y-94403628D01*
X72450589Y-94403628D02*
X72402970Y-94356009D01*
X72402970Y-94356009D02*
X72307732Y-94308390D01*
X72831542Y-95260771D02*
X72879161Y-95213152D01*
X72879161Y-95213152D02*
X72974399Y-95070295D01*
X72974399Y-95070295D02*
X73022018Y-94975057D01*
X73022018Y-94975057D02*
X73069637Y-94832200D01*
X73069637Y-94832200D02*
X73117256Y-94594104D01*
X73117256Y-94594104D02*
X73117256Y-94403628D01*
X73117256Y-94403628D02*
X73069637Y-94165533D01*
X73069637Y-94165533D02*
X73022018Y-94022676D01*
X73022018Y-94022676D02*
X72974399Y-93927438D01*
X72974399Y-93927438D02*
X72879161Y-93784580D01*
X72879161Y-93784580D02*
X72831542Y-93736961D01*
%TO.C,R7*%
X69183333Y-72274819D02*
X68850000Y-71798628D01*
X68611905Y-72274819D02*
X68611905Y-71274819D01*
X68611905Y-71274819D02*
X68992857Y-71274819D01*
X68992857Y-71274819D02*
X69088095Y-71322438D01*
X69088095Y-71322438D02*
X69135714Y-71370057D01*
X69135714Y-71370057D02*
X69183333Y-71465295D01*
X69183333Y-71465295D02*
X69183333Y-71608152D01*
X69183333Y-71608152D02*
X69135714Y-71703390D01*
X69135714Y-71703390D02*
X69088095Y-71751009D01*
X69088095Y-71751009D02*
X68992857Y-71798628D01*
X68992857Y-71798628D02*
X68611905Y-71798628D01*
X69516667Y-71274819D02*
X70183333Y-71274819D01*
X70183333Y-71274819D02*
X69754762Y-72274819D01*
%TO.C,R6*%
X89034819Y-80826666D02*
X88558628Y-81159999D01*
X89034819Y-81398094D02*
X88034819Y-81398094D01*
X88034819Y-81398094D02*
X88034819Y-81017142D01*
X88034819Y-81017142D02*
X88082438Y-80921904D01*
X88082438Y-80921904D02*
X88130057Y-80874285D01*
X88130057Y-80874285D02*
X88225295Y-80826666D01*
X88225295Y-80826666D02*
X88368152Y-80826666D01*
X88368152Y-80826666D02*
X88463390Y-80874285D01*
X88463390Y-80874285D02*
X88511009Y-80921904D01*
X88511009Y-80921904D02*
X88558628Y-81017142D01*
X88558628Y-81017142D02*
X88558628Y-81398094D01*
X88034819Y-79969523D02*
X88034819Y-80159999D01*
X88034819Y-80159999D02*
X88082438Y-80255237D01*
X88082438Y-80255237D02*
X88130057Y-80302856D01*
X88130057Y-80302856D02*
X88272914Y-80398094D01*
X88272914Y-80398094D02*
X88463390Y-80445713D01*
X88463390Y-80445713D02*
X88844342Y-80445713D01*
X88844342Y-80445713D02*
X88939580Y-80398094D01*
X88939580Y-80398094D02*
X88987200Y-80350475D01*
X88987200Y-80350475D02*
X89034819Y-80255237D01*
X89034819Y-80255237D02*
X89034819Y-80064761D01*
X89034819Y-80064761D02*
X88987200Y-79969523D01*
X88987200Y-79969523D02*
X88939580Y-79921904D01*
X88939580Y-79921904D02*
X88844342Y-79874285D01*
X88844342Y-79874285D02*
X88606247Y-79874285D01*
X88606247Y-79874285D02*
X88511009Y-79921904D01*
X88511009Y-79921904D02*
X88463390Y-79969523D01*
X88463390Y-79969523D02*
X88415771Y-80064761D01*
X88415771Y-80064761D02*
X88415771Y-80255237D01*
X88415771Y-80255237D02*
X88463390Y-80350475D01*
X88463390Y-80350475D02*
X88511009Y-80398094D01*
X88511009Y-80398094D02*
X88606247Y-80445713D01*
%TO.C,R8*%
X127634819Y-81186666D02*
X127158628Y-81519999D01*
X127634819Y-81758094D02*
X126634819Y-81758094D01*
X126634819Y-81758094D02*
X126634819Y-81377142D01*
X126634819Y-81377142D02*
X126682438Y-81281904D01*
X126682438Y-81281904D02*
X126730057Y-81234285D01*
X126730057Y-81234285D02*
X126825295Y-81186666D01*
X126825295Y-81186666D02*
X126968152Y-81186666D01*
X126968152Y-81186666D02*
X127063390Y-81234285D01*
X127063390Y-81234285D02*
X127111009Y-81281904D01*
X127111009Y-81281904D02*
X127158628Y-81377142D01*
X127158628Y-81377142D02*
X127158628Y-81758094D01*
X127063390Y-80615237D02*
X127015771Y-80710475D01*
X127015771Y-80710475D02*
X126968152Y-80758094D01*
X126968152Y-80758094D02*
X126872914Y-80805713D01*
X126872914Y-80805713D02*
X126825295Y-80805713D01*
X126825295Y-80805713D02*
X126730057Y-80758094D01*
X126730057Y-80758094D02*
X126682438Y-80710475D01*
X126682438Y-80710475D02*
X126634819Y-80615237D01*
X126634819Y-80615237D02*
X126634819Y-80424761D01*
X126634819Y-80424761D02*
X126682438Y-80329523D01*
X126682438Y-80329523D02*
X126730057Y-80281904D01*
X126730057Y-80281904D02*
X126825295Y-80234285D01*
X126825295Y-80234285D02*
X126872914Y-80234285D01*
X126872914Y-80234285D02*
X126968152Y-80281904D01*
X126968152Y-80281904D02*
X127015771Y-80329523D01*
X127015771Y-80329523D02*
X127063390Y-80424761D01*
X127063390Y-80424761D02*
X127063390Y-80615237D01*
X127063390Y-80615237D02*
X127111009Y-80710475D01*
X127111009Y-80710475D02*
X127158628Y-80758094D01*
X127158628Y-80758094D02*
X127253866Y-80805713D01*
X127253866Y-80805713D02*
X127444342Y-80805713D01*
X127444342Y-80805713D02*
X127539580Y-80758094D01*
X127539580Y-80758094D02*
X127587200Y-80710475D01*
X127587200Y-80710475D02*
X127634819Y-80615237D01*
X127634819Y-80615237D02*
X127634819Y-80424761D01*
X127634819Y-80424761D02*
X127587200Y-80329523D01*
X127587200Y-80329523D02*
X127539580Y-80281904D01*
X127539580Y-80281904D02*
X127444342Y-80234285D01*
X127444342Y-80234285D02*
X127253866Y-80234285D01*
X127253866Y-80234285D02*
X127158628Y-80281904D01*
X127158628Y-80281904D02*
X127111009Y-80329523D01*
X127111009Y-80329523D02*
X127063390Y-80424761D01*
%TO.C,U2*%
X65138095Y-85494819D02*
X65138095Y-86304342D01*
X65138095Y-86304342D02*
X65185714Y-86399580D01*
X65185714Y-86399580D02*
X65233333Y-86447200D01*
X65233333Y-86447200D02*
X65328571Y-86494819D01*
X65328571Y-86494819D02*
X65519047Y-86494819D01*
X65519047Y-86494819D02*
X65614285Y-86447200D01*
X65614285Y-86447200D02*
X65661904Y-86399580D01*
X65661904Y-86399580D02*
X65709523Y-86304342D01*
X65709523Y-86304342D02*
X65709523Y-85494819D01*
X66138095Y-85590057D02*
X66185714Y-85542438D01*
X66185714Y-85542438D02*
X66280952Y-85494819D01*
X66280952Y-85494819D02*
X66519047Y-85494819D01*
X66519047Y-85494819D02*
X66614285Y-85542438D01*
X66614285Y-85542438D02*
X66661904Y-85590057D01*
X66661904Y-85590057D02*
X66709523Y-85685295D01*
X66709523Y-85685295D02*
X66709523Y-85780533D01*
X66709523Y-85780533D02*
X66661904Y-85923390D01*
X66661904Y-85923390D02*
X66090476Y-86494819D01*
X66090476Y-86494819D02*
X66709523Y-86494819D01*
%TO.C,R5*%
X132543333Y-152134819D02*
X132210000Y-151658628D01*
X131971905Y-152134819D02*
X131971905Y-151134819D01*
X131971905Y-151134819D02*
X132352857Y-151134819D01*
X132352857Y-151134819D02*
X132448095Y-151182438D01*
X132448095Y-151182438D02*
X132495714Y-151230057D01*
X132495714Y-151230057D02*
X132543333Y-151325295D01*
X132543333Y-151325295D02*
X132543333Y-151468152D01*
X132543333Y-151468152D02*
X132495714Y-151563390D01*
X132495714Y-151563390D02*
X132448095Y-151611009D01*
X132448095Y-151611009D02*
X132352857Y-151658628D01*
X132352857Y-151658628D02*
X131971905Y-151658628D01*
X133448095Y-151134819D02*
X132971905Y-151134819D01*
X132971905Y-151134819D02*
X132924286Y-151611009D01*
X132924286Y-151611009D02*
X132971905Y-151563390D01*
X132971905Y-151563390D02*
X133067143Y-151515771D01*
X133067143Y-151515771D02*
X133305238Y-151515771D01*
X133305238Y-151515771D02*
X133400476Y-151563390D01*
X133400476Y-151563390D02*
X133448095Y-151611009D01*
X133448095Y-151611009D02*
X133495714Y-151706247D01*
X133495714Y-151706247D02*
X133495714Y-151944342D01*
X133495714Y-151944342D02*
X133448095Y-152039580D01*
X133448095Y-152039580D02*
X133400476Y-152087200D01*
X133400476Y-152087200D02*
X133305238Y-152134819D01*
X133305238Y-152134819D02*
X133067143Y-152134819D01*
X133067143Y-152134819D02*
X132971905Y-152087200D01*
X132971905Y-152087200D02*
X132924286Y-152039580D01*
%TO.C,R4*%
X226393333Y-98684819D02*
X226060000Y-98208628D01*
X225821905Y-98684819D02*
X225821905Y-97684819D01*
X225821905Y-97684819D02*
X226202857Y-97684819D01*
X226202857Y-97684819D02*
X226298095Y-97732438D01*
X226298095Y-97732438D02*
X226345714Y-97780057D01*
X226345714Y-97780057D02*
X226393333Y-97875295D01*
X226393333Y-97875295D02*
X226393333Y-98018152D01*
X226393333Y-98018152D02*
X226345714Y-98113390D01*
X226345714Y-98113390D02*
X226298095Y-98161009D01*
X226298095Y-98161009D02*
X226202857Y-98208628D01*
X226202857Y-98208628D02*
X225821905Y-98208628D01*
X227250476Y-98018152D02*
X227250476Y-98684819D01*
X227012381Y-97637200D02*
X226774286Y-98351485D01*
X226774286Y-98351485D02*
X227393333Y-98351485D01*
%TO.C,R12*%
X236094819Y-66682857D02*
X235618628Y-67016190D01*
X236094819Y-67254285D02*
X235094819Y-67254285D01*
X235094819Y-67254285D02*
X235094819Y-66873333D01*
X235094819Y-66873333D02*
X235142438Y-66778095D01*
X235142438Y-66778095D02*
X235190057Y-66730476D01*
X235190057Y-66730476D02*
X235285295Y-66682857D01*
X235285295Y-66682857D02*
X235428152Y-66682857D01*
X235428152Y-66682857D02*
X235523390Y-66730476D01*
X235523390Y-66730476D02*
X235571009Y-66778095D01*
X235571009Y-66778095D02*
X235618628Y-66873333D01*
X235618628Y-66873333D02*
X235618628Y-67254285D01*
X236094819Y-65730476D02*
X236094819Y-66301904D01*
X236094819Y-66016190D02*
X235094819Y-66016190D01*
X235094819Y-66016190D02*
X235237676Y-66111428D01*
X235237676Y-66111428D02*
X235332914Y-66206666D01*
X235332914Y-66206666D02*
X235380533Y-66301904D01*
X235190057Y-65349523D02*
X235142438Y-65301904D01*
X235142438Y-65301904D02*
X235094819Y-65206666D01*
X235094819Y-65206666D02*
X235094819Y-64968571D01*
X235094819Y-64968571D02*
X235142438Y-64873333D01*
X235142438Y-64873333D02*
X235190057Y-64825714D01*
X235190057Y-64825714D02*
X235285295Y-64778095D01*
X235285295Y-64778095D02*
X235380533Y-64778095D01*
X235380533Y-64778095D02*
X235523390Y-64825714D01*
X235523390Y-64825714D02*
X236094819Y-65397142D01*
X236094819Y-65397142D02*
X236094819Y-64778095D01*
%TO.C,R11*%
X212714819Y-57682857D02*
X212238628Y-58016190D01*
X212714819Y-58254285D02*
X211714819Y-58254285D01*
X211714819Y-58254285D02*
X211714819Y-57873333D01*
X211714819Y-57873333D02*
X211762438Y-57778095D01*
X211762438Y-57778095D02*
X211810057Y-57730476D01*
X211810057Y-57730476D02*
X211905295Y-57682857D01*
X211905295Y-57682857D02*
X212048152Y-57682857D01*
X212048152Y-57682857D02*
X212143390Y-57730476D01*
X212143390Y-57730476D02*
X212191009Y-57778095D01*
X212191009Y-57778095D02*
X212238628Y-57873333D01*
X212238628Y-57873333D02*
X212238628Y-58254285D01*
X212714819Y-56730476D02*
X212714819Y-57301904D01*
X212714819Y-57016190D02*
X211714819Y-57016190D01*
X211714819Y-57016190D02*
X211857676Y-57111428D01*
X211857676Y-57111428D02*
X211952914Y-57206666D01*
X211952914Y-57206666D02*
X212000533Y-57301904D01*
X212714819Y-55778095D02*
X212714819Y-56349523D01*
X212714819Y-56063809D02*
X211714819Y-56063809D01*
X211714819Y-56063809D02*
X211857676Y-56159047D01*
X211857676Y-56159047D02*
X211952914Y-56254285D01*
X211952914Y-56254285D02*
X212000533Y-56349523D01*
%TO.C,R9*%
X159034819Y-81596666D02*
X158558628Y-81929999D01*
X159034819Y-82168094D02*
X158034819Y-82168094D01*
X158034819Y-82168094D02*
X158034819Y-81787142D01*
X158034819Y-81787142D02*
X158082438Y-81691904D01*
X158082438Y-81691904D02*
X158130057Y-81644285D01*
X158130057Y-81644285D02*
X158225295Y-81596666D01*
X158225295Y-81596666D02*
X158368152Y-81596666D01*
X158368152Y-81596666D02*
X158463390Y-81644285D01*
X158463390Y-81644285D02*
X158511009Y-81691904D01*
X158511009Y-81691904D02*
X158558628Y-81787142D01*
X158558628Y-81787142D02*
X158558628Y-82168094D01*
X159034819Y-81120475D02*
X159034819Y-80929999D01*
X159034819Y-80929999D02*
X158987200Y-80834761D01*
X158987200Y-80834761D02*
X158939580Y-80787142D01*
X158939580Y-80787142D02*
X158796723Y-80691904D01*
X158796723Y-80691904D02*
X158606247Y-80644285D01*
X158606247Y-80644285D02*
X158225295Y-80644285D01*
X158225295Y-80644285D02*
X158130057Y-80691904D01*
X158130057Y-80691904D02*
X158082438Y-80739523D01*
X158082438Y-80739523D02*
X158034819Y-80834761D01*
X158034819Y-80834761D02*
X158034819Y-81025237D01*
X158034819Y-81025237D02*
X158082438Y-81120475D01*
X158082438Y-81120475D02*
X158130057Y-81168094D01*
X158130057Y-81168094D02*
X158225295Y-81215713D01*
X158225295Y-81215713D02*
X158463390Y-81215713D01*
X158463390Y-81215713D02*
X158558628Y-81168094D01*
X158558628Y-81168094D02*
X158606247Y-81120475D01*
X158606247Y-81120475D02*
X158653866Y-81025237D01*
X158653866Y-81025237D02*
X158653866Y-80834761D01*
X158653866Y-80834761D02*
X158606247Y-80739523D01*
X158606247Y-80739523D02*
X158558628Y-80691904D01*
X158558628Y-80691904D02*
X158463390Y-80644285D01*
%TO.C,R10*%
X184154819Y-66502857D02*
X183678628Y-66836190D01*
X184154819Y-67074285D02*
X183154819Y-67074285D01*
X183154819Y-67074285D02*
X183154819Y-66693333D01*
X183154819Y-66693333D02*
X183202438Y-66598095D01*
X183202438Y-66598095D02*
X183250057Y-66550476D01*
X183250057Y-66550476D02*
X183345295Y-66502857D01*
X183345295Y-66502857D02*
X183488152Y-66502857D01*
X183488152Y-66502857D02*
X183583390Y-66550476D01*
X183583390Y-66550476D02*
X183631009Y-66598095D01*
X183631009Y-66598095D02*
X183678628Y-66693333D01*
X183678628Y-66693333D02*
X183678628Y-67074285D01*
X184154819Y-65550476D02*
X184154819Y-66121904D01*
X184154819Y-65836190D02*
X183154819Y-65836190D01*
X183154819Y-65836190D02*
X183297676Y-65931428D01*
X183297676Y-65931428D02*
X183392914Y-66026666D01*
X183392914Y-66026666D02*
X183440533Y-66121904D01*
X183154819Y-64931428D02*
X183154819Y-64836190D01*
X183154819Y-64836190D02*
X183202438Y-64740952D01*
X183202438Y-64740952D02*
X183250057Y-64693333D01*
X183250057Y-64693333D02*
X183345295Y-64645714D01*
X183345295Y-64645714D02*
X183535771Y-64598095D01*
X183535771Y-64598095D02*
X183773866Y-64598095D01*
X183773866Y-64598095D02*
X183964342Y-64645714D01*
X183964342Y-64645714D02*
X184059580Y-64693333D01*
X184059580Y-64693333D02*
X184107200Y-64740952D01*
X184107200Y-64740952D02*
X184154819Y-64836190D01*
X184154819Y-64836190D02*
X184154819Y-64931428D01*
X184154819Y-64931428D02*
X184107200Y-65026666D01*
X184107200Y-65026666D02*
X184059580Y-65074285D01*
X184059580Y-65074285D02*
X183964342Y-65121904D01*
X183964342Y-65121904D02*
X183773866Y-65169523D01*
X183773866Y-65169523D02*
X183535771Y-65169523D01*
X183535771Y-65169523D02*
X183345295Y-65121904D01*
X183345295Y-65121904D02*
X183250057Y-65074285D01*
X183250057Y-65074285D02*
X183202438Y-65026666D01*
X183202438Y-65026666D02*
X183154819Y-64931428D01*
%TO.C,J17*%
X71490476Y-30484819D02*
X71490476Y-31199104D01*
X71490476Y-31199104D02*
X71442857Y-31341961D01*
X71442857Y-31341961D02*
X71347619Y-31437200D01*
X71347619Y-31437200D02*
X71204762Y-31484819D01*
X71204762Y-31484819D02*
X71109524Y-31484819D01*
X72490476Y-31484819D02*
X71919048Y-31484819D01*
X72204762Y-31484819D02*
X72204762Y-30484819D01*
X72204762Y-30484819D02*
X72109524Y-30627676D01*
X72109524Y-30627676D02*
X72014286Y-30722914D01*
X72014286Y-30722914D02*
X71919048Y-30770533D01*
X72823810Y-30484819D02*
X73490476Y-30484819D01*
X73490476Y-30484819D02*
X73061905Y-31484819D01*
%TO.C,J13*%
X95930476Y-30484819D02*
X95930476Y-31199104D01*
X95930476Y-31199104D02*
X95882857Y-31341961D01*
X95882857Y-31341961D02*
X95787619Y-31437200D01*
X95787619Y-31437200D02*
X95644762Y-31484819D01*
X95644762Y-31484819D02*
X95549524Y-31484819D01*
X96930476Y-31484819D02*
X96359048Y-31484819D01*
X96644762Y-31484819D02*
X96644762Y-30484819D01*
X96644762Y-30484819D02*
X96549524Y-30627676D01*
X96549524Y-30627676D02*
X96454286Y-30722914D01*
X96454286Y-30722914D02*
X96359048Y-30770533D01*
X97263810Y-30484819D02*
X97882857Y-30484819D01*
X97882857Y-30484819D02*
X97549524Y-30865771D01*
X97549524Y-30865771D02*
X97692381Y-30865771D01*
X97692381Y-30865771D02*
X97787619Y-30913390D01*
X97787619Y-30913390D02*
X97835238Y-30961009D01*
X97835238Y-30961009D02*
X97882857Y-31056247D01*
X97882857Y-31056247D02*
X97882857Y-31294342D01*
X97882857Y-31294342D02*
X97835238Y-31389580D01*
X97835238Y-31389580D02*
X97787619Y-31437200D01*
X97787619Y-31437200D02*
X97692381Y-31484819D01*
X97692381Y-31484819D02*
X97406667Y-31484819D01*
X97406667Y-31484819D02*
X97311429Y-31437200D01*
X97311429Y-31437200D02*
X97263810Y-31389580D01*
%TO.C,R2*%
X175823333Y-108504819D02*
X175490000Y-108028628D01*
X175251905Y-108504819D02*
X175251905Y-107504819D01*
X175251905Y-107504819D02*
X175632857Y-107504819D01*
X175632857Y-107504819D02*
X175728095Y-107552438D01*
X175728095Y-107552438D02*
X175775714Y-107600057D01*
X175775714Y-107600057D02*
X175823333Y-107695295D01*
X175823333Y-107695295D02*
X175823333Y-107838152D01*
X175823333Y-107838152D02*
X175775714Y-107933390D01*
X175775714Y-107933390D02*
X175728095Y-107981009D01*
X175728095Y-107981009D02*
X175632857Y-108028628D01*
X175632857Y-108028628D02*
X175251905Y-108028628D01*
X176204286Y-107600057D02*
X176251905Y-107552438D01*
X176251905Y-107552438D02*
X176347143Y-107504819D01*
X176347143Y-107504819D02*
X176585238Y-107504819D01*
X176585238Y-107504819D02*
X176680476Y-107552438D01*
X176680476Y-107552438D02*
X176728095Y-107600057D01*
X176728095Y-107600057D02*
X176775714Y-107695295D01*
X176775714Y-107695295D02*
X176775714Y-107790533D01*
X176775714Y-107790533D02*
X176728095Y-107933390D01*
X176728095Y-107933390D02*
X176156667Y-108504819D01*
X176156667Y-108504819D02*
X176775714Y-108504819D01*
%TO.C,R13*%
X75427142Y-88634819D02*
X75093809Y-88158628D01*
X74855714Y-88634819D02*
X74855714Y-87634819D01*
X74855714Y-87634819D02*
X75236666Y-87634819D01*
X75236666Y-87634819D02*
X75331904Y-87682438D01*
X75331904Y-87682438D02*
X75379523Y-87730057D01*
X75379523Y-87730057D02*
X75427142Y-87825295D01*
X75427142Y-87825295D02*
X75427142Y-87968152D01*
X75427142Y-87968152D02*
X75379523Y-88063390D01*
X75379523Y-88063390D02*
X75331904Y-88111009D01*
X75331904Y-88111009D02*
X75236666Y-88158628D01*
X75236666Y-88158628D02*
X74855714Y-88158628D01*
X76379523Y-88634819D02*
X75808095Y-88634819D01*
X76093809Y-88634819D02*
X76093809Y-87634819D01*
X76093809Y-87634819D02*
X75998571Y-87777676D01*
X75998571Y-87777676D02*
X75903333Y-87872914D01*
X75903333Y-87872914D02*
X75808095Y-87920533D01*
X76712857Y-87634819D02*
X77331904Y-87634819D01*
X77331904Y-87634819D02*
X76998571Y-88015771D01*
X76998571Y-88015771D02*
X77141428Y-88015771D01*
X77141428Y-88015771D02*
X77236666Y-88063390D01*
X77236666Y-88063390D02*
X77284285Y-88111009D01*
X77284285Y-88111009D02*
X77331904Y-88206247D01*
X77331904Y-88206247D02*
X77331904Y-88444342D01*
X77331904Y-88444342D02*
X77284285Y-88539580D01*
X77284285Y-88539580D02*
X77236666Y-88587200D01*
X77236666Y-88587200D02*
X77141428Y-88634819D01*
X77141428Y-88634819D02*
X76855714Y-88634819D01*
X76855714Y-88634819D02*
X76760476Y-88587200D01*
X76760476Y-88587200D02*
X76712857Y-88539580D01*
%TO.C,J16*%
X108150476Y-30484819D02*
X108150476Y-31199104D01*
X108150476Y-31199104D02*
X108102857Y-31341961D01*
X108102857Y-31341961D02*
X108007619Y-31437200D01*
X108007619Y-31437200D02*
X107864762Y-31484819D01*
X107864762Y-31484819D02*
X107769524Y-31484819D01*
X109150476Y-31484819D02*
X108579048Y-31484819D01*
X108864762Y-31484819D02*
X108864762Y-30484819D01*
X108864762Y-30484819D02*
X108769524Y-30627676D01*
X108769524Y-30627676D02*
X108674286Y-30722914D01*
X108674286Y-30722914D02*
X108579048Y-30770533D01*
X110007619Y-30484819D02*
X109817143Y-30484819D01*
X109817143Y-30484819D02*
X109721905Y-30532438D01*
X109721905Y-30532438D02*
X109674286Y-30580057D01*
X109674286Y-30580057D02*
X109579048Y-30722914D01*
X109579048Y-30722914D02*
X109531429Y-30913390D01*
X109531429Y-30913390D02*
X109531429Y-31294342D01*
X109531429Y-31294342D02*
X109579048Y-31389580D01*
X109579048Y-31389580D02*
X109626667Y-31437200D01*
X109626667Y-31437200D02*
X109721905Y-31484819D01*
X109721905Y-31484819D02*
X109912381Y-31484819D01*
X109912381Y-31484819D02*
X110007619Y-31437200D01*
X110007619Y-31437200D02*
X110055238Y-31389580D01*
X110055238Y-31389580D02*
X110102857Y-31294342D01*
X110102857Y-31294342D02*
X110102857Y-31056247D01*
X110102857Y-31056247D02*
X110055238Y-30961009D01*
X110055238Y-30961009D02*
X110007619Y-30913390D01*
X110007619Y-30913390D02*
X109912381Y-30865771D01*
X109912381Y-30865771D02*
X109721905Y-30865771D01*
X109721905Y-30865771D02*
X109626667Y-30913390D01*
X109626667Y-30913390D02*
X109579048Y-30961009D01*
X109579048Y-30961009D02*
X109531429Y-31056247D01*
%TO.C,Q1*%
X80910057Y-88005238D02*
X80862438Y-88100476D01*
X80862438Y-88100476D02*
X80767200Y-88195714D01*
X80767200Y-88195714D02*
X80624342Y-88338571D01*
X80624342Y-88338571D02*
X80576723Y-88433809D01*
X80576723Y-88433809D02*
X80576723Y-88529047D01*
X80814819Y-88481428D02*
X80767200Y-88576666D01*
X80767200Y-88576666D02*
X80671961Y-88671904D01*
X80671961Y-88671904D02*
X80481485Y-88719523D01*
X80481485Y-88719523D02*
X80148152Y-88719523D01*
X80148152Y-88719523D02*
X79957676Y-88671904D01*
X79957676Y-88671904D02*
X79862438Y-88576666D01*
X79862438Y-88576666D02*
X79814819Y-88481428D01*
X79814819Y-88481428D02*
X79814819Y-88290952D01*
X79814819Y-88290952D02*
X79862438Y-88195714D01*
X79862438Y-88195714D02*
X79957676Y-88100476D01*
X79957676Y-88100476D02*
X80148152Y-88052857D01*
X80148152Y-88052857D02*
X80481485Y-88052857D01*
X80481485Y-88052857D02*
X80671961Y-88100476D01*
X80671961Y-88100476D02*
X80767200Y-88195714D01*
X80767200Y-88195714D02*
X80814819Y-88290952D01*
X80814819Y-88290952D02*
X80814819Y-88481428D01*
X80814819Y-87100476D02*
X80814819Y-87671904D01*
X80814819Y-87386190D02*
X79814819Y-87386190D01*
X79814819Y-87386190D02*
X79957676Y-87481428D01*
X79957676Y-87481428D02*
X80052914Y-87576666D01*
X80052914Y-87576666D02*
X80100533Y-87671904D01*
%TO.C,J14*%
X120370476Y-30484819D02*
X120370476Y-31199104D01*
X120370476Y-31199104D02*
X120322857Y-31341961D01*
X120322857Y-31341961D02*
X120227619Y-31437200D01*
X120227619Y-31437200D02*
X120084762Y-31484819D01*
X120084762Y-31484819D02*
X119989524Y-31484819D01*
X121370476Y-31484819D02*
X120799048Y-31484819D01*
X121084762Y-31484819D02*
X121084762Y-30484819D01*
X121084762Y-30484819D02*
X120989524Y-30627676D01*
X120989524Y-30627676D02*
X120894286Y-30722914D01*
X120894286Y-30722914D02*
X120799048Y-30770533D01*
X122227619Y-30818152D02*
X122227619Y-31484819D01*
X121989524Y-30437200D02*
X121751429Y-31151485D01*
X121751429Y-31151485D02*
X122370476Y-31151485D01*
%TO.C,R3*%
X196753333Y-97554819D02*
X196420000Y-97078628D01*
X196181905Y-97554819D02*
X196181905Y-96554819D01*
X196181905Y-96554819D02*
X196562857Y-96554819D01*
X196562857Y-96554819D02*
X196658095Y-96602438D01*
X196658095Y-96602438D02*
X196705714Y-96650057D01*
X196705714Y-96650057D02*
X196753333Y-96745295D01*
X196753333Y-96745295D02*
X196753333Y-96888152D01*
X196753333Y-96888152D02*
X196705714Y-96983390D01*
X196705714Y-96983390D02*
X196658095Y-97031009D01*
X196658095Y-97031009D02*
X196562857Y-97078628D01*
X196562857Y-97078628D02*
X196181905Y-97078628D01*
X197086667Y-96554819D02*
X197705714Y-96554819D01*
X197705714Y-96554819D02*
X197372381Y-96935771D01*
X197372381Y-96935771D02*
X197515238Y-96935771D01*
X197515238Y-96935771D02*
X197610476Y-96983390D01*
X197610476Y-96983390D02*
X197658095Y-97031009D01*
X197658095Y-97031009D02*
X197705714Y-97126247D01*
X197705714Y-97126247D02*
X197705714Y-97364342D01*
X197705714Y-97364342D02*
X197658095Y-97459580D01*
X197658095Y-97459580D02*
X197610476Y-97507200D01*
X197610476Y-97507200D02*
X197515238Y-97554819D01*
X197515238Y-97554819D02*
X197229524Y-97554819D01*
X197229524Y-97554819D02*
X197134286Y-97507200D01*
X197134286Y-97507200D02*
X197086667Y-97459580D01*
%TO.C,R1*%
X153843333Y-124124819D02*
X153510000Y-123648628D01*
X153271905Y-124124819D02*
X153271905Y-123124819D01*
X153271905Y-123124819D02*
X153652857Y-123124819D01*
X153652857Y-123124819D02*
X153748095Y-123172438D01*
X153748095Y-123172438D02*
X153795714Y-123220057D01*
X153795714Y-123220057D02*
X153843333Y-123315295D01*
X153843333Y-123315295D02*
X153843333Y-123458152D01*
X153843333Y-123458152D02*
X153795714Y-123553390D01*
X153795714Y-123553390D02*
X153748095Y-123601009D01*
X153748095Y-123601009D02*
X153652857Y-123648628D01*
X153652857Y-123648628D02*
X153271905Y-123648628D01*
X154795714Y-124124819D02*
X154224286Y-124124819D01*
X154510000Y-124124819D02*
X154510000Y-123124819D01*
X154510000Y-123124819D02*
X154414762Y-123267676D01*
X154414762Y-123267676D02*
X154319524Y-123362914D01*
X154319524Y-123362914D02*
X154224286Y-123410533D01*
%TO.C,J15*%
X83710476Y-30484819D02*
X83710476Y-31199104D01*
X83710476Y-31199104D02*
X83662857Y-31341961D01*
X83662857Y-31341961D02*
X83567619Y-31437200D01*
X83567619Y-31437200D02*
X83424762Y-31484819D01*
X83424762Y-31484819D02*
X83329524Y-31484819D01*
X84710476Y-31484819D02*
X84139048Y-31484819D01*
X84424762Y-31484819D02*
X84424762Y-30484819D01*
X84424762Y-30484819D02*
X84329524Y-30627676D01*
X84329524Y-30627676D02*
X84234286Y-30722914D01*
X84234286Y-30722914D02*
X84139048Y-30770533D01*
X85615238Y-30484819D02*
X85139048Y-30484819D01*
X85139048Y-30484819D02*
X85091429Y-30961009D01*
X85091429Y-30961009D02*
X85139048Y-30913390D01*
X85139048Y-30913390D02*
X85234286Y-30865771D01*
X85234286Y-30865771D02*
X85472381Y-30865771D01*
X85472381Y-30865771D02*
X85567619Y-30913390D01*
X85567619Y-30913390D02*
X85615238Y-30961009D01*
X85615238Y-30961009D02*
X85662857Y-31056247D01*
X85662857Y-31056247D02*
X85662857Y-31294342D01*
X85662857Y-31294342D02*
X85615238Y-31389580D01*
X85615238Y-31389580D02*
X85567619Y-31437200D01*
X85567619Y-31437200D02*
X85472381Y-31484819D01*
X85472381Y-31484819D02*
X85234286Y-31484819D01*
X85234286Y-31484819D02*
X85139048Y-31437200D01*
X85139048Y-31437200D02*
X85091429Y-31389580D01*
%TO.C,J18*%
X59270476Y-30484819D02*
X59270476Y-31199104D01*
X59270476Y-31199104D02*
X59222857Y-31341961D01*
X59222857Y-31341961D02*
X59127619Y-31437200D01*
X59127619Y-31437200D02*
X58984762Y-31484819D01*
X58984762Y-31484819D02*
X58889524Y-31484819D01*
X60270476Y-31484819D02*
X59699048Y-31484819D01*
X59984762Y-31484819D02*
X59984762Y-30484819D01*
X59984762Y-30484819D02*
X59889524Y-30627676D01*
X59889524Y-30627676D02*
X59794286Y-30722914D01*
X59794286Y-30722914D02*
X59699048Y-30770533D01*
X60841905Y-30913390D02*
X60746667Y-30865771D01*
X60746667Y-30865771D02*
X60699048Y-30818152D01*
X60699048Y-30818152D02*
X60651429Y-30722914D01*
X60651429Y-30722914D02*
X60651429Y-30675295D01*
X60651429Y-30675295D02*
X60699048Y-30580057D01*
X60699048Y-30580057D02*
X60746667Y-30532438D01*
X60746667Y-30532438D02*
X60841905Y-30484819D01*
X60841905Y-30484819D02*
X61032381Y-30484819D01*
X61032381Y-30484819D02*
X61127619Y-30532438D01*
X61127619Y-30532438D02*
X61175238Y-30580057D01*
X61175238Y-30580057D02*
X61222857Y-30675295D01*
X61222857Y-30675295D02*
X61222857Y-30722914D01*
X61222857Y-30722914D02*
X61175238Y-30818152D01*
X61175238Y-30818152D02*
X61127619Y-30865771D01*
X61127619Y-30865771D02*
X61032381Y-30913390D01*
X61032381Y-30913390D02*
X60841905Y-30913390D01*
X60841905Y-30913390D02*
X60746667Y-30961009D01*
X60746667Y-30961009D02*
X60699048Y-31008628D01*
X60699048Y-31008628D02*
X60651429Y-31103866D01*
X60651429Y-31103866D02*
X60651429Y-31294342D01*
X60651429Y-31294342D02*
X60699048Y-31389580D01*
X60699048Y-31389580D02*
X60746667Y-31437200D01*
X60746667Y-31437200D02*
X60841905Y-31484819D01*
X60841905Y-31484819D02*
X61032381Y-31484819D01*
X61032381Y-31484819D02*
X61127619Y-31437200D01*
X61127619Y-31437200D02*
X61175238Y-31389580D01*
X61175238Y-31389580D02*
X61222857Y-31294342D01*
X61222857Y-31294342D02*
X61222857Y-31103866D01*
X61222857Y-31103866D02*
X61175238Y-31008628D01*
X61175238Y-31008628D02*
X61127619Y-30961009D01*
X61127619Y-30961009D02*
X61032381Y-30913390D01*
D11*
%TO.C,R7*%
X72220000Y-69900000D02*
X71270000Y-69900000D01*
X71270000Y-70820000D02*
X71270000Y-68980000D01*
X71270000Y-68980000D02*
X67430000Y-68980000D01*
X67430000Y-70820000D02*
X71270000Y-70820000D01*
X67430000Y-68980000D02*
X67430000Y-70820000D01*
X66480000Y-69900000D02*
X67430000Y-69900000D01*
%TO.C,R6*%
X90500000Y-83530000D02*
X90500000Y-82580000D01*
X89580000Y-82580000D02*
X91420000Y-82580000D01*
X91420000Y-82580000D02*
X91420000Y-78740000D01*
X89580000Y-78740000D02*
X89580000Y-82580000D01*
X91420000Y-78740000D02*
X89580000Y-78740000D01*
X90500000Y-77790000D02*
X90500000Y-78740000D01*
%TO.C,R8*%
X125260000Y-78150000D02*
X125260000Y-79100000D01*
X126180000Y-79100000D02*
X124340000Y-79100000D01*
X124340000Y-79100000D02*
X124340000Y-82940000D01*
X126180000Y-82940000D02*
X126180000Y-79100000D01*
X124340000Y-82940000D02*
X126180000Y-82940000D01*
X125260000Y-83890000D02*
X125260000Y-82940000D01*
%TO.C,J5*%
X124830000Y-141060000D02*
X124830000Y-143720000D01*
X127430000Y-141060000D02*
X124830000Y-141060000D01*
X127430000Y-141060000D02*
X127430000Y-143720000D01*
X127430000Y-143720000D02*
X124830000Y-143720000D01*
X128700000Y-141060000D02*
X130030000Y-141060000D01*
X130030000Y-141060000D02*
X130030000Y-142390000D01*
%TO.C,J12*%
X225025000Y-61730000D02*
X225025000Y-64390000D01*
X227625000Y-61730000D02*
X225025000Y-61730000D01*
X227625000Y-61730000D02*
X227625000Y-64390000D01*
X227625000Y-64390000D02*
X225025000Y-64390000D01*
X228895000Y-61730000D02*
X230225000Y-61730000D01*
X230225000Y-61730000D02*
X230225000Y-63060000D01*
%TO.C,J4*%
X225075000Y-90490000D02*
X225075000Y-93150000D01*
X227675000Y-90490000D02*
X225075000Y-90490000D01*
X227675000Y-90490000D02*
X227675000Y-93150000D01*
X227675000Y-93150000D02*
X225075000Y-93150000D01*
X228945000Y-90490000D02*
X230275000Y-90490000D01*
X230275000Y-90490000D02*
X230275000Y-91820000D01*
D10*
%TO.C,U2*%
X63150000Y-86965000D02*
X63150000Y-87170000D01*
X63150000Y-86965000D02*
X68650000Y-86965000D01*
X63150000Y-87170000D02*
X61400000Y-87170000D01*
X63150000Y-92475000D02*
X63150000Y-92175000D01*
X63150000Y-92475000D02*
X68650000Y-92475000D01*
X68650000Y-86965000D02*
X68650000Y-87265000D01*
X68650000Y-92475000D02*
X68650000Y-92175000D01*
D11*
%TO.C,J7*%
X59588000Y-62230000D02*
X59588000Y-64890000D01*
X62188000Y-62230000D02*
X59588000Y-62230000D01*
X62188000Y-62230000D02*
X62188000Y-64890000D01*
X62188000Y-64890000D02*
X59588000Y-64890000D01*
X63458000Y-62230000D02*
X64788000Y-62230000D01*
X64788000Y-62230000D02*
X64788000Y-63560000D01*
%TO.C,J10*%
X168650000Y-69460000D02*
X168650000Y-72120000D01*
X171250000Y-69460000D02*
X168650000Y-69460000D01*
X171250000Y-69460000D02*
X171250000Y-72120000D01*
X171250000Y-72120000D02*
X168650000Y-72120000D01*
X172520000Y-69460000D02*
X173850000Y-69460000D01*
X173850000Y-69460000D02*
X173850000Y-70790000D01*
%TO.C,R5*%
X135580000Y-149760000D02*
X134630000Y-149760000D01*
X134630000Y-150680000D02*
X134630000Y-148840000D01*
X134630000Y-148840000D02*
X130790000Y-148840000D01*
X130790000Y-150680000D02*
X134630000Y-150680000D01*
X130790000Y-148840000D02*
X130790000Y-150680000D01*
X129840000Y-149760000D02*
X130790000Y-149760000D01*
%TO.C,R4*%
X223690000Y-100150000D02*
X224640000Y-100150000D01*
X224640000Y-99230000D02*
X224640000Y-101070000D01*
X224640000Y-101070000D02*
X228480000Y-101070000D01*
X228480000Y-99230000D02*
X224640000Y-99230000D01*
X228480000Y-101070000D02*
X228480000Y-99230000D01*
X229430000Y-100150000D02*
X228480000Y-100150000D01*
%TO.C,R12*%
X237560000Y-68910000D02*
X237560000Y-67960000D01*
X236640000Y-67960000D02*
X238480000Y-67960000D01*
X238480000Y-67960000D02*
X238480000Y-64120000D01*
X236640000Y-64120000D02*
X236640000Y-67960000D01*
X238480000Y-64120000D02*
X236640000Y-64120000D01*
X237560000Y-63170000D02*
X237560000Y-64120000D01*
%TO.C,R11*%
X210340000Y-54170000D02*
X210340000Y-55120000D01*
X211260000Y-55120000D02*
X209420000Y-55120000D01*
X209420000Y-55120000D02*
X209420000Y-58960000D01*
X211260000Y-58960000D02*
X211260000Y-55120000D01*
X209420000Y-58960000D02*
X211260000Y-58960000D01*
X210340000Y-59910000D02*
X210340000Y-58960000D01*
%TO.C,J2*%
X168660000Y-98260000D02*
X168660000Y-100920000D01*
X171260000Y-98260000D02*
X168660000Y-98260000D01*
X171260000Y-98260000D02*
X171260000Y-100920000D01*
X171260000Y-100920000D02*
X168660000Y-100920000D01*
X172530000Y-98260000D02*
X173860000Y-98260000D01*
X173860000Y-98260000D02*
X173860000Y-99590000D01*
%TO.C,J1*%
X143670000Y-112640000D02*
X143670000Y-115300000D01*
X146270000Y-112640000D02*
X143670000Y-112640000D01*
X146270000Y-112640000D02*
X146270000Y-115300000D01*
X146270000Y-115300000D02*
X143670000Y-115300000D01*
X147540000Y-112640000D02*
X148870000Y-112640000D01*
X148870000Y-112640000D02*
X148870000Y-113970000D01*
%TO.C,R9*%
X156660000Y-78560000D02*
X156660000Y-79510000D01*
X157580000Y-79510000D02*
X155740000Y-79510000D01*
X155740000Y-79510000D02*
X155740000Y-83350000D01*
X157580000Y-83350000D02*
X157580000Y-79510000D01*
X155740000Y-83350000D02*
X157580000Y-83350000D01*
X156660000Y-84300000D02*
X156660000Y-83350000D01*
%TO.C,R10*%
X181780000Y-62990000D02*
X181780000Y-63940000D01*
X182700000Y-63940000D02*
X180860000Y-63940000D01*
X180860000Y-63940000D02*
X180860000Y-67780000D01*
X182700000Y-67780000D02*
X182700000Y-63940000D01*
X180860000Y-67780000D02*
X182700000Y-67780000D01*
X181780000Y-68730000D02*
X181780000Y-67780000D01*
%TO.C,J17*%
X70030000Y-32160000D02*
X70030000Y-32175000D01*
X70030000Y-32160000D02*
X74570000Y-32160000D01*
X70030000Y-34285000D02*
X70030000Y-34300000D01*
X70030000Y-34300000D02*
X74570000Y-34300000D01*
X74570000Y-32160000D02*
X74570000Y-32175000D01*
X74570000Y-34285000D02*
X74570000Y-34300000D01*
D12*
X68610000Y-36970000D02*
X76010000Y-36970000D01*
X76010000Y-36970000D02*
X76010000Y-29570000D01*
X76010000Y-29570000D02*
X68610000Y-29570000D01*
X68610000Y-29570000D02*
X68610000Y-36970000D01*
D11*
%TO.C,J3*%
X196050000Y-90580000D02*
X196050000Y-93240000D01*
X198650000Y-90580000D02*
X196050000Y-90580000D01*
X198650000Y-90580000D02*
X198650000Y-93240000D01*
X198650000Y-93240000D02*
X196050000Y-93240000D01*
X199920000Y-90580000D02*
X201250000Y-90580000D01*
X201250000Y-90580000D02*
X201250000Y-91910000D01*
%TO.C,J11*%
X196050000Y-61790000D02*
X196050000Y-64450000D01*
X198650000Y-61790000D02*
X196050000Y-61790000D01*
X198650000Y-61790000D02*
X198650000Y-64450000D01*
X198650000Y-64450000D02*
X196050000Y-64450000D01*
X199920000Y-61790000D02*
X201250000Y-61790000D01*
X201250000Y-61790000D02*
X201250000Y-63120000D01*
%TO.C,J13*%
X94470000Y-32160000D02*
X94470000Y-32175000D01*
X94470000Y-32160000D02*
X99010000Y-32160000D01*
X94470000Y-34285000D02*
X94470000Y-34300000D01*
X94470000Y-34300000D02*
X99010000Y-34300000D01*
X99010000Y-32160000D02*
X99010000Y-32175000D01*
X99010000Y-34285000D02*
X99010000Y-34300000D01*
D12*
X93050000Y-36970000D02*
X100450000Y-36970000D01*
X100450000Y-36970000D02*
X100450000Y-29570000D01*
X100450000Y-29570000D02*
X93050000Y-29570000D01*
X93050000Y-29570000D02*
X93050000Y-36970000D01*
D11*
%TO.C,R2*%
X178860000Y-106130000D02*
X177910000Y-106130000D01*
X177910000Y-107050000D02*
X177910000Y-105210000D01*
X177910000Y-105210000D02*
X174070000Y-105210000D01*
X174070000Y-107050000D02*
X177910000Y-107050000D01*
X174070000Y-105210000D02*
X174070000Y-107050000D01*
X173120000Y-106130000D02*
X174070000Y-106130000D01*
%TO.C,J9*%
X143670000Y-83870000D02*
X143670000Y-86530000D01*
X146270000Y-83870000D02*
X143670000Y-83870000D01*
X146270000Y-83870000D02*
X146270000Y-86530000D01*
X146270000Y-86530000D02*
X143670000Y-86530000D01*
X147540000Y-83870000D02*
X148870000Y-83870000D01*
X148870000Y-83870000D02*
X148870000Y-85200000D01*
%TO.C,R13*%
X73200000Y-90100000D02*
X74150000Y-90100000D01*
X74150000Y-89180000D02*
X74150000Y-91020000D01*
X74150000Y-91020000D02*
X77990000Y-91020000D01*
X77990000Y-89180000D02*
X74150000Y-89180000D01*
X77990000Y-91020000D02*
X77990000Y-89180000D01*
X78940000Y-90100000D02*
X77990000Y-90100000D01*
%TO.C,J16*%
X106690000Y-32160000D02*
X106690000Y-32175000D01*
X106690000Y-32160000D02*
X111230000Y-32160000D01*
X106690000Y-34285000D02*
X106690000Y-34300000D01*
X106690000Y-34300000D02*
X111230000Y-34300000D01*
X111230000Y-32160000D02*
X111230000Y-32175000D01*
X111230000Y-34285000D02*
X111230000Y-34300000D01*
D12*
X105270000Y-36970000D02*
X112670000Y-36970000D01*
X112670000Y-36970000D02*
X112670000Y-29570000D01*
X112670000Y-29570000D02*
X105270000Y-29570000D01*
X105270000Y-29570000D02*
X105270000Y-36970000D01*
D11*
%TO.C,Q1*%
X85750000Y-91780000D02*
X85750000Y-88180000D01*
X81300000Y-89980000D02*
G75*
G03*
X85738478Y-91818478I2600000J0D01*
G01*
X85738478Y-88141522D02*
G75*
G03*
X81300000Y-89980000I-1838478J-1838478D01*
G01*
%TO.C,J6*%
X85600000Y-69440000D02*
X85600000Y-72100000D01*
X88200000Y-69440000D02*
X85600000Y-69440000D01*
X88200000Y-69440000D02*
X88200000Y-72100000D01*
X88200000Y-72100000D02*
X85600000Y-72100000D01*
X89470000Y-69440000D02*
X90800000Y-69440000D01*
X90800000Y-69440000D02*
X90800000Y-70770000D01*
%TO.C,J14*%
X118910000Y-32160000D02*
X118910000Y-32175000D01*
X118910000Y-32160000D02*
X123450000Y-32160000D01*
X118910000Y-34285000D02*
X118910000Y-34300000D01*
X118910000Y-34300000D02*
X123450000Y-34300000D01*
X123450000Y-32160000D02*
X123450000Y-32175000D01*
X123450000Y-34285000D02*
X123450000Y-34300000D01*
D12*
X117490000Y-36970000D02*
X124890000Y-36970000D01*
X124890000Y-36970000D02*
X124890000Y-29570000D01*
X124890000Y-29570000D02*
X117490000Y-29570000D01*
X117490000Y-29570000D02*
X117490000Y-36970000D01*
D11*
%TO.C,R3*%
X194050000Y-99020000D02*
X195000000Y-99020000D01*
X195000000Y-98100000D02*
X195000000Y-99940000D01*
X195000000Y-99940000D02*
X198840000Y-99940000D01*
X198840000Y-98100000D02*
X195000000Y-98100000D01*
X198840000Y-99940000D02*
X198840000Y-98100000D01*
X199790000Y-99020000D02*
X198840000Y-99020000D01*
%TO.C,R1*%
X156880000Y-121750000D02*
X155930000Y-121750000D01*
X155930000Y-122670000D02*
X155930000Y-120830000D01*
X155930000Y-120830000D02*
X152090000Y-120830000D01*
X152090000Y-122670000D02*
X155930000Y-122670000D01*
X152090000Y-120830000D02*
X152090000Y-122670000D01*
X151140000Y-121750000D02*
X152090000Y-121750000D01*
%TO.C,J15*%
X82250000Y-32160000D02*
X82250000Y-32175000D01*
X82250000Y-32160000D02*
X86790000Y-32160000D01*
X82250000Y-34285000D02*
X82250000Y-34300000D01*
X82250000Y-34300000D02*
X86790000Y-34300000D01*
X86790000Y-32160000D02*
X86790000Y-32175000D01*
X86790000Y-34285000D02*
X86790000Y-34300000D01*
D12*
X80830000Y-36970000D02*
X88230000Y-36970000D01*
X88230000Y-36970000D02*
X88230000Y-29570000D01*
X88230000Y-29570000D02*
X80830000Y-29570000D01*
X80830000Y-29570000D02*
X80830000Y-36970000D01*
D11*
%TO.C,J18*%
X57810000Y-32160000D02*
X57810000Y-32175000D01*
X57810000Y-32160000D02*
X62350000Y-32160000D01*
X57810000Y-34285000D02*
X57810000Y-34300000D01*
X57810000Y-34300000D02*
X62350000Y-34300000D01*
X62350000Y-32160000D02*
X62350000Y-32175000D01*
X62350000Y-34285000D02*
X62350000Y-34300000D01*
D12*
X56390000Y-36970000D02*
X63790000Y-36970000D01*
X63790000Y-36970000D02*
X63790000Y-29570000D01*
X63790000Y-29570000D02*
X56390000Y-29570000D01*
X56390000Y-29570000D02*
X56390000Y-36970000D01*
D11*
%TO.C,J8*%
X110530000Y-83910000D02*
X110530000Y-86570000D01*
X113130000Y-83910000D02*
X110530000Y-83910000D01*
X113130000Y-83910000D02*
X113130000Y-86570000D01*
X113130000Y-86570000D02*
X110530000Y-86570000D01*
X114400000Y-83910000D02*
X115730000Y-83910000D01*
X115730000Y-83910000D02*
X115730000Y-85240000D01*
%TD*%
D13*
%TO.C,J8*%
X114400000Y-85240000D03*
%TD*%
M02*
