M48
; DRILL file {KiCad 7.0.5} date Sun Aug  6 18:29:25 2023
; FORMAT={-:-/ absolute / inch / decimal}
; #@! TF.CreationDate,2023-08-06T18:29:25-05:00
; #@! TF.GenerationSoftware,Kicad,Pcbnew,7.0.5
; #@! TF.FileFunction,Plated,1,2,PTH
FMAT,2
INCH
; #@! TA.AperFunction,Plated,PTH,ViaDrill
T1C0.0157
; #@! TA.AperFunction,Plated,PTH,ComponentDrill
T2C0.0276
; #@! TA.AperFunction,Plated,PTH,ComponentDrill
T3C0.0295
; #@! TA.AperFunction,Plated,PTH,ComponentDrill
T4C0.0315
; #@! TA.AperFunction,Plated,PTH,ComponentDrill
T5C0.0402
; #@! TA.AperFunction,Plated,PTH,ComponentDrill
T6C0.0492
%
G90
G05
T1
X3.715Y-3.2634
X3.7937Y-3.4425
X3.8441Y-3.8083
X3.937Y-3.8083
X5.0472Y-3.2988
X5.1094Y-3.5067
X5.1811Y-3.2031
X5.2602Y-4.7571
X5.3197Y-3.511
X6.0051Y-4.5949
X6.1398Y-4.2051
X6.2307Y-4.5917
X6.3004Y-4.3748
X6.4248Y-4.3197
X8.6472Y-2.5744
X8.8146Y-2.7335
T2
X2.5803Y-2.752
X2.8449Y-3.5472
X2.8803Y-2.752
X3.1449Y-3.5472
X3.563Y-3.0256
X3.563Y-3.3256
X4.9315Y-3.0398
X4.9315Y-3.3398
X5.0748Y-5.8961
X5.3748Y-5.8961
X5.9134Y-4.7933
X6.1677Y-3.0559
X6.1677Y-3.3559
X6.2134Y-4.7933
X6.7787Y-4.1783
X7.0787Y-4.1783
X7.1567Y-2.4429
X7.1567Y-2.7429
X7.6028Y-3.8984
X7.9028Y-3.8984
X8.2811Y-2.0957
X8.2811Y-2.3957
X8.7697Y-3.9429
X9.0697Y-3.9429
X9.3528Y-2.45
X9.3528Y-2.75
T3
X3.3031Y-3.4925
X3.3031Y-3.5425
X3.3031Y-3.5925
T4
X2.2669Y-1.3083
X2.4638Y-1.3083
X2.748Y-1.3083
X2.9449Y-1.3083
X3.2291Y-1.3083
X3.426Y-1.3083
X3.7102Y-1.3083
X3.9071Y-1.3083
X4.1913Y-1.3083
X4.3882Y-1.3083
X4.6724Y-1.3083
X4.8693Y-1.3083
T5
X2.9717Y-4.102
X2.9717Y-4.802
X3.0717Y-4.102
X3.0717Y-4.802
X3.1717Y-4.102
X3.1717Y-4.802
X3.2717Y-4.102
X3.2717Y-4.802
X3.3717Y-4.102
X3.3717Y-4.802
X3.4717Y-4.102
X3.4717Y-4.802
X3.5717Y-4.102
X3.5717Y-4.802
X3.6717Y-4.102
X3.6717Y-4.802
X3.7717Y-4.102
X3.7717Y-4.802
X3.8717Y-4.102
X3.8717Y-4.802
X3.9717Y-4.102
X3.9717Y-4.802
X4.0717Y-4.102
X4.0717Y-4.802
X4.1717Y-4.102
X4.1717Y-4.802
X4.2717Y-4.102
X4.2717Y-4.802
X4.3717Y-4.102
X4.3717Y-4.802
X4.4717Y-4.102
X4.4717Y-4.802
X4.5717Y-4.102
X4.5717Y-4.802
X4.6717Y-4.102
X4.6717Y-4.802
X4.7717Y-4.102
X4.7717Y-4.802
X4.8626Y-4.352
X4.8626Y-4.452
X4.8626Y-4.552
X4.8717Y-4.102
X4.8717Y-4.802
T6
X2.3983Y-2.5024
X2.4983Y-2.5024
X3.4224Y-2.7862
X3.5224Y-2.7862
X4.4039Y-3.3559
X4.5039Y-3.3559
X4.9669Y-5.6059
X5.0669Y-5.6059
X5.7087Y-3.3543
X5.7087Y-4.487
X5.8087Y-3.3543
X5.8087Y-4.487
X6.6921Y-2.787
X6.6925Y-3.9209
X6.7921Y-2.787
X6.7925Y-3.9209
X7.7709Y-2.485
X7.7709Y-3.6185
X7.8709Y-2.485
X7.8709Y-3.6185
X8.9116Y-2.4827
X8.9136Y-3.615
X9.0116Y-2.4827
X9.0136Y-3.615
T0
M30
