<?xml version="1.0" standalone="no"?>
 <!DOCTYPE svg PUBLIC "-//W3C//DTD SVG 1.1//EN" 
 "http://www.w3.org/Graphics/SVG/1.1/DTD/svg11.dtd"> 
<svg
  xmlns:svg="http://www.w3.org/2000/svg"
  xmlns="http://www.w3.org/2000/svg"
  xmlns:xlink="http://www.w3.org/1999/xlink"
  version="1.1"
  width="209.7024mm" height="148.9710mm" viewBox="0.0000 0.0000 209.7024 148.9710">
<title>SVG Image created as Box-brd.svg date 2023/07/02 15:32:00 </title>
  <desc>Image generated by PCBNEW </desc>
<g style="fill:#000000; fill-opacity:1.0000;stroke:#000000; stroke-opacity:1.0000;
stroke-linecap:round; stroke-linejoin:round;"
 transform="translate(0 0) scale(1 1)">
</g>
<g style="fill:#000000; fill-opacity:0.0; 
stroke:#000000; stroke-width:0.0000; stroke-opacity:1; 
stroke-linecap:round; stroke-linejoin:round;">
</g>
<g style="fill:#26E9FF; fill-opacity:0.0; 
stroke:#26E9FF; stroke-width:0.0000; stroke-opacity:1; 
stroke-linecap:round; stroke-linejoin:round;">
</g>
<g style="fill:#26E9FF; fill-opacity:0.0; 
stroke:#26E9FF; stroke-width:0.1270; stroke-opacity:1; 
stroke-linecap:round; stroke-linejoin:round;">
<path d="M86.3800 112.1050
L86.3800 114.7800
" />
<path d="M86.3800 114.7800
L88.3300 114.7800
" />
<path d="M88.3300 111.4800
L88.3300 112.1050
" />
<path d="M88.3300 112.1050
L86.3800 112.1050
" />
<path d="M88.3300 115.3800
L88.3300 114.7800
" />
<path d="M88.3300 115.3800
L92.4300 115.3800
" />
<path d="M94.4300 113.3800
L100.1300 113.3800
" />
<path d="M100.1300 108.9800
L90.8300 108.9800
" />
<path d="M100.1300 108.9800
L100.1300 109.5800
" />
<path d="M100.1300 109.5800
L102.0300 109.5800
" />
<path d="M100.1300 113.3800
L100.1300 112.2300
" />
<path d="M102.0300 109.5800
L102.0300 112.2300
" />
<path d="M102.0300 112.2300
L100.1300 112.2300
" />
<path d="M90.8300 108.9800 A2.5000 2.5000 0.0 0 0 88.3300 111.4800" />
<path d="M94.4300 113.3800 A2.0000 2.0000 0.0 0 0 92.4300 115.3800" />
<path d="M186.5750 32.7750
L186.5750 35.4500
" />
<path d="M186.5750 35.4500
L188.5250 35.4500
" />
<path d="M188.5250 32.1500
L188.5250 32.7750
" />
<path d="M188.5250 32.7750
L186.5750 32.7750
" />
<path d="M188.5250 36.0500
L188.5250 35.4500
" />
<path d="M188.5250 36.0500
L192.6250 36.0500
" />
<path d="M194.6250 34.0500
L200.3250 34.0500
" />
<path d="M200.3250 29.6500
L191.0250 29.6500
" />
<path d="M200.3250 29.6500
L200.3250 30.2500
" />
<path d="M200.3250 30.2500
L202.2250 30.2500
" />
<path d="M200.3250 34.0500
L200.3250 32.9000
" />
<path d="M202.2250 30.2500
L202.2250 32.9000
" />
<path d="M202.2250 32.9000
L200.3250 32.9000
" />
<path d="M191.0250 29.6500 A2.5000 2.5000 0.0 0 0 188.5250 32.1500" />
<path d="M194.6250 34.0500 A2.0000 2.0000 0.0 0 0 192.6250 36.0500" />
<path d="M186.6250 61.5350
L186.6250 64.2100
" />
<path d="M186.6250 64.2100
L188.5750 64.2100
" />
<path d="M188.5750 60.9100
L188.5750 61.5350
" />
<path d="M188.5750 61.5350
L186.6250 61.5350
" />
<path d="M188.5750 64.8100
L188.5750 64.2100
" />
<path d="M188.5750 64.8100
L192.6750 64.8100
" />
<path d="M194.6750 62.8100
L200.3750 62.8100
" />
<path d="M200.3750 58.4100
L191.0750 58.4100
" />
<path d="M200.3750 58.4100
L200.3750 59.0100
" />
<path d="M200.3750 59.0100
L202.2750 59.0100
" />
<path d="M200.3750 62.8100
L200.3750 61.6600
" />
<path d="M202.2750 59.0100
L202.2750 61.6600
" />
<path d="M202.2750 61.6600
L200.3750 61.6600
" />
<path d="M191.0750 58.4100 A2.5000 2.5000 0.0 0 0 188.5750 60.9100" />
<path d="M194.6750 62.8100 A2.0000 2.0000 0.0 0 0 192.6750 64.8100" />
<path d="M21.1380 33.2750
L21.1380 35.9500
" />
<path d="M21.1380 35.9500
L23.0880 35.9500
" />
<path d="M23.0880 32.6500
L23.0880 33.2750
" />
<path d="M23.0880 33.2750
L21.1380 33.2750
" />
<path d="M23.0880 36.5500
L23.0880 35.9500
" />
<path d="M23.0880 36.5500
L27.1880 36.5500
" />
<path d="M29.1880 34.5500
L34.8880 34.5500
" />
<path d="M34.8880 30.1500
L25.5880 30.1500
" />
<path d="M34.8880 30.1500
L34.8880 30.7500
" />
<path d="M34.8880 30.7500
L36.7880 30.7500
" />
<path d="M34.8880 34.5500
L34.8880 33.4000
" />
<path d="M36.7880 30.7500
L36.7880 33.4000
" />
<path d="M36.7880 33.4000
L34.8880 33.4000
" />
<path d="M25.5880 30.1500 A2.5000 2.5000 0.0 0 0 23.0880 32.6500" />
<path d="M29.1880 34.5500 A2.0000 2.0000 0.0 0 0 27.1880 36.5500" />
<path d="M130.2000 40.5050
L130.2000 43.1800
" />
<path d="M130.2000 43.1800
L132.1500 43.1800
" />
<path d="M132.1500 39.8800
L132.1500 40.5050
" />
<path d="M132.1500 40.5050
L130.2000 40.5050
" />
<path d="M132.1500 43.7800
L132.1500 43.1800
" />
<path d="M132.1500 43.7800
L136.2500 43.7800
" />
<path d="M138.2500 41.7800
L143.9500 41.7800
" />
<path d="M143.9500 37.3800
L134.6500 37.3800
" />
<path d="M143.9500 37.3800
L143.9500 37.9800
" />
<path d="M143.9500 37.9800
L145.8500 37.9800
" />
<path d="M143.9500 41.7800
L143.9500 40.6300
" />
<path d="M145.8500 37.9800
L145.8500 40.6300
" />
<path d="M145.8500 40.6300
L143.9500 40.6300
" />
<path d="M134.6500 37.3800 A2.5000 2.5000 0.0 0 0 132.1500 39.8800" />
<path d="M138.2500 41.7800 A2.0000 2.0000 0.0 0 0 136.2500 43.7800" />
<path d="M130.2100 69.3050
L130.2100 71.9800
" />
<path d="M130.2100 71.9800
L132.1600 71.9800
" />
<path d="M132.1600 68.6800
L132.1600 69.3050
" />
<path d="M132.1600 69.3050
L130.2100 69.3050
" />
<path d="M132.1600 72.5800
L132.1600 71.9800
" />
<path d="M132.1600 72.5800
L136.2600 72.5800
" />
<path d="M138.2600 70.5800
L143.9600 70.5800
" />
<path d="M143.9600 66.1800
L134.6600 66.1800
" />
<path d="M143.9600 66.1800
L143.9600 66.7800
" />
<path d="M143.9600 66.7800
L145.8600 66.7800
" />
<path d="M143.9600 70.5800
L143.9600 69.4300
" />
<path d="M145.8600 66.7800
L145.8600 69.4300
" />
<path d="M145.8600 69.4300
L143.9600 69.4300
" />
<path d="M134.6600 66.1800 A2.5000 2.5000 0.0 0 0 132.1600 68.6800" />
<path d="M138.2600 70.5800 A2.0000 2.0000 0.0 0 0 136.2600 72.5800" />
<path d="M105.2200 83.6850
L105.2200 86.3600
" />
<path d="M105.2200 86.3600
L107.1700 86.3600
" />
<path d="M107.1700 83.0600
L107.1700 83.6850
" />
<path d="M107.1700 83.6850
L105.2200 83.6850
" />
<path d="M107.1700 86.9600
L107.1700 86.3600
" />
<path d="M107.1700 86.9600
L111.2700 86.9600
" />
<path d="M113.2700 84.9600
L118.9700 84.9600
" />
<path d="M118.9700 80.5600
L109.6700 80.5600
" />
<path d="M118.9700 80.5600
L118.9700 81.1600
" />
<path d="M118.9700 81.1600
L120.8700 81.1600
" />
<path d="M118.9700 84.9600
L118.9700 83.8100
" />
<path d="M120.8700 81.1600
L120.8700 83.8100
" />
<path d="M120.8700 83.8100
L118.9700 83.8100
" />
<path d="M109.6700 80.5600 A2.5000 2.5000 0.0 0 0 107.1700 83.0600" />
<path d="M113.2700 84.9600 A2.0000 2.0000 0.0 0 0 111.2700 86.9600" />
<path d="M157.6000 61.6250
L157.6000 64.3000
" />
<path d="M157.6000 64.3000
L159.5500 64.3000
" />
<path d="M159.5500 61.0000
L159.5500 61.6250
" />
<path d="M159.5500 61.6250
L157.6000 61.6250
" />
<path d="M159.5500 64.9000
L159.5500 64.3000
" />
<path d="M159.5500 64.9000
L163.6500 64.9000
" />
<path d="M165.6500 62.9000
L171.3500 62.9000
" />
<path d="M171.3500 58.5000
L162.0500 58.5000
" />
<path d="M171.3500 58.5000
L171.3500 59.1000
" />
<path d="M171.3500 59.1000
L173.2500 59.1000
" />
<path d="M171.3500 62.9000
L171.3500 61.7500
" />
<path d="M173.2500 59.1000
L173.2500 61.7500
" />
<path d="M173.2500 61.7500
L171.3500 61.7500
" />
<path d="M162.0500 58.5000 A2.5000 2.5000 0.0 0 0 159.5500 61.0000" />
<path d="M165.6500 62.9000 A2.0000 2.0000 0.0 0 0 163.6500 64.9000" />
<path d="M157.6000 32.8350
L157.6000 35.5100
" />
<path d="M157.6000 35.5100
L159.5500 35.5100
" />
<path d="M159.5500 32.2100
L159.5500 32.8350
" />
<path d="M159.5500 32.8350
L157.6000 32.8350
" />
<path d="M159.5500 36.1100
L159.5500 35.5100
" />
<path d="M159.5500 36.1100
L163.6500 36.1100
" />
<path d="M165.6500 34.1100
L171.3500 34.1100
" />
<path d="M171.3500 29.7100
L162.0500 29.7100
" />
<path d="M171.3500 29.7100
L171.3500 30.3100
" />
<path d="M171.3500 30.3100
L173.2500 30.3100
" />
<path d="M171.3500 34.1100
L171.3500 32.9600
" />
<path d="M173.2500 30.3100
L173.2500 32.9600
" />
<path d="M173.2500 32.9600
L171.3500 32.9600
" />
<path d="M162.0500 29.7100 A2.5000 2.5000 0.0 0 0 159.5500 32.2100" />
<path d="M165.6500 34.1100 A2.0000 2.0000 0.0 0 0 163.6500 36.1100" />
<path d="M105.2200 54.9150
L105.2200 57.5900
" />
<path d="M105.2200 57.5900
L107.1700 57.5900
" />
<path d="M107.1700 54.2900
L107.1700 54.9150
" />
<path d="M107.1700 54.9150
L105.2200 54.9150
" />
<path d="M107.1700 58.1900
L107.1700 57.5900
" />
<path d="M107.1700 58.1900
L111.2700 58.1900
" />
<path d="M113.2700 56.1900
L118.9700 56.1900
" />
<path d="M118.9700 51.7900
L109.6700 51.7900
" />
<path d="M118.9700 51.7900
L118.9700 52.3900
" />
<path d="M118.9700 52.3900
L120.8700 52.3900
" />
<path d="M118.9700 56.1900
L118.9700 55.0400
" />
<path d="M120.8700 52.3900
L120.8700 55.0400
" />
<path d="M120.8700 55.0400
L118.9700 55.0400
" />
<path d="M109.6700 51.7900 A2.5000 2.5000 0.0 0 0 107.1700 54.2900" />
<path d="M113.2700 56.1900 A2.0000 2.0000 0.0 0 0 111.2700 58.1900" />
<path d="M47.1500 40.4850
L47.1500 43.1600
" />
<path d="M47.1500 43.1600
L49.1000 43.1600
" />
<path d="M49.1000 39.8600
L49.1000 40.4850
" />
<path d="M49.1000 40.4850
L47.1500 40.4850
" />
<path d="M49.1000 43.7600
L49.1000 43.1600
" />
<path d="M49.1000 43.7600
L53.2000 43.7600
" />
<path d="M55.2000 41.7600
L60.9000 41.7600
" />
<path d="M60.9000 37.3600
L51.6000 37.3600
" />
<path d="M60.9000 37.3600
L60.9000 37.9600
" />
<path d="M60.9000 37.9600
L62.8000 37.9600
" />
<path d="M60.9000 41.7600
L60.9000 40.6100
" />
<path d="M62.8000 37.9600
L62.8000 40.6100
" />
<path d="M62.8000 40.6100
L60.9000 40.6100
" />
<path d="M51.6000 37.3600 A2.5000 2.5000 0.0 0 0 49.1000 39.8600" />
<path d="M55.2000 41.7600 A2.0000 2.0000 0.0 0 0 53.2000 43.7600" />
<path d="M72.0800 54.9550
L72.0800 57.6300
" />
<path d="M72.0800 57.6300
L74.0300 57.6300
" />
<path d="M74.0300 54.3300
L74.0300 54.9550
" />
<path d="M74.0300 54.9550
L72.0800 54.9550
" />
<path d="M74.0300 58.2300
L74.0300 57.6300
" />
<path d="M74.0300 58.2300
L78.1300 58.2300
" />
<path d="M80.1300 56.2300
L85.8300 56.2300
" />
<path d="M85.8300 51.8300
L76.5300 51.8300
" />
<path d="M85.8300 51.8300
L85.8300 52.4300
" />
<path d="M85.8300 52.4300
L87.7300 52.4300
" />
<path d="M85.8300 56.2300
L85.8300 55.0800
" />
<path d="M87.7300 52.4300
L87.7300 55.0800
" />
<path d="M87.7300 55.0800
L85.8300 55.0800
" />
<path d="M76.5300 51.8300 A2.5000 2.5000 0.0 0 0 74.0300 54.3300" />
<path d="M80.1300 56.2300 A2.0000 2.0000 0.0 0 0 78.1300 58.2300" />
</g>
<g style="fill:#26E9FF; fill-opacity:0.0; 
stroke:#26E9FF; stroke-width:0.1200; stroke-opacity:1; 
stroke-linecap:round; stroke-linejoin:round;">
<path d="M93.0100 80.7500
L41.0100 80.7500
" />
<path d="M41.0100 80.7500
L41.0100 102.7500
" />
<path d="M93.0100 102.7500
L93.0100 80.7500
" />
<path d="M41.0100 102.7500
L93.0100 102.7500
" />
<g >
</g>
<g >
</g>
<g >
</g>
<g >
</g>
<g >
</g>
<g >
</g>
<g >
</g>
<g >
</g>
<g >
</g>
<g >
</g>
<g >
</g>
<g >
</g>
<g >
</g>
<g >
</g>
<g >
</g>
<g >
</g>
<g >
</g>
<g >
</g>
<g >
</g>
<g >
</g>
<g >
</g>
<g >
</g>
<g >
</g>
<g >
</g>
<g >
</g>
<g >
</g>
<g >
</g>
<g >
</g>
<g >
</g>
<g >
</g>
<g >
</g>
<g >
</g>
<g >
</g>
<g >
</g>
<g >
</g>
<g >
</g>
<g >
</g>
</g>
<g style="fill:#000000; fill-opacity:0.0; 
stroke:#000000; stroke-width:0.1200; stroke-opacity:1; 
stroke-linecap:round; stroke-linejoin:round;">
</g>
<g style="fill:#FF26E2; fill-opacity:0.0; 
stroke:#FF26E2; stroke-width:0.1200; stroke-opacity:1; 
stroke-linecap:round; stroke-linejoin:round;">
</g>
<g style="fill:#FF26E2; fill-opacity:0.0; 
stroke:#FF26E2; stroke-width:0.0500; stroke-opacity:1; 
stroke-linecap:round; stroke-linejoin:round;">
<path d="M41.5100 49.6200
L41.5100 47.5200
" />
<path d="M41.5100 47.5200
L31.9900 47.5200
" />
<path d="M31.9900 49.6200
L41.5100 49.6200
" />
<path d="M31.9900 47.5200
L31.9900 49.6200
" />
<path d="M56.8500 64.0900
L58.9500 64.0900
" />
<path d="M58.9500 64.0900
L58.9500 54.5700
" />
<path d="M56.8500 54.5700
L56.8500 64.0900
" />
<path d="M58.9500 54.5700
L56.8500 54.5700
" />
<path d="M93.7100 54.9300
L91.6100 54.9300
" />
<path d="M91.6100 54.9300
L91.6100 64.4500
" />
<path d="M93.7100 64.4500
L93.7100 54.9300
" />
<path d="M91.6100 64.4500
L93.7100 64.4500
" />
<path d="M91.7500 122.8600
L97.9000 122.8600
" />
<path d="M191.9450 43.5300
L198.0950 43.5300
" />
<path d="M191.9950 72.2900
L198.1450 72.2900
" />
<path d="M28.5500 65.4400
L28.5500 71.3400
" />
<path d="M28.5500 65.4400
L38.0500 65.4400
" />
<path d="M28.5500 71.3400
L38.0500 71.3400
" />
<path d="M38.0500 65.4400
L38.0500 71.3400
" />
<path d="M26.5080 44.0300
L32.6580 44.0300
" />
<path d="M135.5700 51.2600
L141.7200 51.2600
" />
<path d="M104.8700 129.4800
L104.8700 127.3800
" />
<path d="M104.8700 127.3800
L95.3500 127.3800
" />
<path d="M95.3500 129.4800
L104.8700 129.4800
" />
<path d="M95.3500 127.3800
L95.3500 129.4800
" />
<path d="M189.2000 77.7700
L189.2000 79.8700
" />
<path d="M189.2000 79.8700
L198.7200 79.8700
" />
<path d="M198.7200 77.7700
L189.2000 77.7700
" />
<path d="M198.7200 79.8700
L198.7200 77.7700
" />
<path d="M203.9100 49.4700
L206.0100 49.4700
" />
<path d="M206.0100 49.4700
L206.0100 39.9500
" />
<path d="M203.9100 39.9500
L203.9100 49.4700
" />
<path d="M206.0100 39.9500
L203.9100 39.9500
" />
<path d="M178.7900 30.9500
L176.6900 30.9500
" />
<path d="M176.6900 30.9500
L176.6900 40.4700
" />
<path d="M178.7900 40.4700
L178.7900 30.9500
" />
<path d="M176.6900 40.4700
L178.7900 40.4700
" />
<path d="M135.5800 80.0600
L141.7300 80.0600
" />
<path d="M110.5900 94.4400
L116.7400 94.4400
" />
<path d="M125.1100 55.3400
L123.0100 55.3400
" />
<path d="M123.0100 55.3400
L123.0100 64.8600
" />
<path d="M125.1100 64.8600
L125.1100 55.3400
" />
<path d="M123.0100 64.8600
L125.1100 64.8600
" />
<path d="M150.2300 39.7700
L148.1300 39.7700
" />
<path d="M148.1300 39.7700
L148.1300 49.2900
" />
<path d="M150.2300 49.2900
L150.2300 39.7700
" />
<path d="M148.1300 49.2900
L150.2300 49.2900
" />
<path d="M36.0300 15.6100
L43.4300 15.6100
" />
<path d="M43.4300 15.6100
L43.4300 8.2100
" />
<path d="M43.4300 8.2100
L36.0300 8.2100
" />
<path d="M36.0300 8.2100
L36.0300 15.6100
" />
<path d="M162.9700 72.3800
L169.1200 72.3800
" />
<path d="M162.9700 43.5900
L169.1200 43.5900
" />
<path d="M60.4700 15.6100
L67.8700 15.6100
" />
<path d="M67.8700 15.6100
L67.8700 8.2100
" />
<path d="M67.8700 8.2100
L60.4700 8.2100
" />
<path d="M60.4700 8.2100
L60.4700 15.6100
" />
<path d="M148.1500 85.8500
L148.1500 83.7500
" />
<path d="M148.1500 83.7500
L138.6300 83.7500
" />
<path d="M138.6300 85.8500
L148.1500 85.8500
" />
<path d="M138.6300 83.7500
L138.6300 85.8500
" />
<path d="M110.5900 65.6700
L116.7400 65.6700
" />
<path d="M38.7100 67.7200
L38.7100 69.8200
" />
<path d="M38.7100 69.8200
L48.2300 69.8200
" />
<path d="M48.2300 67.7200
L38.7100 67.7200
" />
<path d="M48.2300 69.8200
L48.2300 67.7200
" />
<path d="M72.6900 15.6100
L80.0900 15.6100
" />
<path d="M80.0900 15.6100
L80.0900 8.2100
" />
<path d="M80.0900 8.2100
L72.6900 8.2100
" />
<path d="M72.6900 8.2100
L72.6900 15.6100
" />
<path d="M48.5700 71.3800
L53.3100 71.3800
" />
<path d="M48.5700 71.3800
L48.5700 65.9200
" />
<path d="M53.3100 65.9200
L53.3100 71.3800
" />
<path d="M53.3100 65.9200
L48.5700 65.9200
" />
<path d="M52.5200 51.2400
L58.6700 51.2400
" />
<path d="M84.9100 15.6100
L92.3100 15.6100
" />
<path d="M92.3100 15.6100
L92.3100 8.2100
" />
<path d="M92.3100 8.2100
L84.9100 8.2100
" />
<path d="M84.9100 8.2100
L84.9100 15.6100
" />
<path d="M159.5600 76.6400
L159.5600 78.7400
" />
<path d="M159.5600 78.7400
L169.0800 78.7400
" />
<path d="M169.0800 76.6400
L159.5600 76.6400
" />
<path d="M169.0800 78.7400
L169.0800 76.6400
" />
<path d="M126.1700 101.4700
L126.1700 99.3700
" />
<path d="M126.1700 99.3700
L116.6500 99.3700
" />
<path d="M116.6500 101.4700
L126.1700 101.4700
" />
<path d="M116.6500 99.3700
L116.6500 101.4700
" />
<path d="M48.2500 15.6100
L55.6500 15.6100
" />
<path d="M55.6500 15.6100
L55.6500 8.2100
" />
<path d="M55.6500 8.2100
L48.2500 8.2100
" />
<path d="M48.2500 8.2100
L48.2500 15.6100
" />
<path d="M23.8100 15.6100
L31.2100 15.6100
" />
<path d="M31.2100 15.6100
L31.2100 8.2100
" />
<path d="M31.2100 8.2100
L23.8100 8.2100
" />
<path d="M23.8100 8.2100
L23.8100 15.6100
" />
<path d="M77.4500 65.7100
L83.6000 65.7100
" />
<g >
</g>
<g >
</g>
<g >
</g>
<g >
</g>
<g >
</g>
<g >
</g>
<g >
</g>
<g >
</g>
<g >
</g>
<g >
</g>
<g >
</g>
<g >
</g>
<g >
</g>
<g >
</g>
<g >
</g>
<g >
</g>
<g >
</g>
<g >
</g>
<g >
</g>
<g >
</g>
<g >
</g>
<g >
</g>
<g >
</g>
<g >
</g>
<g >
</g>
<g >
</g>
<g >
</g>
<g >
</g>
<g >
</g>
<g >
</g>
<g >
</g>
<g >
</g>
<g >
</g>
<g >
</g>
<g >
</g>
<g >
</g>
<g >
</g>
</g>
<g style="fill:#000000; fill-opacity:0.0; 
stroke:#000000; stroke-width:0.0500; stroke-opacity:1; 
stroke-linecap:round; stroke-linejoin:round;">
</g>
<g style="fill:#C2C2C2; fill-opacity:0.0; 
stroke:#C2C2C2; stroke-width:0.0500; stroke-opacity:1; 
stroke-linecap:round; stroke-linejoin:round;">
</g>
<g style="fill:#C2C2C2; fill-opacity:0.0; 
stroke:#C2C2C2; stroke-width:0.1500; stroke-opacity:1; 
stroke-linecap:round; stroke-linejoin:round;">
<text x="94.8300" y="108.4425"
textLength="1.6626" font-size="1.0667" lengthAdjust="spacingAndGlyphs"
text-anchor="middle" opacity="0">up</text>
<g class="stroked-text"><desc>up</desc>
<path d="M94.6395 107.8715
L94.6395 108.4048
" />
<path d="M94.2967 107.8715
L94.2967 108.2905
" />
<path d="M94.2967 108.2905
L94.3348 108.3667
" />
<path d="M94.3348 108.3667
L94.4110 108.4048
" />
<path d="M94.4110 108.4048
L94.5252 108.4048
" />
<path d="M94.5252 108.4048
L94.6014 108.3667
" />
<path d="M94.6014 108.3667
L94.6395 108.3286
" />
<path d="M95.0205 107.8715
L95.0205 108.6715
" />
<path d="M95.0205 107.9096
L95.0967 107.8715
" />
<path d="M95.0967 107.8715
L95.2490 107.8715
" />
<path d="M95.2490 107.8715
L95.3252 107.9096
" />
<path d="M95.3252 107.9096
L95.3633 107.9477
" />
<path d="M95.3633 107.9477
L95.4014 108.0238
" />
<path d="M95.4014 108.0238
L95.4014 108.2524
" />
<path d="M95.4014 108.2524
L95.3633 108.3286
" />
<path d="M95.3633 108.3286
L95.3252 108.3667
" />
<path d="M95.3252 108.3667
L95.2490 108.4048
" />
<path d="M95.2490 108.4048
L95.0967 108.4048
" />
<path d="M95.0967 108.4048
L95.0205 108.3667
" />
</g><text x="195.0250" y="29.1125"
textLength="1.6626" font-size="1.0667" lengthAdjust="spacingAndGlyphs"
text-anchor="middle" opacity="0">LB</text>
<g class="stroked-text"><desc>LB</desc>
<path d="M194.8726 29.0748
L194.4917 29.0748
" />
<path d="M194.4917 29.0748
L194.4917 28.2748
" />
<path d="M195.4060 28.6557
L195.5202 28.6938
" />
<path d="M195.5202 28.6938
L195.5583 28.7319
" />
<path d="M195.5583 28.7319
L195.5964 28.8081
" />
<path d="M195.5964 28.8081
L195.5964 28.9224
" />
<path d="M195.5964 28.9224
L195.5583 28.9986
" />
<path d="M195.5583 28.9986
L195.5202 29.0367
" />
<path d="M195.5202 29.0367
L195.4440 29.0748
" />
<path d="M195.4440 29.0748
L195.1393 29.0748
" />
<path d="M195.1393 29.0748
L195.1393 28.2748
" />
<path d="M195.1393 28.2748
L195.4060 28.2748
" />
<path d="M195.4060 28.2748
L195.4821 28.3129
" />
<path d="M195.4821 28.3129
L195.5202 28.3510
" />
<path d="M195.5202 28.3510
L195.5583 28.4272
" />
<path d="M195.5583 28.4272
L195.5583 28.5034
" />
<path d="M195.5583 28.5034
L195.5202 28.5796
" />
<path d="M195.5202 28.5796
L195.4821 28.6177
" />
<path d="M195.4821 28.6177
L195.4060 28.6557
" />
<path d="M195.4060 28.6557
L195.1393 28.6557
" />
</g><text x="195.0750" y="57.8725"
textLength="1.4721" font-size="1.0667" lengthAdjust="spacingAndGlyphs"
text-anchor="middle" opacity="0">LT</text>
<g class="stroked-text"><desc>LT</desc>
<path d="M195.0179 57.8348
L194.6369 57.8348
" />
<path d="M194.6369 57.8348
L194.6369 57.0348
" />
<path d="M195.1702 57.0348
L195.6274 57.0348
" />
<path d="M195.3988 57.8348
L195.3988 57.0348
" />
</g><text x="29.5880" y="29.6125"
textLength="2.2340" font-size="1.0667" lengthAdjust="spacingAndGlyphs"
text-anchor="middle" opacity="0">left</text>
<g class="stroked-text"><desc>left</desc>
<path d="M28.8832 29.5748
L28.8070 29.5367
" />
<path d="M28.8070 29.5367
L28.7690 29.4605
" />
<path d="M28.7690 29.4605
L28.7690 28.7748
" />
<path d="M29.4928 29.5367
L29.4166 29.5748
" />
<path d="M29.4166 29.5748
L29.2642 29.5748
" />
<path d="M29.2642 29.5748
L29.1880 29.5367
" />
<path d="M29.1880 29.5367
L29.1499 29.4605
" />
<path d="M29.1499 29.4605
L29.1499 29.1557
" />
<path d="M29.1499 29.1557
L29.1880 29.0796
" />
<path d="M29.1880 29.0796
L29.2642 29.0415
" />
<path d="M29.2642 29.0415
L29.4166 29.0415
" />
<path d="M29.4166 29.0415
L29.4928 29.0796
" />
<path d="M29.4928 29.0796
L29.5309 29.1557
" />
<path d="M29.5309 29.1557
L29.5309 29.2319
" />
<path d="M29.5309 29.2319
L29.1499 29.3081
" />
<path d="M29.7594 29.0415
L30.0642 29.0415
" />
<path d="M29.8737 29.5748
L29.8737 28.8891
" />
<path d="M29.8737 28.8891
L29.9118 28.8129
" />
<path d="M29.9118 28.8129
L29.9880 28.7748
" />
<path d="M29.9880 28.7748
L30.0642 28.7748
" />
<path d="M30.2166 29.0415
L30.5213 29.0415
" />
<path d="M30.3309 28.7748
L30.3309 29.4605
" />
<path d="M30.3309 29.4605
L30.3690 29.5367
" />
<path d="M30.3690 29.5367
L30.4451 29.5748
" />
<path d="M30.4451 29.5748
L30.5213 29.5748
" />
</g><text x="138.6500" y="36.8425"
textLength="0.9007" font-size="1.0667" lengthAdjust="spacingAndGlyphs"
text-anchor="middle" opacity="0">Y</text>
<g class="stroked-text"><desc>Y</desc>
<path d="M138.6500 36.4238
L138.6500 36.8048
" />
<path d="M138.3833 36.0048
L138.6500 36.4238
" />
<path d="M138.6500 36.4238
L138.9167 36.0048
" />
</g><text x="138.6600" y="65.6425"
textLength="1.0150" font-size="1.0667" lengthAdjust="spacingAndGlyphs"
text-anchor="middle" opacity="0">B</text>
<g class="stroked-text"><desc>B</desc>
<path d="M138.7171 65.1857
L138.8314 65.2238
" />
<path d="M138.8314 65.2238
L138.8695 65.2619
" />
<path d="M138.8695 65.2619
L138.9076 65.3381
" />
<path d="M138.9076 65.3381
L138.9076 65.4524
" />
<path d="M138.9076 65.4524
L138.8695 65.5286
" />
<path d="M138.8695 65.5286
L138.8314 65.5667
" />
<path d="M138.8314 65.5667
L138.7552 65.6048
" />
<path d="M138.7552 65.6048
L138.4505 65.6048
" />
<path d="M138.4505 65.6048
L138.4505 64.8048
" />
<path d="M138.4505 64.8048
L138.7171 64.8048
" />
<path d="M138.7171 64.8048
L138.7933 64.8429
" />
<path d="M138.7933 64.8429
L138.8314 64.8810
" />
<path d="M138.8314 64.8810
L138.8695 64.9572
" />
<path d="M138.8695 64.9572
L138.8695 65.0334
" />
<path d="M138.8695 65.0334
L138.8314 65.1096
" />
<path d="M138.8314 65.1096
L138.7933 65.1477
" />
<path d="M138.7933 65.1477
L138.7171 65.1857
" />
<path d="M138.7171 65.1857
L138.4505 65.1857
" />
</g><text x="113.6700" y="80.0225"
textLength="0.9007" font-size="1.0667" lengthAdjust="spacingAndGlyphs"
text-anchor="middle" opacity="0">A</text>
<g class="stroked-text"><desc>A</desc>
<path d="M113.4795 79.7562
L113.8605 79.7562
" />
<path d="M113.4033 79.9848
L113.6700 79.1848
" />
<path d="M113.6700 79.1848
L113.9367 79.9848
" />
</g><text x="166.0500" y="57.9625"
textLength="1.6245" font-size="1.0667" lengthAdjust="spacingAndGlyphs"
text-anchor="middle" opacity="0">RT</text>
<g class="stroked-text"><desc>RT</desc>
<path d="M165.9929 57.9248
L165.7262 57.5438
" />
<path d="M165.5357 57.9248
L165.5357 57.1248
" />
<path d="M165.5357 57.1248
L165.8405 57.1248
" />
<path d="M165.8405 57.1248
L165.9167 57.1629
" />
<path d="M165.9167 57.1629
L165.9548 57.2010
" />
<path d="M165.9548 57.2010
L165.9929 57.2772
" />
<path d="M165.9929 57.2772
L165.9929 57.3915
" />
<path d="M165.9929 57.3915
L165.9548 57.4677
" />
<path d="M165.9548 57.4677
L165.9167 57.5057
" />
<path d="M165.9167 57.5057
L165.8405 57.5438
" />
<path d="M165.8405 57.5438
L165.5357 57.5438
" />
<path d="M166.2214 57.1248
L166.6786 57.1248
" />
<path d="M166.4500 57.9248
L166.4500 57.1248
" />
</g><text x="166.0500" y="29.1725"
textLength="1.8150" font-size="1.0667" lengthAdjust="spacingAndGlyphs"
text-anchor="middle" opacity="0">RB</text>
<g class="stroked-text"><desc>RB</desc>
<path d="M165.8976 29.1348
L165.6310 28.7538
" />
<path d="M165.4405 29.1348
L165.4405 28.3348
" />
<path d="M165.4405 28.3348
L165.7452 28.3348
" />
<path d="M165.7452 28.3348
L165.8214 28.3729
" />
<path d="M165.8214 28.3729
L165.8595 28.4110
" />
<path d="M165.8595 28.4110
L165.8976 28.4872
" />
<path d="M165.8976 28.4872
L165.8976 28.6015
" />
<path d="M165.8976 28.6015
L165.8595 28.6777
" />
<path d="M165.8595 28.6777
L165.8214 28.7157
" />
<path d="M165.8214 28.7157
L165.7452 28.7538
" />
<path d="M165.7452 28.7538
L165.4405 28.7538
" />
<path d="M166.5071 28.7157
L166.6214 28.7538
" />
<path d="M166.6214 28.7538
L166.6595 28.7919
" />
<path d="M166.6595 28.7919
L166.6976 28.8681
" />
<path d="M166.6976 28.8681
L166.6976 28.9824
" />
<path d="M166.6976 28.9824
L166.6595 29.0586
" />
<path d="M166.6595 29.0586
L166.6214 29.0967
" />
<path d="M166.6214 29.0967
L166.5452 29.1348
" />
<path d="M166.5452 29.1348
L166.2405 29.1348
" />
<path d="M166.2405 29.1348
L166.2405 28.3348
" />
<path d="M166.2405 28.3348
L166.5071 28.3348
" />
<path d="M166.5071 28.3348
L166.5833 28.3729
" />
<path d="M166.5833 28.3729
L166.6214 28.4110
" />
<path d="M166.6214 28.4110
L166.6595 28.4872
" />
<path d="M166.6595 28.4872
L166.6595 28.5634
" />
<path d="M166.6595 28.5634
L166.6214 28.6396
" />
<path d="M166.6214 28.6396
L166.5833 28.6777
" />
<path d="M166.5833 28.6777
L166.5071 28.7157
" />
<path d="M166.5071 28.7157
L166.2405 28.7157
" />
</g><text x="113.6700" y="51.2525"
textLength="0.9769" font-size="1.0667" lengthAdjust="spacingAndGlyphs"
text-anchor="middle" opacity="0">X</text>
<g class="stroked-text"><desc>X</desc>
<path d="M113.4033 50.4148
L113.9367 51.2148
" />
<path d="M113.9367 50.4148
L113.4033 51.2148
" />
</g><text x="55.6000" y="36.8225"
textLength="3.2245" font-size="1.0667" lengthAdjust="spacingAndGlyphs"
text-anchor="middle" opacity="0">down</text>
<g class="stroked-text"><desc>down</desc>
<path d="M54.6286 36.7848
L54.6286 35.9848
" />
<path d="M54.6286 36.7467
L54.5524 36.7848
" />
<path d="M54.5524 36.7848
L54.4000 36.7848
" />
<path d="M54.4000 36.7848
L54.3238 36.7467
" />
<path d="M54.3238 36.7467
L54.2857 36.7086
" />
<path d="M54.2857 36.7086
L54.2476 36.6324
" />
<path d="M54.2476 36.6324
L54.2476 36.4038
" />
<path d="M54.2476 36.4038
L54.2857 36.3277
" />
<path d="M54.2857 36.3277
L54.3238 36.2896
" />
<path d="M54.3238 36.2896
L54.4000 36.2515
" />
<path d="M54.4000 36.2515
L54.5524 36.2515
" />
<path d="M54.5524 36.2515
L54.6286 36.2896
" />
<path d="M55.1238 36.7848
L55.0476 36.7467
" />
<path d="M55.0476 36.7467
L55.0095 36.7086
" />
<path d="M55.0095 36.7086
L54.9714 36.6324
" />
<path d="M54.9714 36.6324
L54.9714 36.4038
" />
<path d="M54.9714 36.4038
L55.0095 36.3277
" />
<path d="M55.0095 36.3277
L55.0476 36.2896
" />
<path d="M55.0476 36.2896
L55.1238 36.2515
" />
<path d="M55.1238 36.2515
L55.2381 36.2515
" />
<path d="M55.2381 36.2515
L55.3143 36.2896
" />
<path d="M55.3143 36.2896
L55.3524 36.3277
" />
<path d="M55.3524 36.3277
L55.3905 36.4038
" />
<path d="M55.3905 36.4038
L55.3905 36.6324
" />
<path d="M55.3905 36.6324
L55.3524 36.7086
" />
<path d="M55.3524 36.7086
L55.3143 36.7467
" />
<path d="M55.3143 36.7467
L55.2381 36.7848
" />
<path d="M55.2381 36.7848
L55.1238 36.7848
" />
<path d="M55.6571 36.2515
L55.8095 36.7848
" />
<path d="M55.8095 36.7848
L55.9619 36.4038
" />
<path d="M55.9619 36.4038
L56.1143 36.7848
" />
<path d="M56.1143 36.7848
L56.2667 36.2515
" />
<path d="M56.5714 36.2515
L56.5714 36.7848
" />
<path d="M56.5714 36.3277
L56.6095 36.2896
" />
<path d="M56.6095 36.2896
L56.6857 36.2515
" />
<path d="M56.6857 36.2515
L56.8000 36.2515
" />
<path d="M56.8000 36.2515
L56.8762 36.2896
" />
<path d="M56.8762 36.2896
L56.9143 36.3657
" />
<path d="M56.9143 36.3657
L56.9143 36.7848
" />
</g><text x="80.5300" y="51.2925"
textLength="2.9960" font-size="1.0667" lengthAdjust="spacingAndGlyphs"
text-anchor="middle" opacity="0">right</text>
<g class="stroked-text"><desc>right</desc>
<path d="M79.3300 51.2548
L79.3300 50.7215
" />
<path d="M79.3300 50.8738
L79.3681 50.7977
" />
<path d="M79.3681 50.7977
L79.4062 50.7596
" />
<path d="M79.4062 50.7596
L79.4824 50.7215
" />
<path d="M79.4824 50.7215
L79.5586 50.7215
" />
<path d="M79.8252 51.2548
L79.8252 50.7215
" />
<path d="M79.8252 50.4548
L79.7871 50.4929
" />
<path d="M79.7871 50.4929
L79.8252 50.5310
" />
<path d="M79.8252 50.5310
L79.8633 50.4929
" />
<path d="M79.8633 50.4929
L79.8252 50.4548
" />
<path d="M79.8252 50.4548
L79.8252 50.5310
" />
<path d="M80.5490 50.7215
L80.5490 51.3691
" />
<path d="M80.5490 51.3691
L80.5110 51.4453
" />
<path d="M80.5110 51.4453
L80.4729 51.4834
" />
<path d="M80.4729 51.4834
L80.3967 51.5215
" />
<path d="M80.3967 51.5215
L80.2824 51.5215
" />
<path d="M80.2824 51.5215
L80.2062 51.4834
" />
<path d="M80.5490 51.2167
L80.4729 51.2548
" />
<path d="M80.4729 51.2548
L80.3205 51.2548
" />
<path d="M80.3205 51.2548
L80.2443 51.2167
" />
<path d="M80.2443 51.2167
L80.2062 51.1786
" />
<path d="M80.2062 51.1786
L80.1681 51.1024
" />
<path d="M80.1681 51.1024
L80.1681 50.8738
" />
<path d="M80.1681 50.8738
L80.2062 50.7977
" />
<path d="M80.2062 50.7977
L80.2443 50.7596
" />
<path d="M80.2443 50.7596
L80.3205 50.7215
" />
<path d="M80.3205 50.7215
L80.4729 50.7215
" />
<path d="M80.4729 50.7215
L80.5490 50.7596
" />
<path d="M80.9300 51.2548
L80.9300 50.4548
" />
<path d="M81.2729 51.2548
L81.2729 50.8357
" />
<path d="M81.2729 50.8357
L81.2348 50.7596
" />
<path d="M81.2348 50.7596
L81.1586 50.7215
" />
<path d="M81.1586 50.7215
L81.0443 50.7215
" />
<path d="M81.0443 50.7215
L80.9681 50.7596
" />
<path d="M80.9681 50.7596
L80.9300 50.7977
" />
<path d="M81.5395 50.7215
L81.8443 50.7215
" />
<path d="M81.6538 50.4548
L81.6538 51.1405
" />
<path d="M81.6538 51.1405
L81.6919 51.2167
" />
<path d="M81.6919 51.2167
L81.7681 51.2548
" />
<path d="M81.7681 51.2548
L81.8443 51.2548
" />
</g><path d="M85.3050 125.5050
L85.3050 106.4550
" />
<path d="M87.8300 108.9800
L87.8300 110.9800
" />
<path d="M87.8300 120.9800
L87.8300 122.9800
" />
<path d="M87.8300 122.9800
L89.8300 122.9800
" />
<path d="M89.8300 108.9800
L87.8300 108.9800
" />
<path d="M99.8300 108.9800
L101.8300 108.9800
" />
<path d="M99.8300 122.9800
L101.8300 122.9800
" />
<path d="M101.8300 108.9800
L101.8300 110.9800
" />
<path d="M101.8300 122.9800
L101.8300 120.9800
" />
<path d="M104.3550 106.4550
L85.3050 106.4550
" />
<path d="M104.3550 125.5050
L85.3050 125.5050
" />
<path d="M104.3550 125.5050
L104.3550 106.4550
" />
<path d="M185.5000 46.1750
L185.5000 27.1250
" />
<path d="M188.0250 29.6500
L188.0250 31.6500
" />
<path d="M188.0250 41.6500
L188.0250 43.6500
" />
<path d="M188.0250 43.6500
L190.0250 43.6500
" />
<path d="M190.0250 29.6500
L188.0250 29.6500
" />
<path d="M200.0250 29.6500
L202.0250 29.6500
" />
<path d="M200.0250 43.6500
L202.0250 43.6500
" />
<path d="M202.0250 29.6500
L202.0250 31.6500
" />
<path d="M202.0250 43.6500
L202.0250 41.6500
" />
<path d="M204.5500 27.1250
L185.5000 27.1250
" />
<path d="M204.5500 46.1750
L185.5000 46.1750
" />
<path d="M204.5500 46.1750
L204.5500 27.1250
" />
<path d="M185.5500 74.9350
L185.5500 55.8850
" />
<path d="M188.0750 58.4100
L188.0750 60.4100
" />
<path d="M188.0750 70.4100
L188.0750 72.4100
" />
<path d="M188.0750 72.4100
L190.0750 72.4100
" />
<path d="M190.0750 58.4100
L188.0750 58.4100
" />
<path d="M200.0750 58.4100
L202.0750 58.4100
" />
<path d="M200.0750 72.4100
L202.0750 72.4100
" />
<path d="M202.0750 58.4100
L202.0750 60.4100
" />
<path d="M202.0750 72.4100
L202.0750 70.4100
" />
<path d="M204.6000 55.8850
L185.5500 55.8850
" />
<path d="M204.6000 74.9350
L185.5500 74.9350
" />
<path d="M204.6000 74.9350
L204.6000 55.8850
" />
<path d="M20.0630 46.6750
L20.0630 27.6250
" />
<path d="M22.5880 30.1500
L22.5880 32.1500
" />
<path d="M22.5880 42.1500
L22.5880 44.1500
" />
<path d="M22.5880 44.1500
L24.5880 44.1500
" />
<path d="M24.5880 30.1500
L22.5880 30.1500
" />
<path d="M34.5880 30.1500
L36.5880 30.1500
" />
<path d="M34.5880 44.1500
L36.5880 44.1500
" />
<path d="M36.5880 30.1500
L36.5880 32.1500
" />
<path d="M36.5880 44.1500
L36.5880 42.1500
" />
<path d="M39.1130 27.6250
L20.0630 27.6250
" />
<path d="M39.1130 46.6750
L20.0630 46.6750
" />
<path d="M39.1130 46.6750
L39.1130 27.6250
" />
<path d="M129.1250 53.9050
L129.1250 34.8550
" />
<path d="M131.6500 37.3800
L131.6500 39.3800
" />
<path d="M131.6500 49.3800
L131.6500 51.3800
" />
<path d="M131.6500 51.3800
L133.6500 51.3800
" />
<path d="M133.6500 37.3800
L131.6500 37.3800
" />
<path d="M143.6500 37.3800
L145.6500 37.3800
" />
<path d="M143.6500 51.3800
L145.6500 51.3800
" />
<path d="M145.6500 37.3800
L145.6500 39.3800
" />
<path d="M145.6500 51.3800
L145.6500 49.3800
" />
<path d="M148.1750 34.8550
L129.1250 34.8550
" />
<path d="M148.1750 53.9050
L129.1250 53.9050
" />
<path d="M148.1750 53.9050
L148.1750 34.8550
" />
<path d="M129.1350 82.7050
L129.1350 63.6550
" />
<path d="M131.6600 66.1800
L131.6600 68.1800
" />
<path d="M131.6600 78.1800
L131.6600 80.1800
" />
<path d="M131.6600 80.1800
L133.6600 80.1800
" />
<path d="M133.6600 66.1800
L131.6600 66.1800
" />
<path d="M143.6600 66.1800
L145.6600 66.1800
" />
<path d="M143.6600 80.1800
L145.6600 80.1800
" />
<path d="M145.6600 66.1800
L145.6600 68.1800
" />
<path d="M145.6600 80.1800
L145.6600 78.1800
" />
<path d="M148.1850 63.6550
L129.1350 63.6550
" />
<path d="M148.1850 82.7050
L129.1350 82.7050
" />
<path d="M148.1850 82.7050
L148.1850 63.6550
" />
<path d="M104.1450 97.0850
L104.1450 78.0350
" />
<path d="M106.6700 80.5600
L106.6700 82.5600
" />
<path d="M106.6700 92.5600
L106.6700 94.5600
" />
<path d="M106.6700 94.5600
L108.6700 94.5600
" />
<path d="M108.6700 80.5600
L106.6700 80.5600
" />
<path d="M118.6700 80.5600
L120.6700 80.5600
" />
<path d="M118.6700 94.5600
L120.6700 94.5600
" />
<path d="M120.6700 80.5600
L120.6700 82.5600
" />
<path d="M120.6700 94.5600
L120.6700 92.5600
" />
<path d="M123.1950 78.0350
L104.1450 78.0350
" />
<path d="M123.1950 97.0850
L104.1450 97.0850
" />
<path d="M123.1950 97.0850
L123.1950 78.0350
" />
<path d="M156.5250 75.0250
L156.5250 55.9750
" />
<path d="M159.0500 58.5000
L159.0500 60.5000
" />
<path d="M159.0500 70.5000
L159.0500 72.5000
" />
<path d="M159.0500 72.5000
L161.0500 72.5000
" />
<path d="M161.0500 58.5000
L159.0500 58.5000
" />
<path d="M171.0500 58.5000
L173.0500 58.5000
" />
<path d="M171.0500 72.5000
L173.0500 72.5000
" />
<path d="M173.0500 58.5000
L173.0500 60.5000
" />
<path d="M173.0500 72.5000
L173.0500 70.5000
" />
<path d="M175.5750 55.9750
L156.5250 55.9750
" />
<path d="M175.5750 75.0250
L156.5250 75.0250
" />
<path d="M175.5750 75.0250
L175.5750 55.9750
" />
<path d="M156.5250 46.2350
L156.5250 27.1850
" />
<path d="M159.0500 29.7100
L159.0500 31.7100
" />
<path d="M159.0500 41.7100
L159.0500 43.7100
" />
<path d="M159.0500 43.7100
L161.0500 43.7100
" />
<path d="M161.0500 29.7100
L159.0500 29.7100
" />
<path d="M171.0500 29.7100
L173.0500 29.7100
" />
<path d="M171.0500 43.7100
L173.0500 43.7100
" />
<path d="M173.0500 29.7100
L173.0500 31.7100
" />
<path d="M173.0500 43.7100
L173.0500 41.7100
" />
<path d="M175.5750 27.1850
L156.5250 27.1850
" />
<path d="M175.5750 46.2350
L156.5250 46.2350
" />
<path d="M175.5750 46.2350
L175.5750 27.1850
" />
<path d="M104.1450 68.3150
L104.1450 49.2650
" />
<path d="M106.6700 51.7900
L106.6700 53.7900
" />
<path d="M106.6700 63.7900
L106.6700 65.7900
" />
<path d="M106.6700 65.7900
L108.6700 65.7900
" />
<path d="M108.6700 51.7900
L106.6700 51.7900
" />
<path d="M118.6700 51.7900
L120.6700 51.7900
" />
<path d="M118.6700 65.7900
L120.6700 65.7900
" />
<path d="M120.6700 51.7900
L120.6700 53.7900
" />
<path d="M120.6700 65.7900
L120.6700 63.7900
" />
<path d="M123.1950 49.2650
L104.1450 49.2650
" />
<path d="M123.1950 68.3150
L104.1450 68.3150
" />
<path d="M123.1950 68.3150
L123.1950 49.2650
" />
<path d="M46.0750 53.8850
L46.0750 34.8350
" />
<path d="M48.6000 37.3600
L48.6000 39.3600
" />
<path d="M48.6000 49.3600
L48.6000 51.3600
" />
<path d="M48.6000 51.3600
L50.6000 51.3600
" />
<path d="M50.6000 37.3600
L48.6000 37.3600
" />
<path d="M60.6000 37.3600
L62.6000 37.3600
" />
<path d="M60.6000 51.3600
L62.6000 51.3600
" />
<path d="M62.6000 37.3600
L62.6000 39.3600
" />
<path d="M62.6000 51.3600
L62.6000 49.3600
" />
<path d="M65.1250 34.8350
L46.0750 34.8350
" />
<path d="M65.1250 53.8850
L46.0750 53.8850
" />
<path d="M65.1250 53.8850
L65.1250 34.8350
" />
<path d="M71.0050 68.3550
L71.0050 49.3050
" />
<path d="M73.5300 51.8300
L73.5300 53.8300
" />
<path d="M73.5300 63.8300
L73.5300 65.8300
" />
<path d="M73.5300 65.8300
L75.5300 65.8300
" />
<path d="M75.5300 51.8300
L73.5300 51.8300
" />
<path d="M85.5300 51.8300
L87.5300 51.8300
" />
<path d="M85.5300 65.8300
L87.5300 65.8300
" />
<path d="M87.5300 51.8300
L87.5300 53.8300
" />
<path d="M87.5300 65.8300
L87.5300 63.8300
" />
<path d="M90.0550 49.3050
L71.0050 49.3050
" />
<path d="M90.0550 68.3550
L71.0050 68.3550
" />
<path d="M90.0550 68.3550
L90.0550 49.3050
" />
</g>
<g style="fill:#C2C2C2; fill-opacity:1.0000; 
stroke:#C2C2C2; stroke-width:0.1000; stroke-opacity:1; 
stroke-linecap:round; stroke-linejoin:round;">
<path style="fill:#C2C2C2; fill-opacity:1.0000; 
stroke:#C2C2C2; stroke-width:0.1000; stroke-opacity:1; 
stroke-linecap:round; stroke-linejoin:round;fill-rule:evenodd;"
d="M 55.5100,90.2500
53.5100,90.2500
53.5100,88.2500
55.5100,88.2500
Z" /> 
<path style="fill:#C2C2C2; fill-opacity:1.0000; 
stroke:#C2C2C2; stroke-width:0.1000; stroke-opacity:1; 
stroke-linecap:round; stroke-linejoin:round;fill-rule:evenodd;"
d="M 53.0100,90.2500
51.0100,90.2500
51.0100,88.2500
53.0100,88.2500
Z" /> 
<path style="fill:#C2C2C2; fill-opacity:1.0000; 
stroke:#C2C2C2; stroke-width:0.1000; stroke-opacity:1; 
stroke-linecap:round; stroke-linejoin:round;fill-rule:evenodd;"
d="M 50.5100,90.2500
48.5100,90.2500
48.5100,88.2500
50.5100,88.2500
Z" /> 
<path style="fill:#C2C2C2; fill-opacity:1.0000; 
stroke:#C2C2C2; stroke-width:0.1000; stroke-opacity:1; 
stroke-linecap:round; stroke-linejoin:round;fill-rule:evenodd;"
d="M 46.8100,95.4500
42.1100,95.4500
42.1100,88.0500
46.8100,88.0500
Z" /> 
<g >
</g>
<g >
</g>
<g >
</g>
<g >
</g>
<g >
</g>
<g >
</g>
<g >
</g>
<g >
</g>
<g >
</g>
<g >
</g>
<g >
</g>
<g >
</g>
<g >
</g>
<g >
</g>
<g >
</g>
<g >
</g>
<g >
</g>
<g >
</g>
<g >
</g>
<g >
</g>
<g >
</g>
<g >
</g>
<g >
</g>
<g >
</g>
<g >
</g>
<g >
</g>
<g >
</g>
<g >
</g>
<g >
</g>
<g >
</g>
<g >
</g>
<g >
</g>
<g >
</g>
<g >
</g>
<g >
</g>
<g >
</g>
<g >
</g>
</g>
<g style="fill:#000000; fill-opacity:1.0000; 
stroke:#000000; stroke-width:0.1000; stroke-opacity:1; 
stroke-linecap:round; stroke-linejoin:round;">
</g>
<g style="fill:#D0D2CD; fill-opacity:1.0000; 
stroke:#D0D2CD; stroke-width:0.1000; stroke-opacity:1; 
stroke-linecap:round; stroke-linejoin:round;">
</g>
<g style="fill:#D0D2CD; fill-opacity:0.0; 
stroke:#D0D2CD; stroke-width:0.1000; stroke-opacity:1; 
stroke-linecap:round; stroke-linejoin:round;">
<circle cx="113.5800" cy="111.0600" r="1.5200" /> 
<circle cx="113.5800" cy="38.4600" r="1.5200" /> 
<circle cx="197.3600" cy="136.4700" r="1.5200" /> 
<circle cx="32.3300" cy="136.4700" r="1.5200" /> 
<circle cx="32.0700" cy="21.2600" r="1.5200" /> 
<circle cx="197.1000" cy="21.2600" r="1.5200" /> 
<path style="fill:#D0D2CD; fill-opacity:0.0; 
stroke:#D0D2CD; stroke-width:0.1000; stroke-opacity:1; 
stroke-linecap:round; stroke-linejoin:round;fill:none"
d="M 18.4900,6.2100
206.6800,6.2100
206.6800,140.4300
18.4900,140.4300
Z" /> 
<g >
</g>
<g >
</g>
<g >
</g>
<g >
</g>
<g >
</g>
<g >
</g>
<g >
</g>
<g >
</g>
<g >
</g>
<g >
</g>
<g >
</g>
<g >
</g>
<g >
</g>
<g >
</g>
<g >
</g>
<g >
</g>
<g >
</g>
<g >
</g>
<g >
</g>
<g >
</g>
<g >
</g>
<g >
</g>
<g >
</g>
<g >
</g>
<g >
</g>
<g >
</g>
<g >
</g>
<g >
</g>
<g >
</g>
<g >
</g>
<g >
</g>
<g >
</g>
<g >
</g>
<g >
</g>
<g >
</g>
<g >
</g>
<g >
</g>
</g> 
</svg>
